<?xml version="1.0" encoding="utf-8"?>
<!-- Generator: Adobe Illustrator 27.5.0, SVG Export Plug-In . SVG Version: 6.00 Build 0)  -->
<svg version="1.1" id="Layer_1" xmlns="http://www.w3.org/2000/svg" xmlns:xlink="http://www.w3.org/1999/xlink" x="0px" y="0px"
	 viewBox="0 0 113.4 93.2" style="enable-background:new 0 0 113.4 93.2;" xml:space="preserve">
<style type="text/css">
	.st0{opacity:0.2;}
	.st1{fill-rule:evenodd;clip-rule:evenodd;fill:#4D4C4E;}
	.st2{fill:#E3BD5E;}
	.st3{fill:#FAE979;}
	.st4{fill:#746757;}
</style>
<g>
	<g class="st0">
		<path class="st1" d="M78.3,88.1c-6.9,4.1-26.2,8.6-38,0.9c-9.6-6.3-18.1-14.9-13.7-17.4c4.4-2.6,40-28.8,41.1-29.3
			c0.7-0.6-1.9,0.7,2.6-1.8c4.4-2.6,29.2,9.7,37.1,14.3s7.9,12,0,16.5C105.5,72.4,85.2,84,78.3,88.1z"/>
	</g>
	<path class="st2" d="M98.1,62.8V28.4H58.9l-3.3-1.9c-3.6-2.1-9.5-2.1-13.1,0l-3.3,1.9H0v35.3l0,0c0,1.4,0.9,2.7,2.7,3.8l39.8,23
		c3.6,2.1,9.5,2.1,13.1,0l39.8-23C97.7,66.2,98.6,64.4,98.1,62.8z"/>
	<path class="st3" d="M55.7,1.6l39.8,23c3.6,2.1,3.6,5.5,0,7.6l-39.8,23c-3.6,2.1-9.5,2.1-13.1,0l-39.8-23c-3.6-2.1-3.6-5.5,0-7.6
		l39.8-23C46.2-0.5,52-0.5,55.7,1.6z"/>
	<path class="st4" d="M51.5,11.7l1.5,1c2.1,1.2,2.1,3.2,0,4.4L29.7,30.6c-2.1,1.2-5.5,1.2-7.7,0l-1.5-1c-2.1-1.2-2.1-3.2,0-4.4
		l23.3-13.4C45.9,10.5,49.3,10.5,51.5,11.7z"/>
</g>
</svg>
