<?xml version="1.0" encoding="utf-8"?>
<!-- Generator: Adobe Illustrator 27.5.0, SVG Export Plug-In . SVG Version: 6.00 Build 0)  -->
<svg version="1.1" id="Layer_1" xmlns="http://www.w3.org/2000/svg" xmlns:xlink="http://www.w3.org/1999/xlink" x="0px" y="0px"
	 viewBox="0 0 34.1 38.3" style="enable-background:new 0 0 34.1 38.3;" xml:space="preserve">
<style type="text/css">
	.st0{fill:#FAE979;}
	.st1{fill:#E3BD5E;}
</style>
<g>
	<path class="st0" d="M14.4,19L1.1,11.4C0.4,10.9,0,10.4,0,9.8c0-0.6,0.4-1.1,1.1-1.5l13.3-7.7C15.1,0.2,16.1,0,17,0
		c1,0,1.9,0.2,2.6,0.6L33,8.3c0.7,0.4,1.1,1,1.1,1.5c0,0.6-0.4,1.1-1.1,1.5L19.7,19C19,19.5,18,19.7,17,19.7
		C16.1,19.7,15.1,19.5,14.4,19z"/>
	<path class="st1" d="M33,11.4L19.7,19C19,19.5,18,19.7,17,19.7c-1,0-1.9-0.2-2.6-0.6L1.1,11.4C0.4,10.9,0,10.4,0,9.8v18.6
		C0,29,0.4,29.6,1.1,30l13.3,7.7c0.7,0.4,1.7,0.6,2.6,0.6c1,0,1.9-0.2,2.6-0.6L33,30c0.7-0.4,1.1-1,1.1-1.5V9.8
		C34.1,10.4,33.7,10.9,33,11.4z"/>
</g>
</svg>
