<?xml version="1.0" encoding="utf-8"?>
<!-- Generator: Adobe Illustrator 27.5.0, SVG Export Plug-In . SVG Version: 6.00 Build 0)  -->
<svg version="1.1" id="Layer_1" xmlns="http://www.w3.org/2000/svg" xmlns:xlink="http://www.w3.org/1999/xlink" x="0px" y="0px"
	 viewBox="0 0 328.5 243.6" style="enable-background:new 0 0 328.5 243.6;" xml:space="preserve">
<style type="text/css">
	.st0{fill-rule:evenodd;clip-rule:evenodd;fill:#EDD571;}
	.st1{fill:#A39C95;}
	.st2{fill:#E8E4E2;}
	.st3{fill:#B5AFA8;}
	.st4{opacity:0.5;}
	.st5{fill-rule:evenodd;clip-rule:evenodd;fill:#4C4C4E;}
	.st6{fill:#FDBB42;}
	.st7{fill:#F6871F;}
	.st8{fill:#673A19;}
	.st9{fill:#596871;}
	.st10{fill:#447939;}
	.st11{fill:#679E42;}
	.st12{fill:#F2AA83;}
	.st13{fill:#2E393C;}
	.st14{fill:url(#SVGID_1_);}
	.st15{fill:#D88F69;}
	.st16{opacity:0.15;fill:#D88F69;}
	.st17{fill:#FFD65D;}
	.st18{opacity:0.15;fill:#F2AA83;}
	.st19{fill:#644125;}
	.st20{fill:#83B941;}
	.st21{fill:#D9D2C7;}
	.st22{fill:#E6E1DD;}
	.st23{fill:#372C29;}
	.st24{opacity:0.5;fill:#4C4C4E;}
	.st25{fill:#CCC4B8;}
	.st26{fill:#4E4E4E;}
	.st27{fill:#F1E7DA;}
	.st28{fill:#333333;}
	.st29{fill:#E0D7CA;}
	.st30{fill:#DC9B9B;}
	.st31{fill:#E6DCCE;}
	.st32{fill:#E8AEAE;}
	.st33{fill:#DCB3B3;}
	.st34{fill:#B4B4B4;}
	.st35{fill:#EBE1D3;}
	.st36{fill:#CFC6BA;}
</style>
<path class="st0" d="M234.7,232.8c0,0-6.2,9.1-1.6,8.4c4.5-0.7,32.2-0.4,37.9-3.4c5.7-3,25.8-10.7,28-13.7
	c2.2-2.9,28.6-18.5,28.2-21.2s-2.6-5.3,0.5-11.6s-8.2-8.4-18.3-4.2c-10.1,4.2-45.6,22.9-38.1,27.2
	C278.8,218.7,237.9,226.3,234.7,232.8z"/>
<g>
	<g>
		<path class="st1" d="M55.8,7.6C25,25.3,0,68.7,0,104.2c0,2.9,0.2,5.7,0.5,9l115.2,66.5l29.6-78.5l65.6-30.6
			c0,0-105.1-60-114.5-66.1C86.2-2.2,71.8-1.6,55.8,7.6z"/>
		<path class="st2" d="M171,76.3c-29.7,17.2-53.9,58.9-53.9,93.3c0,3.2,0.2,6.1,0.6,8.9l106.5-61.5c0.4-3.3,0.6-6.5,0.6-9.6
			C224.9,73.1,200.8,59.1,171,76.3z"/>
		<path class="st1" d="M171,74.1c-30.7,17.8-55.8,61.1-55.8,96.6c0,2.9,0.2,5.7,0.5,9l3.8-2.2c-0.3-3.4-0.5-6.1-0.5-9
			c0-33.1,23.3-73.5,52-90c28.7-16.5,52-3.1,52,30c0,2.9-0.2,5.8-0.5,9.6l3.8-2.2c0.3-3.7,0.5-6.6,0.5-9.6
			C226.8,70.8,201.8,56.4,171,74.1z"/>
		<g>
			<polygon class="st3" points="147.1,161.6 194.9,134 194.9,90.9 147.1,118.5 			"/>
		</g>
		<g>
			<polygon class="st1" points="194.9,134 194.9,90.9 157.5,112.5 			"/>
		</g>
	</g>
</g>
<g>
	<g class="st4">
		<path class="st5" d="M39.2,200.1c4.2,2.5,25.5,3.7,31.4,0c6-3.7,2.7-8.5,0-10.1c-2.7-1.6-24.3-17.5-25-17.8
			c-0.4-0.4,1.1,0.5-1.6-1.1c-2.7-1.6-17.8,5.9-22.6,8.7s-4.8,7.3,0,10.1C22.6,190.5,34.9,197.6,39.2,200.1z"/>
	</g>
	<g>
		<path class="st6" d="M47.6,92.7c0,0,4.2,0.9,6.6,5.3c1.6,3,1.9,6.2,2.1,7c0.2,0.8,3.5,8.7,3.5,8.7l5.8,2.5v4.9c0,0-8.9-1.3-10-1.9
			c-1.1-0.6-3.9-7.7-3.9-7.7L47.6,92.7z"/>
		<path class="st7" d="M51.8,111.6l-3.1-14.1l0.8-0.4c0,0,2,0.3,2.8,3c0.8,2.7,2.3,5.9,2.2,8.3c-0.2,2.3,0.1,4.4,1.1,4.9
			c1.1,0.5,3.3-0.6,3.1,0.4c-0.2,1-0.7,1.6-0.7,2.2c0,0.4,4.2,1.1,7.6,2.3v3.1c0,0-8.9-1.3-10-1.9C54.6,118.6,51.8,111.6,51.8,111.6
			z"/>
		<path class="st8" d="M38.2,190.9c0,0,0.8,2.1,1.9,3.6c1.1,1.5,4.9,6.5,2.4,7.7c-2.5,1.2-6.9-1.1-8.3-2.8c-1.4-1.7-2.1-5.6-2.5-6.4
			c-0.4-0.8-0.7-2.4,0-3.3C32.5,188.7,38.2,190.9,38.2,190.9z"/>
		<path class="st9" d="M31.3,190.5c-0.2,0.9,0.1,1.9,0.4,2.5c0.4,0.8,1.1,4.7,2.5,6.4c1.4,1.7,5.8,4,8.3,2.8
			c0.3-0.1,0.5-0.3,0.6-0.6c-0.1,0.5-0.3,0.9-0.8,1.1c-2.5,1.2-6.9-1.1-8.3-2.8c-1.4-1.7-2.1-5.6-2.5-6.4
			C31.2,192.8,30.9,191.4,31.3,190.5z"/>
		<path class="st8" d="M54.2,181.6c0,0,2.1,1.1,3.7,1.8c1.6,0.7,5.6,3.3,4.6,4.6c-0.9,1.3-4.8,1-6.4,0.4c-1.5-0.6-3.5-2.6-6.5-2.9
			c-2.9-0.2-4.9-1.1-4.9-1.6c-0.1-0.8,0.2-3.4,0.2-3.4L54.2,181.6z"/>
		<path class="st9" d="M44.7,183.9c0.1,0.4,2,1.3,4.9,1.6c2.9,0.2,5,2.3,6.5,2.9c1.5,0.6,5.4,0.9,6.4-0.4c0.1-0.1,0.1-0.1,0.1-0.2
			c0.1,0.2,0,0.5-0.1,0.7c-0.9,1.3-4.8,1-6.4,0.4c-1.5-0.6-3.5-2.6-6.5-2.9c-2.9-0.2-4.9-1.1-4.9-1.6c0-0.2,0-0.4,0-0.7
			C44.7,183.7,44.7,183.8,44.7,183.9z"/>
		<path class="st10" d="M55.1,181.7c0,0-5.4,2.3-10.3,0c0,0,0.1-4.3-0.2-6.9c-0.3-2.5-1.5-8.6-1.1-11.7c0.4-3.1,0.4-10.9,0.4-10.9
			l1.3-21.8L54,129c0,0,2.1,7.7,0.8,15.7c-1.2,8-2.1,13.6-2.3,16c-0.2,2.3,0.7,11.9,0.9,14.5C53.7,177.8,55.1,181.7,55.1,181.7z"/>
		<path class="st11" d="M46.8,135.2c0,0-1.3,16.3-2.7,21.6c-1.3,5.3-3.8,11.1-4.8,14.2c-1,3.2-0.7,13.6-0.6,15c0,1.5-0.2,6.7-2,7
			c-5.1,1-6.8-4.6-6.8-4.6s-0.3-7.8-0.6-14.4c-0.3-6.7,3.2-11.6,3.4-12.7c0.2-1.1-0.7-13-0.7-18.5c0-5.5,0-7.6,0-7.6
			c0-1.3,1.3-3.5,1.3-3.5l13.5-0.4V135.2z"/>
		<path class="st6" d="M44.9,98c1.9-0.5,3.1-3.7,3.1-3.7s4.1,14.4,3.3,16.5c-0.8,2.1-12.7,9.1-12.7,9.1l-6.1,1.2L29,108.8
			c0,0-1.9-5.9-0.5-7.5c1.4-1.5,5.9-6.3,5.9-6.3S41.2,99,44.9,98z"/>
		<path class="st7" d="M30.8,103.7c0,0,1.6,3.6,2.6,4.3c1,0.8,1.6,0.9,2.5,2.2c0.8,1.4,2.7,6.9,2,8.9c-0.7,2-6.7,3-6.7,3L30.8,103.7
			z"/>
		<path class="st11" d="M31.8,119.9l1.5,0.1c7.5-0.1,3.4-15.9,2.4-18.5c-0.9-2.5-3.9-3.9-3.9-3.9l1.6-1.4c0,0,2.4,0.2,4.6,4.2
			c2.2,3.9,2.5,10.8,2.5,10.8s6.9-0.7,10.1-3.5c0,0,0.7-9.8-4.6-14.1l1.6-0.9c0,0,6.7,8.2,5.7,18.8c0,0-0.3,2.6-0.2,5
			c0.2,3.8,0,9.9,0.2,11c0.2,1.1,2.1,3.2,0.7,3.9c-1.4,0.7-7.4,2.3-14.4,2.4c-7,0-7.2-0.7-7-2.4C32.9,129.6,33.5,122.9,31.8,119.9z"
			/>
		<path class="st10" d="M33.3,120c2.4,0,3.6-1.7,4.2-4c0.3,1.5,0.5,3.3,0.3,4.3c-0.5,1.9-0.1,3.7,0.4,4.1c0.5,0.4,10.6,3.1,10.6,3.1
			l1.5,5c-2.7,0.6-6.4,1.2-10.5,1.2c-7,0-7.2-0.7-7-2.4c0.3-1.7,0.8-8.4-0.9-11.4L33.3,120z"/>
		<path class="st12" d="M48.8,128.6l-0.5-1.9c0,0,0.8-1.4,1.2-1.5c0.4-0.1,3.2-0.5,3.9-0.8c0.7-0.3,0.8,0.1,0.7,0.7
			c-0.1,0.6-1,1-2,1.3c-0.9,0.3-1.3,0.7-1.1,1.5C51.1,128.8,48.8,128.6,48.8,128.6z"/>
		<g>
			<path class="st13" d="M50.1,135c-0.1,0.3,0.1,0.4,0.4,0.3l15.5-9c0.3-0.2,0.6-0.6,0.7-0.9l3.4-12.3c0.1-0.3-0.1-0.4-0.4-0.3
				l-15.5,9c-0.3,0.2-0.6,0.6-0.7,0.9L50.1,135z"/>
			
				<linearGradient id="SVGID_1_" gradientUnits="userSpaceOnUse" x1="425.7566" y1="123.4733" x2="426.4831" y2="124.3035" gradientTransform="matrix(-1 0 0 1 481.8682 0)">
				<stop  offset="0" style="stop-color:#E9E8E9"/>
				<stop  offset="1" style="stop-color:#B7B7B8"/>
			</linearGradient>
			<path class="st14" d="M49.6,134.4l3.4-12.3c0.1-0.3,0.4-0.7,0.7-0.9l15.5-9c0.1-0.1,0.3-0.1,0.3,0l0.5,0.6v0
				c-0.1-0.1-0.2,0-0.3,0l-15.5,9c-0.3,0.2-0.6,0.6-0.7,0.9L50.1,135c0,0.1,0,0.2,0,0.3l0,0l-0.5-0.6
				C49.6,134.7,49.5,134.6,49.6,134.4z"/>
		</g>
		<path class="st12" d="M66.7,126.5c-0.3,0.1-2.3,0.4-2.9-0.2c-0.6-0.5-0.3-1.8-0.1-2.4c0.2-0.6-0.3-1,0.9-1.3
			c1.2-0.3,3.2-1.1,3.2-1.1l1-3.8c0,0,1.3,2,1.4,2.7c0.1,0.7-0.2,1.1-0.2,1.8c0,0.7-0.9,1.9-1.1,2.4
			C68.6,125.1,67.1,126.4,66.7,126.5z"/>
		<path class="st15" d="M63.7,123.9c0,0,0-0.1,0-0.1c0.3,0,0.7,0,1.1-0.1c0.9-0.1,2.3,0.1,3.1-0.6c0.8-0.6,1.6-2,2.2-2.9
			c0,0,0,0.1,0,0.1c0.1,0.7-0.2,1.1-0.2,1.8c0,0.7-0.9,1.9-1.1,2.4c-0.2,0.5-1.8,1.8-2.2,1.9c-0.3,0.1-2.3,0.4-2.9-0.2
			C63.2,125.8,63.5,124.6,63.7,123.9z"/>
		<path class="st12" d="M50.9,128c0,0,1.2,0.4,1.6,0.6c0.4,0.1,2.5,0,2.8,0c0.3,0,2.3-1.4,3-1.3c0.6,0.1,0.4,1.2,0.3,1.6
			c-0.1,0.4-0.1,1.2-0.4,2c-0.3,0.7-1,1.6-1.8,2.1c-0.8,0.6-1,0.7-1.7,0.8c-0.8,0.1-3.4-0.5-3.8-0.5c-0.4-0.1-2.7-0.8-3.7-0.7
			c-1,0.1-2.2,0.2-2.2,0.2l0.2-4.2l1.8-0.1l1.1-1.5L50.9,128z"/>
		<path class="st15" d="M47.3,132.4c-1,0.1-2.2,0.2-2.2,0.2l0-0.8c0.9,0,2.8-0.1,3.6,0c1,0.2,3.2,1,3.7,1c0.5-0.1,1.1-0.7,1.2-1.1
			c0-0.3,1.4-1,1.9-1.5c0.3-0.4,2.2-1.4,3.2-2.3c0,0.3-0.1,0.7-0.1,0.9c-0.1,0.4-0.1,1.2-0.4,2c-0.3,0.7-1,1.6-1.8,2.1
			c-0.8,0.6-1,0.7-1.7,0.8c-0.8,0.1-3.4-0.5-3.8-0.5C50.5,133.1,48.2,132.4,47.3,132.4z"/>
		<path class="st6" d="M47.2,127.9c0,0-3.9-0.7-6.6-1.2c-2.7-0.5-6.2-1.8-6.2-1.8s0.4-6,0.6-9.1c0.2-3-0.1-13.6-3.2-14.2
			c-3.1-0.6-3.5-1.4-4.9,3.7c-1.3,4.6,0.1,14.5,0.5,18.4c0.4,3.9,0.5,7.8,4,8.1c3.5,0.4,15.8,0.5,15.8,0.5V127.9z"/>
		<g>
			<g>
				<path class="st15" d="M36.2,89.7c0,0,0.3,2.6-0.3,4.1c-0.7,1.4,1.8,2.9,4.9,4.2c3.1,1.3,3.7,0.6,4.2,0c1-1.2,0.8-4.7,0.8-4.7
					L36.2,89.7z"/>
				<path class="st16" d="M46.2,96.5c-0.3-1.6-0.6-3.2-0.6-3.2l-9.5-3.6c0,0,0.3,2.6-0.3,4.1c-0.3,0.5-0.1,1.5,0.4,2.5l1.5,1.3
					c0,0-0.1-3.4,1.7-2.7C41,95.4,43.7,96.6,46.2,96.5z"/>
			</g>
			<path class="st17" d="M44.9,98l3.1,3.1c0,0-0.3-5.5-0.6-8l-1.6-0.8C45.8,92.4,45.3,96.8,44.9,98z"/>
			<path class="st12" d="M37.2,78.2c2.1-1.4,5.5-1.3,7.9,0.3c2.4,1.6,3,3.6,3.2,4.4c0.2,0.9,0.5,1.6,0.7,2.3
				c0.2,0.7-0.5,1.5-0.5,1.5c0.7,0.9,0.2,3.2,0,3.7c0.1,0.2,0.1,0.4,0.1,0.5c0,0.3-0.2,0.5-0.4,0.6c-0.2,0.7-0.3,1.6-0.3,1.9
				c0,0.5,0.1,2.3-2,2.4c-2.1,0-5.1-1.2-7.1-2.7c-1.9-1.5-3.9-4.6-4.5-7.7C33.8,82.3,35,79.6,37.2,78.2z"/>
			<path class="st15" d="M49,85.3c-0.2-0.7-0.5-1.4-0.7-2.3c0,0,0,0,0-0.1c-1.6,0.2-5.5,0.9-9.5,3c-0.1,0-0.1,0.1-0.2,0.1
				c0.4,0.5,2.6,2.2,4.8,2.6c1.7,0.3,2.3-0.9,5.1-1.9C48.7,86.5,49.2,85.8,49,85.3z"/>
			<path class="st15" d="M48.5,90.5C48.5,90.5,48.5,90.5,48.5,90.5c-0.3-0.7-1-1.8-1.2-2.5c-0.3-0.9,1.6-1.9,1.6-1.9l0,0
				c-0.2,0.4-0.4,0.7-0.4,0.7C49.3,87.7,48.7,89.9,48.5,90.5z"/>
			<path class="st18" d="M37.2,78.2c2.1-1.4,5.5-1.3,7.9,0.3c1.9,1.3,2.7,2.8,3,3.8c-0.3,0.7-0.8,1.3-1.4,1.4
				c-2.1,0.4-4.1-0.2-5.1,0.1c-0.8,0.2-1.2,1.8-1.3,3.1c-0.1,1.4-0.9,1.8-0.7,3.4c0.2,1.3,2.1,3.3,2.6,4.7c-1.3-0.5-2.5-1.2-3.4-2
				c-1.9-1.5-3.9-4.6-4.5-7.7C33.8,82.3,35,79.6,37.2,78.2z"/>
			<path class="st19" d="M39.5,87.2c-0.2,0.6-0.5,1.4-0.9,1.6c-0.2,0.1-0.7-0.3-0.8-0.4c-0.3-0.3-2.3-2.6-2.4,0.2
				c-0.5-1-0.9-2.1-1.1-3.2c-0.1-0.5-0.1-0.9-0.1-1.4c1.9,1,4.2,1.3,5.4,1.4C39.5,86.2,39.7,86.9,39.5,87.2z"/>
			<path class="st15" d="M47,95.6c-0.2-2.6,0.3-3.9,0.3-3.9c0-0.1,0.5,0,0.9-0.1c0,0,0,0,0,0c-0.2,0.7-0.3,1.6-0.3,1.9
				C47.9,93.9,48,95,47,95.6z"/>
			<path class="st12" d="M38,91c-0.3,0.2-0.9,0.4-2-0.8c-1.2-1.2-1.1-2.4-0.6-2.8c0.6-0.4,1.1-0.2,1.4,0.3C37.1,88.1,38,91,38,91z"
				/>
			<path class="st18" d="M38,91c-0.3,0.2-0.9,0.4-2-0.8c-1.2-1.2-1.1-2.4-0.6-2.8c0.6-0.4,1.1-0.2,1.4,0.3C37.1,88.1,38,91,38,91z"
				/>
			<path class="st11" d="M34.9,87.7c0,0,2.3-1.6,3.9-2.5c5.2-2.8,10.3-3.1,10.3-3.1s-1.8-4-3.1-5.5c-1.2-1.4-4.7-2.1-8.1-0.2
				c-4.3,2.5-4.2,4.9-4.2,6.9C33.7,84.7,34.1,85.8,34.9,87.7z"/>
			<path class="st20" d="M49.1,82.2c0,0-5.1,0.3-10.3,3.1c-0.1,0-0.1,0.1-0.2,0.1c0.4,0.5,2.6,2.2,4.8,2.6c1.8,0.3,2.3-1,5.5-2.1
				c2.6-0.8,4.4-0.4,4.4-0.4s-1-1.1-2.1-2C50.1,82.7,49.1,82.2,49.1,82.2z"/>
			<path class="st17" d="M36.1,92.4c0,0,3.1,4.4,8.8,5.6l-0.8,4.9c0,0-8.1-5.7-9.6-7.8L36.1,92.4z"/>
		</g>
	</g>
</g>
<g>
	<g>
		<g>
			<g>
				<polygon class="st21" points="279,151.6 281.2,150.3 281.2,116.1 279,117.3 				"/>
				<g>
					<polygon class="st1" points="279.3,139 325.9,165.9 325.9,166.6 279.3,139.7 					"/>
					
						<rect x="302.4" y="125.2" transform="matrix(0.4996 -0.8663 0.8663 0.4996 19.8332 338.4277)" class="st3" width="0.9" height="53.8"/>
					<polygon class="st22" points="280.4,137.9 327,164.7 326.4,165.1 279.8,138.2 					"/>
					<polygon class="st23" points="327.4,165.7 327.4,165 327,164.7 326.4,165.1 325.9,165.9 325.9,166.6 326.4,166.8 327,166.5 
											"/>
				</g>
				<polygon class="st22" points="324.4,142 326.7,140.7 281.9,114.9 279.7,116.2 				"/>
				<polygon class="st22" points="324,178.9 325,178.8 326.2,177.6 282.4,152.4 280.1,153.6 				"/>
				<path class="st1" d="M277.9,151.5v-34.3l1.8-1l44.7,25.8l1.8,3.1v34.3l-1.8,1l-44.7-25.8L277.9,151.5z M325.2,178.2V145l-1.2-2
					l-43.8-25.3l-1.2,0.7v33.2l1.2,2l43.8,25.3L325.2,178.2z"/>
				
					<rect x="325.2" y="141.1" transform="matrix(0.8659 -0.5002 0.5002 0.8659 -27.7087 182.4424)" class="st21" width="2.6" height="3.6"/>
				
					<rect x="279.4" y="150.8" transform="matrix(0.8661 -0.4998 0.4998 0.8661 -38.3937 160.6323)" class="st3" width="2.6" height="2.3"/>
				<polygon class="st3" points="326.2,179.4 328.5,178.1 328.5,143.8 326.2,145.1 				"/>
			</g>
		</g>
		<g>
			<g>
				<polygon class="st21" points="227.2,121.5 229.4,120.3 229.4,86 227.2,87.2 				"/>
				<g>
					<polygon class="st1" points="227.6,108.9 274.1,135.8 274.1,136.5 227.6,109.6 					"/>
					
						<rect x="250.6" y="95.1" transform="matrix(0.4996 -0.8663 0.8663 0.4996 19.9957 278.5222)" class="st3" width="0.9" height="53.8"/>
					<polygon class="st22" points="228.6,107.8 275.2,134.7 274.6,135 228,108.1 					"/>
					<polygon class="st23" points="275.6,135.6 275.6,134.9 275.2,134.7 274.6,135 274.1,135.8 274.1,136.5 274.6,136.7 
						275.2,136.4 					"/>
				</g>
				<polygon class="st22" points="272.7,111.9 274.9,110.6 230.1,84.8 227.9,86.1 				"/>
				<polygon class="st22" points="272.2,148.8 273.2,148.7 274.4,147.5 230.6,122.3 228.4,123.5 				"/>
				<path class="st1" d="M226.1,121.4V87.1l1.8-1l44.7,25.8l1.8,3.1v34.3l-1.8,1l-44.7-25.8L226.1,121.4z M273.4,148.1v-33.2l-1.2-2
					l-43.8-25.3l-1.2,0.7v33.2l1.2,2l43.8,25.3L273.4,148.1z"/>
				
					<rect x="273.4" y="111" transform="matrix(0.866 -0.5001 0.5001 0.866 -19.6043 152.473)" class="st21" width="2.6" height="3.6"/>
				
					<rect x="227.6" y="120.7" transform="matrix(0.8665 -0.4992 0.4992 0.8665 -30.2907 130.5525)" class="st3" width="2.6" height="2.3"/>
				<polygon class="st3" points="274.5,149.3 276.7,148 276.7,113.7 274.5,115 				"/>
			</g>
		</g>
	</g>
	<g>
		<path class="st24" d="M246.2,177.6l21.3-2c0,0,8.1,8.9,13.4,8.9s4.2,0.9,5.2-2.8c1.8-7.2-1.4-5.9-1.6-10.1
			c-0.2-4.2,3.5-17.2-1.5-19.4s-23.2-11.3-23.2-11.3l-37.9-7.5c0,0-5,6.3-6,10.7c-0.9,4.4,6.9,9.1,6.9,9.1h-16.9l1.6,3.4h24.5
			c0,0,9.4,8.5,16.9,11.6c7.5,3.1,10.8,4.3,10.8,4.3l-14.2,0L246.2,177.6z"/>
		<g>
			<path class="st25" d="M285.5,156.8c0,0,3.7-0.9,4.8-4c-2.5-0.9-5.3,0.2-5.3,0.2L285.5,156.8z"/>
			<path class="st26" d="M285.2,150.5c0,0,2.4-0.7,3.4-3.1c0.8,0.9-0.4,5.8-1.5,6.8C286.1,155.2,285.2,150.5,285.2,150.5z"/>
			<g>
				<path class="st27" d="M206,99.4c0,0-6.3-0.3-7.4,2.8c-1.1,3.1-1.2,20.1-1.2,20.1l-0.6,7.1c0,0,0.3,1.8-0.3,2.7
					c-0.6,0.9-0.6,3.3-0.6,3.3s2.6-2.9,3.2-6.4c0.6-3.5,0.5-16.2,0.8-18.4c0.3-2.2,1.1-7.4,3.4-8C205.4,102,206,99.4,206,99.4z"/>
				<path class="st28" d="M203,151v2.5c0,0,0.3,2.9,2.6,3.3c2.3,0.4,3.2,0.1,3.2,0.1l-0.6-1.7c0,0,1.3,0.8,1.9,0.6
					c0.6-0.2-1.5-2.7-2.5-5C206.8,148.8,203,151,203,151z"/>
				<path class="st28" d="M215.3,142.9l-0.1,2.5c0,0,0.3,2.9,2.6,3.3c2.3,0.5,3.2,0.2,3.2,0.2l-0.5-1.6c0,0,1.2,1,1.8,0.5
					c0.6-0.5-1.5-2.8-2.4-5.1C219.1,140.8,215.3,142.9,215.3,142.9z"/>
				<path class="st28" d="M242.5,172.5v2.5c0,0,0.3,2.8,2.6,3.3c2.3,0.4,3.2,0.1,3.2,0.1l-0.5-1.5c0,0,1.6,0.8,1.8,0.4
					c0.3-1-1.5-2.7-2.5-5C246.3,170.3,242.5,172.5,242.5,172.5z"/>
				<path class="st28" d="M263.5,163.7v2.5c0,0,0.3,2.8,2.6,3.3c2.3,0.4,3.2,0.1,3.2,0.1l-0.4-1.8c0,0,1.6,1.9,1.7,0.7
					c0.1-1.2-1.5-2.7-2.5-5C267.2,161.5,263.5,163.7,263.5,163.7z"/>
				<path class="st29" d="M257.4,132.7c0,0,3.3,14,4.1,16.1c0.8,2.1,1.2,4.3,1.2,4.3l1.1,10.9c0,0,4.8,1.3,4.3-0.5
					c-0.5-2.3-1.4-8.8-1.4-8.8s1.4-1.6,2.4-5.7c1-4.1,0.5-6.7,1.2-12.1C271,131.7,258,127.1,257.4,132.7z"/>
				<path class="st29" d="M231.7,116.4c0,0-7.5,9-10.7,10.4c-3.2,1.4-3.7,3.4-3.7,3.4s2.8,11.9,2.7,12.8c-0.1,0.9-1.4,1.5-3.2,0.9
					c-1.9-0.6-1.6-1.5-1.6-1.5s-0.6-9.1-1.8-11.1c-1.2-2-2.5-1.9-2.7-4.1c-0.2-2.2,2.3-3.6,2.1-6.3c-0.2-2.7-3.9-17.4-2.6-21.4
					c1.3-4,8.2-3.9,9.8-2.5C221.6,98.3,233.7,112.9,231.7,116.4z"/>
				<path class="st30" d="M221.4,138c0,0-6.3,5.7-10.5,2.3c-4.2-3.4-3.8-5.1-3.8-5.1l3.8-4.2C210.9,131,220.8,132.4,221.4,138z"/>
				<path class="st27" d="M283.2,152.5c0,0-9-16.2-14.7-26.3c-4.4-7.9-18.6-12.1-20.5-12.9c-3.7-1.5-20.7-10.3-23.6-12.4
					c-2.8-2.1-13.1-4.8-16.2-2.6c-1.5,1.1-6.2,2.8-7.2,4.1c-1,1.3-1.6,2.4-1.6,2.4s3,20.4,3.4,22.2c0.4,1.8,9.3,6.4,12.7,9.2
					c3.4,2.8,13.5,15.7,18.2,16.8c4.6,1,17.1,5.9,20.1,6c3,0.1,5.7-1.2,9.5-0.9c4.7,0.4,7.6,3.2,7.6,3.2L283.2,152.5z"/>
				<path class="st31" d="M204.4,128.6l4.9-6.7c0,0,3.6,3.5,8.4,7.6c4.8,4.1,2.6,8.5,8.1,15.3c3.4,4.2,16.8,8.8,27.8,11.6
					c4.7,1.2,9.9,1.1,12.1,2.1c-7.3-1.4-10.3,1.9-15.2-0.3c-4.9-2.2-15.3-4.4-17.2-5.4c-1.9-1-7.8-4.8-11.4-10.2
					C218.4,137.2,206.6,130.1,204.4,128.6z"/>
				<path class="st27" d="M218.8,124c0,0-7.3,9.2-10.5,10.6c-3.2,1.4-2.5,6.2-2.5,6.2s2,9.1,1.9,10c-0.1,0.9-1.8,1.5-3.6,1
					c-1.9-0.5-1.3-0.9-1.3-0.9s-0.8-9.8-2-11.7c-1.2-1.9-2.5-1.9-2.7-4.1c-0.2-2.2,2.2-3.6,2-6.4c-0.2-2.7-4.3-17.3-3.1-21.4
					c1.2-4.1,8.1-4.1,9.7-2.7C208.3,106,220.7,120.5,218.8,124z"/>
				<path class="st30" d="M212.9,139.6c0,0-1.5,4.6,0,4.8c1.5,0.2,2.3-4.9,2.3-4.9L212.9,139.6z"/>
				<path class="st30" d="M208.7,137.6c0,0,0,4.1,0.5,4.1c0.5,0,1.6-3,1.6-3L208.7,137.6z"/>
				<path class="st25" d="M253.7,146.4c0,0-1.2,6.5-1.4,8.6c-0.2,1.8-1.8,3.2-1.8,3.2L253.7,146.4z"/>
				<path class="st31" d="M240.3,141.2c0,0,1.8,12.1,0.8,11.8c-0.5-0.1,1.3,0.4,1.3,0.4L240.3,141.2z"/>
				<path class="st27" d="M240.3,141.2c0,0,2.3,13.8,2.7,16c0.5,2.2,0.2,5.7,0.2,5.7l-0.4,9.7c0,0,3.6,1.5,4.3-0.3
					c0.6-1.8,0.1-8.5,0.1-8.5s1.7-1.3,3.3-5.3c1.6-3.9,1.6-6.6,3.1-11.7C255.1,141.7,241.8,135.7,240.3,141.2z"/>
				<path class="st25" d="M215.9,127.7c0,0-2.1,2.6-2.9,3.1c-0.8,0.5-1.7,1.6-1.7,1.6S214.5,130.9,215.9,127.7z"/>
				<path class="st31" d="M206.5,104.6c0,0-3.4-1.4-7.1,0.2c0.7-1.2,1-1.6,1-1.6S203.8,102.9,206.5,104.6z"/>
				<path class="st31" d="M198.5,133c0,0,2.4-2.8,2.5-4.4c0.2-1.6-1.9-6.2-2.5-7.6c-0.7-1.3,0.7,3.5,0.9,4.6
					C199.7,126.8,200.7,130.5,198.5,133z"/>
				<path class="st31" d="M206.2,142.5c0,0-0.9-3.6-1.5-4.4c-0.6-0.8,2.3-2.7,3.6-3.5c1.3-0.8-1.9,1.7-2.2,2.9
					C205.8,138.7,205.9,141.5,206.2,142.5z"/>
				<path class="st32" d="M208.5,136.9c0,0,0.7,0.7,0.7,1.2c0,0.5,0,2.1,0,2.1s0,0.7,0.4-0.1c0.4-0.8,1-0.9,1-0.9s1.6,1.1,2.4,1.2
					c-0.2,0.7-0.6,2-0.4,2.4c0.1,0.4,0.2,1.3,0.7,0.4c0.5-0.9,1-2.5,1-2.5s2.1-1,2.2-1.4c0-0.4-1.9-0.3-3.4-0.6
					C211.8,138.2,208.7,136.3,208.5,136.9z"/>
				<path class="st31" d="M246.3,112c-6.1-3-21.9-11.1-21.9-11.1s19,12.3,21.7,13.3c8.1,3.1,10,2.6,10,2.6S252.4,115,246.3,112z"/>
			</g>
			<path class="st27" d="M280.6,176.1c-2.4-1.9-2.2-2.3-6.3-4.7c-3.2-1.8-5.2-5.8-5.3-9.5c-0.2-7.2,4.5-9.9,4.5-9.9s5.9-6.4,6.7-4.9
				c0.8,1.5,1.8,1.2,3,1.6c1.2,0.4,3.7,2.7,4.6,5.7c0.5,1.6,0.2,6.9,0.6,11c0.3,2.9,0.6,5,1.1,6.8
				C290.9,177.1,284.9,179.5,280.6,176.1z"/>
			<path class="st31" d="M284.5,175.3c0,0-3-5.4-4.3-7.2c-1.4-1.7-1.8-1.6-2-2.2c0,0,0.9,7-3.5,5.7c0,0,3.4,2.1,4.8,3.4
				C282.5,178,285.4,176.8,284.5,175.3z"/>
			<path class="st33" d="M289.5,172.3c0,0-0.3,4.7-3.8,3.6c-3.3-1-5.1,0.2-5.1,0.2s1.3,1,2.2,2c0.5,0.6,1.7,1.4,3.3,1.2
				C288.1,179,291.6,178,289.5,172.3z"/>
			<path class="st31" d="M284,149.4c0,0-2.7-0.1-4,0.5c-1.2,0.6-5.1,1.6-4.1,0.8c0.2-0.2,4.1-3.6,3.7-4.5c0.8,1.5,0.9,1.7,1.6,2
				C282,148.6,283.1,148.4,284,149.4z"/>
			<path class="st26" d="M275.2,155.7c0,0-3.9-0.3-5.8-1.8c-2-1.5,0.8,4.4,3,5.2C273.7,159.7,276.1,158.9,275.2,155.7z"/>
			<path class="st26" d="M279,164.6c0,0.6,0.6,1.1,1.3,1.1c0.7,0,1.3-0.5,1.3-1.1c0-0.6-0.6-1.1-1.3-1.2
				C279.6,163.4,279,163.9,279,164.6z"/>
			<path class="st31" d="M288.1,157.1c0,0,0.1,8.3,0.7,11.7C289.4,172.1,286.3,165.1,288.1,157.1z"/>
			<path class="st34" d="M279.3,164.2c0,0.2,0.2,0.4,0.5,0.4c0.3,0,0.5-0.2,0.5-0.4c0-0.2-0.2-0.4-0.5-0.4
				C279.5,163.8,279.3,164,279.3,164.2z"/>
			<path class="st26" d="M287,161.6c0.2,0.6,0.7,0.8,1.1,0.6c0.4-0.2,0.7-0.6,0.5-1.2c-0.2-0.6-0.5-0.7-1-0.6
				C287.2,160.7,286.8,161.1,287,161.6z"/>
			<path class="st34" d="M287.1,161.1c0,0.2,0.1,0.3,0.3,0.3c0.2,0,0.3-0.1,0.3-0.3c0-0.2-0.1-0.3-0.3-0.3
				C287.3,160.8,287.1,160.9,287.1,161.1z"/>
			<path class="st31" d="M271.6,160.4c0,0-0.4,0.6-1.3,0.8c-1.5,0.4-2.3-0.1-3.8,2.2c1.3,1.7,2.3,1.5,3.8,0.5c0,0,1.2-1.6,1.7-1.6
				C272.8,162.2,272.5,160.2,271.6,160.4z"/>
			<path class="st25" d="M271.7,162c0,0-2.4,0.6-2.8,1c-0.4,0.4-1.4,1.1-1.4,1.1s0.3,0.6,1.3,0.3C270,164,271.2,163.1,271.7,162z"/>
		</g>
		<path class="st26" d="M276.8,145.3c0,0-3.9-3.9-5.8-7.4c-1.9-3.5-1.9-6.4-4.9-8.5c-3-2-7.2-3-8.9-2.8c-1.7,0.2-9.1,3.1-10.2,4.7
			s-2.4,6-2,7.7c0.3,1.7,7.2,5.6,7.2,5.6s2.2,3,7.2,3C264.4,147.7,278.7,152.1,276.8,145.3z"/>
		<path class="st26" d="M238.3,132c0,0,0-6.1-3.3-7.4c-3.3-1.3-7.7-0.5-7.7-0.5l-6.7,4.7c0,0-1.6,2,0.8,5.5c2.4,3.4,4.1,6,6.6,6
			C230.5,140.3,240.5,139.1,238.3,132z"/>
		<path class="st26" d="M224.7,102.8c-0.9-0.3-6.1-4.7-8.6-1.3c-2.5,3.5-3.6,5-3.9,6.1c-0.3,1.1-2.8,7.7,0.8,8.2
			c3.6,0.5,10.5,0.2,10.5,0.2s2.5-4.4,5.3-6C231.6,108.5,227.8,103.8,224.7,102.8z"/>
		<path class="st26" d="M211.4,118.2c0,0-2.8-0.6-3.6,2.4c-0.8,3-3,4.2,0.3,4.2s5-0.8,5.5-2.2S211.4,118.2,211.4,118.2z"/>
	</g>
	<g>
		<g>
			<g>
				<polygon class="st21" points="325.7,181.5 323.4,180.3 323.4,146 325.7,147.3 				"/>
				<g>
					<polygon class="st1" points="325.3,168.9 278.7,195.8 278.7,196.5 325.3,169.6 					"/>
					
						<rect x="274.9" y="181.5" transform="matrix(0.8663 -0.4996 0.4996 0.8663 -50.5486 175.1096)" class="st3" width="53.8" height="0.9"/>
					<polygon class="st22" points="324.2,167.8 277.7,194.7 278.3,195 324.9,168.2 					"/>
					<polygon class="st23" points="277.2,195.6 277.2,194.9 277.7,194.7 278.3,195 278.7,195.8 278.7,196.5 278.3,196.7 
						277.7,196.4 					"/>
				</g>
				<polygon class="st22" points="280.2,171.9 278,170.6 322.7,144.8 324.9,146.1 				"/>
				<polygon class="st22" points="280.6,208.8 279.7,208.7 278.4,207.6 322.3,182.3 324.5,183.6 				"/>
				<path class="st1" d="M324.9,184.6l-44.7,25.8l-1.8-1V175l1.8-3.1l44.7-25.8l1.8,1v34.3L324.9,184.6z M280.6,208.8l43.8-25.3
					l1.2-2v-33.2l-1.2-0.7l-43.8,25.3l-1.2,2v33.2L280.6,208.8z"/>
				
					<rect x="276.4" y="171.5" transform="matrix(0.5002 -0.8659 0.8659 0.5002 -10.6095 327.2716)" class="st21" width="3.6" height="2.6"/>
				
					<rect x="322.8" y="180.6" transform="matrix(0.4998 -0.8661 0.8661 0.4998 4.4821 371.5827)" class="st3" width="2.3" height="2.6"/>
				<polygon class="st3" points="278.4,209.3 276.2,208 276.2,173.7 278.4,175 				"/>
			</g>
		</g>
	</g>
</g>
<g>
	<g>
		<g>
			<path class="st24" d="M196,194.4l19.6-0.5c0,0,9.3,6.2,21,10.5c11.6,4.3,9.8,5.5,9.8,5.5l-13.9-0.5l4.3,3h17.6
				c0,0,16.2-5.2,13.9-14.4c-2.3-9.1-4.8-7.9-11.2-10.5c-6.4-2.6-24.2-5-24.2-5s-21.2-1.4-24.2-3.4c-3-2.1-7.8-6.4-7.8-6.4
				s-6.5-3.3-5.5,1.8c2.1,9.8,15.7,14.6,15.7,14.6l-19.1,1.4L196,194.4z"/>
			<g>
				<path class="st26" d="M254.1,200.7c0,0-0.1,1.5-0.2,1.8c-0.1,0.3-1.4,1.3-2.7,0.6c-1.3-0.6-2.8-1.3-3.2-2.1
					c-0.4-0.8,1.1-1.9,1.1-1.9s0.2-0.5,1.1-0.5C251,198.8,254.1,200.7,254.1,200.7z"/>
				<path class="st26" d="M236.7,209.4c0,0-0.1,1.5-0.2,1.8c-0.1,0.3-1.4,1.3-2.7,0.6c-1.3-0.6-2.9-1.3-3.2-2.1
					c-0.4-0.8,1.1-1.9,1.1-1.9s0.2-0.5,1.1-0.5S236.7,209.4,236.7,209.4z"/>
				<path class="st26" d="M195.9,191.4c0,0-0.1,1.5-0.2,1.8c-0.1,0.3-1.4,1.3-2.7,0.6c-1.3-0.6-2.9-1.3-3.2-2.1
					c-0.4-0.8,1.1-1.9,1.1-1.9s0.2-0.5,1.1-0.5C192.9,189.5,195.9,191.4,195.9,191.4z"/>
				<path class="st26" d="M212.3,184.3c0,0-0.1,1.3-0.2,1.6c0,0.3-1.3,1.1-2.4,0.6c-1.1-0.6-2.5-1.1-2.9-1.8c-0.4-0.7,1-1.7,1-1.7
					s0.2-0.5,1-0.4C209.6,182.6,212.3,184.3,212.3,184.3z"/>
				<path class="st31" d="M191.5,119.2c0,0,7.5,0,8.3,1.9c-1.1,1.9-2.6,2.1-5.1,1.7C194.7,122.8,192.1,121,191.5,119.2z"/>
				<path class="st26" d="M191.4,117.1c0,0,3.6-2.1,4.2-4c0.6-1.9,0.7,2.9-1.1,6.4C192.8,123.1,191.4,117.1,191.4,117.1z"/>
				<path class="st29" d="M249.3,155.2c3.8,0.4,8.3,2.6,9.2,10.9c0.9,8.3-2.8,13-2.4,16.6c0.5,3.6,3.6,5.7,3,7.5c0,0-4.9,7.5-4.9,10
					c0.1,2.6-4.4,1.4-4.3-0.7c0.1-3.9,1.5-7.7,1-10.3c-0.3-1.5-9.8-3.1-14.3-19.1C234.5,160.3,245.5,154.8,249.3,155.2z"/>
				<path class="st29" d="M203.7,150.8c0,0,2.5,19.9,4.2,22c1.7,2.1,0.5,11,0.5,11s1.3,1.1,3.3,0.8c2-0.3,1.9-12.2,1.9-12.2
					s3.6-5.1,5.5-12.8C220.9,151.9,203.9,144.5,203.7,150.8z"/>
				<path class="st27" d="M255.4,174.7c0,0,3.1-15.2-3.1-18.3c-6.2-3.1-15.8-3.5-21.3-7.2c-5.5-3.7-21.2-12.9-23-13.5
					c-1.8-0.6-11-11-11-11s-11.1-0.7-12.9,2.5c-1.8,3.3-0.9,6.1-0.9,9.3c0,3.3,7.3,29.3,7.3,29.3s4,9.5,7.7,11
					c3.7,1.5,10.2,6.2,17,6.5c6.8,0.3,17.4,4.9,20.2,5.5c2.8,0.6,9.2,0.4,11.4-0.5C249.1,187.7,250.7,187.1,255.4,174.7z"/>
				<path class="st31" d="M203.5,170.7c0,0-3.6,6.2-4.1,6.6c-0.5,0.5,6.7,4.1,11.1,5.2c4.3,1.1,13.1,2.2,18.4,4.2
					c5.2,2.1-2.5-6.7-2.5-6.7s-8.7-0.6-12-1.4c-3.3-0.8-4.1,1.4-7.4,0.6c-3.3-0.8-5-2.8-5-2.8L203.5,170.7z"/>
				<path class="st30" d="M250.4,185.7c0,0-1.1,8.7-8.8,8.1c-7.8-0.6-4.8-3-7.9-5.7c-2.4-2.1,6.2,0.6,8.6-0.1
					C244.7,187.3,247.5,188.1,250.4,185.7z"/>
				<path class="st27" d="M239.5,164.3c3.7,1.3,7.7,4.4,7,12.7c-0.6,8.3-5.1,12.1-5.3,15.7c-0.2,3.6,2.6,6.4,1.6,8
					c0,0-5.6,5.7-6,8.2c-0.4,2.5-4.7,1.4-4.3-0.7c0.7-4.1,2.4-7.6,2.4-10.3c0-1.6-9.1-5.2-10.6-21.9
					C224.1,166,235.8,163,239.5,164.3z"/>
				<path class="st27" d="M190.8,156.7c0,0-0.5,20.1,0.9,22.3c1.4,2.3-0.2,11.6-0.2,11.6s1.8,1.4,3.9,1.4c2.1,0,2.1-12.5,2.1-12.5
					s4.3-4.6,7.3-11.9S191.9,150.5,190.8,156.7z"/>
				<path class="st27" d="M184.5,143.1c-0.5-1.8-2.6-4.4-6.7-8.7c-5-5.2-3-8.7-2.3-10.3c0.8-1.7,4.3-2.7,5-3.8
					c0.8-1.1,2.7-1.7,4-2.3c1.2-0.6,4.9-0.9,6.1-1.1c1.2-0.1,4.5,1.5,4.7,4.3c0.3,4,3.5,5.6,3.5,5.6L184.5,143.1z"/>
				<path class="st27" d="M186.5,118c-4.9,0-8.5-0.8-8.5-0.8s-2.9,0.3-5.2,0.8c-2.3,0.5-1.7,2.6-1.8,4.9c-0.2,2.3,4.9,8.7,4.9,8.7
					L186.5,118z"/>
				<path class="st31" d="M178,117.2c-1.2-0.1-5.2,0.2-4.6,0.8c0.6,0.6,6.1,3.3,6.1,3.3s0.5-0.6,1.4-1.4c0.9-0.8,3.8-1.7,3.8-1.7
					L178,117.2z"/>
				<path class="st26" d="M182.2,120.2c0,0-3.8-0.5-5.1-3c-1.3-2.4,0.3,4.6,2.7,6.2C182.3,125,184.5,121.6,182.2,120.2z"/>
				<path class="st31" d="M246.7,177.4c0,0-1.5,6.5-2.1,7.5c-0.6,1-1.5,3-1.5,3s2.7-3.3,3-5.1C246.3,180.9,246.7,177.4,246.7,177.4z
					"/>
				<path class="st31" d="M244.5,167.8c0,0-1.7-3.4-7.6-3.8C241.3,163.5,243.8,165.3,244.5,167.8z"/>
				<path class="st31" d="M242.9,199.8c0,0-1.1-1.6-2.3-4.1c-1.1-2.5,2.1-7.2,2.1-7.2s-2.2,4.2-1.4,6.2
					C242.1,196.6,243.4,199.3,242.9,199.8z"/>
				<path class="st31" d="M198,178.8c0,0-1.8,1-1.8,2.4s-2.1,9.9-2.1,9.9s0.7,0.8,1.5,0.2c0.8-0.6,1.6-6.8,1.5-8.3
					C197,181.5,198,178.8,198,178.8z"/>
				<path class="st31" d="M190.8,166.5c0,0,0-0.1,0-0.4c-0.1-1.5-0.4-7.1-0.1-9c0.3-2.2-2.9-6.4-4.2-9.5c-1.4-3.1-1.8-4.3-1.8-4.3
					s1.9,7.5,3.1,12c1.1,4.4,3.1,11,3.1,11L190.8,166.5z"/>
				<path class="st31" d="M197.8,125.8c0,0-2.1-3.3-2.9-3.5c-0.8-0.2-6.8,1.3-8.2,1.1c-1.4-0.1,1.5,1.5,3.8,1.8
					c2.3,0.3,8.5,1.8,8.9,2.5C199.7,128.4,197.8,125.8,197.8,125.8z"/>
				<path class="st33" d="M176.7,117c0,0-0.1,0-0.2,0c-0.9-0.2-5.3-0.8-6.2,1.1c-1.1,2.1-0.5,3.7-0.5,3.7l1.3,2.1
					c0,0-0.2-2.2,0.2-3.4c0.4-1.2,3.5-2.7,4.1-2.8L176.7,117z"/>
				<path class="st35" d="M175.1,130.4c0,0-1.1-2.6-0.5-4.1s0.8-2.1,0.8-2.1s-3.3-0.9-3.6-1.4c-0.4-0.5-0.7-0.5-0.7-0.5
					s0.5,3,1.4,4.3S175.1,130.4,175.1,130.4z"/>
				<path class="st27" d="M252.4,160.4c0,0,5.8,4,5.6,6.7c-0.2,2.7-3.6,16-3.8,19.4c-0.1,3.4,4.3,6.4,5.4,6.4c1,0,2.1-1.8,4.2-0.6
					c2.2,1.3,2.5,1.4,2.5,1.4s1.1,0.1,1.8-0.9c0.7-1,0,2.2-3,2.4s-4.4-0.2-5.7-1.3c-1.3-1-6.4-2.7-6.4-7.4c0-4.7,2.3-16.2,1.5-18.2
					C253.7,166.2,251.8,165.6,252.4,160.4z"/>
				<path class="st36" d="M252.7,164.9c0,0,1,2.6,1,4.7c0,2.2-0.2,8-0.1,8.7c0.1,0.7,0.3,0.8,0.3,0.8s1.1-8.9,0.6-10.8
					C254,166.4,253.3,165.6,252.7,164.9z"/>
				<path class="st30" d="M247,191.9c0,0-0.1,1.8-0.8,2.4s-1-2.3-1-2.3L247,191.9z"/>
				<path class="st25" d="M179.3,125.5c0,0-0.1,2.5-0.6,3.4c-0.5,0.9-1.5-0.2-1.4-1.9C177.4,125.3,179.3,125.5,179.3,125.5z"/>
				<path class="st30" d="M244.3,193.1c0,0-0.1,1.8-0.8,2.4c-0.7,0.6-1-2.3-1-2.3L244.3,193.1z"/>
				<path class="st31" d="M178.9,124.7c0,0-4.4-0.8-6.1,0.6c-1.7,1.4-0.6,1.9-0.6,1.9s1.1,1.6,3.1,0.9c2-0.7,2.3-1.3,3-1.3
					C179,126.8,180,125,178.9,124.7z"/>
				<path class="st26" d="M202.8,143.5c0,0-8,2.6-7.1,6.7c0.9,4.1,1.7,7.5,4.2,8.3c2.5,0.8,12.4-2.5,13.3-0.7
					c0.9,1.8,2.7,4.2,3.6,5.2c0.9,1,4.4,8.8,7.9,0.7c3.4-8.1,2.1-13.5-3.3-16C216.1,145.3,204.9,142.4,202.8,143.5z"/>
				<path class="st26" d="M213.5,163.2c0,0-2.1-4.7-4.9-3.9c-2.8,0.8-4.4,3.5-4.4,3.5s4.2,5.7,6.5,5.2
					C212.9,167.7,213.5,163.2,213.5,163.2z"/>
				<path class="st26" d="M238.8,172.6c0,0-2.2-2.3-5-1.1c-2.9,1.1-3.5,4.6-3.5,4.6s-1.4,3.9-0.2,5.7c1.1,1.8,4.7,3.5,5.6,4.4
					c0.9,0.9,6.2,2.6,6.2,4c1.7-3.3,3.1-4.7,3.1-6.2c0-1.5-3-4.7-3-5.8C241.9,177,241.3,172.6,238.8,172.6z"/>
				<path class="st26" d="M180.3,135.7c0,0,2.3-0.6,4.3,1.3c2.1,1.8,1.6,2.7,1.3,3c-0.3,0.2-0.1,2.1-0.3,2.7
					c-0.2,0.7-0.7,1.6-0.7,1.6s-0.1-2.5-1.4-3.9C182.2,139,180.1,136.7,180.3,135.7z"/>
			</g>
		</g>
	</g>
</g>
<g>
	<g>
		<g>
			<path class="st24" d="M156,205.4l19.6-0.5c0,0,9.3,6.2,21,10.5c11.6,4.3,9.8,5.5,9.8,5.5l-13.9-0.5l4.3,3h17.6
				c0,0,16.2-5.2,13.9-14.4c-2.3-9.1-4.8-7.9-11.2-10.5c-6.4-2.6-24.2-5-24.2-5s-21.2-1.4-24.2-3.4c-3-2.1-7.8-6.4-7.8-6.4
				s-6.5-3.3-5.5,1.8c2.1,9.8,15.7,14.6,15.7,14.6l-19.1,1.4L156,205.4z"/>
			<g>
				<path class="st26" d="M214.1,211.7c0,0-0.1,1.5-0.2,1.8c-0.1,0.3-1.4,1.3-2.7,0.6c-1.3-0.6-2.8-1.3-3.2-2.1
					c-0.4-0.8,1.1-1.9,1.1-1.9s0.2-0.5,1.1-0.5C211,209.8,214.1,211.7,214.1,211.7z"/>
				<path class="st26" d="M196.7,220.4c0,0-0.1,1.5-0.2,1.8c-0.1,0.3-1.4,1.3-2.7,0.6c-1.3-0.6-2.9-1.3-3.2-2.1
					c-0.4-0.8,1.1-1.9,1.1-1.9s0.2-0.5,1.1-0.5S196.7,220.4,196.7,220.4z"/>
				<path class="st26" d="M155.9,202.4c0,0-0.1,1.5-0.2,1.8c-0.1,0.3-1.4,1.3-2.7,0.6c-1.3-0.6-2.9-1.3-3.2-2.1
					c-0.4-0.8,1.1-1.9,1.1-1.9s0.2-0.5,1.1-0.5C152.9,200.5,155.9,202.4,155.9,202.4z"/>
				<path class="st26" d="M172.3,195.3c0,0-0.1,1.3-0.2,1.6c0,0.3-1.3,1.1-2.4,0.6c-1.1-0.6-2.5-1.1-2.9-1.8c-0.4-0.7,1-1.7,1-1.7
					s0.2-0.5,1-0.4C169.6,193.6,172.3,195.3,172.3,195.3z"/>
				<path class="st31" d="M151.5,130.2c0,0,7.5,0,8.3,1.9c-1.1,1.9-2.6,2.1-5.1,1.7C154.7,133.8,152.1,132,151.5,130.2z"/>
				<path class="st26" d="M151.4,128.1c0,0,3.6-2.1,4.2-4c0.6-1.9,0.7,2.9-1.1,6.4C152.8,134.1,151.4,128.1,151.4,128.1z"/>
				<path class="st29" d="M209.3,166.2c3.8,0.4,8.3,2.6,9.2,10.9c0.9,8.3-2.8,13-2.4,16.6c0.5,3.6,3.6,5.7,3,7.5c0,0-4.9,7.5-4.9,10
					c0.1,2.6-4.4,1.4-4.3-0.7c0.1-3.9,1.5-7.7,1-10.3c-0.3-1.5-9.8-3.1-14.3-19.1C194.5,171.3,205.5,165.8,209.3,166.2z"/>
				<path class="st29" d="M163.7,161.8c0,0,2.5,19.9,4.2,22c1.7,2.1,0.5,11,0.5,11s1.3,1.1,3.3,0.8c2-0.3,1.9-12.2,1.9-12.2
					s3.6-5.1,5.5-12.8C180.9,162.9,163.9,155.5,163.7,161.8z"/>
				<path class="st27" d="M215.4,185.7c0,0,3.1-15.2-3.1-18.3c-6.2-3.1-15.8-3.5-21.3-7.2c-5.5-3.7-21.2-12.9-23-13.5
					c-1.8-0.6-11-11-11-11s-11.1-0.7-12.9,2.5c-1.8,3.3-0.9,6.1-0.9,9.3c0,3.3,7.3,29.3,7.3,29.3s4,9.5,7.7,11
					c3.7,1.5,10.2,6.2,17,6.5c6.8,0.3,17.4,4.9,20.2,5.5c2.8,0.6,9.2,0.4,11.4-0.5C209.1,198.7,210.7,198.1,215.4,185.7z"/>
				<path class="st31" d="M163.5,181.7c0,0-3.6,6.2-4.1,6.6c-0.5,0.5,6.7,4.1,11.1,5.2c4.3,1.1,13.1,2.2,18.4,4.2
					c5.2,2.1-2.5-6.7-2.5-6.7s-8.7-0.6-12-1.4c-3.3-0.8-4.1,1.4-7.4,0.6c-3.3-0.8-5-2.8-5-2.8L163.5,181.7z"/>
				<path class="st30" d="M210.4,196.7c0,0-1.1,8.7-8.8,8.1c-7.8-0.6-4.8-3-7.9-5.7c-2.4-2.1,6.2,0.6,8.6-0.1
					C204.7,198.3,207.5,199.1,210.4,196.7z"/>
				<path class="st27" d="M199.5,175.3c3.7,1.3,7.7,4.4,7,12.7c-0.6,8.3-5.1,12.1-5.3,15.7c-0.2,3.6,2.6,6.4,1.6,8
					c0,0-5.6,5.7-6,8.2c-0.4,2.5-4.7,1.4-4.3-0.7c0.7-4.1,2.4-7.6,2.4-10.3c0-1.6-9.1-5.2-10.6-21.9
					C184.1,177,195.8,174,199.5,175.3z"/>
				<path class="st27" d="M150.8,167.7c0,0-0.5,20.1,0.9,22.3c1.4,2.3-0.2,11.6-0.2,11.6s1.8,1.4,3.9,1.4c2.1,0,2.1-12.5,2.1-12.5
					s4.3-4.6,7.3-11.9S151.9,161.5,150.8,167.7z"/>
				<path class="st27" d="M144.5,154.1c-0.5-1.8-2.6-4.4-6.7-8.7c-5-5.2-3-8.7-2.3-10.3c0.8-1.7,4.3-2.7,5-3.8
					c0.8-1.1,2.7-1.7,4-2.3c1.2-0.6,4.9-0.9,6.1-1.1c1.2-0.1,4.5,1.5,4.7,4.3c0.3,4,3.5,5.6,3.5,5.6L144.5,154.1z"/>
				<path class="st27" d="M146.5,129c-4.9,0-8.5-0.8-8.5-0.8s-2.9,0.3-5.2,0.8c-2.3,0.5-1.7,2.6-1.8,4.9c-0.2,2.3,4.9,8.7,4.9,8.7
					L146.5,129z"/>
				<path class="st31" d="M138,128.2c-1.2-0.1-5.2,0.2-4.6,0.8s6.1,3.3,6.1,3.3s0.5-0.6,1.4-1.4s3.8-1.7,3.8-1.7L138,128.2z"/>
				<path class="st26" d="M142.2,131.2c0,0-3.8-0.5-5.1-3s0.3,4.6,2.7,6.2C142.3,136,144.5,132.6,142.2,131.2z"/>
				<path class="st31" d="M206.7,188.4c0,0-1.5,6.5-2.1,7.5c-0.6,1-1.5,3-1.5,3s2.7-3.3,3-5.1C206.3,191.9,206.7,188.4,206.7,188.4z
					"/>
				<path class="st31" d="M204.5,178.8c0,0-1.7-3.4-7.6-3.8C201.3,174.5,203.8,176.3,204.5,178.8z"/>
				<path class="st31" d="M202.9,210.8c0,0-1.1-1.6-2.3-4.1c-1.1-2.5,2.1-7.2,2.1-7.2s-2.2,4.2-1.4,6.2
					C202.1,207.6,203.4,210.3,202.9,210.8z"/>
				<path class="st31" d="M158,189.8c0,0-1.8,1-1.8,2.4s-2.1,9.9-2.1,9.9s0.7,0.8,1.5,0.2c0.8-0.6,1.6-6.8,1.5-8.3
					C157,192.5,158,189.8,158,189.8z"/>
				<path class="st31" d="M150.8,177.5c0,0,0-0.1,0-0.4c-0.1-1.5-0.4-7.1-0.1-9c0.3-2.2-2.9-6.4-4.2-9.5c-1.4-3.1-1.8-4.3-1.8-4.3
					s1.9,7.5,3.1,12c1.1,4.4,3.1,11,3.1,11L150.8,177.5z"/>
				<path class="st31" d="M157.8,136.8c0,0-2.1-3.3-2.9-3.5c-0.8-0.2-6.8,1.3-8.2,1.1c-1.4-0.1,1.5,1.5,3.8,1.8
					c2.3,0.3,8.5,1.8,8.9,2.5C159.7,139.4,157.8,136.8,157.8,136.8z"/>
				<path class="st33" d="M136.7,128c0,0-0.1,0-0.2,0c-0.9-0.2-5.3-0.8-6.2,1.1c-1.1,2.1-0.5,3.7-0.5,3.7l1.3,2.1
					c0,0-0.2-2.2,0.2-3.4c0.4-1.2,3.5-2.7,4.1-2.8L136.7,128z"/>
				<path class="st35" d="M135.1,141.4c0,0-1.1-2.6-0.5-4.1s0.8-2.1,0.8-2.1s-3.3-0.9-3.6-1.4c-0.4-0.5-0.7-0.5-0.7-0.5
					s0.5,3,1.4,4.3S135.1,141.4,135.1,141.4z"/>
				<path class="st27" d="M212.4,171.4c0,0,5.8,4,5.6,6.7c-0.2,2.7-3.6,16-3.8,19.4c-0.1,3.4,4.3,6.4,5.4,6.4c1,0,2.1-1.8,4.2-0.6
					c2.2,1.3,2.5,1.4,2.5,1.4s1.1,0.1,1.8-0.9c0.7-1,0,2.2-3,2.4s-4.4-0.2-5.7-1.3c-1.3-1-6.4-2.7-6.4-7.4c0-4.7,2.3-16.2,1.5-18.2
					C213.7,177.2,211.8,176.6,212.4,171.4z"/>
				<path class="st36" d="M212.7,175.9c0,0,1,2.6,1,4.7c0,2.2-0.2,8-0.1,8.7c0.1,0.7,0.3,0.8,0.3,0.8s1.1-8.9,0.6-10.8
					C214,177.4,213.3,176.6,212.7,175.9z"/>
				<path class="st30" d="M207,202.9c0,0-0.1,1.8-0.8,2.4s-1-2.3-1-2.3L207,202.9z"/>
				<path class="st25" d="M139.3,136.5c0,0-0.1,2.5-0.6,3.4c-0.5,0.9-1.5-0.2-1.4-1.9C137.4,136.3,139.3,136.5,139.3,136.5z"/>
				<path class="st30" d="M204.3,204.1c0,0-0.1,1.8-0.8,2.4c-0.7,0.6-1-2.3-1-2.3L204.3,204.1z"/>
				<path class="st31" d="M138.9,135.7c0,0-4.4-0.8-6.1,0.6c-1.7,1.4-0.6,1.9-0.6,1.9s1.1,1.6,3.1,0.9c2-0.7,2.3-1.3,3-1.3
					C139,137.8,140,136,138.9,135.7z"/>
				<path class="st26" d="M140.3,146.7c0,0,2.3-0.6,4.3,1.3c2.1,1.8,1.6,2.7,1.3,3c-0.3,0.2-0.1,2.1-0.3,2.7
					c-0.2,0.7-0.7,1.6-0.7,1.6s-0.1-2.5-1.4-3.9C142.2,150,140.1,147.7,140.3,146.7z"/>
			</g>
		</g>
	</g>
	<path class="st26" d="M174.6,150.7c0,0-5.1,4.3-2.7,6.9c2.4,2.6,4.9,3.7,4.9,4.2c0,0.4,2.7,4.5,4.1,5.7c1.3,1.2,5.5,5.2,9.5,3.2
		c4-2,7.3-3.8,8.9-3.8s4.2-1.4,2.2-2c-1.9-0.6-6-1.6-9.2-3.7c-3.2-2.1-9.6-5.9-12.3-7.3C177.2,152.3,174.6,150.7,174.6,150.7z"/>
	<path class="st26" d="M163.9,160.7c0,0,3,0.4,3.6,1.2c0.6,0.8,2.8,3.9,1.6,5.3c-1.2,1.4-2.1,2.7-2.5,3.2c-0.4,0.4,0.5,0.7-1.4,0.7
		s-3.4-1.5-4.1-2.6c-0.7-1.1-0.6-4.3,0.2-5.1C162.2,162.7,163.9,160.7,163.9,160.7z"/>
	<path class="st26" d="M163.6,148.2c-1.2-0.2-2.6-1.2-3.7-1.2c-1.2,0-2.7-1.1-3.4,0.7s-1.4,1.5-0.9,2.7c0.5,1.2,1.6,2,2.1,2.6
		c0.5,0.5,1.9-0.6,3.5,0c1.6,0.6,2.6,1.9,3.2,2C165.1,155.1,168.4,148.9,163.6,148.2z"/>
	<path class="st26" d="M200.4,187c0,0-2.2-1.4-3.6-1.6c-1.4-0.2-2.7,0.5-3.1,1.2c-0.4,0.6-0.7,2.1-0.7,3.1c0,1,1.3,3.1,1.6,3.2
		c0.3,0.1,1.4-0.5,4.1,0s5,1.5,4.2-0.2C201.9,191,201.8,187.9,200.4,187z"/>
</g>
<g>
	<g>
		<g>
			<polygon class="st21" points="273.8,213.8 271.6,212.5 271.6,178.2 273.8,179.5 			"/>
			<g>
				<polygon class="st1" points="273.5,201.1 226.9,228 226.9,228.7 273.5,201.8 				"/>
				
					<rect x="223.1" y="213.7" transform="matrix(0.8663 -0.4996 0.4996 0.8663 -73.5729 153.5271)" class="st3" width="53.8" height="0.9"/>
				<polygon class="st22" points="272.4,200 225.8,226.9 226.5,227.2 273,200.4 				"/>
				<polygon class="st23" points="225.4,227.8 225.4,227.1 225.8,226.9 226.5,227.2 226.9,228 226.9,228.7 226.5,229 225.8,228.6 
									"/>
			</g>
			<polygon class="st22" points="228.4,204.1 226.2,202.8 270.9,177 273.1,178.3 			"/>
			<polygon class="st22" points="228.8,241 227.9,240.9 226.6,239.8 270.5,214.5 272.7,215.8 			"/>
			<path class="st1" d="M273.1,216.8l-44.7,25.8l-1.8-1v-34.3l1.8-3.1l44.7-25.8l1.8,1v34.3L273.1,216.8z M228.8,241l43.8-25.3
				l1.2-2v-33.2l-1.2-0.7l-43.8,25.3l-1.2,2v33.2L228.8,241z"/>
			
				<rect x="224.6" y="203.8" transform="matrix(0.5002 -0.8659 0.8659 0.5002 -64.4057 298.4973)" class="st21" width="3.6" height="2.6"/>
			
				<rect x="271" y="212.8" transform="matrix(0.4998 -0.8661 0.8661 0.4998 -49.3394 342.8093)" class="st3" width="2.3" height="2.6"/>
			<polygon class="st3" points="226.6,241.5 224.4,240.2 224.4,206 226.6,207.2 			"/>
		</g>
	</g>
</g>
<g>
	<g>
		<g>
			<polygon class="st21" points="174.8,214.8 177,213.5 177,179.2 174.8,180.5 			"/>
			<g>
				<polygon class="st1" points="175.2,202.1 221.7,229 221.7,229.7 175.2,202.9 				"/>
				
					<rect x="198.2" y="188.3" transform="matrix(0.4996 -0.8663 0.8663 0.4996 -87.0069 279.7881)" class="st3" width="0.9" height="53.8"/>
				<polygon class="st22" points="176.2,201 222.8,227.9 222.2,228.3 175.6,201.4 				"/>
				<polygon class="st23" points="223.2,228.9 223.2,228.2 222.8,227.9 222.2,228.3 221.7,229 221.7,229.7 222.2,230 222.8,229.6 
									"/>
			</g>
			<polygon class="st22" points="220.3,205.1 222.5,203.9 177.7,178.1 175.5,179.3 			"/>
			<polygon class="st22" points="219.8,242.1 220.8,242 222,240.8 178.2,215.5 176,216.8 			"/>
			<path class="st1" d="M173.7,214.7v-34.3l1.8-1l44.7,25.8l1.8,3.1v34.3l-1.8,1l-44.7-25.8L173.7,214.7z M221,241.4v-33.2l-1.2-2
				L176,180.9l-1.2,0.7v33.2l1.2,2l43.8,25.3L221,241.4z"/>
			
				<rect x="221" y="204.3" transform="matrix(0.8659 -0.5002 0.5002 0.8659 -73.2658 138.8037)" class="st21" width="2.6" height="3.6"/>
			
				<rect x="175.2" y="214" transform="matrix(0.8661 -0.4998 0.4998 0.8661 -83.9066 117.018)" class="st3" width="2.6" height="2.3"/>
			<polygon class="st3" points="222.1,242.5 224.3,241.3 224.3,207 222.1,208.3 			"/>
		</g>
	</g>
	<g>
		<g>
			<polygon class="st21" points="123,184.7 125.2,183.4 125.2,149.1 123,150.4 			"/>
			<g>
				<polygon class="st1" points="123.4,172.1 170,198.9 170,199.6 123.4,172.8 				"/>
				
					<rect x="146.5" y="158.2" transform="matrix(0.4996 -0.8663 0.8663 0.4996 -86.8481 219.8827)" class="st3" width="0.9" height="53.8"/>
				<polygon class="st22" points="124.4,170.9 171,197.8 170.4,198.2 123.8,171.3 				"/>
				<polygon class="st23" points="171.5,198.8 171.5,198.1 171,197.8 170.4,198.2 170,198.9 170,199.6 170.4,199.9 171,199.5 				
					"/>
			</g>
			<polygon class="st22" points="168.5,175 170.7,173.8 126,148 123.7,149.2 			"/>
			<polygon class="st22" points="168,212 169,211.9 170.2,210.7 126.4,185.4 124.2,186.7 			"/>
			<path class="st1" d="M121.9,184.6v-34.3l1.8-1l44.7,25.8l1.8,3.1v34.3l-1.8,1l-44.7-25.8L121.9,184.6z M169.2,211.3v-33.2l-1.2-2
				l-43.8-25.3l-1.2,0.7v33.2l1.2,2L168,212L169.2,211.3z"/>
			
				<rect x="169.2" y="174.2" transform="matrix(0.866 -0.5001 0.5001 0.866 -65.1484 108.8415)" class="st21" width="2.6" height="3.6"/>
			
				<rect x="123.4" y="183.9" transform="matrix(0.8665 -0.4992 0.4992 0.8665 -75.733 86.977)" class="st3" width="2.6" height="2.3"/>
			<polygon class="st3" points="170.3,212.5 172.5,211.2 172.5,176.9 170.3,178.2 			"/>
		</g>
	</g>
</g>
</svg>
