<?xml version="1.0" encoding="utf-8"?>
<!-- Generator: Adobe Illustrator 27.5.0, SVG Export Plug-In . SVG Version: 6.00 Build 0)  -->
<svg version="1.1" id="Layer_1" xmlns="http://www.w3.org/2000/svg" xmlns:xlink="http://www.w3.org/1999/xlink" x="0px" y="0px"
	 viewBox="0 0 326 245.3" style="enable-background:new 0 0 326 245.3;" xml:space="preserve">
<style type="text/css">
	.st0{fill:#B5AFA8;}
	.st1{fill:#E8E4E2;}
	.st2{fill:#A39C95;}
	.st3{opacity:0.2;fill-rule:evenodd;clip-rule:evenodd;fill:#B5AFA8;}
	.st4{fill:#FFFFFF;}
	.st5{opacity:0.5;fill:#4C4C4E;}
	.st6{fill:#E6DCCE;}
	.st7{fill:#CCC4B8;}
	.st8{fill:#333333;}
	.st9{fill:#F1E7DA;}
	.st10{fill:#DC9B9B;}
	.st11{fill:#ECC1C0;}
	.st12{fill:#E8AEAE;}
	.st13{fill:#E0D7CA;}
	.st14{fill:#4E4E4E;}
	.st15{fill:#F9ECDA;}
	.st16{fill:#DCB3B3;}
	.st17{fill:#995C5C;}
	.st18{fill:#B4B4B4;}
	.st19{fill:#EBE1D3;}
</style>
<g>
	<path class="st0" d="M69.7,9.5C31.3,31.7,0,85.8,0,130.2c0,3.7,0.2,7.1,0.6,11.3l144.1,83.2l37-98.2l81.9-38.2
		c0,0-131.4-75-143.1-82.6C107.8-2.7,89.7-2.1,69.7,9.5z"/>
	<path class="st1" d="M213.8,95.4c-37.2,21.5-67.3,73.7-67.3,116.6c0,3.9,0.3,7.7,0.8,11.2l133.1-76.9c0.5-4.1,0.8-8.1,0.8-12.1
		C281.1,91.3,250.9,73.9,213.8,95.4z"/>
	<path class="st2" d="M213.8,92.7c-38.4,22.2-69.7,76.3-69.7,120.7c0,3.7,0.2,7.1,0.6,11.3l4.8-2.8c-0.4-4.2-0.6-7.7-0.6-11.2
		c0-41.4,29.1-91.8,65-112.5c35.8-20.7,65-3.9,65,37.5c0,3.6-0.2,7.3-0.6,12l4.8-2.8c0.4-4.6,0.6-8.3,0.6-12
		C283.5,88.5,252.2,70.5,213.8,92.7z"/>
	<g>
		<polygon class="st0" points="183.9,202 243.6,167.5 243.6,113.6 183.9,148.1 		"/>
	</g>
	<g>
		<polygon class="st2" points="243.6,167.5 243.6,113.6 196.9,140.6 		"/>
	</g>
</g>
<polygon class="st3" points="288.5,158.7 326,175.2 308.4,185.2 270.8,168.6 "/>
<polygon class="st3" points="253.1,178.6 290.7,195.1 273,205.1 235.5,188.5 "/>
<polygon class="st3" points="217.4,198.9 255,215.4 237.3,225.4 199.8,208.9 "/>
<polygon class="st3" points="182.1,218.8 219.7,235.3 202,245.3 164.4,228.8 "/>
<path class="st4" d="M127.3,69l-12.5-6.6c-32,27.8-36,54.7-36,54.7l13.5,6.2C93.6,117.9,99.5,93.6,127.3,69z"/>
<polygon class="st4" points="80.8,70.7 128.7,99 120.3,112.3 72.1,83.9 "/>
<g>
	<path class="st5" d="M250.4,210.5l8.5-0.7c0,0,12.3,1.2,17.2,1.2c4.9,0,15-3.2,9.5-7.2c-5.5-4-5.8-6.1-8.1-9.2
		c-2.3-3.2-7.2-9.8-11.8-11.8s-21.3-10.4-21.3-10.4l-34.9-6.9c0,0-4.6,5.8-5.5,9.8s6.3,8.4,6.3,8.4l-8.2,3.9l8.3,9.4l3.8-0.2
		c0,0,0.9-6.5,12.2,3.5c5.6,5,22.6,1.8,22.6,1.8l-3.3,11L250.4,210.5z"/>
	<g>
		<path class="st6" d="M264.2,200.3l-8.2-3.5c0,0-2.5,2.6-1.2,3.8c1.3,1.2,4.5,2.2,7.2,2.9C264.8,204.1,267.9,201.9,264.2,200.3z"/>
		<path class="st6" d="M264.1,202.4c0,0-2.5-2-4.4-2.8c-1.9-0.8-13.5-6.3-13.5-6.3c-3.4-4,8.1-11,11.2-7.2c3.1,3.8,5.1,5.2,7.3,8.4
			c2.1,3.3,2.3,5.2,2.3,5.2S266.8,203.3,264.1,202.4z"/>
		<path class="st7" d="M263.2,201.6c0,0-5.9-3.4-7.8-4C258.5,199.6,260.2,200.5,263.2,201.6z"/>
		<path class="st8" d="M233.3,207.5c0,0-2.1-0.7-2.2-0.8c-0.2,0-0.1-3.3,1.5-3.6c1.6-0.3,2.6,1.2,2.6,1.2S233.3,206.3,233.3,207.5z"
			/>
		<path class="st9" d="M245.9,209.8l-11-5.9c0,0-2.7,2.4-1.5,3.6c1.2,1.3,7.4,4.2,10.1,5.1C246.2,213.7,249.5,211.7,245.9,209.8z"/>
		<path class="st9" d="M195,172.9c0,0,0.1-15.6,1.1-18.5c1-2.9,6.8-2.6,6.8-2.6s-0.6,2.4-2.6,3c-2.1,0.6-2.9,5.4-3.1,7.4
			c-0.2,2-0.5,11.1-1,14.3c0,0-1.8,3.8-5.4,2.9c-3.6-0.9-5.4-1.3-6.2-1c-0.7,0.3-2.1,2.2-3.8,1.3c-1.7-0.9-3.1-2.9-3.1-2.9
			s2.2,0.7,4.5-0.1c2.2-0.8,2.3-0.2,5,0.4C189.9,177.5,195.6,181.2,195,172.9z"/>
		<path class="st10" d="M217,187.4c0,0-5.8,5.2-9.7,2.1c-3.8-3.1-3.5-4.7-3.5-4.7l3.5-3.8C207.4,180.9,216.4,182.2,217,187.4z"/>
		<path class="st9" d="M265.2,165.6c0,0-20.3,0.5-23.7-0.9c-3.4-1.4-19-9.5-21.6-11.4c-2.6-1.9-12.1-4.4-14.9-2.4
			c-1.4,1-5.7,2.6-6.6,3.8c-0.9,1.2-1.5,2.2-1.5,2.2s2.8,18.7,3.1,20.4c0.4,1.7,8.6,5.9,11.7,8.5c3.1,2.6,12.4,14.4,16.7,15.4
			c4.3,0.9,15.8,5.4,18.5,5.5c2.7,0.1,9-5.3,11.1-8.2c2.1-2.8,6.8-20.4,6.8-20.4L265.2,165.6z"/>
		<path class="st6" d="M201,180.5l3.5-6.4c0,0,3.5,3.1,7.9,6.8c4.4,3.7,3.7,6.4,8.8,12.6c4.5,5.5,25.3,12,31.9,9.8
			c-3.7,2.5-4.7,4.5-9.3,2.5c-4.5-2-14.1-4-15.8-4.9c-1.7-0.9-7.1-4.4-10.5-9.4C214.2,186.6,203,181.9,201,180.5z"/>
		<path class="st7" d="M255,178.9c0,0,2,4.2,2.5,4.8c0.5,0.6,1.9,5.1,1.8,6.6c-0.1,1.5,0.3,3.6,1.2,1c1-2.6,2.7-7.1,2.7-8
			C263.3,182.5,255,178.9,255,178.9z"/>
		<path class="st10" d="M209.2,188.9c0,0-1.3,4.2,0,4.4c1.3,0.2,2.1-4.5,2.1-4.5L209.2,188.9z"/>
		<path class="st10" d="M205.4,186.9c0,0,0,3.7,0.5,3.7c0.5,0,1.5-2.7,1.5-2.7L205.4,186.9z"/>
		<path class="st7" d="M239.9,194.7c0,0,4.1,4.5,5.4,5.9c1.2,1.2,1.3,3.1,1.3,3.1L239.9,194.7z"/>
		<path class="st9" d="M245.6,211.9c0,0-2.4-2.2-4.2-3.1c-1.8-1-12.9-7.4-12.9-7.4c-3-4.3,9-10.3,11.8-6.2c2.8,4.1,4.7,5.6,6.5,9
			c1.9,3.4,1.8,5.4,1.8,5.4S248.3,213,245.6,211.9z"/>
		<path class="st6" d="M202.7,157.5c0,0-3.2-1-6.4,0.8c0.5-1.1,0.8-1.6,0.8-1.6S200,156.3,202.7,157.5z"/>
		<path class="st11" d="M275.3,178.3c0,0-1.9,0.7-2,1.3c-0.2,0.6,1.1,1.5,1.8,1.2c0.7-0.3,1.2-0.4,1.7-0.8
			C277.2,179.7,277.5,177.7,275.3,178.3z"/>
		<path class="st12" d="M205.2,186.3c0,0,0.6,0.6,0.7,1.1c0,0.5,0,2,0,2s0,0.6,0.4-0.1c0.4-0.8,0.9-0.8,0.9-0.8s1.5,1,2.2,1.1
			c-0.2,0.7-0.5,1.9-0.4,2.2c0.1,0.4,0.2,1.2,0.6,0.4c0.5-0.8,1-2.3,1-2.3s2-1,2-1.3c0-0.4-1.8-0.2-3.1-0.6
			C208.2,187.6,205.4,185.8,205.2,186.3z"/>
		<path class="st6" d="M254.6,165.5c0,0-8.3,1.5-13.9-1.2c-5.6-2.7-20.9-11-20.9-11s17.5,11.3,20,12.2c7.4,2.9,14.5,1.2,14.5,1.2
			L254.6,165.5z"/>
		<g>
			<path class="st9" d="M267.5,162c0,0,1.1-2.7,2.1-3.8c1-1.1,2.4-1.1,3.6-1.7c0.6,1.1,0.6,2.5-0.6,3.9c-0.9,1.1-3.9,2.5-3.9,2.5
				L267.5,162z"/>
			<path class="st13" d="M273.2,156.4c0,0-0.2,1-1.3,1.6c-1.2,0.6-2.8,3.9-2.8,3.9l0.6,0.7c0,0,3.6-2.1,3.7-3.5
				C273.6,157.8,273.8,157.4,273.2,156.4z"/>
			<path class="st14" d="M265.2,158.4c0,0,2.4-1.4,2.6-6.3c0.7,1.1,1,4.6-0.3,8.1C267.6,160.2,265.6,159.8,265.2,158.4z"/>
			<path class="st9" d="M264.8,158.2l-7.4,3.7c0,0-3,3.7-3.4,5.5c-0.4,1.8-2.8,15.9,8.6,16.1c5.9,0.1,10.7,0.8,10.7,0.8
				s8.7-4.8,7.2-6.9c-1.5-2.2-4.6-3.1-6-5.1c-1.4-2-3.7-9.4-4.8-9.9C268.6,161.6,266,157.9,264.8,158.2z"/>
			<path class="st13" d="M254.5,169.7c0,0-0.2,2.9,0.2,3.6c0.4,0.8,1.4,2.9,2.1,2.9c0.8-0.1,0-4.7-0.4-5.8c-0.5-1.1-0.5-2.8-0.5-2.8
				S254.9,169,254.5,169.7z"/>
			<path class="st14" d="M257.6,162.3c0,0,0.8,3.7-1.5,3.7c-1.4,0-3.9-5.3-4.1-7.1C251.8,157,253.9,161.5,257.6,162.3z"/>
			<path class="st15" d="M255.4,166.7c0,0-4.4,0.5-6,1.5c-1.6,1-2.6,4.2-2.6,4.2s1.4,1.5,4.1-0.1c2.7-1.7,2.4-2.5,3.8-2.2
				C256.2,170.3,256.2,167.3,255.4,166.7z"/>
			<path class="st13" d="M273.4,184.1c0,0-5.1-0.5-6.5-0.6c-1.5-0.1-7.8,0.3-10-2.1c-2.2-2.4-2.5-3.8-2.5-3.8s1.8,3,3.7,3.6
				c1.9,0.7,14.1,0.3,14.1,0.3S274.8,183.9,273.4,184.1z"/>
			<path class="st16" d="M277.7,174.9c0,0,2.4,1,2.7,2.2c0.4,1.2,0.6,3.4,0.6,3.4s-0.5,1.5-1.5,2.2c-0.9,0.7-3.2,2.2-4.8,2
				c-1.6-0.2-3.2-1.9-3.2-1.9s0.9-2.2,1.5-3.4C273.7,178.2,278.4,176.4,277.7,174.9z"/>
			<path class="st17" d="M278,180.6c0,0-1.6,0.8-2.3,0.8c-0.7,0,1.1,0.5,1.6,0.5C277.7,181.8,279.2,180.6,278,180.6z"/>
			<path class="st7" d="M275.5,173.1c0,0-2.8-2.2-3.4-3.2c-0.7-1-1.1-5.3-1.2-5.9c-0.1-0.6-0.6-1.4-0.6-1.4s1.7,3.5,2.2,4.6
				C272.8,168.4,273.9,171.9,275.5,173.1z"/>
			<path class="st17" d="M280.2,178.1c0,0-0.4,0.6-0.7,1.1c-0.4,0.4-0.4,1.1,0,1.1S280.4,179.3,280.2,178.1z"/>
			<path class="st14" d="M263.4,171.5c0,0.6,0.6,1,1.3,0.9s1.1-0.6,1.1-1.1c0-0.6-0.6-1-1.3-0.9
				C263.8,170.4,263.3,170.9,263.4,171.5z"/>
			<path class="st18" d="M263.6,171.2c0,0.2,0.2,0.4,0.5,0.3c0.2,0,0.4-0.2,0.4-0.4c0-0.2-0.2-0.4-0.5-0.3
				C263.8,170.8,263.6,171,263.6,171.2z"/>
			<path class="st14" d="M270.7,167.6c0.2,0.5,0.7,0.6,1.1,0.5c0.4-0.2,0.6-0.6,0.3-1.1c-0.2-0.5-0.5-0.6-0.9-0.5
				C270.8,166.7,270.5,167.1,270.7,167.6z"/>
			<path class="st19" d="M273.4,178.8c0,0-5.7-2.3-7.6-3.8c0.3,0.8,0.8,1.8,0.8,4.3l-1.1,2.3l6.8,0
				C272.2,181.6,272.8,179.8,273.4,178.8z"/>
			<path class="st18" d="M270.8,167.1c0,0.1,0.2,0.2,0.3,0.2c0.2,0,0.3-0.1,0.3-0.3c0-0.1-0.2-0.3-0.3-0.2
				C270.9,166.8,270.8,166.9,270.8,167.1z"/>
			<path class="st13" d="M255.1,169.4c0,0-2.7-0.7-4.2,0.3c-1.5,1-3.4,2.8-3.4,2.8s0.3,0.6,1.1,0.5c0.9-0.1,3-1,3.6-1.5
				C252.9,170.8,254.5,169.4,255.1,169.4z"/>
		</g>
		<path class="st8" d="M213.5,191.6c0,0,1.2,2.1,1.6,3.2c0.4,1-0.7,2.1-0.7,2.1s-3.3,0.9-3.7-0.3c-0.5-1.2-1.3-3.3-1.3-3.3
			S212,190.6,213.5,191.6z"/>
		<path class="st6" d="M244.7,211.1c0,0-5.6-3.9-7.4-4.6C240.3,208.7,241.9,209.7,244.7,211.1z"/>
		<path class="st9" d="M206.3,185c0,0,6.6,5.8,7.1,6.4c0.5,0.6-0.1,2.1-1.7,3c-1.6,0.9-1.4,0.3-1.4,0.3s-6.5-7.2-10-8.6
			C200.3,186.1,202.6,181.5,206.3,185z"/>
		<path class="st9" d="M207,187.2c0,0-2.7-4.5,0-6.4c2.6-1.8,9-7.7,9-7.7c1.1-3.5-12.6-14.4-14.3-15.3c-1.7-0.9-7.9,0.3-8.3,4.1
			c-0.4,3.9,4.2,13.1,4.9,15.5c0.7,2.4-1,3.7-0.5,5.6c0.6,1.9,1.3,2.1,2.7,3.6C200.5,186.7,210.3,191.9,207,187.2z"/>
		<path class="st7" d="M212,173.1c0,0-0.9,2.9-1.4,3.6c-0.5,0.7-0.9,2-0.9,2S211.8,176.3,212,173.1z"/>
		<path class="st14" d="M242.8,168.6c0,0-10.6-1.6-13.9,0c-3.3,1.6-3.8,2.9-4.3,4c-0.5,1,0.9,9,3.3,11.4c2.4,2.4,3.3,4.5,5.7,4.7
			c2.4,0.2,9.7-2.1,9.7-6.6s3.5-8.8,2.4-9.5C244.7,171.9,242.8,168.6,242.8,168.6z"/>
		<path class="st14" d="M208.1,174.5c0,0-1,3.3-3.1,3.5c-2.1,0.2-4.9-5.2-5.4-5.6c-0.5-0.3-2.8-6.8-2.8-7.3c0-0.5,1.9-2.3,4.9-0.7
			C204.6,166,208.1,174.5,208.1,174.5z"/>
		<path class="st14" d="M253.7,195.6c0,0,0.3-4-1.9-4.7c-2.3-0.7-5.2-0.5-5.7,0.7c-0.5,1.2-1.2,3.3,0.7,4.9
			C248.7,198.1,251.6,197.9,253.7,195.6z"/>
	</g>
</g>
</svg>
