<?xml version="1.0" encoding="utf-8"?>
<!-- Generator: Adobe Illustrator 27.5.0, SVG Export Plug-In . SVG Version: 6.00 Build 0)  -->
<svg version="1.1" id="Layer_1" xmlns="http://www.w3.org/2000/svg" xmlns:xlink="http://www.w3.org/1999/xlink" x="0px" y="0px"
	 viewBox="0 0 217.9 262.5" style="enable-background:new 0 0 217.9 262.5;" xml:space="preserve">
<style type="text/css">
	.st0{opacity:0.2;}
	.st1{fill-rule:evenodd;clip-rule:evenodd;fill:#4D4C4E;}
	.st2{enable-background:new    ;}
	.st3{fill:#B2B0AF;}
	.st4{fill:#FFFFFF;}
	.st5{fill:#C4C3C1;}
	.st6{fill:#888887;}
	.st7{fill:#C7C5C4;}
	.st8{fill:#C4C2C0;}
	.st9{fill:#F0EFEF;}
	.st10{fill:#7D7A7A;}
	.st11{fill:#A4A4A6;}
	.st12{fill:#C6C5C5;}
	.st13{fill:#E8DDCD;}
	.st14{fill:#F1E7DA;}
</style>
<g class="st0">
	<path class="st1" d="M165,239.9c-6.5,3.9-39.4,5.7-48.7,0c-9.2-5.7-4.2-13.2,0-15.6c4.2-2.4,37.7-27.2,38.7-27.6
		c0.7-0.6-1.8,0.7,2.4-1.7c4.2-2.4,27.5,9.1,34.9,13.4c7.5,4.3,7.5,11.3,0,15.6C190.7,225.1,171.6,236,165,239.9z"/>
</g>
<g class="st0">
	<path class="st1" d="M184.8,258.9c-6.5,3.9-39.4,5.7-48.7,0c-9.2-5.7-4.2-13.2,0-15.6c4.2-2.4,37.7-27.2,38.7-27.6
		c0.7-0.6-1.8,0.7,2.4-1.7c4.2-2.4,27.5,9.1,34.9,13.4c7.5,4.3,7.5,11.3,0,15.6C210.5,244.1,191.4,255,184.8,258.9z"/>
</g>
<g class="st0">
	<path class="st1" d="M80.3,198.5c-6.5,3.9-39.4,5.7-48.7,0c-9.2-5.7-4.2-13.2,0-15.6c4.2-2.4,37.7-27.2,38.7-27.6
		c0.7-0.6-1.8,0.7,2.4-1.7c4.2-2.4,27.5,9.1,34.9,13.4c7.5,4.3,7.5,11.3,0,15.6C106,183.7,86.9,194.7,80.3,198.5z"/>
</g>
<g>
	<g>
		<g>
			<g class="st2">
				<g>
					<g>
						<g>
							<polygon class="st3" points="88.2,172.5 91.4,170.7 91.4,164.1 88.2,166 							"/>
						</g>
					</g>
				</g>
				<g>
					<g>
						<g>
							<polygon class="st4" points="85.7,160.9 88.8,159.1 79.2,153.5 76.1,155.3 							"/>
						</g>
					</g>
				</g>
				<g>
					<g>
						<g>
							<polygon class="st5" points="70,118.5 73.2,116.6 70,115.6 66.9,117.4 							"/>
						</g>
					</g>
				</g>
				<g>
					<g>
						<g>
							<polygon class="st6" points="76.1,155.3 79.2,153.5 73.2,116.6 70,118.5 							"/>
						</g>
					</g>
				</g>
				<g>
					<g>
						<g>
							<polygon class="st7" points="95,133.6 98.2,131.8 95.1,129.3 91.9,131.1 							"/>
						</g>
					</g>
				</g>
				<g>
					<g>
						<g>
							<polygon class="st8" points="88.2,166 91.4,164.1 98.2,131.8 95,133.6 							"/>
						</g>
					</g>
				</g>
				<g>
					<g>
						<g>
							<polygon class="st9" points="70,118.5 66.9,117.4 73.5,157.4 73.4,164 88.2,172.5 88.2,166 95,133.6 91.9,131.1 85.7,160.9 
								76.1,155.3 							"/>
						</g>
					</g>
				</g>
			</g>
			<g class="st2">
				<g>
					<g>
						<g>
							<polygon class="st3" points="31.6,172.5 28.5,170.7 28.4,164.1 31.6,166 							"/>
						</g>
					</g>
				</g>
				<g>
					<g>
						<g>
							<polygon class="st4" points="34.2,160.9 31,159.1 40.6,153.5 43.8,155.3 							"/>
						</g>
					</g>
				</g>
				<g>
					<g>
						<g>
							<polygon class="st5" points="49.8,118.5 46.7,116.6 49.8,115.6 53,117.4 							"/>
						</g>
					</g>
				</g>
				<g>
					<g>
						<g>
							<polygon class="st6" points="43.8,155.3 40.6,153.5 46.7,116.6 49.8,118.5 							"/>
						</g>
					</g>
				</g>
				<g>
					<g>
						<g>
							<polygon class="st7" points="24.8,133.6 21.7,131.8 24.8,129.3 28,131.1 							"/>
						</g>
					</g>
				</g>
				<g>
					<g>
						<g>
							<polygon class="st8" points="31.6,166 28.4,164.1 21.7,131.8 24.8,133.6 							"/>
						</g>
					</g>
				</g>
				<g>
					<g>
						<g>
							<polygon class="st9" points="49.8,118.5 53,117.4 46.4,157.4 46.4,164 31.6,172.5 31.6,166 24.8,133.6 28,131.1 34.2,160.9 
								43.8,155.3 							"/>
						</g>
					</g>
				</g>
			</g>
			<g>
				<g>
					<path class="st10" d="M63.6,170.8c0,1.9-2.1,3.4-4.6,3.4c-2.6,0-4.6-1.5-4.6-3.4c0-1.9,2.1-3.4,4.6-3.4
						C61.6,167.4,63.6,168.9,63.6,170.8z"/>
				</g>
			</g>
			<g>
				<g>
					<path class="st4" d="M87,151.7c-6.9,13.2-18,19.8-27.4,19.8c-9.4,0-20.6-6.7-27.5-19.8H87z"/>
				</g>
			</g>
			<g class="st2">
				<g>
					<g>
						<g>
							<polygon class="st3" points="75.2,197.9 72.1,196 72.1,189.5 75.2,191.3 							"/>
						</g>
					</g>
				</g>
				<g>
					<g>
						<g>
							<polygon class="st4" points="77.8,186.2 74.6,184.4 84.3,178.8 87.4,180.7 							"/>
						</g>
					</g>
				</g>
				<g>
					<g>
						<g>
							<polygon class="st5" points="93.5,143.8 90.3,142 93.4,140.9 96.6,142.8 							"/>
						</g>
					</g>
				</g>
				<g>
					<g>
						<g>
							<polygon class="st3" points="87.4,180.7 84.3,178.8 90.3,142 93.5,143.8 							"/>
						</g>
					</g>
				</g>
				<g>
					<g>
						<g>
							<polygon class="st7" points="68.5,159 65.3,157.2 68.4,154.6 71.6,156.5 							"/>
						</g>
					</g>
				</g>
				<g>
					<g>
						<g>
							<polygon class="st8" points="75.2,191.3 72.1,189.5 65.3,157.2 68.5,159 							"/>
						</g>
					</g>
				</g>
				<g>
					<g>
						<g>
							<polygon class="st9" points="93.5,143.8 96.6,142.8 90,182.8 90,189.3 75.2,197.9 75.2,191.3 68.5,159 71.6,156.5 
								77.8,186.2 87.4,180.7 							"/>
						</g>
					</g>
				</g>
			</g>
			<g class="st2">
				<g>
					<g>
						<g>
							<polygon class="st3" points="43.2,196.1 46.3,194.2 46.4,187.7 43.2,189.5 							"/>
						</g>
					</g>
				</g>
				<g>
					<g>
						<g>
							<polygon class="st4" points="40.6,184.4 43.8,182.6 34.2,177 31,178.9 							"/>
						</g>
					</g>
				</g>
				<g>
					<g>
						<g>
							<polygon class="st5" points="25,142 28.1,140.2 25,139.1 21.8,141 							"/>
						</g>
					</g>
				</g>
				<g>
					<g>
						<g>
							<polygon class="st3" points="31,178.9 34.2,177 28.1,140.2 25,142 							"/>
						</g>
					</g>
				</g>
				<g>
					<g>
						<g>
							<polygon class="st7" points="50,157.2 53.1,155.3 50,152.8 46.8,154.6 							"/>
						</g>
					</g>
				</g>
				<g>
					<g>
						<g>
							<polygon class="st8" points="43.2,189.5 46.4,187.7 53.1,155.3 50,157.2 							"/>
						</g>
					</g>
				</g>
				<g>
					<g>
						<g>
							<polygon class="st9" points="25,142 21.8,141 28.4,181 28.4,187.5 43.2,196.1 43.2,189.5 50,157.2 46.8,154.6 40.6,184.4 
								31,178.9 							"/>
						</g>
					</g>
				</g>
			</g>
			<g>
				<g class="st2">
					<g>
						<g>
							<g>
								<path class="st11" d="M99.2,133.7l0,4.6c0,5.8-4.1,11.7-11.8,16.1c-15.3,8.9-40.3,8.9-55.7,0c-7.8-4.5-11.3-10.5-11.3-16.3
									l0-4.6c0,5.9,3.9,11.8,11.6,16.2c15.5,8.9,40.4,8.9,55.7,0C95.3,145.3,99.1,139.5,99.2,133.7z"/>
							</g>
						</g>
					</g>
					<g>
						<g>
							<g>
								<path class="st12" d="M87.5,117.4c15.5,8.9,15.5,23.4,0.2,32.3c-15.3,8.9-40.3,8.9-55.7,0c-15.4-8.9-15.5-23.4-0.2-32.3
									C47.1,108.5,72.1,108.5,87.5,117.4z"/>
							</g>
						</g>
					</g>
				</g>
			</g>
			<g>
				<g class="st2">
					<g>
						<g>
							<g>
								<path class="st13" d="M98.2,27.7l-0.3,104.6c0,5.7-3.7,11.3-11.2,15.6c-14.9,8.7-39.3,8.7-54.3,0
									c-7.6-4.4-11.3-10.1-11.3-15.8l0.3-104.6c0,5.7,3.8,11.5,11.3,15.8C47.7,52,72,52,87,43.3C94.4,39,98.1,33.4,98.2,27.7z"/>
							</g>
						</g>
					</g>
					<g>
						<g>
							<g>
								<path class="st13" d="M87,43.3c-10.3,6-25,7.8-38.1,5.6v104.6c13,2.2,27.6,0.3,37.8-5.6c7.4-4.3,11.2-10,11.2-15.6
									l0.3-104.6C98.1,33.4,94.4,39,87,43.3z"/>
							</g>
						</g>
					</g>
					<g>
						<g>
							<g>
								<path class="st9" d="M88,42.7v104.4c6.6-4.2,9.8-9.5,9.9-14.8l0.3-104.6C98.1,33.1,94.8,38.5,88,42.7z"/>
							</g>
						</g>
					</g>
					<g>
						<g>
							<g>
								<g>
									<path class="st12" d="M98.1,47.3l0,5.4c0,5.7-4,11.3-11.5,15.6c-14.9,8.7-39.3,8.7-54.3,0c-7.6-4.4-11-10.1-11-15.8l0-5.4
										c0,5.7,3.8,11.5,11.4,15.8c15.1,8.7,39.4,8.7,54.3,0C94.4,58.6,98.1,52.9,98.1,47.3z"/>
								</g>
							</g>
						</g>
						<g>
							<g>
								<g>
									<path class="st12" d="M98.1,76.2l0,5.4c0,5.7-4,11.3-11.5,15.6c-14.9,8.7-39.3,8.7-54.3,0c-7.6-4.4-11-10.1-11-15.8l0-5.4
										c0,5.7,3.8,11.5,11.4,15.8c15.1,8.7,39.4,8.7,54.3,0C94.4,87.6,98.1,81.9,98.1,76.2z"/>
								</g>
							</g>
						</g>
						<g>
							<g>
								<g>
									<path class="st12" d="M98.1,105.2l0,5.4c0,5.7-4,11.3-11.5,15.6c-14.9,8.7-39.3,8.7-54.3,0c-7.6-4.4-11-10.1-11-15.8l0-5.4
										c0,5.7,3.8,11.5,11.4,15.8c15.1,8.7,39.4,8.7,54.3,0C94.4,116.5,98.1,110.9,98.1,105.2z"/>
								</g>
							</g>
						</g>
					</g>
					<g>
						<g>
							<g>
								<path class="st14" d="M86.8,11.9c15.1,8.7,15.2,22.8,0.2,31.5C72,52,47.7,52,32.6,43.3c-15-8.7-15.1-22.8-0.2-31.5
									C47.5,3.2,71.8,3.2,86.8,11.9z"/>
							</g>
						</g>
					</g>
					<g>
						<g>
							<g>
								<path class="st12" d="M72,17.7c6.9,4,6.9,10.4,0.1,14.4c-6.8,4-18,4-24.9,0c-6.9-4-6.9-10.4-0.1-14.4
									C54,13.8,65.1,13.8,72,17.7z"/>
							</g>
						</g>
					</g>
				</g>
			</g>
			<g>
				<g class="st2">
					<g>
						<g>
							<g>
								<path class="st12" d="M72.9,19.5l0,5.2c0,2-1.3,3.9-3.8,5.4c-5.2,3-13.6,3-18.8,0c-2.6-1.5-3.9-3.5-3.9-5.5l0-5.2
									c0,2,1.3,4,3.9,5.5c5.2,3,13.6,3,18.8,0C71.6,23.4,72.9,21.5,72.9,19.5z"/>
							</g>
						</g>
					</g>
					<g>
						<g>
							<g>
								<path class="st9" d="M69.1,24.9c-5.2,3-13.6,3-18.8,0C45,21.9,45,17,50.2,14c5.2-3,13.6-3,18.8,0
									C74.2,17,74.2,21.9,69.1,24.9z"/>
							</g>
						</g>
					</g>
				</g>
			</g>
			<g>
				<g>
					<g>
						<path class="st10" d="M66.7,22.6c-0.2,0-0.3,0-0.4-0.1l-12-7c-0.4-0.2-0.6-0.8-0.3-1.2c0.2-0.4,0.8-0.6,1.2-0.3l12,7
							c0.4,0.2,0.6,0.8,0.3,1.2C67.3,22.4,67,22.6,66.7,22.6z"/>
					</g>
				</g>
				<g>
					<g>
						<path class="st10" d="M57.2,28.1c-0.2,0-0.3,0-0.4-0.1l-12-7c-0.4-0.2-0.6-0.8-0.3-1.2c0.2-0.4,0.8-0.6,1.2-0.3l12,7
							c0.4,0.2,0.6,0.8,0.3,1.2C57.8,27.9,57.5,28.1,57.2,28.1z"/>
					</g>
				</g>
				<g>
					<g>
						<path class="st10" d="M47.7,33.6c-0.2,0-0.3,0-0.4-0.1l-12-7c-0.4-0.2-0.6-0.8-0.3-1.2c0.2-0.4,0.8-0.6,1.2-0.3l12,7
							c0.4,0.2,0.6,0.8,0.3,1.2C48.3,33.4,48,33.6,47.7,33.6z"/>
					</g>
				</g>
				<g>
					<g>
						<path class="st10" d="M38.1,39.1c-0.2,0-0.3,0-0.4-0.1l-12-7c-0.4-0.2-0.6-0.8-0.3-1.2c0.2-0.4,0.8-0.6,1.2-0.3l12,7
							c0.4,0.2,0.6,0.8,0.3,1.2C38.8,38.9,38.5,39.1,38.1,39.1z"/>
					</g>
				</g>
				<g>
					<g>
						<path class="st10" d="M28.6,44.5c-0.2,0-0.3,0-0.4-0.1l-12-7c-0.4-0.2-0.6-0.8-0.3-1.2c0.2-0.4,0.8-0.6,1.2-0.3l12,7
							c0.4,0.2,0.6,0.8,0.3,1.2C29.2,44.4,28.9,44.5,28.6,44.5z"/>
					</g>
				</g>
				<g>
					<g>
						<path class="st10" d="M19.1,50c-0.2,0-0.3,0-0.4-0.1l-12-7c-0.4-0.2-0.6-0.8-0.3-1.2c0.2-0.4,0.8-0.6,1.2-0.3l12,7
							c0.4,0.2,0.6,0.8,0.3,1.2C19.7,49.9,19.4,50,19.1,50z"/>
					</g>
				</g>
			</g>
			<g>
				<g>
					<g>
						<path class="st10" d="M13,63.8c-0.2,0-0.3,0-0.5-0.1l-12-7.5c-0.4-0.3-0.6-0.8-0.3-1.2c0.3-0.4,0.8-0.6,1.2-0.3l12,7.5
							c0.4,0.3,0.6,0.8,0.3,1.2C13.5,63.6,13.3,63.8,13,63.8z"/>
					</g>
				</g>
				<g>
					<g>
						<path class="st10" d="M13,74.9c-0.2,0-0.3,0-0.5-0.1l-12-7.5C0,67-0.1,66.4,0.2,66c0.3-0.4,0.8-0.6,1.2-0.3l12,7.5
							c0.4,0.3,0.6,0.8,0.3,1.2C13.5,74.7,13.3,74.9,13,74.9z"/>
					</g>
				</g>
				<g>
					<g>
						<path class="st10" d="M13,85.9c-0.2,0-0.3,0-0.5-0.1l-12-7.5C0,78-0.1,77.5,0.2,77c0.3-0.4,0.8-0.5,1.2-0.3l12,7.5
							c0.4,0.3,0.6,0.8,0.3,1.2C13.5,85.8,13.3,85.9,13,85.9z"/>
					</g>
				</g>
				<g>
					<g>
						<path class="st10" d="M13,97c-0.2,0-0.3,0-0.5-0.1l-12-7.5c-0.4-0.3-0.6-0.8-0.3-1.2c0.3-0.4,0.8-0.5,1.2-0.3l12,7.5
							c0.4,0.3,0.6,0.8,0.3,1.2C13.5,96.8,13.3,97,13,97z"/>
					</g>
				</g>
				<g>
					<g>
						<path class="st10" d="M13,108.1c-0.2,0-0.3,0-0.5-0.1l-12-7.5c-0.4-0.3-0.6-0.8-0.3-1.2c0.3-0.4,0.8-0.6,1.2-0.3l12,7.5
							c0.4,0.3,0.6,0.8,0.3,1.2C13.5,107.9,13.3,108.1,13,108.1z"/>
					</g>
				</g>
				<g>
					<g>
						<path class="st10" d="M13,119.1c-0.2,0-0.3,0-0.5-0.1l-12-7.5c-0.4-0.3-0.6-0.8-0.3-1.2c0.3-0.4,0.8-0.6,1.2-0.3l12,7.5
							c0.4,0.3,0.6,0.8,0.3,1.2C13.5,119,13.3,119.1,13,119.1z"/>
					</g>
				</g>
				<g>
					<g>
						<path class="st10" d="M13,130.2c-0.2,0-0.3,0-0.5-0.1l-12-7.5c-0.4-0.3-0.6-0.8-0.3-1.2c0.3-0.4,0.8-0.6,1.2-0.3l12,7.5
							c0.4,0.3,0.6,0.8,0.3,1.2C13.5,130.1,13.3,130.2,13,130.2z"/>
					</g>
				</g>
				<g>
					<g>
						<path class="st10" d="M13,141.3c-0.2,0-0.3,0-0.5-0.1l-12-7.5c-0.4-0.3-0.6-0.8-0.3-1.2c0.3-0.4,0.8-0.6,1.2-0.3l12,7.5
							c0.4,0.3,0.6,0.8,0.3,1.2C13.5,141.1,13.3,141.3,13,141.3z"/>
					</g>
				</g>
				<g>
					<g>
						<path class="st10" d="M13,152.4c-0.2,0-0.3,0-0.5-0.1l-12-7.5c-0.4-0.3-0.6-0.8-0.3-1.2c0.3-0.4,0.8-0.6,1.2-0.3l12,7.5
							c0.4,0.3,0.6,0.8,0.3,1.2C13.5,152.2,13.3,152.4,13,152.4z"/>
					</g>
				</g>
				<g>
					<g>
						<path class="st10" d="M13,163.4c-0.2,0-0.3,0-0.5-0.1l-12-7.5c-0.4-0.3-0.6-0.8-0.3-1.2c0.3-0.4,0.8-0.5,1.2-0.3l12,7.5
							c0.4,0.3,0.6,0.8,0.3,1.2C13.5,163.3,13.3,163.4,13,163.4z"/>
					</g>
				</g>
				<g>
					<g>
						<path class="st10" d="M13,174.5c-0.2,0-0.3,0-0.5-0.1l-12-7.5c-0.4-0.3-0.6-0.8-0.3-1.2c0.3-0.4,0.8-0.5,1.2-0.3l12,7.5
							c0.4,0.3,0.6,0.8,0.3,1.2C13.5,174.4,13.3,174.5,13,174.5z"/>
					</g>
				</g>
				<g>
					<g>
						<g class="st2">
							<g>
								<g>
									<g>
										<g>
											<path class="st10" d="M13,53.6c-0.2,0-0.3,0-0.4-0.1c-0.3-0.2-0.4-0.5-0.5-0.8l0-8.2c0-0.3,0.2-0.6,0.4-0.8L75.7,7.1
												c0.3-0.2,0.6-0.2,0.9,0c0.3,0.2,0.4,0.5,0.5,0.8l0,8.2c0,0.3-0.2,0.6-0.4,0.8L13.4,53.5C13.3,53.5,13.1,53.6,13,53.6z
												 M13.8,45l0,6.1l61.4-35.6l0-6.1L13.8,45z"/>
										</g>
									</g>
								</g>
							</g>
						</g>
					</g>
					<g>
						<g>
							<path class="st10" d="M13,187.1c-0.5,0-0.9-0.4-0.9-0.9V51.1c0-0.5,0.4-0.9,0.9-0.9c0.5,0,0.9,0.4,0.9,0.9v135.1
								C13.9,186.6,13.5,187.1,13,187.1z"/>
						</g>
					</g>
				</g>
				<g>
					<g>
						<g class="st2">
							<g>
								<g>
									<g>
										<g>
											<path class="st10" d="M0.9,46.6c-0.2,0-0.3,0-0.4-0.1C0.2,46.4,0,46.1,0,45.7l0-8.2c0-0.3,0.2-0.6,0.4-0.8L63.7,0.1
												c0.3-0.2,0.6-0.2,0.9,0C64.8,0.3,65,0.6,65,0.9l0,8.2c0,0.3-0.2,0.6-0.4,0.8L1.4,46.5C1.2,46.6,1.1,46.6,0.9,46.6z
												 M1.8,38.1l0,6.1L63.2,8.6l0-6.1L1.8,38.1z"/>
										</g>
									</g>
								</g>
							</g>
						</g>
					</g>
					<g>
						<g>
							<path class="st10" d="M0.9,180.1c-0.5,0-0.9-0.4-0.9-0.9V44.1c0-0.5,0.4-0.9,0.9-0.9s0.9,0.4,0.9,0.9v135.1
								C1.8,179.7,1.4,180.1,0.9,180.1z"/>
						</g>
					</g>
				</g>
				<g>
					<g>
						<g>
							<path class="st10" d="M13,53.6c-0.2,0-0.3,0-0.4-0.1l-12-7C0.2,46.4,0,46.1,0,45.7c0-0.3,0.2-0.6,0.4-0.8L63.7,8.3
								c0.3-0.2,0.6-0.2,0.9,0l12,7c0.3,0.2,0.4,0.5,0.4,0.8c0,0.3-0.2,0.6-0.4,0.8L13.4,53.5C13.3,53.5,13.1,53.6,13,53.6z
								 M2.7,45.7L13,51.6L74.4,16l-10.2-5.9L2.7,45.7z"/>
						</g>
					</g>
				</g>
			</g>
		</g>
	</g>
	<g>
		<g>
			<g class="st2">
				<g>
					<g>
						<g>
							<polygon class="st3" points="191.2,232.8 194.4,231 194.4,224.5 191.2,226.3 							"/>
						</g>
					</g>
				</g>
				<g>
					<g>
						<g>
							<polygon class="st4" points="188.7,221.2 191.8,219.4 182.2,213.8 179,215.7 							"/>
						</g>
					</g>
				</g>
				<g>
					<g>
						<g>
							<polygon class="st5" points="173,178.8 176.2,177 173,175.9 169.9,177.7 							"/>
						</g>
					</g>
				</g>
				<g>
					<g>
						<g>
							<polygon class="st6" points="179,215.7 182.2,213.8 176.2,177 173,178.8 							"/>
						</g>
					</g>
				</g>
				<g>
					<g>
						<g>
							<polygon class="st7" points="198,194 201.1,192.1 198,189.6 194.9,191.4 							"/>
						</g>
					</g>
				</g>
				<g>
					<g>
						<g>
							<polygon class="st8" points="191.2,226.3 194.4,224.5 201.1,192.1 198,194 							"/>
						</g>
					</g>
				</g>
				<g>
					<g>
						<g>
							<polygon class="st9" points="173,178.8 169.9,177.7 176.4,217.8 176.4,224.3 191.2,232.8 191.2,226.3 198,194 194.9,191.4 
								188.7,221.2 179,215.7 							"/>
						</g>
					</g>
				</g>
			</g>
			<g class="st2">
				<g>
					<g>
						<g>
							<polygon class="st3" points="134.6,232.8 131.4,231 131.4,224.5 134.6,226.3 							"/>
						</g>
					</g>
				</g>
				<g>
					<g>
						<g>
							<polygon class="st4" points="137.2,221.2 134,219.4 143.6,213.8 146.8,215.7 							"/>
						</g>
					</g>
				</g>
				<g>
					<g>
						<g>
							<polygon class="st5" points="152.8,178.8 149.7,177 152.8,175.9 155.9,177.7 							"/>
						</g>
					</g>
				</g>
				<g>
					<g>
						<g>
							<polygon class="st6" points="146.8,215.7 143.6,213.8 149.7,177 152.8,178.8 							"/>
						</g>
					</g>
				</g>
				<g>
					<g>
						<g>
							<polygon class="st7" points="127.8,194 124.7,192.1 127.8,189.6 130.9,191.4 							"/>
						</g>
					</g>
				</g>
				<g>
					<g>
						<g>
							<polygon class="st8" points="134.6,226.3 131.4,224.5 124.7,192.1 127.8,194 							"/>
						</g>
					</g>
				</g>
				<g>
					<g>
						<g>
							<polygon class="st9" points="152.8,178.8 155.9,177.7 149.4,217.8 149.4,224.3 134.6,232.8 134.6,226.3 127.8,194 
								130.9,191.4 137.2,221.2 146.8,215.7 							"/>
						</g>
					</g>
				</g>
			</g>
			<g>
				<g>
					<path class="st10" d="M166.6,231.2c0,1.9-2.1,3.4-4.6,3.4c-2.6,0-4.6-1.5-4.6-3.4c0-1.9,2.1-3.4,4.6-3.4
						C164.5,227.8,166.6,229.3,166.6,231.2z"/>
				</g>
			</g>
			<g>
				<g>
					<path class="st4" d="M190,212c-6.9,13.2-18,19.8-27.4,19.8c-9.4,0-20.6-6.7-27.5-19.8H190z"/>
				</g>
			</g>
			<g class="st2">
				<g>
					<g>
						<g>
							<polygon class="st3" points="178.2,258.2 175.1,256.4 175,249.8 178.2,251.6 							"/>
						</g>
					</g>
				</g>
				<g>
					<g>
						<g>
							<polygon class="st4" points="180.8,246.6 177.6,244.7 187.2,239.2 190.4,241 							"/>
						</g>
					</g>
				</g>
				<g>
					<g>
						<g>
							<polygon class="st5" points="196.4,204.1 193.3,202.3 196.4,201.2 199.6,203.1 							"/>
						</g>
					</g>
				</g>
				<g>
					<g>
						<g>
							<polygon class="st3" points="190.4,241 187.2,239.2 193.3,202.3 196.4,204.1 							"/>
						</g>
					</g>
				</g>
				<g>
					<g>
						<g>
							<polygon class="st7" points="171.5,219.3 168.3,217.5 171.4,214.9 174.6,216.8 							"/>
						</g>
					</g>
				</g>
				<g>
					<g>
						<g>
							<polygon class="st8" points="178.2,251.6 175,249.8 168.3,217.5 171.5,219.3 							"/>
						</g>
					</g>
				</g>
				<g>
					<g>
						<g>
							<polygon class="st9" points="196.4,204.1 199.6,203.1 193,243.1 193,249.6 178.2,258.2 178.2,251.6 171.5,219.3 174.6,216.8 
								180.8,246.6 190.4,241 							"/>
						</g>
					</g>
				</g>
			</g>
			<g class="st2">
				<g>
					<g>
						<g>
							<polygon class="st3" points="146.2,256.4 149.3,254.5 149.3,248 146.2,249.8 							"/>
						</g>
					</g>
				</g>
				<g>
					<g>
						<g>
							<polygon class="st4" points="143.6,244.8 146.8,242.9 137.1,237.4 134,239.2 							"/>
						</g>
					</g>
				</g>
				<g>
					<g>
						<g>
							<polygon class="st5" points="127.9,202.3 131.1,200.5 128,199.4 124.8,201.3 							"/>
						</g>
					</g>
				</g>
				<g>
					<g>
						<g>
							<polygon class="st3" points="134,239.2 137.1,237.4 131.1,200.5 127.9,202.3 							"/>
						</g>
					</g>
				</g>
				<g>
					<g>
						<g>
							<polygon class="st7" points="152.9,217.5 156.1,215.7 153,213.1 149.8,215 							"/>
						</g>
					</g>
				</g>
				<g>
					<g>
						<g>
							<polygon class="st8" points="146.2,249.8 149.3,248 156.1,215.7 152.9,217.5 							"/>
						</g>
					</g>
				</g>
				<g>
					<g>
						<g>
							<polygon class="st9" points="127.9,202.3 124.8,201.3 131.4,241.3 131.4,247.8 146.2,256.4 146.2,249.8 152.9,217.5 
								149.8,215 143.6,244.8 134,239.2 							"/>
						</g>
					</g>
				</g>
			</g>
			<g>
				<g class="st2">
					<g>
						<g>
							<path class="st11" d="M202.1,194v4.6c0,5.8-4.1,11.7-11.7,16.2c-15.3,8.9-40.3,8.9-55.8,0c-7.8-4.4-11.3-10.4-11.3-16.3v-4.5
								c0-5.8,3.8-11.6,11.5-16.1c15.4-8.9,40.3-8.9,55.7,0C198.3,182.2,202.1,188.1,202.1,194z"/>
						</g>
					</g>
				</g>
			</g>
			<g>
				<g class="st2">
					<g>
						<g>
							<path class="st11" d="M202.1,194l0,4.6c0,5.8-4.1,11.7-11.8,16.1c-15.3,8.9-40.3,8.9-55.7,0c-7.8-4.5-11.3-10.5-11.3-16.3
								l0-4.6c0,5.9,3.9,11.8,11.6,16.2c15.5,8.9,40.4,8.9,55.7,0C198.3,205.6,202.1,199.8,202.1,194z"/>
						</g>
					</g>
					<g>
						<g>
							<g>
								<path class="st12" d="M190.5,177.7c15.5,8.9,15.5,23.4,0.2,32.3c-15.3,8.9-40.3,8.9-55.7,0c-15.4-8.9-15.5-23.4-0.2-32.3
									C150.1,168.8,175.1,168.8,190.5,177.7z"/>
							</g>
						</g>
					</g>
				</g>
			</g>
			<g>
				<g class="st2">
					<g>
						<g>
							<g>
								<path class="st13" d="M201.1,88l-0.3,104.6c0,5.7-3.7,11.3-11.2,15.6c-14.9,8.7-39.3,8.7-54.3,0
									c-7.6-4.4-11.3-10.1-11.3-15.8l0.3-104.6c0,5.7,3.8,11.5,11.3,15.8c15.1,8.7,39.4,8.7,54.3,0
									C197.4,99.3,201.1,93.7,201.1,88z"/>
							</g>
						</g>
					</g>
					<g>
						<g>
							<path class="st13" d="M190,103.7c-10.3,6-25,7.8-38.1,5.6v104.6c13,2.2,27.6,0.3,37.8-5.6c7.4-4.3,11.2-10,11.2-15.6
								L201.1,88C201.1,93.7,197.4,99.3,190,103.7z"/>
						</g>
					</g>
					<g>
						<g>
							<g>
								<path class="st9" d="M191,103v104.4c6.6-4.2,9.8-9.5,9.9-14.8L201.1,88C201.1,93.4,197.7,98.8,191,103z"/>
							</g>
						</g>
					</g>
					<g>
						<g>
							<g>
								<path class="st12" d="M201.1,107.6l0,5.4c0,5.7-4,11.3-11.5,15.6c-14.9,8.7-39.3,8.7-54.3,0c-7.6-4.4-11-10.1-11-15.8l0-5.4
									c0,5.7,3.8,11.5,11.4,15.8c15.1,8.7,39.4,8.7,54.3,0C197.4,118.9,201.1,113.2,201.1,107.6z"/>
							</g>
						</g>
						<g>
							<g>
								<g>
									<path class="st12" d="M201.1,136.6l0,5.4c0,5.7-4,11.3-11.5,15.6c-14.9,8.7-39.3,8.7-54.3,0c-7.6-4.4-11-10.1-11-15.8
										l0-5.4c0,5.7,3.8,11.5,11.4,15.8c15.1,8.7,39.4,8.7,54.3,0C197.4,147.9,201.1,142.2,201.1,136.6z"/>
								</g>
							</g>
						</g>
						<g>
							<g>
								<g>
									<path class="st12" d="M201.1,165.6l0,5.4c0,5.7-4,11.3-11.5,15.6c-14.9,8.7-39.3,8.7-54.3,0c-7.6-4.4-11-10.1-11-15.8
										l0-5.4c0,5.7,3.8,11.5,11.4,15.8c15.1,8.7,39.4,8.7,54.3,0C197.4,176.9,201.1,171.2,201.1,165.6z"/>
								</g>
							</g>
						</g>
					</g>
					<g>
						<g>
							<g>
								<path class="st14" d="M189.8,72.2c15.1,8.7,15.2,22.8,0.2,31.5c-14.9,8.7-39.3,8.7-54.3,0c-15-8.7-15.1-22.8-0.2-31.5
									C150.4,63.5,174.7,63.5,189.8,72.2z"/>
							</g>
						</g>
					</g>
					<g>
						<g>
							<g>
								<path class="st12" d="M175,78.1c6.9,4,6.9,10.4,0.1,14.4c-6.8,4-18,4-24.9,0c-6.9-4-6.9-10.4-0.1-14.4
									C157,74.1,168.1,74.1,175,78.1z"/>
							</g>
						</g>
					</g>
				</g>
			</g>
			<g>
				<g class="st2">
					<g>
						<g>
							<g>
								<path class="st12" d="M175.9,79.9l0,5.2c0,2-1.3,3.9-3.8,5.4c-5.2,3-13.6,3-18.8,0c-2.6-1.5-3.9-3.5-3.9-5.5l0-5.2
									c0,2,1.3,4,3.9,5.5c5.2,3,13.6,3,18.8,0C174.6,83.8,175.9,81.8,175.9,79.9z"/>
							</g>
						</g>
					</g>
					<g>
						<g>
							<g>
								<path class="st9" d="M172,85.2c-5.2,3-13.6,3-18.8,0c-5.2-3-5.3-7.9-0.1-10.9c5.2-3,13.6-3,18.8,0
									C177.2,77.4,177.2,82.2,172,85.2z"/>
							</g>
						</g>
					</g>
				</g>
			</g>
			<g>
				<g>
					<g>
						<path class="st10" d="M169.7,82.9c-0.2,0-0.3,0-0.4-0.1l-12-7c-0.4-0.2-0.6-0.8-0.3-1.2c0.2-0.4,0.8-0.6,1.2-0.3l12,7
							c0.4,0.2,0.6,0.8,0.3,1.2C170.3,82.8,170,82.9,169.7,82.9z"/>
					</g>
				</g>
				<g>
					<g>
						<path class="st10" d="M160.1,88.4c-0.2,0-0.3,0-0.4-0.1l-12-7c-0.4-0.2-0.6-0.8-0.3-1.2c0.2-0.4,0.8-0.6,1.2-0.3l12,7
							c0.4,0.2,0.6,0.8,0.3,1.2C160.8,88.2,160.5,88.4,160.1,88.4z"/>
					</g>
				</g>
				<g>
					<g>
						<path class="st10" d="M150.6,93.9c-0.2,0-0.3,0-0.4-0.1l-12-7c-0.4-0.2-0.6-0.8-0.3-1.2c0.2-0.4,0.8-0.6,1.2-0.3l12,7
							c0.4,0.2,0.6,0.8,0.3,1.2C151.3,93.7,150.9,93.9,150.6,93.9z"/>
					</g>
				</g>
				<g>
					<g>
						<path class="st10" d="M141.1,99.4c-0.2,0-0.3,0-0.4-0.1l-12-7c-0.4-0.2-0.6-0.8-0.3-1.2c0.2-0.4,0.8-0.6,1.2-0.3l12,7
							c0.4,0.2,0.6,0.8,0.3,1.2C141.7,99.2,141.4,99.4,141.1,99.4z"/>
					</g>
				</g>
				<g>
					<g>
						<path class="st10" d="M131.6,104.9c-0.2,0-0.3,0-0.4-0.1l-12-7c-0.4-0.2-0.6-0.8-0.3-1.2c0.2-0.4,0.8-0.6,1.2-0.3l12,7
							c0.4,0.2,0.6,0.8,0.3,1.2C132.2,104.7,131.9,104.9,131.6,104.9z"/>
					</g>
				</g>
				<g>
					<g>
						<path class="st10" d="M122.1,110.4c-0.2,0-0.3,0-0.4-0.1l-12-7c-0.4-0.2-0.6-0.8-0.3-1.2c0.2-0.4,0.8-0.6,1.2-0.3l12,7
							c0.4,0.2,0.6,0.8,0.3,1.2C122.7,110.2,122.4,110.4,122.1,110.4z"/>
					</g>
				</g>
			</g>
			<g>
				<g>
					<g>
						<path class="st10" d="M115.9,124.1c-0.2,0-0.3,0-0.5-0.1l-12-7.5c-0.4-0.3-0.6-0.8-0.3-1.2c0.3-0.4,0.8-0.6,1.2-0.3l12,7.5
							c0.4,0.3,0.6,0.8,0.3,1.2C116.5,124,116.2,124.1,115.9,124.1z"/>
					</g>
				</g>
				<g>
					<g>
						<path class="st10" d="M115.9,135.2c-0.2,0-0.3,0-0.5-0.1l-12-7.5c-0.4-0.3-0.6-0.8-0.3-1.2c0.3-0.4,0.8-0.6,1.2-0.3l12,7.5
							c0.4,0.3,0.6,0.8,0.3,1.2C116.5,135,116.2,135.2,115.9,135.2z"/>
					</g>
				</g>
				<g>
					<g>
						<path class="st10" d="M115.9,146.3c-0.2,0-0.3,0-0.5-0.1l-12-7.5c-0.4-0.3-0.6-0.8-0.3-1.2c0.3-0.4,0.8-0.5,1.2-0.3l12,7.5
							c0.4,0.3,0.6,0.8,0.3,1.2C116.5,146.1,116.2,146.3,115.9,146.3z"/>
					</g>
				</g>
				<g>
					<g>
						<path class="st10" d="M115.9,157.3c-0.2,0-0.3,0-0.5-0.1l-12-7.5c-0.4-0.3-0.6-0.8-0.3-1.2c0.3-0.4,0.8-0.5,1.2-0.3l12,7.5
							c0.4,0.3,0.6,0.8,0.3,1.2C116.5,157.2,116.2,157.3,115.9,157.3z"/>
					</g>
				</g>
				<g>
					<g>
						<path class="st10" d="M115.9,168.4c-0.2,0-0.3,0-0.5-0.1l-12-7.5c-0.4-0.3-0.6-0.8-0.3-1.2c0.3-0.4,0.8-0.6,1.2-0.3l12,7.5
							c0.4,0.3,0.6,0.8,0.3,1.2C116.5,168.2,116.2,168.4,115.9,168.4z"/>
					</g>
				</g>
				<g>
					<g>
						<path class="st10" d="M115.9,179.5c-0.2,0-0.3,0-0.5-0.1l-12-7.5c-0.4-0.3-0.6-0.8-0.3-1.2c0.3-0.4,0.8-0.6,1.2-0.3l12,7.5
							c0.4,0.3,0.6,0.8,0.3,1.2C116.5,179.3,116.2,179.5,115.9,179.5z"/>
					</g>
				</g>
				<g>
					<g>
						<path class="st10" d="M115.9,190.5c-0.2,0-0.3,0-0.5-0.1l-12-7.5c-0.4-0.3-0.6-0.8-0.3-1.2c0.3-0.4,0.8-0.6,1.2-0.3l12,7.5
							c0.4,0.3,0.6,0.8,0.3,1.2C116.5,190.4,116.2,190.5,115.9,190.5z"/>
					</g>
				</g>
				<g>
					<g>
						<path class="st10" d="M115.9,201.6c-0.2,0-0.3,0-0.5-0.1l-12-7.5c-0.4-0.3-0.6-0.8-0.3-1.2c0.3-0.4,0.8-0.6,1.2-0.3l12,7.5
							c0.4,0.3,0.6,0.8,0.3,1.2C116.5,201.5,116.2,201.6,115.9,201.6z"/>
					</g>
				</g>
				<g>
					<g>
						<path class="st10" d="M115.9,212.7c-0.2,0-0.3,0-0.5-0.1l-12-7.5c-0.4-0.3-0.6-0.8-0.3-1.2c0.3-0.4,0.8-0.6,1.2-0.3l12,7.5
							c0.4,0.3,0.6,0.8,0.3,1.2C116.5,212.5,116.2,212.7,115.9,212.7z"/>
					</g>
				</g>
				<g>
					<g>
						<path class="st10" d="M115.9,223.8c-0.2,0-0.3,0-0.5-0.1l-12-7.5c-0.4-0.3-0.6-0.8-0.3-1.2c0.3-0.4,0.8-0.5,1.2-0.3l12,7.5
							c0.4,0.3,0.6,0.8,0.3,1.2C116.5,223.6,116.2,223.8,115.9,223.8z"/>
					</g>
				</g>
				<g>
					<g>
						<path class="st10" d="M115.9,234.8c-0.2,0-0.3,0-0.5-0.1l-12-7.5c-0.4-0.3-0.6-0.8-0.3-1.2c0.3-0.4,0.8-0.5,1.2-0.3l12,7.5
							c0.4,0.3,0.6,0.8,0.3,1.2C116.5,234.7,116.2,234.8,115.9,234.8z"/>
					</g>
				</g>
				<g>
					<g>
						<g class="st2">
							<g>
								<path class="st10" d="M115.9,113.9c-0.2,0-0.3,0-0.4-0.1c-0.3-0.2-0.4-0.5-0.5-0.8l0-8.2c0-0.3,0.2-0.6,0.4-0.8l63.2-36.6
									c0.3-0.2,0.6-0.2,0.9,0c0.3,0.2,0.4,0.5,0.5,0.8l0,8.2c0,0.3-0.2,0.6-0.4,0.8l-63.2,36.6
									C116.3,113.9,116.1,113.9,115.9,113.9z M116.8,105.3l0,6.1l61.4-35.6l0-6.1L116.8,105.3z"/>
							</g>
						</g>
					</g>
					<g>
						<g>
							<path class="st10" d="M115.9,247.4c-0.5,0-0.9-0.4-0.9-0.9V111.4c0-0.5,0.4-0.9,0.9-0.9c0.5,0,0.9,0.4,0.9,0.9v135.1
								C116.8,247,116.4,247.4,115.9,247.4z"/>
						</g>
					</g>
				</g>
				<g>
					<g>
						<g class="st2">
							<g>
								<g>
									<g>
										<g>
											<path class="st10" d="M103.9,107c-0.2,0-0.3,0-0.4-0.1c-0.3-0.2-0.4-0.5-0.5-0.8l0-8.2c0-0.3,0.2-0.6,0.4-0.8l63.2-36.6
												c0.3-0.2,0.6-0.2,0.9,0c0.3,0.2,0.4,0.5,0.5,0.8l0,8.2c0,0.3-0.2,0.6-0.4,0.8l-63.2,36.6
												C104.2,106.9,104.1,107,103.9,107z M104.8,98.4l0,6.1l61.4-35.6l0-6.1L104.8,98.4z"/>
										</g>
									</g>
								</g>
							</g>
						</g>
					</g>
					<g>
						<g>
							<path class="st10" d="M103.9,240.4c-0.5,0-0.9-0.4-0.9-0.9V104.5c0-0.5,0.4-0.9,0.9-0.9c0.5,0,0.9,0.4,0.9,0.9v135.1
								C104.8,240,104.4,240.4,103.9,240.4z"/>
						</g>
					</g>
				</g>
				<g>
					<g>
						<g>
							<path class="st10" d="M115.9,113.9c-0.2,0-0.3,0-0.4-0.1l-12-7c-0.3-0.2-0.4-0.5-0.4-0.8c0-0.3,0.2-0.6,0.4-0.8l63.2-36.6
								c0.3-0.2,0.6-0.2,0.9,0l12,7c0.3,0.2,0.4,0.5,0.4,0.8c0,0.3-0.2,0.6-0.4,0.8l-63.2,36.6C116.3,113.9,116.1,113.9,115.9,113.9
								z M105.7,106.1l10.2,5.9l61.4-35.6l-10.2-5.9L105.7,106.1z"/>
						</g>
					</g>
				</g>
			</g>
		</g>
	</g>
</g>
</svg>
