<?xml version="1.0" encoding="utf-8"?>
<!-- Generator: Adobe Illustrator 27.5.0, SVG Export Plug-In . SVG Version: 6.00 Build 0)  -->
<svg version="1.1" id="Layer_1" xmlns="http://www.w3.org/2000/svg" xmlns:xlink="http://www.w3.org/1999/xlink" x="0px" y="0px"
	 viewBox="0 0 146.7 109.3" style="enable-background:new 0 0 146.7 109.3;" xml:space="preserve">
<style type="text/css">
	.st0{opacity:0.2;}
	.st1{fill-rule:evenodd;clip-rule:evenodd;fill:#4D4C4E;}
	.st2{fill:#8F8B8B;}
	.st3{fill:#848383;}
	.st4{fill:#E4767A;}
	.st5{fill:#C6D7CB;}
	.st6{fill:none;stroke:#EFE8DD;stroke-width:10;stroke-linecap:round;stroke-miterlimit:10;}
	.st7{fill:none;stroke:#848383;stroke-width:18;stroke-linecap:round;stroke-miterlimit:10;}
</style>
<g>
	<g class="st0">
		<path class="st1" d="M106,103.4c-8.1,4.8-30.4,9.9-44.1,1c-11.2-7.3-21-17.3-15.9-20.2c5.2-3,46.4-33.5,47.7-34
			c0.9-0.7-2.2,0.9,3-2.1c5.2-3,33.9,11.2,43,16.5s9.2,13.9,0,19.2C137.6,85.1,114.1,98.6,106,103.4z"/>
	</g>
	<g>
		<g>
			<path class="st2" d="M64.6,71.5L21.5,46.6c-2.4-1.4-3.6-3.2-3.6-5c0-1.8,1.2-3.6,3.6-5l43.1-24.9c2.4-1.4,5.5-2.1,8.6-2.1
				c3.1,0,6.2,0.7,8.6,2.1l43.1,24.9c2.4,1.4,3.6,3.2,3.6,5c0,1.8-1.2,3.6-3.6,5L81.8,71.5c-2.4,1.4-5.5,2.1-8.6,2.1
				C70.1,73.6,67,72.9,64.6,71.5z"/>
			<path class="st3" d="M124.9,46.6L81.8,71.5c-2.4,1.4-5.5,2.1-8.6,2.1c-3.1,0-6.2-0.7-8.6-2.1L21.5,46.6c-2.4-1.4-3.6-3.2-3.6-5
				v34.4c0,1.8,1.2,3.6,3.6,5l43.1,24.9c2.4,1.4,5.5,2.1,8.6,2.1c3.1,0,6.2-0.7,8.6-2.1L124.9,81c2.4-1.4,3.6-3.2,3.6-5V41.7
				C128.4,43.5,127.2,45.3,124.9,46.6z"/>
			<path class="st4" d="M124.9,71.2L81.8,96.1c-2.4,1.4-5.5,2.1-8.6,2.1c-3.1,0-6.2-0.7-8.6-2.1L21.5,71.2c-2.4-1.4-3.6-3.2-3.6-5
				V71c0,1.8,1.2,3.6,3.6,5l43.1,24.9c2.4,1.4,5.5,2.1,8.6,2.1c3.1,0,6.2-0.7,8.6-2.1l43.1-24.9c2.4-1.4,3.6-3.2,3.6-5v-4.7
				C128.4,68,127.2,69.8,124.9,71.2z"/>
			<path class="st5" d="M75.6,68.2l-14-8.4c-1.7-1-2.5-2.2-2.5-3.5c0-1.3,0.8-2.5,2.5-3.5l30.6-17.6c1.7-1,3.9-1.5,6.1-1.5
				c2.2,0,4.4,0.5,6.1,1.5l14,8.4c1.7,1,2.5,2.2,2.5,3.5c0,1.3-0.8,2.5-2.5,3.5L87.8,68.2c-1.7,1-3.9,1.5-6.1,1.5
				C79.5,69.7,77.3,69.2,75.6,68.2z"/>
		</g>
		<line class="st6" x1="5" y1="56.6" x2="94.3" y2="5"/>
		<line class="st7" x1="26.8" y1="43.6" x2="77.4" y2="14.4"/>
	</g>
</g>
</svg>
