<?xml version="1.0" encoding="utf-8"?>
<!-- Generator: Adobe Illustrator 27.5.0, SVG Export Plug-In . SVG Version: 6.00 Build 0)  -->
<svg version="1.1" id="Layer_1" xmlns="http://www.w3.org/2000/svg" xmlns:xlink="http://www.w3.org/1999/xlink" x="0px" y="0px"
	 viewBox="0 0 190.7 169.7" style="enable-background:new 0 0 190.7 169.7;" xml:space="preserve">
<style type="text/css">
	.st0{opacity:0.3;fill:#010101;}
	.st1{fill:#695851;}
	.st2{fill:#846F6A;}
	.st3{fill:#554640;}
	.st4{fill:#D6AA4F;}
	.st5{fill:#211A1A;}
	.st6{fill:#372C29;}
	.st7{fill:#584A44;}
	.st8{fill:#0C0B0B;}
	.st9{fill:#D9D2C7;}
	.st10{fill:#A39C95;}
	.st11{fill:#B5AFA8;}
	.st12{fill:#FAE979;}
	.st13{fill:#E3BD5E;}
	.st14{fill:#CC934C;}
	.st15{fill:#E6E1DD;}
	.st16{fill:#F4EFE9;}
	.st17{fill:#E0DEDC;}
	.st18{fill:#FFFFFF;}
	.st19{fill:#D2D2D2;}
	.st20{fill:#319847;}
	.st21{fill:#006936;}
	.st22{fill:#413531;}
	.st23{fill:#D66C27;}
	.st24{fill:#DE822B;}
	.st25{fill:#EF8F2B;}
	.st26{fill:#FDBD6F;}
	.st27{fill:#5F453A;}
	.st28{fill:#746757;}
	.st29{opacity:0.2;fill:#0C0B0B;}
	.st30{fill:#BFB2A1;}
	.st31{fill:#C8AF88;}
	.st32{fill:#D9BE93;}
	.st33{fill:#EFCFA4;}
	.st34{fill:#F6EDD4;}
</style>
<g>
	<polygon class="st0" points="131.8,61.3 0.4,137.1 57,169.7 188.4,93.9 	"/>
	<g>
		<polygon class="st1" points="182.3,91.3 167.5,82.7 167.5,75.4 185.4,82.2 		"/>
		<polygon class="st2" points="182.3,84 167.5,75.4 170.6,73.6 185.4,82.2 		"/>
		<polygon class="st3" points="185.4,89.5 182.3,91.3 182.3,84 185.4,82.2 		"/>
	</g>
	<polygon class="st3" points="173.5,86.2 111.6,121.9 105.8,118.7 87.3,129.4 87.3,124.7 173.5,75 	"/>
	<g>
		<polygon class="st4" points="174.6,93 165.8,87.9 165.8,79.6 174.6,84.7 175.6,88.8 		"/>
		<g>
			<polygon class="st5" points="154.6,106.5 146.6,101.9 146.6,93.1 157.3,96.3 			"/>
			<polygon class="st6" points="154.6,97.8 146.6,93.1 151.9,83.9 167.5,84.2 			"/>
			<polygon class="st7" points="159.9,88.5 151.9,83.9 159.5,79.5 167.5,84.2 			"/>
			<polygon class="st8" points="172.8,87.2 167.5,84.2 159.9,88.5 154.6,97.8 154.6,106.5 159.9,109.6 167.5,105.2 172.8,96 			"/>
			<polygon class="st7" points="168.9,91.4 168.9,96.3 165.9,101.6 161.6,104.1 160.9,103.7 165.2,101.2 168.2,95.9 168.2,91 			"/>
			<polygon class="st9" points="168.2,91 168.2,95.9 165.2,101.2 160.9,103.7 158.5,102.3 158.5,98.4 159.1,96.5 161.6,92.1 
				165.9,89.6 			"/>
			<polygon class="st10" points="160.4,96.3 160.4,97.3 159.9,98.3 159.1,98.7 158.7,98.5 159.5,98.1 160.1,97.1 160.1,96.1 			"/>
			<polygon class="st8" points="160.1,96.1 160.1,97.1 159.5,98.1 158.7,98.5 158.5,98.4 158.5,97.4 159.1,96.5 159.9,96 			"/>
			<polygon class="st10" points="167.6,92.2 167.6,93.2 167,94.2 166.2,94.6 165.8,94.4 166.6,94 167.2,93 167.2,92 			"/>
			<polygon class="st8" points="167.2,92 167.2,93 166.6,94 165.8,94.4 165.6,94.3 165.6,93.4 166.2,92.4 167,91.9 			"/>
			<polygon class="st10" points="165.7,91.4 165.4,91.2 165.1,91.4 164.9,91.8 164.9,92.2 165.1,92.3 165.4,92.1 165.7,91.7 			"/>
			<polygon class="st10" points="163.4,100.5 163.2,100.4 162.9,100.6 162.6,101 162.6,101.3 162.9,101.4 163.2,101.3 163.4,100.9 
							"/>
			<polygon class="st10" points="166.7,95.3 166.5,95.2 166.2,95.4 166,95.8 166,96.1 166.2,96.3 166.5,96.1 166.7,95.7 			"/>
			<polygon class="st10" points="160.1,99.2 159.9,99 159.5,99.2 159.3,99.6 159.3,100 159.5,100.1 159.9,99.9 160.1,99.5 			"/>
			<polygon class="st10" points="161.1,94 160.9,93.9 160.6,94 160.4,94.4 160.4,94.8 160.6,94.9 160.9,94.7 161.1,94.4 			"/>
			<polygon class="st10" points="164,91.3 164,92.3 163.4,93.3 162.6,93.7 162.2,93.5 163.1,93.1 163.6,92.1 163.6,91.1 			"/>
			<polygon class="st8" points="163.6,91.1 163.6,92.1 163.1,93.1 162.2,93.5 162,93.4 162,92.5 162.6,91.5 163.4,91 			"/>
			<polygon class="st10" points="161.9,100 161.9,100.9 161.3,101.9 160.5,102.4 160.1,102.2 160.9,101.7 161.5,100.7 161.5,99.7 
							"/>
			<polygon class="st8" points="161.5,99.7 161.5,100.7 160.9,101.7 160.1,102.2 160.1,102.2 159.9,102 159.9,101.1 160.5,100.1 
				161.3,99.6 			"/>
			<polygon class="st10" points="166.1,97.5 166.1,98.5 165.5,99.5 164.7,99.9 164.4,99.7 165.2,99.2 165.8,98.3 165.8,97.3 			"/>
			<polygon class="st8" points="165.8,97.3 165.8,98.3 165.2,99.2 164.4,99.7 164.1,99.6 164.1,98.7 164.7,97.7 165.5,97.2 			"/>
			<g>
				<polygon class="st11" points="164.3,94.9 163.6,94.5 162.4,95.1 161.6,96.6 161.6,98 162.3,98.4 163.6,97.8 164.4,96.3 				"/>
				<polygon class="st10" points="165.2,95.4 164.3,94.9 163.1,95.6 162.3,97 162.3,98.4 163.1,98.8 164.3,98.2 165.2,96.7 				"/>
			</g>
		</g>
		<g>
			<polygon class="st5" points="134.3,118.2 126.2,113.6 126.2,104.9 137,108 			"/>
			<polygon class="st6" points="134.3,109.5 126.2,104.9 131.6,95.6 147.2,95.9 			"/>
			<polygon class="st7" points="139.6,100.3 131.6,95.6 139.1,91.3 147.2,95.9 			"/>
			<polygon class="st8" points="152.5,99 147.2,95.9 139.6,100.3 134.3,109.5 134.3,118.2 139.6,121.3 147.2,117 152.5,107.7 			"/>
			<polygon class="st7" points="148.6,103.1 148.6,108.1 145.5,113.4 141.2,115.8 140.5,115.4 144.8,113 147.8,107.7 147.8,102.7 
							"/>
			<polygon class="st9" points="147.8,102.7 147.8,107.7 144.8,113 140.5,115.4 138.2,114.1 138.2,110.2 138.7,108.2 141.2,103.9 
				145.5,101.4 			"/>
			<polygon class="st10" points="140.1,108.1 140.1,109 139.5,110 138.7,110.5 138.3,110.3 139.2,109.8 139.7,108.8 139.7,107.9 			
				"/>
			<polygon class="st8" points="139.7,107.9 139.7,108.8 139.2,109.8 138.3,110.3 138.2,110.2 138.2,109.1 138.7,108.2 139.5,107.8 
							"/>
			<polygon class="st10" points="147.2,104 147.2,104.9 146.6,105.9 145.8,106.4 145.4,106.2 146.3,105.7 146.8,104.7 146.8,103.8 
							"/>
			<polygon class="st8" points="146.8,103.8 146.8,104.7 146.3,105.7 145.4,106.2 145.2,106.1 145.2,105.1 145.8,104.1 146.6,103.7 
							"/>
			<polygon class="st10" points="145.3,103.1 145.1,103 144.8,103.2 144.6,103.6 144.6,103.9 144.8,104.1 145.1,103.9 145.3,103.5 
							"/>
			<polygon class="st10" points="143,112.3 142.8,112.1 142.5,112.3 142.3,112.7 142.3,113.1 142.5,113.2 142.8,113 143,112.6 			
				"/>
			<polygon class="st10" points="146.4,107.1 146.1,107 145.8,107.2 145.6,107.5 145.6,107.9 145.8,108 146.1,107.8 146.4,107.5 			
				"/>
			<polygon class="st10" points="139.7,110.9 139.5,110.8 139.2,111 139,111.4 139,111.7 139.2,111.9 139.5,111.7 139.7,111.3 			
				"/>
			<polygon class="st10" points="140.8,105.7 140.5,105.6 140.2,105.8 140,106.2 140,106.5 140.2,106.7 140.5,106.5 140.8,106.1 			
				"/>
			<polygon class="st10" points="143.6,103.1 143.6,104 143.1,105 142.3,105.5 141.9,105.3 142.7,104.8 143.3,103.8 143.3,102.9 			
				"/>
			<polygon class="st8" points="143.3,102.9 143.3,103.8 142.7,104.8 141.9,105.3 141.7,105.2 141.7,104.2 142.3,103.2 143.1,102.8 
							"/>
			<polygon class="st10" points="141.5,111.7 141.5,112.7 141,113.7 140.1,114.1 139.8,113.9 140.6,113.4 141.2,112.4 141.2,111.5 
							"/>
			<polygon class="st8" points="141.2,111.5 141.2,112.4 140.6,113.4 139.8,113.9 139.8,113.9 139.6,113.8 139.6,112.8 140.1,111.9 
				141,111.4 			"/>
			<polygon class="st10" points="145.8,109.3 145.8,110.2 145.2,111.2 144.4,111.7 144,111.5 144.8,111 145.4,110 145.4,109.1 			
				"/>
			<polygon class="st8" points="145.4,109.1 145.4,110 144.8,111 144,111.5 143.8,111.4 143.8,110.4 144.4,109.4 145.2,108.9 			"/>
			<g>
				<polygon class="st11" points="144,106.6 143.3,106.2 142.1,106.9 141.2,108.3 141.2,109.7 142,110.1 143.3,109.5 144.1,108.1 
									"/>
				<polygon class="st10" points="144.8,107.1 144,106.6 142.8,107.3 142,108.8 142,110.1 142.8,110.6 144,109.9 144.8,108.5 				
					"/>
			</g>
		</g>
		<polygon class="st12" points="138,97 129.2,92 160.1,74.1 168.9,79.2 147.2,92.9 		"/>
		<polygon class="st13" points="130.5,110.1 121.7,105 129.2,92 138,97 134.6,105 		"/>
		<polygon class="st4" points="130.5,118.5 121.7,113.4 121.7,105 130.5,110.1 131.5,114.3 		"/>
		<polygon class="st14" points="132.4,117.4 130.5,118.5 130.5,110.1 138,97 168.9,79.2 176.5,83.6 176.5,91.9 174.6,93 174.6,85.6 
			168.1,81.9 138.8,98.8 132.4,109.9 		"/>
	</g>
	<g>
		<g>
			<polygon class="st10" points="130.3,122.1 131.5,121.4 131.5,114.8 128.2,114.3 			"/>
			<polygon class="st9" points="130.3,115.5 131.5,114.8 127.4,107.8 120.5,105.2 			"/>
			<polygon class="st15" points="126.2,108.5 127.4,107.8 121.7,104.5 120.5,105.2 			"/>
			<polygon class="st11" points="116.5,107.5 120.5,105.2 126.2,108.5 130.3,115.5 130.3,122.1 126.2,124.4 120.5,121.1 
				116.5,114.1 			"/>
		</g>
		<g>
			<polygon class="st10" points="123,125.7 129.8,121.7 129.8,115.5 121,118.4 			"/>
			<polygon class="st9" points="123,119.5 129.8,115.5 126,108.9 113.7,109.7 			"/>
			<polygon class="st15" points="119.1,112.8 126,108.9 120.6,105.7 113.7,109.7 			"/>
			<polygon class="st11" points="109.9,111.9 113.7,109.7 119.1,112.8 123,119.5 123,125.7 119.1,127.9 113.7,124.8 109.9,118.2 			
				"/>
		</g>
		<g>
			<polygon class="st10" points="122.1,126.8 123.4,126.1 123.4,119.5 120.1,119 			"/>
			<polygon class="st9" points="122.1,120.2 123.4,119.5 119.3,112.5 112.4,109.9 			"/>
			<polygon class="st15" points="118.1,113.2 119.3,112.5 113.6,109.2 112.4,109.9 			"/>
			<polygon class="st11" points="108.3,112.2 112.4,109.9 118.1,113.2 122.1,120.2 122.1,126.8 118.1,129.1 112.4,125.8 
				108.3,118.8 			"/>
		</g>
		<g>
			<polygon class="st10" points="114.8,130.4 121.7,126.4 121.7,120.2 112.9,123.1 			"/>
			<polygon class="st9" points="114.8,124.1 121.7,120.2 117.9,113.6 105.6,114.4 			"/>
			<polygon class="st15" points="111,117.5 117.9,113.6 112.4,110.4 105.6,114.4 			"/>
			<polygon class="st11" points="101.8,116.6 105.6,114.4 111,117.5 114.8,124.1 114.8,130.4 111,132.6 105.6,129.5 101.8,122.9 			
				"/>
		</g>
		<g>
			<polygon class="st10" points="114,131.5 115.3,130.8 115.3,124.1 112,123.7 			"/>
			<polygon class="st9" points="114,124.9 115.3,124.1 111.2,117.2 104.3,114.6 			"/>
			<polygon class="st15" points="110,117.9 111.2,117.2 105.5,113.9 104.3,114.6 			"/>
			<polygon class="st11" points="100.2,116.9 104.3,114.6 110,117.9 114,124.9 114,131.5 110,133.8 104.3,130.5 100.2,123.5 			"/>
		</g>
		<g>
			<polygon class="st10" points="106.7,135.1 113.6,131.1 113.6,124.9 104.8,127.7 			"/>
			<polygon class="st9" points="106.7,128.8 113.6,124.9 109.8,118.2 97.5,119.1 			"/>
			<polygon class="st15" points="102.9,122.2 109.8,118.2 104.3,115.1 97.5,119.1 			"/>
			<polygon class="st11" points="93.7,121.3 97.5,119.1 102.9,122.2 106.7,128.8 106.7,135.1 102.9,137.3 97.5,134.2 93.7,127.5 			
				"/>
		</g>
		<g>
			<polygon class="st10" points="105.9,136.2 107.1,135.5 107.1,128.9 103.8,128.4 			"/>
			<polygon class="st9" points="105.9,129.6 107.1,128.9 103.1,121.8 96.1,119.3 			"/>
			<polygon class="st15" points="101.8,122.6 103.1,121.8 97.4,118.6 96.1,119.3 			"/>
			<polygon class="st11" points="92.1,121.6 96.1,119.3 101.8,122.6 105.9,129.6 105.9,136.2 101.8,138.5 96.1,135.2 92.1,128.2 			
				"/>
		</g>
		<g>
			<polygon class="st10" points="103.6,134.5 104.5,133.9 104.5,129.1 102.1,128.8 			"/>
			<polygon class="st9" points="103.6,129.6 104.5,129.1 101.5,124 96.4,122.1 			"/>
			<polygon class="st15" points="100.6,124.5 101.5,124 97.3,121.6 96.4,122.1 			"/>
			<polygon class="st11" points="93.5,123.8 96.4,122.1 100.6,124.5 103.6,129.6 103.6,134.5 100.6,136.2 96.4,133.8 93.5,128.6 			
				"/>
		</g>
	</g>
	<g>
		<polygon class="st12" points="89.6,127.4 70.8,116.5 82.4,109.8 101.3,120.6 96.3,125.8 		"/>
		<polygon class="st14" points="101.3,120.6 89.6,127.4 87.8,132 92.4,134.5 92.4,139 101.3,134 		"/>
	</g>
	<g>
		<g>
			<g>
				<polygon class="st16" points="188.1,35.4 188.1,47.7 180.6,60.7 164.5,70 157,65.7 157,53.4 164.5,40.4 180.6,31.1 				"/>
				
					<rect x="126.3" y="0.3" transform="matrix(0.5001 -0.866 0.866 0.5001 39.7047 131.5332)" class="st17" width="15" height="62.2"/>
				<polygon class="st18" points="126.7,0 110.6,9.3 164.5,40.4 180.6,31.1 				"/>
				<polygon class="st19" points="103.1,34.6 103.1,22.3 157,53.4 157,65.7 				"/>
			</g>
			<g>
				<g>
					<polygon class="st19" points="136,13.9 136,14.4 131.9,16.8 130.4,15.4 					"/>
					<polygon class="st17" points="131.9,16.3 131.9,16.8 126,16.8 121.9,13.9 					"/>
					<polygon class="st16" points="126,16.3 126,16.8 121.9,14.4 121.9,13.9 					"/>
					<polygon class="st18" points="121.9,10.6 121.9,13.9 126,16.3 131.9,16.3 136,13.9 136,10.6 131.9,8.2 126,8.2 					"/>
				</g>
				<g>
					<polygon class="st10" points="134.8,11.9 134.8,13.5 131.4,15.5 130.2,13.1 					"/>
					<polygon class="st11" points="131.4,13.9 131.4,15.5 126.5,15.5 123.1,11.9 					"/>
					<polygon class="st9" points="126.5,13.9 126.5,15.5 123.1,13.5 123.1,11.9 					"/>
					<polygon class="st16" points="123.1,9.1 123.1,11.9 126.5,13.9 131.4,13.9 134.8,11.9 134.8,9.1 131.4,7.1 126.5,7.1 					"/>
				</g>
			</g>
		</g>
		<g>
			<g>
				<polygon class="st16" points="156.7,52.3 156.7,64.6 149.2,77.6 133.1,86.9 125.6,82.6 125.6,70.3 133.1,57.3 149.2,48 				"/>
				
					<rect x="94.9" y="17.1" transform="matrix(0.5001 -0.866 0.866 0.5001 9.4171 112.796)" class="st17" width="15" height="62.2"/>
				<polygon class="st18" points="95.3,16.9 79.2,26.2 133.1,57.3 149.2,48 				"/>
				<polygon class="st19" points="71.7,51.5 71.7,39.2 125.6,70.3 125.6,82.6 				"/>
			</g>
			<g>
				<g>
					<polygon class="st19" points="104.7,30.8 104.7,31.3 100.5,33.7 99,32.3 					"/>
					<polygon class="st17" points="100.5,33.2 100.5,33.7 94.6,33.7 90.5,30.8 					"/>
					<polygon class="st16" points="94.6,33.2 94.6,33.7 90.5,31.3 90.5,30.8 					"/>
					<polygon class="st18" points="90.5,27.4 90.5,30.8 94.6,33.2 100.5,33.2 104.7,30.8 104.7,27.4 100.5,25 94.6,25 					"/>
				</g>
				<g>
					<polygon class="st10" points="103.4,28.7 103.4,30.3 100,32.3 98.8,30 					"/>
					<polygon class="st11" points="100,30.7 100,32.3 95.1,32.3 91.7,28.7 					"/>
					<polygon class="st9" points="95.1,30.7 95.1,32.3 91.7,30.3 91.7,28.7 					"/>
					<polygon class="st16" points="91.7,25.9 91.7,28.7 95.1,30.7 100,30.7 103.4,28.7 103.4,25.9 100,24 95.1,24 					"/>
				</g>
			</g>
		</g>
		<g>
			<g>
				<polygon class="st16" points="125.1,70 125,82.3 117.5,95.3 101.4,104.6 93.9,100.3 93.9,88 101.4,75 117.5,65.7 				"/>
				
					<rect x="63.2" y="34.8" transform="matrix(0.5001 -0.866 0.866 0.5001 -21.7436 94.1967)" class="st17" width="15" height="62.2"/>
				<polygon class="st18" points="63.7,34.6 47.5,43.9 101.4,75 117.5,65.7 				"/>
				<polygon class="st19" points="40,69.2 40,56.9 93.9,88 93.9,100.3 				"/>
			</g>
			<g>
				<g>
					<polygon class="st19" points="73,48.5 73,49 68.8,51.4 67.4,50 					"/>
					<polygon class="st17" points="68.8,50.9 68.8,51.4 62.9,51.4 58.8,48.5 					"/>
					<polygon class="st16" points="62.9,50.9 62.9,51.4 58.8,49 58.8,48.5 					"/>
					<polygon class="st18" points="58.8,45.1 58.8,48.5 62.9,50.9 68.8,50.9 73,48.5 73,45.1 68.8,42.7 62.9,42.7 					"/>
				</g>
				<g>
					<polygon class="st10" points="71.7,46.4 71.7,48 68.3,50 67.1,47.7 					"/>
					<polygon class="st11" points="68.3,48.4 68.3,50 63.4,50 60,46.4 					"/>
					<polygon class="st9" points="63.4,48.4 63.4,50 60,48 60,46.4 					"/>
					<polygon class="st16" points="60,43.6 60,46.4 63.4,48.4 68.3,48.4 71.7,46.4 71.7,43.6 68.3,41.6 63.4,41.6 					"/>
				</g>
			</g>
		</g>
		<g>
			<polygon class="st20" points="190.7,50.6 95.5,121.2 91.6,109 92.4,103.8 187.7,48.8 			"/>
			<polygon class="st21" points="190.7,66.2 95.5,121.2 91.1,114.2 95.5,105.6 190.7,50.6 			"/>
			<polygon class="st21" points="95.5,121.2 79.2,111.7 79.2,111.5 92.4,103.8 95.5,105.6 			"/>
		</g>
	</g>
	<g>
		<g>
			<polygon class="st22" points="2.7,76.6 3.9,75.9 5.7,77 6.9,79 6.9,85.7 5.7,86.3 3.9,85.3 2.7,83.2 			"/>
			<g>
				<polygon class="st22" points="8.3,82.4 6.5,81.4 6.5,81.2 8.3,82.2 				"/>
				<polygon class="st3" points="8.3,82.2 6.5,81.2 6.6,81 8.5,81.9 				"/>
				<polygon class="st2" points="8.4,82 6.6,81 6.8,80.9 8.5,81.9 				"/>
				<polygon class="st1" points="8.6,82 8.5,81.9 8.4,82 8.3,82.2 8.3,82.4 8.4,82.5 8.5,82.4 8.6,82.2 				"/>
			</g>
			<g>
				<polygon class="st22" points="8.3,85.7 6.5,84.7 6.5,84.5 8.3,85.5 				"/>
				<polygon class="st3" points="8.3,85.5 6.5,84.5 6.6,84.3 8.5,85.3 				"/>
				<polygon class="st2" points="8.4,85.4 6.6,84.3 6.8,84.3 8.5,85.3 				"/>
				<polygon class="st1" points="8.6,85.3 8.5,85.3 8.4,85.4 8.3,85.5 8.3,85.7 8.4,85.8 8.5,85.7 8.6,85.5 				"/>
			</g>
			<polygon class="st1" points="2.3,76.8 3.5,76.2 5.3,77.2 6.5,79.3 6.5,85.9 5.3,86.6 3.5,85.5 2.3,83.5 			"/>
		</g>
		<polygon class="st3" points="2.3,128.2 52.8,156.3 53.3,148 3,119.3 		"/>
		<g>
			<g>
				<polygon class="st14" points="45.4,148 46.2,147.6 46.2,145.6 44.8,145.7 				"/>
				<polygon class="st4" points="45.4,146 46.2,145.6 45,143.5 42.5,142.9 				"/>
				<polygon class="st12" points="44.2,143.9 45,143.5 43.3,142.5 42.5,142.9 				"/>
				<polygon class="st23" points="41.3,143.6 42.5,142.9 44.2,143.9 45.4,146 45.4,148 44.2,148.7 42.5,147.7 41.3,145.6 				"/>
			</g>
			<g>
				<polygon class="st14" points="52.2,151.9 53,151.5 53,149.5 51.6,149.6 				"/>
				<polygon class="st4" points="52.2,149.9 53,149.5 51.8,147.4 49.2,146.8 				"/>
				<polygon class="st12" points="51,147.8 51.8,147.4 50,146.4 49.2,146.8 				"/>
				<polygon class="st23" points="48,147.5 49.2,146.8 51,147.8 52.2,149.9 52.2,151.9 51,152.6 49.2,151.6 48,149.5 				"/>
			</g>
		</g>
		<g>
			<g>
				<polygon class="st14" points="9.4,127.2 10.2,126.8 10.2,124.8 8.8,124.9 				"/>
				<polygon class="st4" points="9.4,125.2 10.2,124.8 9,122.7 6.5,122.1 				"/>
				<polygon class="st12" points="8.2,123.1 9,122.7 7.3,121.7 6.5,122.1 				"/>
				<polygon class="st23" points="5.3,122.8 6.5,122.1 8.2,123.1 9.4,125.2 9.4,127.2 8.2,127.9 6.5,126.9 5.3,124.8 				"/>
			</g>
			<g>
				<polygon class="st14" points="16.2,131.1 17,130.7 17,128.7 15.6,128.8 				"/>
				<polygon class="st4" points="16.2,129.1 17,128.7 15.8,126.6 13.3,126 				"/>
				<polygon class="st12" points="15,127 15.8,126.6 14.1,125.6 13.3,126 				"/>
				<polygon class="st23" points="12,126.8 13.3,126 15,127 16.2,129.1 16.2,131.1 15,131.8 13.3,130.8 12,128.7 				"/>
			</g>
		</g>
		<path class="st14" d="M56,146.7L1,114.9v13.3L56,160V146.7z M9.6,127.8l-1.4,0.8l-2-1.2L4.6,125v-2.4l1.4-0.8l2,1.2l1.4,2.5V127.8
			z M16.4,131.8l-1.4,0.8l-2-1.2l-1.4-2.5v-2.4l1.4-0.8l2,1.2l1.4,2.5V131.8z M45.5,148.6l-1.4,0.8l-2-1.2l-1.4-2.5v-2.4l1.4-0.8
			l2,1.2l1.4,2.5V148.6z M52.4,152.6l-1.4,0.8l-2.1-1.2l-1.4-2.5v-2.4l1.4-0.8l2.1,1.2l1.4,2.5V152.6z"/>
		<polygon class="st3" points="90.7,141.5 79.8,135.2 79.8,126.3 90.7,132.7 		"/>
		<g>
			<polygon class="st5" points="69.6,155.6 61.5,151 61.5,142.2 72.3,145.4 			"/>
			<polygon class="st6" points="69.6,146.9 61.5,142.2 66.9,133 82.4,133.3 			"/>
			<polygon class="st7" points="74.9,137.6 66.9,133 74.4,128.6 82.4,133.3 			"/>
			<polygon class="st8" points="87.8,136.3 82.4,133.3 74.9,137.6 69.5,146.9 69.5,155.6 74.9,158.7 82.4,154.3 87.8,145.1 			"/>
			<polygon class="st7" points="83.9,140.5 83.9,145.5 80.8,150.7 76.5,153.2 75.8,152.8 80.1,150.3 83.1,145 83.1,140.1 			"/>
			<polygon class="st9" points="83.1,140.1 83.1,145 80.1,150.3 75.8,152.8 73.5,151.4 73.5,147.5 74,145.6 76.5,141.2 80.8,138.7 
							"/>
			<polygon class="st10" points="75.4,145.4 75.4,146.4 74.8,147.4 74,147.8 73.6,147.6 74.5,147.2 75,146.2 75,145.2 			"/>
			<polygon class="st8" points="75,145.2 75,146.2 74.5,147.2 73.6,147.6 73.5,147.5 73.5,146.5 74,145.6 74.8,145.1 			"/>
			<polygon class="st10" points="82.5,141.3 82.5,142.3 81.9,143.3 81.1,143.7 80.7,143.5 81.6,143.1 82.1,142.1 82.1,141.1 			"/>
			<polygon class="st8" points="82.1,141.1 82.1,142.1 81.6,143.1 80.7,143.5 80.5,143.4 80.5,142.5 81.1,141.5 81.9,141 			"/>
			<polygon class="st10" points="80.6,140.5 80.4,140.4 80.1,140.5 79.9,140.9 79.9,141.3 80.1,141.4 80.4,141.2 80.6,140.8 			"/>
			<polygon class="st10" points="78.3,149.6 78.1,149.5 77.8,149.7 77.6,150.1 77.6,150.4 77.8,150.6 78.1,150.4 78.3,150 			"/>
			<polygon class="st10" points="81.7,144.5 81.4,144.3 81.1,144.5 80.9,144.9 80.9,145.3 81.1,145.4 81.4,145.2 81.7,144.8 			"/>
			<polygon class="st10" points="75,148.3 74.8,148.2 74.5,148.3 74.3,148.7 74.3,149.1 74.5,149.2 74.8,149 75,148.6 			"/>
			<polygon class="st10" points="76.1,143.1 75.8,143 75.5,143.1 75.3,143.5 75.3,143.9 75.5,144 75.8,143.8 76.1,143.5 			"/>
			<polygon class="st10" points="79,140.4 79,141.4 78.4,142.4 77.6,142.9 77.2,142.6 78,142.2 78.6,141.2 78.6,140.2 			"/>
			<polygon class="st8" points="78.6,140.2 78.6,141.2 78,142.2 77.2,142.6 77,142.5 77,141.6 77.6,140.6 78.4,140.1 			"/>
			<polygon class="st10" points="76.8,149.1 76.8,150 76.3,151 75.4,151.5 75.1,151.3 75.9,150.8 76.5,149.8 76.5,148.9 			"/>
			<polygon class="st8" points="76.5,148.9 76.5,149.8 75.9,150.8 75.1,151.3 75.1,151.3 74.9,151.1 74.9,150.2 75.4,149.2 
				76.3,148.7 			"/>
			<polygon class="st10" points="81.1,146.6 81.1,147.6 80.5,148.6 79.7,149 79.3,148.8 80.1,148.4 80.7,147.4 80.7,146.4 			"/>
			<polygon class="st8" points="80.7,146.4 80.7,147.4 80.1,148.4 79.3,148.8 79.1,148.7 79.1,147.8 79.7,146.8 80.5,146.3 			"/>
			<g>
				<polygon class="st11" points="79.3,144 78.6,143.6 77.4,144.3 76.5,145.7 76.5,147.1 77.2,147.5 78.6,146.9 79.4,145.4 				"/>
				<polygon class="st10" points="80.1,144.5 79.3,144 78.1,144.7 77.2,146.1 77.2,147.5 78.1,148 79.3,147.3 80.1,145.8 				"/>
			</g>
		</g>
		<polygon class="st14" points="89.6,82.7 87.7,79.9 62.6,94.3 58.6,118.3 56.3,121.6 56.3,146.5 56.3,146.5 56.3,146.5 55,147.3 
			55,160.6 66.7,153.8 66.7,147.4 73.7,135.3 83.6,129.6 89.6,133 		"/>
		<g>
			<polygon class="st24" points="59.1,146.1 59.5,146.4 59.8,146 59.1,145.9 			"/>
			<polygon class="st25" points="59.1,145.9 59.5,146.2 63.3,143.2 59.7,144.8 			"/>
			<polygon class="st26" points="59.7,144.8 60.2,145 63.3,143.2 62.9,143 			"/>
			<polygon class="st23" points="60.2,145 59.5,146.2 59.5,146.4 60.2,146.8 63.3,144.9 64,143.8 64,143.6 63.3,143.2 			"/>
		</g>
		<polygon class="st12" points="76.1,91.3 76.1,107.1 62.3,115.1 62.4,114.6 75.7,106.9 75.7,91.5 		"/>
		<polygon class="st27" points="75.7,91.5 75.7,106.9 62.4,114.6 62.6,113.6 75,106.5 75,92 		"/>
		<polygon class="st28" points="75,92 75,106.5 62.6,113.6 65.2,97.6 		"/>
		<path class="st29" d="M77.6,88.9v39.8l-8.7,5.1l-2.5,4.7l-5.3,3v-25.5l3.3-19.3l7.3-4.2L77.6,88.9z M78.4,87.6l-14.6,8.5
			l-3.4,20.2v26.5l6.4-3.7l2.5-4.7l9.2-5.3V87.6z"/>
		<g>
			<polygon class="st3" points="71.2,115.3 70.8,115 70.8,114.8 71.5,114.9 			"/>
			<polygon class="st1" points="71.2,115.1 70.8,114.8 71.4,113.8 76.3,111.4 			"/>
			<polygon class="st2" points="71.8,114 71.4,113.8 75.9,111.2 76.3,111.4 			"/>
			<polygon class="st22" points="76.9,111.8 76.3,111.4 71.8,114 71.2,115.1 71.2,115.3 71.8,115.6 76.3,113.1 76.9,112 			"/>
		</g>
		<polygon class="st12" points="62.6,94.3 7.5,62.5 32.6,48.1 87.7,79.9 		"/>
		<g>
			<g>
				<polygon class="st22" points="18.3,62.4 18.3,63.3 16.8,64.2 16.2,63 				"/>
				<polygon class="st3" points="16.8,63.3 16.8,64.2 14.6,64.2 13,62.4 				"/>
				<polygon class="st1" points="14.6,63.3 14.6,64.2 13,63.3 13,62.4 				"/>
				<polygon class="st2" points="13,61.1 13,62.4 14.6,63.3 16.8,63.3 18.3,62.4 18.3,61.1 16.8,60.2 14.6,60.2 				"/>
			</g>
			<g>
				<polygon class="st23" points="17.9,61.2 17.9,62.2 16.6,63 16.1,61.7 				"/>
				<polygon class="st24" points="16.6,61.9 16.6,63 14.7,63 13.4,61.2 				"/>
				<polygon class="st25" points="14.7,61.9 14.7,63 13.4,62.2 13.4,61.2 				"/>
				<polygon class="st26" points="13.4,60.1 13.4,61.2 14.7,61.9 16.6,61.9 17.9,61.2 17.9,60.1 16.6,59.3 14.7,59.3 				"/>
			</g>
		</g>
		<g>
			<g>
				<polygon class="st22" points="41.8,75.9 41.8,76.8 40.2,77.8 39.6,76.5 				"/>
				<polygon class="st3" points="40.2,76.8 40.2,77.8 38,77.8 36.4,75.9 				"/>
				<polygon class="st1" points="38,76.8 38,77.8 36.4,76.9 36.4,75.9 				"/>
				<polygon class="st2" points="36.4,74.7 36.4,75.9 38,76.8 40.2,76.8 41.8,76 41.8,74.7 40.2,73.8 38,73.8 				"/>
			</g>
			<g>
				<polygon class="st23" points="41.4,74.7 41.4,75.8 40,76.5 39.6,75.2 				"/>
				<polygon class="st24" points="40,75.5 40,76.5 38.2,76.5 36.8,74.7 				"/>
				<polygon class="st25" points="38.2,75.5 38.2,76.5 36.8,75.8 36.8,74.7 				"/>
				<polygon class="st26" points="36.8,73.6 36.8,74.7 38.2,75.5 40,75.5 41.4,74.7 41.4,73.6 40,72.8 38.2,72.8 				"/>
			</g>
		</g>
		<g>
			<g>
				<polygon class="st22" points="65.2,89.5 65.2,90.4 63.6,91.3 63.1,90 				"/>
				<polygon class="st3" points="63.6,90.4 63.6,91.3 61.4,91.3 59.8,89.5 				"/>
				<polygon class="st1" points="61.4,90.4 61.4,91.3 59.8,90.4 59.8,89.5 				"/>
				<polygon class="st2" points="59.8,88.2 59.8,89.5 61.4,90.4 63.6,90.4 65.2,89.5 65.2,88.2 63.6,87.3 61.4,87.3 				"/>
			</g>
			<g>
				<polygon class="st23" points="64.8,88.2 64.8,89.3 63.5,90.1 63,88.7 				"/>
				<polygon class="st24" points="63.5,89 63.5,90.1 61.6,90.1 60.2,88.2 				"/>
				<polygon class="st25" points="61.6,89 61.6,90.1 60.2,89.3 60.2,88.2 				"/>
				<polygon class="st26" points="60.2,87.1 60.2,88.2 61.6,89 63.5,89 64.8,88.2 64.8,87.1 63.5,86.4 61.6,86.4 				"/>
			</g>
		</g>
		<polygon class="st13" points="58.6,118.3 3.5,86.6 7.5,62.5 62.6,94.3 		"/>
		<polygon class="st12" points="57.2,114.9 57.1,115.2 5.7,85.5 9,65.7 9.3,65.8 6,85.4 		"/>
		<polygon class="st27" points="57.3,114.2 57.2,114.9 6,85.4 9.3,65.8 9.8,66.1 6.7,85 		"/>
		<polygon class="st28" points="60.4,95.3 57.3,114.2 6.7,85 9.8,66.1 11.7,67.2 17,74.4 22.6,73.5 		"/>
		<polygon class="st30" points="11.7,67.2 8.9,84.2 22.6,76.2 22.6,73.5 		"/>
		<polygon class="st13" points="56.3,146.5 1.3,114.8 1.3,89.9 56.3,121.6 		"/>
		<g>
			<polygon class="st31" points="7.6,113 8.5,112.5 8.5,110.3 6.9,110.5 			"/>
			<polygon class="st32" points="7.6,110.8 8.5,110.3 7.1,108 4.4,107.4 			"/>
			<polygon class="st33" points="6.2,108.5 7.1,108 5.2,106.9 4.4,107.4 			"/>
			<polygon class="st34" points="3,108.2 4.4,107.4 6.2,108.5 7.6,110.8 7.6,113 6.2,113.8 4.4,112.7 3,110.4 			"/>
		</g>
		<g>
			<polygon class="st31" points="53.2,139.4 54.1,138.9 54.1,136.7 52.5,136.8 			"/>
			<polygon class="st32" points="53.2,137.2 54.1,136.7 52.8,134.4 50,133.8 			"/>
			<polygon class="st33" points="51.9,134.9 52.8,134.4 50.9,133.3 50,133.8 			"/>
			<polygon class="st34" points="48.6,134.6 50,133.8 51.9,134.9 53.2,137.2 53.2,139.4 51.9,140.2 50,139.1 48.6,136.7 			"/>
		</g>
		<g>
			<polygon class="st14" points="46.7,120.4 46.7,120.8 46.3,121 11.3,100.8 10.9,100.1 10.9,99.4 11.3,99.1 11.6,99.3 11.6,99.6 
				12,100.4 			"/>
			<polygon class="st3" points="46.7,120.1 46.7,120.4 12,100.4 11.6,99.6 11.6,99.3 46.3,119.4 			"/>
			<polygon class="st14" points="46.7,124.8 46.7,125.2 46.3,125.4 11.3,105.2 10.9,104.5 10.9,103.8 11.3,103.5 11.6,103.7 
				11.6,104 12,104.8 			"/>
			<polygon class="st3" points="46.7,124.5 46.7,124.8 12,104.8 11.6,104 11.6,103.7 46.3,123.7 			"/>
			<polygon class="st14" points="46.7,129.2 46.7,129.6 46.3,129.8 11.3,109.6 10.9,108.9 10.9,108.2 11.3,107.9 11.6,108.1 
				11.6,108.4 12,109.2 			"/>
			<polygon class="st3" points="46.7,128.9 46.7,129.2 12,109.2 11.6,108.4 11.6,108.1 46.3,128.1 			"/>
			<polygon class="st14" points="46.7,133.6 46.7,134 46.3,134.2 11.3,114 10.9,113.2 10.9,112.6 11.3,112.3 11.6,112.5 11.6,112.8 
				12,113.6 			"/>
			<polygon class="st3" points="46.7,133.3 46.7,133.6 12,113.6 11.6,112.8 11.6,112.5 46.3,132.5 			"/>
			<polygon class="st14" points="46.7,138 46.7,138.3 46.3,138.6 11.3,118.4 10.9,117.6 10.9,116.9 11.3,116.7 11.6,116.9 
				11.6,117.2 12,117.9 			"/>
			<polygon class="st3" points="46.7,137.7 46.7,138 12,117.9 11.6,117.2 11.6,116.9 46.3,136.9 			"/>
		</g>
		<path class="st13" d="M55,147.3L0,115.5v13.3l55,31.8V147.3z M8.6,128.4l-1.4,0.8l-2-1.2l-1.4-2.5v-2.4l1.4-0.8l2,1.2l1.4,2.5
			V128.4z M15.5,132.4l-1.4,0.8l-2-1.2l-1.4-2.5v-2.4l1.4-0.8l2,1.2l1.4,2.5V132.4z M44.5,149.2l-1.4,0.8l-2-1.2l-1.4-2.5v-2.4
			l1.4-0.8l2,1.2l1.4,2.5V149.2z M51.4,153.1l-1.5,0.8l-2-1.2l-1.5-2.5v-2.4l1.5-0.8l2,1.2l1.5,2.5V153.1z"/>
		<g>
			<polygon class="st10" points="34,145.2 33.4,145.5 20.5,131 21.1,130.7 34,138.1 			"/>
			<polygon class="st18" points="33.4,145.5 20.5,138 20.5,131 33.4,138.5 			"/>
		</g>
		<polygon class="st12" points="56.3,121.6 1.3,89.9 3.5,86.6 58.6,118.3 		"/>
		<polygon class="st12" points="55,147.3 0,115.5 1.3,114.8 56.3,146.5 		"/>
		<g>
			<polygon class="st13" points="91.4,143 89.7,142 89.7,133.7 91.4,134.7 			"/>
			<polygon class="st14" points="69.4,155.7 67.5,156.8 67.5,148.4 75,135.4 85.7,129.2 93.3,133.6 93.3,141.9 91.4,143 91.4,135.6 
				84.9,131.9 75.8,137.1 69.4,148.3 			"/>
			<polygon class="st12" points="75,135.4 73.3,134.4 84,128.2 85.7,129.2 			"/>
			<polygon class="st13" points="67.5,148.4 65.8,147.5 73.3,134.4 75,135.4 			"/>
			<polygon class="st4" points="67.5,156.8 65.8,155.8 65.8,147.5 67.5,148.4 			"/>
		</g>
		<g>
			<g>
				<polygon class="st22" points="63.5,114.3 61.8,113.3 61.8,113.2 63.6,114.1 				"/>
				<polygon class="st3" points="63.5,114.2 61.8,113.2 61.9,113 63.8,113.9 				"/>
				<polygon class="st2" points="63.7,114 61.9,113 62.1,112.9 63.8,113.9 				"/>
				<polygon class="st1" points="63.9,113.9 63.8,113.9 63.7,114 63.5,114.2 63.5,114.3 63.7,114.4 63.8,114.3 63.9,114.1 				"/>
			</g>
			<g>
				<polygon class="st22" points="63.5,117.7 61.8,116.7 61.8,116.5 63.6,117.5 				"/>
				<polygon class="st3" points="63.5,117.5 61.8,116.5 61.9,116.3 63.8,117.2 				"/>
				<polygon class="st2" points="63.7,117.3 61.9,116.3 62.1,116.2 63.8,117.2 				"/>
				<polygon class="st1" points="63.9,117.3 63.8,117.2 63.7,117.3 63.5,117.5 63.5,117.7 63.7,117.7 63.8,117.6 63.9,117.4 				"/>
			</g>
			<polygon class="st22" points="63.9,112 65.1,111.3 67,112.4 68.1,114.4 68.1,121 67,121.7 65.1,120.6 63.9,118.6 			"/>
			<polygon class="st1" points="63.5,112.2 64.7,111.5 66.6,112.6 67.7,114.6 67.7,121.2 66.6,121.9 64.7,120.9 63.5,118.8 			"/>
		</g>
	</g>
</g>
</svg>
