<?xml version="1.0" encoding="utf-8"?>
<!-- Generator: Adobe Illustrator 27.5.0, SVG Export Plug-In . SVG Version: 6.00 Build 0)  -->
<svg version="1.1" id="Layer_1" xmlns="http://www.w3.org/2000/svg" xmlns:xlink="http://www.w3.org/1999/xlink" x="0px" y="0px"
	 viewBox="0 0 621.6 378.3" style="enable-background:new 0 0 621.6 378.3;" xml:space="preserve">
<style type="text/css">
	.st0{fill:#B4B4B4;}
	.st1{fill:#A5A5A5;}
	.st2{fill:#E9E8E9;}
	.st3{fill:#FFFFFF;}
	.st4{opacity:0.5;fill:#4C4C4E;}
	.st5{fill:#DCB3B3;}
	.st6{fill:#4E4E4E;}
	.st7{fill:#333333;}
	.st8{fill:#414141;}
	.st9{fill:#A77D52;}
	.st10{fill:#DC9B9B;}
	.st11{fill:#ECC1C0;}
	.st12{fill:#484848;}
	.st13{fill:#995C5C;}
	.st14{fill:#E8AEAE;}
</style>
<g>
	<g>
		<polygon class="st0" points="291.3,33.6 274,33.6 274,38.5 267.5,42.3 291.3,42.3 297,37.9 		"/>
		<polygon class="st1" points="255.3,19.2 255.3,15.5 261.8,11.7 261.8,15.5 256.6,18.5 		"/>
		<polygon class="st1" points="255.3,15.5 255.3,19.2 211.1,44.8 209.7,45.5 208.9,46 208.9,42.3 		"/>
		<polygon class="st1" points="261.8,15.5 261.8,11.7 265.4,9.6 265.4,13.4 262.4,15.1 		"/>
		<polygon class="st2" points="265.4,13.4 265.4,9.6 263.1,8.3 261,9.5 261,4.6 267.5,8.4 267.5,42.3 263.3,39.8 265.4,38.6 
			265.4,34.8 263.1,33.5 261,34.7 261,21.3 265.4,15.5 		"/>
		<polygon class="st3" points="263.1,33.5 265.4,34.8 261.8,36.9 259.5,35.6 261,34.7 		"/>
		<polygon class="st3" points="259.5,35.6 261.8,36.9 255.3,40.7 253,39.4 		"/>
		<polygon class="st3" points="253,39.4 255.3,40.7 239,50 242.6,45.4 		"/>
		<polygon class="st3" points="263.1,8.3 265.4,9.6 261.8,11.7 259.5,10.4 261,9.5 		"/>
		<polygon class="st1" points="265.4,34.8 265.4,38.6 263.3,39.8 261.8,40.7 261.8,36.9 		"/>
		<polygon class="st3" points="259.5,10.4 261.8,11.7 255.3,15.5 253,14.2 		"/>
		<polygon class="st3" points="253,14.2 255.3,15.5 208.9,42.3 208.4,42 236.1,23.9 		"/>
		<polygon class="st1" points="265.4,13.4 265.4,15.5 261,21.3 242.6,45.4 239,50 233.1,53.5 230.1,53 229.5,52.9 208.9,49.8 
			208.9,46 209.7,45.5 236.1,49.5 262.4,15.1 		"/>
		<polygon class="st1" points="233.1,53.5 239,50 255.3,40.7 255.3,44.4 208.9,71.2 208.9,67.4 		"/>
		<polygon class="st1" points="255.3,44.4 255.3,40.7 261.8,36.9 261.8,40.7 		"/>
		<polygon class="st3" points="230.1,53 233.1,53.5 208.9,67.4 208.9,66.8 		"/>
		<polygon class="st3" points="262.4,15.1 236.1,49.5 233.8,48.2 256.6,18.5 261.8,15.5 		"/>
		<polygon class="st3" points="211.1,44.8 233.8,48.2 236.1,49.5 209.7,45.5 		"/>
		<path class="st2" d="M202.4,79.9l-6.5-3.8V42.3l6.5,3.8V79.9z M200.2,76.2v-3.8l-2.3-1.3v3.8L200.2,76.2z M200.2,47.2l-2.3-1.3
			v3.8l2.3,1.3V47.2z"/>
		<polygon class="st1" points="202.4,79.9 202.4,46 208.9,42.3 208.9,46 208.9,49.8 208.9,64.8 208.9,66.8 208.9,67.4 208.9,71.2 
			208.9,76.1 		"/>
		<polygon class="st3" points="202.4,46 195.8,42.3 202.4,38.5 206.6,40.9 208.4,42 208.9,42.3 		"/>
		<polygon class="st1" points="274,4.6 274,38.5 267.5,42.3 267.5,8.4 		"/>
		<polygon class="st3" points="267.5,0.9 274,4.6 267.5,8.4 261,4.6 		"/>
		<polygon class="st3" points="230.1,53 208.9,66.8 208.9,64.8 229.5,52.9 		"/>
		<polygon class="st3" points="236.1,23.9 208.4,42 206.6,40.9 		"/>
		<polygon class="st2" points="200.2,72.4 200.2,76.2 198,74.9 198,71.1 		"/>
		<polygon class="st2" points="198,45.9 200.2,47.2 200.2,51 198,49.7 		"/>
		<polygon class="st0" points="283.5,42.3 276.5,42.3 226.3,71.3 226.1,71.2 217.3,71.2 267.4,42.2 265.4,34.8 265.4,38.6 
			263.7,39.6 263.9,40.2 210.2,71.2 208.9,71.2 208.9,76.1 202.4,79.9 226.1,79.9 231.8,75.5 229.3,73.7 		"/>
	</g>
	<g>
		<polygon class="st0" points="226.2,71.2 208.9,71.2 208.9,76.1 202.4,79.9 226.2,79.9 231.9,75.5 		"/>
		<polygon class="st1" points="190.1,56.9 190.1,53.1 196.7,49.3 196.7,53.1 191.5,56.1 		"/>
		<polygon class="st1" points="190.1,53.1 190.1,56.9 145.9,82.4 144.6,83.1 143.8,83.6 143.8,79.9 		"/>
		<polygon class="st1" points="196.7,53.1 196.7,49.3 200.3,47.2 200.3,51 197.3,52.7 		"/>
		<polygon class="st2" points="200.3,51 200.3,47.2 198,45.9 195.9,47.2 195.9,42.3 202.4,46 202.4,79.9 198.2,77.4 200.3,76.2 
			200.3,72.4 198,71.1 195.9,72.4 195.9,58.9 200.3,53.2 		"/>
		<polygon class="st3" points="198,71.1 200.3,72.4 196.7,74.5 194.4,73.2 195.9,72.4 		"/>
		<polygon class="st3" points="194.4,73.2 196.7,74.5 190.1,78.3 187.9,77 		"/>
		<polygon class="st3" points="187.9,77 190.1,78.3 173.9,87.6 177.5,83 		"/>
		<polygon class="st3" points="198,45.9 200.3,47.2 196.7,49.3 194.4,48 195.9,47.2 		"/>
		<polygon class="st1" points="200.3,72.4 200.3,76.2 198.2,77.4 196.7,78.3 196.7,74.5 		"/>
		<polygon class="st3" points="194.4,48 196.7,49.3 190.1,53.1 187.9,51.8 		"/>
		<polygon class="st3" points="187.9,51.8 190.1,53.1 143.8,79.9 143.3,79.6 171,61.6 		"/>
		<polygon class="st1" points="200.3,51 200.3,53.2 195.9,58.9 177.5,83 173.9,87.6 168,91.1 165,90.6 164.4,90.5 143.8,87.4 
			143.8,83.6 144.6,83.1 171,87.2 197.3,52.7 		"/>
		<polygon class="st1" points="168,91.1 173.9,87.6 190.1,78.3 190.1,82 143.8,108.8 143.8,105.1 		"/>
		<polygon class="st1" points="190.1,82 190.1,78.3 196.7,74.5 196.7,78.3 		"/>
		<polygon class="st3" points="165,90.6 168,91.1 143.8,105.1 143.8,104.4 		"/>
		<polygon class="st3" points="197.3,52.7 171,87.2 168.7,85.9 191.5,56.1 196.7,53.1 		"/>
		<polygon class="st3" points="145.9,82.4 168.7,85.9 171,87.2 144.6,83.1 		"/>
		<path class="st2" d="M137.2,117.5l-6.5-3.8V79.9l6.5,3.8V117.5z M135.1,113.8V110l-2.3-1.3v3.8L135.1,113.8z M135.1,84.9l-2.3-1.3
			v3.8l2.3,1.3V84.9z"/>
		<polygon class="st1" points="137.2,117.5 137.2,83.6 143.8,79.9 143.8,83.6 143.8,87.4 143.8,102.5 143.8,104.4 143.8,105.1 
			143.8,108.8 143.8,113.7 		"/>
		<polygon class="st3" points="137.2,83.6 130.7,79.9 137.2,76.1 141.5,78.6 143.3,79.6 143.8,79.9 		"/>
		<polygon class="st1" points="208.9,42.3 208.9,76.1 202.4,79.9 202.4,46 		"/>
		<polygon class="st3" points="202.4,38.5 208.9,42.3 202.4,46 195.9,42.3 		"/>
		<polygon class="st3" points="165,90.6 143.8,104.4 143.8,102.5 164.4,90.5 		"/>
		<polygon class="st3" points="171,61.6 143.3,79.6 141.5,78.6 		"/>
		<polygon class="st2" points="135.1,110 135.1,113.8 132.9,112.5 132.9,108.7 		"/>
		<polygon class="st2" points="132.9,83.6 135.1,84.9 135.1,88.6 132.9,87.3 		"/>
		<polygon class="st0" points="218.4,79.9 211.4,79.9 161.2,109 161,108.8 152.2,108.8 202.3,79.8 200.3,72.4 200.3,76.2 
			198.6,77.2 198.8,77.8 145,108.8 143.8,108.8 143.8,113.7 137.2,117.5 161,117.5 166.7,113.2 164.2,111.3 		"/>
	</g>
	<g>
		<polygon class="st0" points="161,108.7 143.8,108.7 143.8,113.6 137.2,117.4 161,117.4 166.7,113.1 		"/>
		<polygon class="st1" points="125,94.4 125,90.6 131.5,86.9 131.5,90.6 126.3,93.6 		"/>
		<polygon class="st1" points="125,90.6 125,94.4 80.8,119.9 79.5,120.7 78.6,121.2 78.6,117.4 		"/>
		<polygon class="st1" points="131.5,90.6 131.5,86.9 135.1,84.8 135.1,88.5 132.1,90.3 		"/>
		<polygon class="st2" points="135.1,88.5 135.1,84.8 132.9,83.5 130.7,84.7 130.7,79.8 137.2,83.5 137.2,117.4 133,114.9 
			135.1,113.7 135.1,109.9 132.9,108.6 130.7,109.9 130.7,96.4 135.1,90.7 		"/>
		<polygon class="st3" points="132.9,108.6 135.1,109.9 131.5,112 129.2,110.7 130.7,109.9 		"/>
		<polygon class="st3" points="129.2,110.7 131.5,112 125,115.8 122.7,114.5 		"/>
		<polygon class="st3" points="122.7,114.5 125,115.8 108.8,125.2 112.3,120.5 		"/>
		<polygon class="st3" points="132.9,83.5 135.1,84.8 131.5,86.9 129.2,85.5 130.7,84.7 		"/>
		<polygon class="st1" points="135.1,109.9 135.1,113.7 133,114.9 131.5,115.8 131.5,112 		"/>
		<polygon class="st3" points="129.2,85.5 131.5,86.9 125,90.6 122.7,89.3 		"/>
		<polygon class="st3" points="122.7,89.3 125,90.6 78.6,117.4 78.1,117.1 105.8,99.1 		"/>
		<polygon class="st1" points="135.1,88.5 135.1,90.7 130.7,96.4 112.3,120.5 108.8,125.2 102.8,128.6 99.8,128.1 99.2,128.1 
			78.6,124.9 78.6,121.2 79.5,120.7 105.8,124.7 132.1,90.3 		"/>
		<polygon class="st1" points="102.8,128.6 108.8,125.2 125,115.8 125,119.6 78.6,146.3 78.6,142.6 		"/>
		<polygon class="st1" points="125,119.6 125,115.8 131.5,112 131.5,115.8 		"/>
		<polygon class="st3" points="99.8,128.1 102.8,128.6 78.6,142.6 78.6,141.9 		"/>
		<polygon class="st3" points="132.1,90.3 105.8,124.7 103.5,123.4 126.3,93.6 131.5,90.6 		"/>
		<polygon class="st3" points="80.8,119.9 103.5,123.4 105.8,124.7 79.5,120.7 		"/>
		<path class="st2" d="M72.1,155l-6.5-3.8v-33.9l6.5,3.8V155z M70,151.3v-3.8l-2.3-1.3v3.8L70,151.3z M70,122.4l-2.3-1.3v3.8
			l2.3,1.3V122.4z"/>
		<polygon class="st1" points="72.1,155 72.1,121.2 78.6,117.4 78.6,121.2 78.6,124.9 78.6,140 78.6,141.9 78.6,142.6 78.6,146.3 
			78.6,151.3 		"/>
		<polygon class="st3" points="72.1,121.2 65.6,117.4 72.1,113.6 76.3,116.1 78.1,117.1 78.6,117.4 		"/>
		<polygon class="st1" points="143.8,79.8 143.8,113.6 137.2,117.4 137.2,83.5 		"/>
		<polygon class="st3" points="137.2,76 143.8,79.8 137.2,83.5 130.7,79.8 		"/>
		<polygon class="st3" points="99.8,128.1 78.6,141.9 78.6,140 99.2,128.1 		"/>
		<polygon class="st3" points="105.8,99.1 78.1,117.1 76.3,116.1 		"/>
		<polygon class="st2" points="70,147.6 70,151.3 67.7,150 67.7,146.3 		"/>
		<polygon class="st2" points="67.7,121.1 70,122.4 70,126.1 67.7,124.8 		"/>
		<polygon class="st0" points="153.3,117.4 146.3,117.4 96,146.5 95.8,146.3 87,146.3 137.1,117.3 135.1,109.9 135.1,113.7 
			133.4,114.7 133.6,115.3 79.9,146.3 78.6,146.3 78.6,151.3 72.1,155 95.8,155 101.5,150.7 99.1,148.8 		"/>
	</g>
	<g>
		<polygon class="st0" points="95.4,146.2 78.2,146.2 78.2,151.1 71.7,154.8 95.4,154.8 101.1,150.5 		"/>
		<polygon class="st1" points="59.4,131.8 59.4,128.1 65.9,124.3 65.9,128.1 60.7,131.1 		"/>
		<polygon class="st1" points="59.4,128.1 59.4,131.8 15.2,157.4 13.9,158.1 13,158.6 13,154.8 		"/>
		<polygon class="st1" points="65.9,128.1 65.9,124.3 69.6,122.2 69.6,126 66.6,127.7 		"/>
		<polygon class="st2" points="69.6,126 69.6,122.2 67.3,120.9 65.2,122.1 65.2,117.2 71.7,121 71.7,154.8 67.4,152.4 69.6,151.2 
			69.6,147.4 67.3,146.1 65.2,147.3 65.2,133.9 69.6,128.1 		"/>
		<polygon class="st3" points="67.3,146.1 69.6,147.4 65.9,149.5 63.7,148.2 65.2,147.3 		"/>
		<polygon class="st3" points="63.7,148.2 65.9,149.5 59.4,153.3 57.2,151.9 		"/>
		<polygon class="st3" points="57.2,151.9 59.4,153.3 43.2,162.6 46.8,158 		"/>
		<polygon class="st3" points="67.3,120.9 69.6,122.2 65.9,124.3 63.7,123 65.2,122.1 		"/>
		<polygon class="st1" points="69.6,147.4 69.6,151.2 67.4,152.4 65.9,153.3 65.9,149.5 		"/>
		<polygon class="st3" points="63.7,123 65.9,124.3 59.4,128.1 57.2,126.8 		"/>
		<polygon class="st3" points="57.2,126.8 59.4,128.1 13,154.8 12.5,154.6 40.2,136.5 		"/>
		<polygon class="st1" points="69.6,126 69.6,128.1 65.2,133.9 46.8,158 43.2,162.6 37.2,166.1 34.3,165.6 33.7,165.5 13,162.4 
			13,158.6 13.9,158.1 40.2,162.1 66.6,127.7 		"/>
		<polygon class="st1" points="37.2,166.1 43.2,162.6 59.4,153.3 59.4,157 13,183.8 13,180 		"/>
		<polygon class="st1" points="59.4,157 59.4,153.3 65.9,149.5 65.9,153.3 		"/>
		<polygon class="st3" points="34.3,165.6 37.2,166.1 13,180 13,179.4 		"/>
		<polygon class="st3" points="66.6,127.7 40.2,162.1 38,160.8 60.7,131.1 65.9,128.1 		"/>
		<polygon class="st3" points="15.2,157.4 38,160.8 40.2,162.1 13.9,158.1 		"/>
		<path class="st2" d="M6.5,192.5L0,188.7v-33.9l6.5,3.8V192.5z M4.4,188.8V185l-2.3-1.3v3.8L4.4,188.8z M4.4,159.8l-2.3-1.3v3.8
			l2.3,1.3V159.8z"/>
		<polygon class="st1" points="6.5,192.5 6.5,158.6 13,154.8 13,158.6 13,162.4 13,177.4 13,179.4 13,180 13,183.8 13,188.7 		"/>
		<polygon class="st3" points="6.5,158.6 0,154.8 6.5,151.1 10.8,153.5 12.5,154.6 13,154.8 		"/>
		<polygon class="st1" points="78.2,117.2 78.2,151.1 71.7,154.8 71.7,121 		"/>
		<polygon class="st3" points="71.7,113.5 78.2,117.2 71.7,121 65.2,117.2 		"/>
		<polygon class="st3" points="34.3,165.6 13,179.4 13,177.4 33.7,165.5 		"/>
		<polygon class="st3" points="40.2,136.5 12.5,154.6 10.8,153.5 		"/>
		<polygon class="st2" points="4.4,185 4.4,188.8 2.1,187.5 2.1,183.7 		"/>
		<polygon class="st2" points="2.1,158.5 4.4,159.8 4.4,163.6 2.1,162.3 		"/>
		<polygon class="st0" points="87.7,154.8 80.7,154.8 30.4,183.9 30.3,183.8 21.4,183.8 71.6,154.8 69.6,147.4 69.6,151.2 
			67.8,152.1 68.1,152.8 14.3,183.8 13,183.8 13,188.7 6.5,192.5 30.3,192.5 36,188.1 33.5,186.3 		"/>
	</g>
</g>
<g>
	<g>
		<polygon class="st0" points="290.7,32.6 267,32.6 267,41.3 290.7,41.3 296.4,36.9 		"/>
		<g>
			<path class="st0" d="M420.7,107.7h-5.2l-57.9-31.9c0,0-3.2,4-1.9,3c1.1-0.8,39.7,21.3,52.7,28.9H397v8.7h23.7l5.7-4.3
				L420.7,107.7z"/>
			<polygon class="st0" points="337.9,78.8 390.5,109.3 390.5,107.7 340.5,78.8 			"/>
		</g>
		<g>
			<path class="st0" d="M361.4,74.5l-5.7-4.3h-5.2l-57.9-31.9c0,0-3.2,4-1.9,3c1.1-0.8,39.7,21.3,52.7,28.9H332v0h0v8.7h23.7
				L361.4,74.5L361.4,74.5L361.4,74.5z"/>
			<polygon class="st0" points="272.9,41.3 325.5,71.8 325.5,70.1 275.5,41.3 			"/>
		</g>
		<polygon class="st2" points="334.1,71.4 358.4,85.4 358.6,85.5 360.4,86.6 366.3,90 390.5,103.9 390.5,107.7 336.2,76.3 
			334.1,75.1 		"/>
		<polygon class="st1" points="334.1,75.1 336.2,76.3 332,78.8 332,45 338.5,41.3 338.5,46.2 336.4,45 334.1,46.3 334.1,50 
			334.1,52.2 338.5,57.9 338.5,71.3 336.4,70.1 334.1,71.4 		"/>
		<polygon class="st3" points="336.4,70.1 338.5,71.3 356.8,81.9 359.2,85 358.4,85.4 334.1,71.4 		"/>
		<polygon class="st3" points="334.1,46.3 336.4,45 338.5,46.2 361,59.2 358.6,60.4 		"/>
		<polygon class="st2" points="334.1,50 334.1,46.3 358.4,60.3 358.6,60.4 390.5,78.8 390.5,82.5 389.6,82.1 388.3,81.3 342.9,55.1 
			337.1,51.7 		"/>
		<polygon class="st2" points="366.3,90 360.4,86.6 359.3,85.1 359.2,85 356.8,81.9 338.5,57.9 334.1,52.2 334.1,50 337.1,51.7 
			363.3,86.1 389.6,82.1 390.5,82.5 390.5,86.3 369.9,89.4 		"/>
		<polygon class="st3" points="363.3,86.1 337.1,51.7 342.9,55.1 365.6,84.8 		"/>
		<polygon class="st3" points="389.6,82.1 363.3,86.1 365.6,84.8 388.3,81.3 		"/>
		<polygon class="st2" points="390.5,112.6 390.5,107.7 390.5,103.9 390.5,101.3 390.5,86.3 390.5,82.5 390.5,78.8 397,82.5 
			397,116.3 		"/>
		<path class="st1" d="M397,116.3V82.5l6.5-3.8v33.8L397,116.3z M401.3,82.5l-2.3,1.3v3.8l2.3-1.3V82.5z M401.3,111.3v-3.8l-2.3,1.3
			v3.8L401.3,111.3z"/>
		<polygon class="st3" points="403.5,78.8 397,82.5 390.5,78.8 392.7,77.5 397,75 		"/>
		<polygon class="st3" points="392.7,77.5 390.5,78.8 358.6,60.4 361,59.2 		"/>
		<polygon class="st2" points="325.5,75 325.5,70.1 325.5,66.4 325.5,63.8 325.5,48.8 325.5,45 325.5,41.3 332,45 332,78.8 		"/>
		<polygon class="st1" points="271.2,38.8 267,41.3 267,7.5 273.5,3.8 273.5,8.7 271.4,7.4 269.1,8.7 269.1,12.5 269.1,14.6 
			273.5,20.4 273.5,33.8 271.4,32.5 269.1,33.8 269.1,37.6 		"/>
		<polygon class="st2" points="269.1,14.6 269.1,12.5 272.1,14.2 298.4,48.5 324.6,44.5 325.5,45 325.5,48.8 304.9,51.9 301.3,52.5 
			295.4,49 291.9,44.4 273.5,20.4 		"/>
		<polygon class="st3" points="301.3,52.5 304.9,51.9 325.5,63.8 325.5,66.4 		"/>
		<polygon class="st3" points="298.4,48.5 272.1,14.2 277.9,17.6 300.6,47.2 		"/>
		<polygon class="st3" points="291.9,44.4 295.4,49 269.1,33.8 271.4,32.5 273.5,33.8 		"/>
		<polygon class="st3" points="324.6,44.5 298.4,48.5 300.6,47.2 323.3,43.8 		"/>
		<polygon class="st2" points="295.4,49 301.3,52.5 325.5,66.4 325.5,70.1 271.2,38.8 269.1,37.6 269.1,33.8 		"/>
		<polygon class="st2" points="272.1,14.2 269.1,12.5 269.1,8.7 325.5,41.3 325.5,45 324.6,44.5 323.3,43.8 277.9,17.6 		"/>
		<polygon class="st2" points="267,7.5 267,41.3 260.5,37.5 260.5,3.8 		"/>
		<polygon class="st3" points="273.5,3.8 267,7.5 260.5,3.8 267,0 		"/>
		<polygon class="st3" points="271.4,7.4 273.5,8.7 327.7,40 325.5,41.3 269.1,8.7 		"/>
		<polygon class="st3" points="325.5,41.3 327.7,40 332,37.5 338.5,41.3 332,45 		"/>
		<polygon class="st3" points="360.4,86.6 358.6,85.5 359.3,85.1 		"/>
		<polygon class="st3" points="369.9,89.4 390.5,101.3 390.5,103.9 366.3,90 		"/>
		<polygon class="st3" points="358.6,85.5 358.4,85.4 359.2,85 359.3,85.1 		"/>
		<polygon class="st1" points="399.1,83.8 401.3,82.5 401.3,86.2 399.1,87.5 		"/>
		<polygon class="st1" points="401.3,107.6 401.3,111.3 399.1,112.6 399.1,108.9 		"/>
	</g>
	<g>
		<g>
			<path class="st0" d="M485.9,145.7h-5.2l-57.9-31.9c0,0-3.2,4-1.9,3c1.1-0.8,39.7,21.3,52.7,28.9h-11.4v8.7h23.7l5.7-4.3
				L485.9,145.7z"/>
			<polygon class="st0" points="403.1,116.8 455.7,147.3 455.7,145.7 405.7,116.8 			"/>
		</g>
		<polygon class="st0" points="420.9,108.2 397.2,108.2 397.2,116.8 420.9,116.8 426.6,112.5 		"/>
		<polygon class="st3" points="399.4,109.4 401.6,108.1 403.7,109.3 422.1,119.9 425.7,124.6 		"/>
		<polygon class="st1" points="401.6,108.1 399.4,109.4 399.4,113.1 401.5,114.4 397.2,116.8 397.2,83 403.7,79.3 403.7,84.2 
			401.6,83 399.4,84.3 399.4,88 399.4,90.2 403.7,95.9 403.7,109.3 		"/>
		<polygon class="st2" points="399.4,113.1 399.4,109.4 425.7,124.6 431.6,128 446.3,136.5 446.3,140.2 401.5,114.4 		"/>
		<polygon class="st2" points="446.3,140.2 446.3,136.5 452.8,140.2 452.8,144 		"/>
		<polygon class="st2" points="452.8,144 452.8,140.2 455.7,141.9 455.7,145.7 		"/>
		<polygon class="st2" points="455.7,150.6 455.7,145.7 455.7,141.9 455.7,139.3 455.7,124.3 455.7,120.6 455.7,116.8 462.2,120.6 
			462.2,154.3 		"/>
		<path class="st1" d="M468.7,150.6l-6.5,3.8v-33.8l6.5-3.8V150.6z M464.3,125.5l2.3-1.3v-3.8l-2.3,1.3V125.5z M464.3,146.9v3.8
			l2.3-1.3v-3.8L464.3,146.9z"/>
		<polygon class="st3" points="468.7,116.8 462.2,120.6 455.7,116.8 458,115.5 462.2,113.1 		"/>
		<polygon class="st3" points="458,115.5 455.7,116.8 452.8,115.1 455,113.8 		"/>
		<polygon class="st3" points="455,113.8 452.8,115.1 446.3,111.4 448.5,110.1 		"/>
		<polygon class="st3" points="448.5,110.1 446.3,111.4 399.4,84.3 401.6,83 403.7,84.2 		"/>
		<polygon class="st2" points="390.7,113.1 390.7,79.3 397.2,83 397.2,116.8 		"/>
		<polygon class="st3" points="390.7,79.3 397.2,75.5 403.7,79.3 397.2,83 		"/>
		<polygon class="st2" points="399.4,88 399.4,84.3 446.3,111.4 446.3,115.1 408.1,93.1 402.3,89.7 		"/>
		<polygon class="st2" points="446.3,115.1 446.3,111.4 452.8,115.1 452.8,118.9 		"/>
		<polygon class="st2" points="452.8,118.9 452.8,115.1 455.7,116.8 455.7,120.6 454.9,120.1 453.5,119.3 		"/>
		<polygon class="st2" points="422.1,119.9 403.7,95.9 399.4,90.2 399.4,88 402.3,89.7 428.6,124.1 454.9,120.1 455.7,120.6 
			455.7,124.3 435.1,127.4 431.6,128 425.7,124.6 		"/>
		<polygon class="st3" points="428.6,124.1 402.3,89.7 408.1,93.1 430.8,122.8 		"/>
		<polygon class="st3" points="454.9,120.1 428.6,124.1 430.8,122.8 453.5,119.3 		"/>
		<polygon class="st3" points="448.5,135.2 455,138.9 452.8,140.2 446.3,136.5 		"/>
		<polygon class="st3" points="452.8,140.2 455,138.9 455.7,139.3 455.7,141.9 		"/>
		<polygon class="st3" points="448.5,135.2 446.3,136.5 431.6,128 435.1,127.4 		"/>
		<polygon class="st1" points="466.6,124.2 464.3,125.5 464.3,121.8 466.6,120.5 		"/>
		<polygon class="st1" points="464.3,150.7 464.3,146.9 466.6,145.6 466.6,149.4 		"/>
	</g>
	<g>
		<polygon class="st0" points="485.9,146.7 462.2,146.7 462.2,155.3 485.9,155.3 491.6,151 		"/>
		<g>
			<path class="st0" d="M615.9,221.7h-5.2l-57.9-31.9c0,0-3.2,4-1.9,3c1.1-0.8,39.7,21.3,52.7,28.9h-11.4v8.7h23.7l5.7-4.3
				L615.9,221.7z"/>
			<polygon class="st0" points="533.1,192.8 585.7,223.3 585.7,221.7 535.7,192.8 			"/>
		</g>
		<g>
			<path class="st0" d="M556.6,188.5l-5.7-4.3h-5.2l-57.9-31.9c0,0-3.2,4-1.9,3c1.1-0.8,39.7,21.3,52.7,28.9h-11.4v0h0v8.7h23.7
				L556.6,188.5L556.6,188.5L556.6,188.5z"/>
			<polygon class="st0" points="468.1,155.3 520.7,185.8 520.7,184.2 470.7,155.3 			"/>
		</g>
		<polygon class="st2" points="529.3,185.4 553.6,199.4 553.8,199.5 555.6,200.6 561.6,204 585.7,218 585.7,221.7 531.5,190.4 
			529.3,189.2 		"/>
		<polygon class="st1" points="529.3,189.2 531.5,190.4 527.2,192.8 527.2,159.1 533.7,155.3 533.7,160.2 531.6,159 529.3,160.3 
			529.3,164.1 529.3,166.2 533.7,171.9 533.7,185.3 531.6,184.1 529.3,185.4 		"/>
		<polygon class="st3" points="531.6,184.1 533.7,185.3 552.1,195.9 554.4,199 553.6,199.4 529.3,185.4 		"/>
		<polygon class="st3" points="529.3,160.3 531.6,159 533.7,160.2 556.3,173.2 553.8,174.4 		"/>
		<polygon class="st2" points="529.3,164.1 529.3,160.3 553.6,174.3 553.8,174.4 585.7,192.8 585.7,196.6 584.8,196.1 583.5,195.3 
			538.1,169.1 532.3,165.8 		"/>
		<polygon class="st2" points="561.6,204 555.6,200.6 554.6,199.2 554.4,199 552.1,195.9 533.7,171.9 529.3,166.2 529.3,164.1 
			532.3,165.8 558.6,200.1 584.8,196.1 585.7,196.6 585.7,200.3 565.1,203.5 		"/>
		<polygon class="st3" points="558.6,200.1 532.3,165.8 538.1,169.1 560.8,198.8 		"/>
		<polygon class="st3" points="584.8,196.1 558.6,200.1 560.8,198.8 583.5,195.3 		"/>
		<polygon class="st2" points="585.7,226.6 585.7,221.7 585.7,218 585.7,215.4 585.7,200.3 585.7,196.6 585.7,192.8 592.2,196.6 
			592.2,230.4 		"/>
		<path class="st1" d="M592.2,230.4v-33.8l6.5-3.8v33.8L592.2,230.4z M596.6,196.5l-2.3,1.3v3.8l2.3-1.3V196.5z M596.6,225.4v-3.8
			l-2.3,1.3v3.8L596.6,225.4z"/>
		<polygon class="st3" points="598.7,192.8 592.2,196.6 585.7,192.8 588,191.5 592.2,189.1 		"/>
		<polygon class="st3" points="588,191.5 585.7,192.8 553.8,174.4 556.3,173.2 		"/>
		<polygon class="st2" points="520.7,189.1 520.7,184.2 520.7,180.4 520.7,177.8 520.7,162.8 520.7,159.1 520.7,155.3 527.2,159.1 
			527.2,192.8 		"/>
		<polygon class="st1" points="466.5,152.9 462.2,155.3 462.2,121.6 468.7,117.8 468.7,122.7 466.6,121.5 464.4,122.8 464.4,126.5 
			464.4,128.7 468.7,134.4 468.7,147.8 466.6,146.6 464.4,147.9 464.4,151.6 		"/>
		<polygon class="st2" points="464.4,128.7 464.4,126.5 467.3,128.3 493.6,162.6 519.9,158.6 520.7,159.1 520.7,162.8 500.1,166 
			496.6,166.5 490.7,163.1 487.1,158.4 468.7,134.4 		"/>
		<polygon class="st3" points="496.6,166.5 500.1,166 520.7,177.8 520.7,180.4 		"/>
		<polygon class="st3" points="493.6,162.6 467.3,128.3 473.2,131.6 495.9,161.3 		"/>
		<polygon class="st3" points="487.1,158.4 490.7,163.1 464.4,147.9 466.6,146.6 468.7,147.8 		"/>
		<polygon class="st3" points="519.9,158.6 493.6,162.6 495.9,161.3 518.6,157.8 		"/>
		<polygon class="st2" points="490.7,163.1 496.6,166.5 520.7,180.4 520.7,184.2 466.5,152.9 464.4,151.6 464.4,147.9 		"/>
		<polygon class="st2" points="467.3,128.3 464.4,126.5 464.4,122.8 520.7,155.3 520.7,159.1 519.9,158.6 518.6,157.8 473.2,131.6 
					"/>
		<polygon class="st2" points="462.2,121.6 462.2,155.3 455.7,151.6 455.7,117.8 		"/>
		<polygon class="st3" points="468.7,117.8 462.2,121.6 455.7,117.8 462.2,114 		"/>
		<polygon class="st3" points="466.6,121.5 468.7,122.7 523,154 520.7,155.3 464.4,122.8 		"/>
		<polygon class="st3" points="520.7,155.3 523,154 527.2,151.6 533.7,155.3 527.2,159.1 		"/>
		<polygon class="st3" points="555.6,200.6 553.8,199.5 554.6,199.2 		"/>
		<polygon class="st3" points="565.1,203.5 585.7,215.4 585.7,218 561.6,204 		"/>
		<polygon class="st3" points="553.8,199.5 553.6,199.4 554.4,199 554.6,199.2 		"/>
		<polygon class="st1" points="594.3,197.8 596.6,196.5 596.6,200.3 594.3,201.6 		"/>
		<polygon class="st1" points="596.6,221.6 596.6,225.4 594.3,226.7 594.3,222.9 		"/>
	</g>
</g>
<g>
	<polygon class="st2" points="389.9,311.7 389.9,306.7 396.4,310.5 396.4,344.3 392.2,341.8 394.3,340.6 394.3,336.8 392.1,335.5 
		389.9,336.8 389.9,323.4 394.3,317.6 394.3,315.5 394.3,311.7 392.1,310.4 	"/>
	<polygon class="st1" points="589.3,199.2 589.3,202.9 586.3,204.6 580.5,208 535.1,234.2 533.8,235 532.9,235.5 532.9,231.7 	"/>
	<polygon class="st1" points="589.3,224.3 589.3,228 587.2,229.3 532.9,260.6 532.9,256.8 557.1,242.9 563,239.5 	"/>
	<polygon class="st3" points="465.7,267.9 519.9,236.6 522.1,235.4 524.3,236.7 467.9,269.2 	"/>
	<polygon class="st2" points="524.3,236.7 522.1,235.4 519.9,236.6 519.9,231.7 526.4,235.5 526.4,269.2 522.2,266.8 524.3,265.5 
		524.3,261.8 522.1,260.5 519.9,261.7 519.9,248.3 524.3,242.6 524.3,240.4 	"/>
	<polygon class="st1" points="524.3,236.7 524.3,240.4 521.3,242.2 515.5,245.5 470.1,271.7 468.8,272.5 467.9,273 467.9,269.2 	"/>
	<polygon class="st3" points="522.1,260.5 524.3,261.8 498,277 501.6,272.3 519.9,261.7 	"/>
	<polygon class="st1" points="524.3,265.5 522.2,266.8 467.9,298.1 467.9,294.3 492.1,280.4 498,277 524.3,261.8 	"/>
	<polygon class="st3" points="587,197.9 589.3,199.2 532.9,231.7 530.7,230.4 584.9,199.1 	"/>
	<polygon class="st3" points="400.7,305.4 454.9,274.1 457.1,272.9 459.3,274.2 402.9,306.7 	"/>
	<polygon class="st2" points="457.1,272.9 454.9,274.1 454.9,269.2 461.4,273 461.4,306.7 457.2,304.3 459.3,303.1 459.3,299.3 
		457.1,298 454.9,299.2 454.9,285.8 459.3,280.1 459.3,278 459.3,274.2 	"/>
	<polygon class="st1" points="459.3,303.1 457.2,304.3 402.9,335.6 402.9,331.9 427.1,317.9 433,314.5 459.3,299.3 	"/>
	<polygon class="st3" points="457.1,298 459.3,299.3 433,314.5 436.6,309.8 454.9,299.2 	"/>
	<polygon class="st1" points="402.9,306.7 459.3,274.2 459.3,278 456.3,279.7 450.5,283 405.1,309.2 403.8,310 402.9,310.5 	"/>
	<polygon class="st1" points="566.6,234.8 563,239.5 557.1,242.9 553.5,242.3 532.9,239.2 532.9,235.5 533.8,235 560.1,239 
		586.3,204.6 589.3,202.9 589.3,205.1 584.9,210.8 	"/>
	<polygon class="st3" points="532.9,254.2 553.5,242.3 557.1,242.9 532.9,256.8 	"/>
	<polygon class="st1" points="436.6,309.8 433,314.5 427.1,317.9 423.5,317.4 402.9,314.2 402.9,310.5 403.8,310 430.1,314 
		456.3,279.7 459.3,278 459.3,280.1 454.9,285.8 	"/>
	<polygon class="st3" points="535.1,234.2 557.8,237.7 560.1,239 533.8,235 	"/>
	<polygon class="st1" points="501.6,272.3 498,277 492.1,280.4 488.5,279.9 467.9,276.7 467.9,273 468.8,272.5 495.1,276.5 
		521.3,242.2 524.3,240.4 524.3,242.6 519.9,248.3 	"/>
	<polygon class="st3" points="456.3,279.7 430.1,314 427.8,312.7 450.5,283 	"/>
	<polygon class="st3" points="405.1,309.2 427.8,312.7 430.1,314 403.8,310 	"/>
	<polygon class="st3" points="521.3,242.2 495.1,276.5 492.8,275.2 515.5,245.5 	"/>
	<polygon class="st3" points="470.1,271.7 492.8,275.2 495.1,276.5 468.8,272.5 	"/>
	<polygon class="st3" points="396.4,303 400.7,305.4 402.9,306.7 396.4,310.5 389.9,306.7 	"/>
	<polygon class="st1" points="396.4,310.5 402.9,306.7 402.9,310.5 402.9,314.2 402.9,329.3 402.9,331.9 402.9,335.6 402.9,340.5 
		396.4,344.3 	"/>
	<polygon class="st1" points="394.3,311.7 394.3,315.5 391.3,317.2 385.5,320.6 340.1,346.8 338.8,347.5 338,348 338,344.3 	"/>
	<polygon class="st3" points="392.1,335.5 394.3,336.8 368,352 371.6,347.4 389.9,336.8 	"/>
	<polygon class="st3" points="389.9,311.7 392.1,310.4 394.3,311.7 338,344.3 335.7,343 	"/>
	<polygon class="st1" points="368,352 394.3,336.8 394.3,340.6 392.2,341.8 338,373.1 338,369.4 362.1,355.4 	"/>
	<polygon class="st1" points="371.6,347.4 368,352 362.1,355.4 358.5,354.9 338,351.8 338,348 338.8,347.5 365.1,351.5 391.3,317.2 
		394.3,315.5 394.3,317.6 389.9,323.4 	"/>
	<polygon class="st3" points="391.3,317.2 365.1,351.5 362.8,350.2 385.5,320.6 	"/>
	<polygon class="st3" points="467.9,291.7 488.5,279.9 492.1,280.4 467.9,294.3 	"/>
	<polygon class="st3" points="402.9,329.3 423.5,317.4 427.1,317.9 402.9,331.9 	"/>
	<polygon class="st1" points="461.4,306.7 461.4,273 467.9,269.2 467.9,273 467.9,276.7 467.9,291.7 467.9,294.3 467.9,298.1 
		467.9,303 	"/>
	<polygon class="st3" points="461.4,273 454.9,269.2 461.4,265.5 465.7,267.9 467.9,269.2 	"/>
	<polygon class="st1" points="532.9,239.2 532.9,254.2 532.9,256.8 532.9,260.6 532.9,265.5 526.4,269.2 526.4,235.5 532.9,231.7 
		532.9,235.5 	"/>
	<polygon class="st3" points="526.4,228 530.7,230.4 532.9,231.7 526.4,235.5 519.9,231.7 	"/>
	<polygon class="st0" points="477.4,306.7 470.4,306.7 420.3,335.7 420.1,335.6 411.3,335.6 461.3,306.7 459.3,299.3 459.3,303.1 
		457.6,304.1 457.8,304.7 404.2,335.6 402.9,335.6 402.9,340.5 396.4,344.3 420.1,344.3 425.8,339.9 423.4,338.1 	"/>
	<polyline class="st0" points="358.3,375.4 412.3,344.1 405.3,344.1 355.2,373.1 355,373 346.2,373 396.2,344 394.2,336.7 
		394.2,340.4 392.5,341.4 392.8,342 339.1,373 337.9,373 	"/>
	<polygon class="st0" points="542.4,269.2 535.4,269.2 485.3,298.2 485.1,298.1 476.3,298.1 526.3,269.2 524.3,261.8 524.3,265.5 
		522.6,266.5 522.8,267.2 469.2,298.1 467.9,298.1 467.9,303 461.4,306.7 485.1,306.7 490.8,302.4 488.3,300.5 	"/>
	<polygon class="st0" points="607.4,231.7 600.4,231.7 550.3,260.7 550.1,260.6 541.3,260.6 591.3,231.6 589.3,224.3 589.3,228 
		587.6,229 587.8,229.6 534.2,260.6 532.9,260.6 532.9,265.5 526.4,269.2 550.1,269.2 555.8,264.9 553.3,263 	"/>
</g>
<g>
	<g>
		<g>
			<path class="st0" d="M226.7,293.6h-5.2l-57.9-31.9c0,0-3.2,4-1.9,3c1.1-0.8,39.7,21.3,52.7,28.9H203v8.7h23.7l5.7-4.3
				L226.7,293.6z"/>
			<polygon class="st0" points="143.9,264.7 196.5,295.2 196.5,293.6 146.5,264.7 			"/>
		</g>
		<polygon class="st0" points="161.7,256.1 138,256.1 138,264.7 161.7,264.7 167.4,260.4 		"/>
		<polygon class="st3" points="140.1,257.3 142.4,256 144.5,257.2 162.9,267.8 166.4,272.5 		"/>
		<polygon class="st1" points="142.4,256 140.1,257.3 140.1,261.1 142.3,262.3 138,264.7 138,231 144.5,227.2 144.5,232.1 
			142.4,230.9 140.1,232.2 140.1,235.9 140.1,238.1 144.5,243.8 144.5,257.2 		"/>
		<polygon class="st2" points="140.1,261.1 140.1,257.3 166.4,272.5 172.4,275.9 187.1,284.4 187.1,288.2 142.3,262.3 		"/>
		<polygon class="st2" points="187.1,288.2 187.1,284.4 193.6,288.2 193.6,291.9 		"/>
		<polygon class="st2" points="193.6,291.9 193.6,288.2 196.5,289.8 196.5,293.6 		"/>
		<polygon class="st2" points="196.5,298.5 196.5,293.6 196.5,289.8 196.5,287.2 196.5,272.2 196.5,268.5 196.5,264.7 203,268.5 
			203,302.3 		"/>
		<path class="st1" d="M209.5,298.5l-6.5,3.8v-33.8l6.5-3.8V298.5z M205.1,273.5l2.3-1.3v-3.8l-2.3,1.3V273.5z M205.1,294.8v3.8
			l2.3-1.3v-3.8L205.1,294.8z"/>
		<polygon class="st3" points="209.5,264.7 203,268.5 196.5,264.7 198.8,263.4 203,261 		"/>
		<polygon class="st3" points="198.8,263.4 196.5,264.7 193.6,263 195.8,261.7 		"/>
		<polygon class="st3" points="195.8,261.7 193.6,263 187.1,259.3 189.3,258 		"/>
		<polygon class="st3" points="189.3,258 187.1,259.3 140.1,232.2 142.4,230.9 144.5,232.1 		"/>
		<polygon class="st2" points="131.5,261 131.5,227.2 138,231 138,264.7 		"/>
		<polygon class="st3" points="131.5,227.2 138,223.5 144.5,227.2 138,231 		"/>
		<polygon class="st2" points="140.1,235.9 140.1,232.2 187.1,259.3 187.1,263 148.9,241 143.1,237.7 		"/>
		<polygon class="st2" points="187.1,263 187.1,259.3 193.6,263 193.6,266.8 		"/>
		<polygon class="st2" points="193.6,266.8 193.6,263 196.5,264.7 196.5,268.5 195.6,268 194.3,267.2 		"/>
		<polygon class="st2" points="162.9,267.8 144.5,243.8 140.1,238.1 140.1,235.9 143.1,237.7 169.4,272 195.6,268 196.5,268.5 
			196.5,272.2 175.9,275.4 172.4,275.9 166.4,272.5 		"/>
		<polygon class="st3" points="169.4,272 143.1,237.7 148.9,241 171.6,270.7 		"/>
		<polygon class="st3" points="195.6,268 169.4,272 171.6,270.7 194.3,267.2 		"/>
		<polygon class="st3" points="189.3,283.1 195.8,286.9 193.6,288.2 187.1,284.4 		"/>
		<polygon class="st3" points="193.6,288.2 195.8,286.9 196.5,287.2 196.5,289.8 		"/>
		<polygon class="st3" points="189.3,283.1 187.1,284.4 172.4,275.9 175.9,275.4 		"/>
		<polygon class="st1" points="207.4,272.2 205.1,273.5 205.1,269.7 207.4,268.4 		"/>
		<polygon class="st1" points="205.1,298.6 205.1,294.8 207.4,293.5 207.4,297.3 		"/>
	</g>
	<g>
		<polygon class="st0" points="226.7,294.6 203,294.6 203,303.2 226.7,303.2 232.4,298.9 		"/>
		<g>
			<path class="st0" d="M356.7,369.6h-5.2l-57.9-31.9c0,0-3.2,4-1.9,3c1.1-0.8,39.7,21.3,52.7,28.9H333v8.7h23.7l5.7-4.3
				L356.7,369.6z"/>
			<polygon class="st0" points="273.9,340.8 326.5,371.3 326.5,369.6 276.5,340.8 			"/>
		</g>
		<g>
			<path class="st0" d="M297.4,336.4l-5.7-4.3h-5.2l-57.9-31.9c0,0-3.2,4-1.9,3c1.1-0.8,39.7,21.3,52.7,28.9H268v0h0v8.7h23.7
				L297.4,336.4L297.4,336.4L297.4,336.4z"/>
			<polygon class="st0" points="208.9,303.2 261.5,333.7 261.5,332.1 211.5,303.2 			"/>
		</g>
		<polygon class="st2" points="270.1,333.3 294.4,347.3 294.6,347.5 296.4,348.5 302.4,351.9 326.5,365.9 326.5,369.6 272.3,338.3 
			270.1,337.1 		"/>
		<polygon class="st1" points="270.1,337.1 272.3,338.3 268,340.8 268,307 274.5,303.2 274.5,308.1 272.4,306.9 270.1,308.2 
			270.1,312 270.1,314.1 274.5,319.9 274.5,333.3 272.4,332 270.1,333.3 		"/>
		<polygon class="st3" points="272.4,332 274.5,333.3 292.9,343.9 295.2,346.9 294.4,347.3 270.1,333.3 		"/>
		<polygon class="st3" points="270.1,308.2 272.4,306.9 274.5,308.1 297.1,321.2 294.6,322.3 		"/>
		<polygon class="st2" points="270.1,312 270.1,308.2 294.4,322.2 294.6,322.3 326.5,340.8 326.5,344.5 325.6,344 324.3,343.3 
			278.9,317.1 273.1,313.7 		"/>
		<polygon class="st2" points="302.4,351.9 296.4,348.5 295.3,347.1 295.2,346.9 292.9,343.9 274.5,319.9 270.1,314.1 270.1,312 
			273.1,313.7 299.4,348 325.6,344 326.5,344.5 326.5,348.3 305.9,351.4 		"/>
		<polygon class="st3" points="299.4,348 273.1,313.7 278.9,317.1 301.6,346.7 		"/>
		<polygon class="st3" points="325.6,344 299.4,348 301.6,346.7 324.3,343.3 		"/>
		<polygon class="st2" points="326.5,374.5 326.5,369.6 326.5,365.9 326.5,363.3 326.5,348.3 326.5,344.5 326.5,340.8 333,344.5 
			333,378.3 		"/>
		<path class="st1" d="M333,378.3v-33.8l6.5-3.8v33.8L333,378.3z M337.4,344.4l-2.3,1.3v3.8l2.3-1.3V344.4z M337.4,373.3v-3.8
			l-2.3,1.3v3.8L337.4,373.3z"/>
		<polygon class="st3" points="339.5,340.8 333,344.5 326.5,340.8 328.8,339.5 333,337 		"/>
		<polygon class="st3" points="328.8,339.5 326.5,340.8 294.6,322.3 297.1,321.2 		"/>
		<polygon class="st2" points="261.5,337 261.5,332.1 261.5,328.4 261.5,325.8 261.5,310.7 261.5,307 261.5,303.2 268,307 
			268,340.8 		"/>
		<polygon class="st1" points="207.3,300.8 203,303.2 203,269.5 209.5,265.7 209.5,270.6 207.4,269.4 205.1,270.7 205.1,274.5 
			205.1,276.6 209.5,282.3 209.5,295.7 207.4,294.5 205.1,295.8 205.1,299.6 		"/>
		<polygon class="st2" points="205.1,276.6 205.1,274.5 208.1,276.2 234.4,310.5 260.6,306.5 261.5,307 261.5,310.7 240.9,313.9 
			237.4,314.4 231.4,311 227.9,306.3 209.5,282.3 		"/>
		<polygon class="st3" points="237.4,314.4 240.9,313.9 261.5,325.8 261.5,328.4 		"/>
		<polygon class="st3" points="234.4,310.5 208.1,276.2 213.9,279.5 236.6,309.2 		"/>
		<polygon class="st3" points="227.9,306.3 231.4,311 205.1,295.8 207.4,294.5 209.5,295.7 		"/>
		<polygon class="st3" points="260.6,306.5 234.4,310.5 236.6,309.2 259.3,305.7 		"/>
		<polygon class="st2" points="231.4,311 237.4,314.4 261.5,328.4 261.5,332.1 207.3,300.8 205.1,299.6 205.1,295.8 		"/>
		<polygon class="st2" points="208.1,276.2 205.1,274.5 205.1,270.7 261.5,303.2 261.5,307 260.6,306.5 259.3,305.7 213.9,279.5 		
			"/>
		<polygon class="st2" points="203,269.5 203,303.2 196.5,299.5 196.5,265.7 		"/>
		<polygon class="st3" points="209.5,265.7 203,269.5 196.5,265.7 203,262 		"/>
		<polygon class="st3" points="207.4,269.4 209.5,270.6 263.8,301.9 261.5,303.2 205.1,270.7 		"/>
		<polygon class="st3" points="261.5,303.2 263.8,301.9 268,299.5 274.5,303.2 268,307 		"/>
		<polygon class="st3" points="296.4,348.5 294.6,347.5 295.3,347.1 		"/>
		<polygon class="st3" points="305.9,351.4 326.5,363.3 326.5,365.9 302.4,351.9 		"/>
		<polygon class="st3" points="294.6,347.5 294.4,347.3 295.2,346.9 295.3,347.1 		"/>
		<polygon class="st1" points="335.1,345.7 337.4,344.4 337.4,348.2 335.1,349.5 		"/>
		<polygon class="st1" points="337.4,369.6 337.4,373.3 335.1,374.6 335.1,370.9 		"/>
	</g>
</g>
<g>
	<path class="st4" d="M186.6,217l17.2-0.4c0,0,8.2,5.4,18.4,9.2c10.2,3.8,8.6,4.8,8.6,4.8l-12.2-0.4l3.8,2.6h15.4
		c0,0,14.2-4.6,12.2-12.6c-2-8-4.2-6.9-9.8-9.2c-5.6-2.3-21.1-4.4-21.1-4.4s-18.6-1.2-21.1-3s-6.8-5.6-6.8-5.6s-5.7-2.9-4.8,1.6
		c1.8,8.6,13.8,12.8,13.8,12.8l-16.7,1.2L186.6,217z"/>
	<g>
		<path class="st5" d="M159.4,181.2c0,0-1.4,0.5-3,2.4c-1.5,1.8,0.6,3.6,1.1,3.9l3.7,0.8L159.4,181.2z"/>
		<path class="st6" d="M165.7,190.1l-6.8-2.4c0,0-2.8-3.1-2-4.7c0.8-1.6,6.9-4.6,6.9-4.6l3.6,4.8L165.7,190.1z"/>
		<path class="st7" d="M237.7,222.8c0,0-0.1,1.3-0.1,1.6c0,0.3-1.2,1.1-2.3,0.5c-1.1-0.5-2.5-1.1-2.8-1.8c-0.3-0.7,0.9-1.6,0.9-1.6
			s0.1-0.4,0.9-0.4C235.1,221.2,237.7,222.8,237.7,222.8z"/>
		<path class="st7" d="M222.5,230.4c0,0-0.1,1.3-0.1,1.6c0,0.3-1.2,1.1-2.3,0.5c-1.1-0.5-2.5-1.1-2.8-1.8c-0.3-0.7,0.9-1.6,0.9-1.6
			s0.1-0.4,0.9-0.4C219.9,228.8,222.5,230.4,222.5,230.4z"/>
		<path class="st7" d="M186.8,214.7c0,0-0.1,1.3-0.1,1.6c-0.1,0.3-1.2,1.1-2.3,0.5c-1.1-0.5-2.5-1.1-2.8-1.8
			c-0.3-0.7,0.9-1.6,0.9-1.6s0.2-0.4,1-0.4C184.2,213,186.8,214.7,186.8,214.7z"/>
		<path class="st7" d="M201.2,208.5c0,0-0.1,1.2-0.1,1.4c0,0.3-1.1,1-2.1,0.5c-1-0.5-2.2-1-2.5-1.6c-0.3-0.6,0.8-1.5,0.8-1.5
			s0.1-0.4,0.8-0.4C198.8,207,201.2,208.5,201.2,208.5z"/>
		<path class="st8" d="M170.5,174.3c0,0,4.2-5.1,6-4.5c0.7,1.9-0.1,2.9-1.7,4.4C174.7,174.2,172,175,170.5,174.3z"/>
		<path class="st9" d="M169.2,171.6c0,0,1.8-3.2,1.3-4.9c-0.4-1.7,1.8,1.9,2.1,5.3C172.9,175.5,169.2,171.6,169.2,171.6z"/>
		<path class="st8" d="M233.5,183c3.4,0.4,7.3,2.3,8,9.5c0.8,7.2-2.5,11.4-2.1,14.5c0.4,3.2,3.2,5,2.6,6.5c0,0-4.3,6.5-4.3,8.8
			c0.1,2.2-3.8,1.2-3.8-0.6c0.1-3.4,1.3-6.7,0.9-9c-0.2-1.3-8.6-2.7-12.5-16.7C220.6,187.5,230.2,182.7,233.5,183z"/>
		<path class="st8" d="M193.7,179.2c0,0,2.2,17.4,3.6,19.2c1.5,1.8,0.4,9.6,0.4,9.6s1.1,1,2.9,0.7c1.8-0.3,1.7-10.7,1.7-10.7
			s3.2-4.5,4.8-11.2C208.7,180.2,193.9,173.7,193.7,179.2z"/>
		<path class="st6" d="M238.9,200.1c0,0,2.7-13.3-2.7-16c-5.4-2.7-13.9-3-18.7-6.3c-4.8-3.2-20.2-8.6-21.8-9.2
			c-5.4-2-23.8,6.8-23.8,6.8s-2.7,1.7-2.5,4.9c0.1,2.9,1.5,4.7,2.9,7.6c1.3,2.5,10,7.4,10,7.4s3.3,5.4,6.5,6.7
			c3.2,1.3,8.9,5.5,14.9,5.7c6,0.3,15.2,4.3,17.7,4.8c2.5,0.5,8,0.4,10-0.4C233.4,211.4,234.8,210.9,238.9,200.1z"/>
		<path class="st8" d="M193.4,196.6c0,0-3.2,5.4-3.6,5.8c-0.4,0.4,5.9,3.6,9.7,4.6c3.8,1,11.5,1.9,16.1,3.7s-2.2-5.9-2.2-5.9
			s-7.6-0.5-10.5-1.2c-2.9-0.7-3.6,1.2-6.5,0.5c-2.9-0.7-4.4-2.5-4.4-2.5L193.4,196.6z"/>
		<path class="st10" d="M234.5,209.7c0,0-0.9,7.6-7.7,7.1c-6.8-0.5-4.2-2.6-6.9-5c-2.1-1.8,5.4,0.5,7.5-0.1
			C229.5,211.1,232,211.8,234.5,209.7z"/>
		<path class="st6" d="M225,191c3.2,1.1,6.7,3.8,6.2,11.1c-0.6,7.3-4.5,10.6-4.7,13.8c-0.2,3.2,2.2,5.6,1.4,7c0,0-4.9,5-5.2,7.2
			c-0.3,2.2-4.1,1.2-3.8-0.6c0.6-3.6,2.1-6.7,2.1-9c0-1.4-7.9-4.6-9.3-19.1C211.5,192.5,221.8,189.8,225,191z"/>
		<path class="st6" d="M182.4,184.3c0,0-0.4,17.6,0.8,19.5c1.2,2-0.2,10.1-0.2,10.1s1.6,1.2,3.4,1.2s1.8-11,1.8-11s3.8-4,6.4-10.4
			C197.1,187.5,183.4,178.9,182.4,184.3z"/>
		<path class="st6" d="M175.2,190.6c-1.9-1.1-4.4-0.2-6.9-0.2c-6.3,0-8.1-5.4-8.2-7c-0.1-1.6,2.2-3.9,2.3-5c0.2-1.1,1.4-2.4,2.1-3.4
			c0.7-1,3.4-2.7,4.3-3.3c0.9-0.6,4.1-0.7,5.4,1.4c1.8,2.9,5,2.9,5,2.9L175.2,190.6z"/>
		<path class="st9" d="M163.9,177c0,0-3.2,1-5.1-0.4c-1.9-1.4,2,3.5,4.5,3.9C165.8,180.8,166.2,177.3,163.9,177z"/>
		<path class="st8" d="M231.2,202.4c0,0-1.3,5.7-1.8,6.6c-0.5,0.9-1.3,2.6-1.3,2.6s2.4-2.9,2.6-4.5S231.2,202.4,231.2,202.4z"/>
		<path class="st8" d="M229.3,194.1c0,0-1.5-3-6.7-3.3C226.6,190.3,228.7,191.9,229.3,194.1z"/>
		<path class="st8" d="M227.9,222c0,0-1-1.4-2-3.6c-1-2.2,1.8-6.3,1.8-6.3s-1.9,3.7-1.2,5.4C227.3,219.2,228.3,221.6,227.9,222z"/>
		<path class="st8" d="M188.7,203.6c0,0-1.6,0.9-1.6,2.1c0,1.2-1.8,8.7-1.8,8.7s0.6,0.7,1.3,0.2c0.7-0.5,1.4-6,1.3-7.3
			C187.8,206,188.7,203.6,188.7,203.6z"/>
		<path class="st8" d="M174.5,173.8c0,0-2.2-1.4-2.8-1c-0.6,0.4-2.2,3.8-3.1,4.6c-0.8,0.9,1.8-0.2,3.3-1.5c1.5-1.3,3.1-2.1,3.8-2
			C176.4,174.1,174.5,173.8,174.5,173.8z"/>
		<path class="st6" d="M236.2,187.6c0,0,5.1,3.5,4.9,5.9c-0.2,2.4-3.2,14-3.3,17c-0.1,3,3.8,5.6,4.7,5.6c0.9,0,1.8-1.6,3.7-0.5
			c1.9,1.1,2.2,1.2,2.2,1.2s1,0.1,1.6-0.8c0.6-0.9,0,1.9-2.6,2.1c-2.6,0.2-3.9-0.2-5-1.1c-1.1-0.9-5.6-2.4-5.6-6.5
			c0-4.1,2-14.2,1.3-16C237.4,192.7,235.7,192.1,236.2,187.6z"/>
		<path class="st8" d="M236.5,191.5c0,0,0.9,2.2,0.9,4.1c0,1.9-0.1,7-0.1,7.6c0,0.6,0.2,0.7,0.2,0.7s1-7.8,0.5-9.5
			C237.7,192.8,237.1,192.1,236.5,191.5z"/>
		<path class="st10" d="M231.5,215.1c0,0-0.1,1.6-0.7,2.1c-0.6,0.5-0.9-2-0.9-2L231.5,215.1z"/>
		<path class="st8" d="M164.4,182.7c0,0,0.2,2.2-0.1,3c-0.3,0.8-1.3,0-1.5-1.5C162.7,182.7,164.4,182.7,164.4,182.7z"/>
		<path class="st10" d="M229.2,216.1c0,0-0.1,1.6-0.7,2.1c-0.6,0.5-0.9-2-0.9-2L229.2,216.1z"/>
		<path class="st8" d="M163.6,182c0,0-3.8,0.9-4.7,2.7c-0.8,1.8,0.2,1.7,0.2,1.7s1.5,0.9,2.8-0.4c1.4-1.2,1.4-1.9,1.9-2.1
			C164.5,183.7,164.6,181.9,163.6,182z"/>
		<path class="st8" d="M174.7,190.2c0,0-1.6-2.1-2.8-3c-1.2-0.9-0.1,1.3-1.3,2.1c-1.1,0.8-1.7,1-1.7,1s3.5-0.3,4.4-0.1
			C174.3,190.3,174.7,190.2,174.7,190.2z"/>
		<path class="st8" d="M163.2,189.1c0,0-1.7-1.5-2.1-3.1c-0.5-1.6-3.5-0.2-3.5-0.2s0.7,1.3,1.3,1.7
			C159.5,187.8,162.5,188.8,163.2,189.1z"/>
	</g>
</g>
<g>
	<path class="st4" d="M356,162.2c0,0-3.4,0.9-4.6,2.2s-6.8,2.3-6.8,2.3s-7.2,3.4-8,3.8c-0.8,0.4-5.3,0-5.5,1.3s-9.3,5.3-9.3,5.3
		s-1.1-0.4-4,0c-3,0.4-6.8-1.3-6.8-1.3s2.3,1.9-4.4,1.7s-17.4,1.5-19.3-4.7c-1.9-6.1,7.6-19.5,21.6-25.6c14-6.1,48.3-7.6,51.7-8.9
		c3.4-1.3,6.1-5.5,8.3-5.1c2.1,0.4,10-1.7,6.1,3.2c-3.8,4.9-10.6,12.9-10.6,12.9L356,162.2z"/>
	<g>
		<path class="st7" d="M333.5,173.5c0,0,1.6,0.3,1.9,0.4c0.3,0.1,2-1.1,2-2.4c0-1.3-0.5-2.2-1-2.9c-0.5-0.7-1.5,0-1.5,0
			s-0.9,0.8-1.2,1.6C333.4,171,333.5,173.5,333.5,173.5z"/>
		<path class="st8" d="M361.1,106.1c0,0-7,0-7.7,1.8c1.1,1.8,2.4,1.9,4.8,1.6C358.1,109.5,360.5,107.8,361.1,106.1z"/>
		<path class="st9" d="M361.1,104.2c0,0-3.3-1.9-3.9-3.7c-0.5-1.8-0.6,2.7,1,6C359.9,109.8,361.1,104.2,361.1,104.2z"/>
		<path class="st8" d="M309.8,166.1c0.8-1.2,10.2,0,12.6-15.3c0.7-9.3-10-13.1-13.5-12.3c-3.5,0.8-7.4,3.3-7.2,11.1
			c0.1,7.7,2.6,7.7,2.5,11.1c0,3.4-2.7,5.7-1.9,7.2C302.3,167.9,305.9,172.2,309.8,166.1z"/>
		<path class="st8" d="M306.2,165.2c2.4,0,6,0.6,9.5,1.3c1.9,0.4,2,4.7-0.3,4.1c-2.3-0.6-8.9,1-10.3,1
			C303.8,171.6,298.4,165.2,306.2,165.2z"/>
		<path class="st6" d="M301.7,157.7c0,0-2.9-14.1,2.9-17c5.8-2.9,14.7-3.2,19.8-6.7c5.1-3.4,19.7-12,21.3-12.5
			c1.7-0.6,10.2-10.2,10.2-10.2s10.3-0.7,12,2.3c1.7,3,0.8,5.6,0.8,8.7c0,3-6.7,27.3-6.7,27.3s-3.7,8.8-7.2,10.2
			c-3.4,1.4-9.5,5.8-15.8,6.1c-6.3,0.3-16.2,4.6-18.8,5.1c-2.6,0.5-8.5,0.4-10.6-0.4C307.5,169.8,306.1,169.2,301.7,157.7z"/>
		<path class="st8" d="M350,154c0,0,7,3.3,7.4,3.7c0.4,0.4-9.9,6.2-13.9,7.3c-4,1.1-12.2,2-17.1,3.9s2.3-6.2,2.3-6.2s8-0.5,11.1-1.3
			c3.1-0.7,3.8,1.3,6.9,0.5c3.1-0.7,6.5-3.8,6.5-3.8L350,154z"/>
		<path class="st6" d="M324.2,170c2.4,0.6,5.9-0.5,9.8-0.4c1.9,0.1,2.2,4.2-0.2,4.1c-2.4-0.1-8.6,4-8.6,4c-1.6,0.6-3.6-2.4-7-2.9
			C318.3,174.8,319.3,168.8,324.2,170z"/>
		<path class="st6" d="M316.8,175.4c1.4-0.2,4.6,0.5,16.2-9.8c6.5-6.7,0.5-13.4-2.9-14.9c-3.3-1.5-8-1.9-12.8,4.1
			c-4.8,6-4.2,11.4-6.4,14.1C311,168.9,312.4,175.9,316.8,175.4z"/>
		<path class="st6" d="M366.8,156.6c-2.3,0.8-7.1,3.1-7.1,3.1s-1.9-1.1-2.6-2.9c-0.7-1.8,12.3-7.6,12.3-7.6S372.9,154.4,366.8,156.6
			z"/>
		<path class="st6" d="M367.6,128.3c0.4-1.7,2.4-4.1,6.2-8c4.7-4.8,2.8-8,2.1-9.6c-0.7-1.6-4-2.5-4.7-3.5c-0.7-1-2.5-1.6-3.7-2.1
			c-1.1-0.6-4.5-0.9-5.6-1c-1.1-0.1-4.2,1.4-4.4,4c-0.3,3.7-3.2,5.2-3.2,5.2L367.6,128.3z"/>
		<path class="st6" d="M365.7,105c4.5,0,7.9-0.7,7.9-0.7s2.7,0.3,4.8,0.7c2.1,0.4,1.6,2.4,1.7,4.5c0.1,2.1-4.5,8-4.5,8L365.7,105z"
			/>
		<path class="st8" d="M373.6,104.3c1.1-0.1,4.9,0.1,4.3,0.7c-0.6,0.6-5.6,3.1-5.6,3.1s-0.5-0.6-1.3-1.3c-0.8-0.8-3.5-1.6-3.5-1.6
			L373.6,104.3z"/>
		<path class="st9" d="M369.7,107c0,0,3.5-0.5,4.7-2.8c1.2-2.3-0.3,4.3-2.5,5.8C369.6,111.6,367.6,108.4,369.7,107z"/>
		<path class="st8" d="M314.4,159.5c0,0-2.5,5.7-2.6,6.8c-0.1,1.1-0.5,3-0.5,3s-0.2-4,0.6-5.5C312.7,162.3,314.4,159.5,314.4,159.5z
			"/>
		<path class="st8" d="M319,153.4c0,0,1.6-3.2,7.1-3.5C322,149.4,319.7,151.1,319,153.4z"/>
		<path class="st8" d="M361.7,150c0,0,0-0.1,0-0.3c0.1-1.4,0.4-6.6,0.1-8.4c-0.3-2,2.7-5.9,3.9-8.8c1.3-2.9,1.7-4,1.7-4
			s-1.8,7-2.9,11.1c-1.1,4.1-2.9,10.3-2.9,10.3L361.7,150z"/>
		<path class="st8" d="M355.2,112.2c0,0,1.9-3.1,2.7-3.3c0.7-0.2,6.4,1.2,7.6,1.1c1.3-0.1-1.4,1.4-3.5,1.7c-2.1,0.3-7.9,1.7-8.3,2.3
			C353.5,114.7,355.2,112.2,355.2,112.2z"/>
		<path class="st5" d="M374.8,104.1c0,0,0,0,0.1,0c0.8-0.1,4.9-0.8,5.8,1c1,2,0.4,3.5,0.4,3.5l-1.2,1.9c0,0,0.2-2-0.1-3.2
			c-0.4-1.1-3.2-2.5-3.8-2.6L374.8,104.1z"/>
		<path class="st8" d="M376.3,116.6c0,0,1-2.4,0.4-3.8c-0.6-1.4-0.7-1.9-0.7-1.9s3-0.9,3.4-1.3c0.4-0.5,0.6-0.4,0.6-0.4
			s-0.4,2.8-1.3,4C377.7,114.3,376.3,116.6,376.3,116.6z"/>
		<path class="st6" d="M304.5,144.4c0,0-5.4,3.7-5.2,6.2s3.4,14.8,3.5,18c0.1,3.2-4,5.9-5,5.9c-0.9,0-1.9-1.7-3.9-0.5
			c-2,1.2-2.3,1.3-2.3,1.3s-1.1,0.1-1.7-0.8c-0.6-1,0,2,2.8,2.2s4.1-0.2,5.3-1.2c1.2-1,5.9-2.5,5.9-6.9c0-4.3-2.1-15-1.4-16.9
			C303.3,149.8,305.1,149.2,304.5,144.4z"/>
		<path class="st8" d="M304.2,148.6c0,0-0.9,2.4-0.9,4.4c0,2,0.2,7.4,0.1,8c0,0.6-0.3,0.7-0.3,0.7s-1.1-8.3-0.6-10.1
			C303,150,303.6,149.2,304.2,148.6z"/>
		<path class="st8" d="M372.4,112c0,0,0,2.3,0.5,3.1c0.5,0.8,1.4-0.2,1.3-1.8C374.2,111.8,372.4,112,372.4,112z"/>
		<path class="st8" d="M372.8,111.2c0,0,4.1-0.8,5.7,0.6c1.6,1.3,0.5,1.8,0.5,1.8s-1,1.5-2.9,0.9c-1.9-0.6-2.2-1.2-2.8-1.2
			C372.7,113.2,371.7,111.5,372.8,111.2z"/>
		<path class="st6" d="M369.2,148.9c-1.7-1.8-20.4-6.7-20.4-6.7c-5.8-0.1,0.3,16,7.4,14.7c7.2-1.4,12.1-4.5,12.1-4.5
			S371.1,151,369.2,148.9z"/>
		<path class="st7" d="M359.9,159.5c0,0-1.8,2-2.9,2.1c-1.1,0.1-2.2-3.8-1.3-4.4c1-0.6,3.2-0.7,3.2-0.7S361.1,159,359.9,159.5z"/>
		<path class="st8" d="M359.4,156.1c0,0,5.8-1.5,8.8-3.6C367.1,154.5,359.4,156.1,359.4,156.1z"/>
	</g>
</g>
<g>
	<path class="st4" d="M264.7,154.8H238c0,0-10.7,4.7-15.4,4.7s-14.3-3-9.1-6.9s5.5-5.8,7.7-8.8c2.2-3,6.9-9.4,11.3-11.3
		c4.4-1.9,20.4-9.9,20.4-9.9l33.3-6.6c0,0,4.4,5.5,5.2,9.4s-6.1,8-6.1,8h14.9l-1.4,3h-21.5c0,0-8.3,7.4-14.9,10.2
		c-6.6,2.8-14,4.4-14,4.4l17.1-0.6L264.7,154.8z"/>
	<g>
		<path class="st6" d="M297.4,85.4c0,0,5.6-0.3,6.5,2.5c0.9,2.7,1.1,17.7,1.1,17.7l0.5,6.2c0,0-0.3,1.6,0.3,2.4
			c0.5,0.8,0.6,2.8,0.6,2.8s-2.3-2.5-2.8-5.6c-0.5-3-0.4-14.2-0.7-16.1c-0.2-1.9-1-6.5-3-7C297.9,87.7,297.4,85.4,297.4,85.4z"/>
		<path class="st7" d="M300,130.8v2.2c0,0-0.3,2.5-2.3,2.9c-2,0.4-2.8,0.1-2.8,0.1l0.5-2l-1.6,1.1c0,0,1.3-2.4,2.2-4.4
			C296.8,128.8,300,130.8,300,130.8z"/>
		<path class="st7" d="M289.3,123.7l0,2.2c0,0-0.2,2.5-2.3,2.9c-2,0.4-2.8,0.2-2.8,0.2l0.5-2l-1.6,1.1c0,0,1.3-2.4,2.1-4.5
			C285.9,121.8,289.3,123.7,289.3,123.7z"/>
		<path class="st7" d="M265.3,149.6v2.2c0,0-0.3,2.5-2.3,2.9c-2,0.4-2.8,0.1-2.8,0.1l0.5-2l-1.6,1.1c0,0,1.3-2.4,2.2-4.4
			C262.1,147.7,265.3,149.6,265.3,149.6z"/>
		<path class="st7" d="M247,141.9v2.2c0,0-0.3,2.5-2.3,2.9c-2,0.4-2.8,0.1-2.8,0.1l0.5-2l-1.6,1.1c0,0,1.3-2.4,2.2-4.4
			C243.7,140,247,141.9,247,141.9z"/>
		<path class="st8" d="M252.3,114.7c0,0-2.9,12.3-3.6,14.2c-0.7,1.8-1.1,3.8-1.1,3.8l-1,9.5c0,0-4.2,1.2-3.8-0.5
			c0.5-2,1.2-7.7,1.2-7.7s-1.3-1.4-2.1-5c-0.9-3.6-0.4-5.9-1.1-10.6C240.3,113.8,251.8,109.7,252.3,114.7z"/>
		<path class="st8" d="M274.8,100.4c0,0,6.6,7.9,9.4,9.1c2.8,1.2,3.2,3,3.2,3s-2.5,10.4-2.4,11.2c0.1,0.8,1.2,1.3,2.8,0.8
			c1.6-0.5,1.4-1.3,1.4-1.3s0.6-8,1.6-9.7c1-1.7,2.2-1.7,2.3-3.6c0.2-1.9-2-3.1-1.8-5.5c0.1-2.4,3.5-15.3,2.3-18.8
			c-1.1-3.5-7.2-3.4-8.6-2.2C283.8,84.4,273.1,97.3,274.8,100.4z"/>
		<path class="st6" d="M237.9,98.5c0,0,19.4,0.5,22.6-0.9c3.3-1.4,18.2-9.1,20.7-10.9c2.5-1.8,11.5-4.2,14.3-2.3
			c1.4,1,5.4,2.4,6.3,3.6c0.9,1.2,1.4,2.1,1.4,2.1s-2.7,17.9-3,19.5c-0.3,1.6-8.2,5.6-11.1,8.1c-2.9,2.5-11.9,13.8-16,14.7
			c-4.1,0.9-15,5.2-17.7,5.3c-2.6,0.1-8.6-5.1-10.6-7.8c-2-2.7-6.5-19.5-6.5-19.5L237.9,98.5z"/>
		<path class="st8" d="M298.8,111.1l-4.3-5.9c0,0-3.2,3.1-7.4,6.6c-4.2,3.6-2.3,7.5-7.1,13.5c-4.3,5.3-24.1,11.4-30.5,9.3
			c3.6,2.4,4.5,4.3,8.8,2.4c4.3-1.9,13.5-3.8,15.1-4.7c1.6-0.9,6.8-4.2,10-8.9C286.6,118.7,296.9,112.4,298.8,111.1z"/>
		<path class="st8" d="M247.6,111.3c0,0-1.9,4-2.4,4.6c-0.5,0.5-1.8,4.9-1.7,6.3c0,1.4-0.2,3.5-1.2,1c-0.9-2.5-2.6-6.8-2.6-7.6
			C239.7,114.7,247.6,111.3,247.6,111.3z"/>
		<path class="st6" d="M286.2,107c0,0,6.4,8.1,9.2,9.3c2.8,1.3,2.2,5.4,2.2,5.4s-1.7,8-1.6,8.8c0.1,0.8,1.5,1.3,3.2,0.9
			c1.6-0.5,1.2-0.8,1.2-0.8s0.7-8.6,1.7-10.3c1.1-1.7,2.2-1.6,2.4-3.6c0.2-1.9-1.9-3.2-1.7-5.6c0.2-2.4,3.7-15.2,2.7-18.8
			c-1.1-3.6-7.1-3.6-8.6-2.4C295.4,91.3,284.6,103.9,286.2,107z"/>
		<path class="st8" d="M255.5,126.7c0,0,1,5.7,1.2,7.5c0.2,1.6,1.6,2.8,1.6,2.8L255.5,126.7z"/>
		<path class="st8" d="M267.4,122.1c0,0-1.5,10.6-0.7,10.4c0.4-0.1-1.2,0.4-1.2,0.4L267.4,122.1z"/>
		<path class="st6" d="M267.4,122.1c0,0-2,12.1-2.4,14c-0.4,1.9-0.2,5-0.2,5l0.3,8.5c0,0-3.2,1.4-3.8-0.2c-0.6-1.6-0.1-7.4-0.1-7.4
			s-1.5-1.1-2.9-4.6c-1.4-3.5-1.4-5.8-2.7-10.3C254.3,122.6,266,117.3,267.4,122.1z"/>
		<path class="st8" d="M288.8,110.3c0,0,1.8,2.3,2.5,2.7c0.7,0.4,1.5,1.4,1.5,1.4S290,113.1,288.8,110.3z"/>
		<path class="st8" d="M297,90c0,0,3-1.3,6.2,0.2c-0.6-1-0.9-1.4-0.9-1.4S299.4,88.5,297,90z"/>
		<path class="st8" d="M304,114.9c0,0-2.1-2.5-2.2-3.8c-0.1-1.4,1.7-5.5,2.2-6.6c0.6-1.2-0.6,3.1-0.8,4
			C303,109.4,302.1,112.7,304,114.9z"/>
		<path class="st8" d="M297.3,123.3c0,0,0.8-3.2,1.3-3.9c0.5-0.7-2-2.4-3.1-3.1c-1.1-0.7,1.6,1.5,1.9,2.5
			C297.6,120,297.5,122.4,297.3,123.3z"/>
		<path class="st11" d="M228.2,110.7c0,0,1.8,0.7,1.9,1.3c0.1,0.6-1,1.4-1.7,1.2c-0.7-0.3-1.2-0.4-1.6-0.7
			C226.4,112,226.2,110.1,228.2,110.7z"/>
		<path class="st8" d="M248,98.4c0,0,7.9,1.4,13.3-1.2c5.3-2.6,19.9-10.5,19.9-10.5s-16.7,10.8-19.1,11.7
			c-7.1,2.7-13.8,1.2-13.8,1.2L248,98.4z"/>
		<g>
			<path class="st6" d="M235.7,95.1c0,0-1-2.6-2-3.6c-1-1.1-2.3-1-3.5-1.7c-0.6,1-0.5,2.4,0.5,3.7c0.9,1,3.8,2.4,3.8,2.4L235.7,95.1
				z"/>
			<path class="st8" d="M230.2,89.8c0,0,0.2,1,1.3,1.5c1.1,0.5,2.7,3.8,2.7,3.8l-0.6,0.7c0,0-3.4-2-3.6-3.3
				C229.8,91.1,229.6,90.7,230.2,89.8z"/>
			<path class="st9" d="M237.9,91.7c0,0-2.3-1.3-2.5-6.1c-0.7,1-1,4.4,0.3,7.7C235.6,93.4,237.5,93,237.9,91.7z"/>
			<path class="st6" d="M238.2,91.4l7.1,3.5c0,0,2.9,3.5,3.3,5.2c0.4,1.7,2.7,15.2-8.2,15.3c-5.6,0.1-10.2,0.7-10.2,0.7
				s-8.3-4.5-6.9-6.6c1.4-2.1,4.4-2.9,5.7-4.9c1.3-1.9,3.5-9,4.6-9.5C234.6,94.7,237.1,91.2,238.2,91.4z"/>
			<path class="st12" d="M248.1,102.5c0,0,0.2,2.7-0.2,3.5c-0.4,0.7-1.3,2.8-2,2.7c-0.7-0.1,0-4.5,0.4-5.5c0.4-1.1,0.5-2.6,0.5-2.6
				S247.7,101.8,248.1,102.5z"/>
			<path class="st9" d="M245.1,95.3c0,0-0.7,3.5,1.4,3.5c1.3,0,3.7-5,3.9-6.8C250.7,90.3,248.7,94.6,245.1,95.3z"/>
			<path class="st6" d="M247.2,99.6c0,0,4.2,0.4,5.8,1.4c1.5,1,2.4,4,2.4,4s-1.3,1.5-4-0.1c-2.6-1.6-2.3-2.3-3.6-2.1
				C246.5,103,246.5,100.1,247.2,99.6z"/>
			<path class="st12" d="M230,116.3c0,0,4.9-0.5,6.2-0.6c1.4-0.1,7.4,0.3,9.6-2c2.1-2.3,2.4-3.7,2.4-3.7s-1.7,2.8-3.5,3.5
				c-1.8,0.6-13.5,0.3-13.5,0.3S228.7,116.1,230,116.3z"/>
			<path class="st5" d="M225.9,107.4c0,0-2.3,1-2.6,2.1c-0.3,1.1-0.6,3.2-0.6,3.2s0.5,1.4,1.4,2.1c0.9,0.7,3.1,2.1,4.5,1.9
				c1.5-0.2,3.1-1.8,3.1-1.8s-0.9-2.1-1.4-3.2C229.8,110.6,225.3,108.9,225.9,107.4z"/>
			<path class="st13" d="M225.7,112.9c0,0,1.6,0.7,2.2,0.7c0.7,0-1.1,0.5-1.5,0.4C226,114,224.6,112.9,225.7,112.9z"/>
			<path class="st8" d="M228.1,105.7c0,0,2.6-2.1,3.3-3c0.7-1,1.1-5.1,1.2-5.7c0.1-0.6,0.5-1.3,0.5-1.3s-1.6,3.3-2.1,4.4
				C230.6,101.3,229.6,104.6,228.1,105.7z"/>
			<path class="st13" d="M223.6,110.5c0,0,0.3,0.6,0.7,1c0.3,0.4,0.3,1,0,1C223.9,112.6,223.3,111.6,223.6,110.5z"/>
			<path class="st7" d="M239.6,104.2c0,0.6-0.6,1-1.2,0.9c-0.6-0.1-1.1-0.5-1-1.1c0-0.6,0.6-1,1.2-0.9
				C239.2,103.1,239.7,103.6,239.6,104.2z"/>
			<path class="st0" d="M239.4,103.9c0,0.2-0.2,0.3-0.4,0.3c-0.2,0-0.4-0.2-0.4-0.4c0-0.2,0.2-0.3,0.4-0.3
				C239.3,103.5,239.4,103.7,239.4,103.9z"/>
			<path class="st7" d="M232.6,100.5c-0.2,0.5-0.6,0.6-1,0.4c-0.4-0.2-0.6-0.6-0.3-1.1c0.2-0.5,0.5-0.6,0.9-0.4
				C232.5,99.6,232.8,100,232.6,100.5z"/>
			<path class="st12" d="M230.1,111.2c0,0,5.4-2.2,7.3-3.6c-0.3,0.7-0.8,1.7-0.7,4.1l1.1,2.2l-6.5,0
				C231.2,113.8,230.7,112.1,230.1,111.2z"/>
			<path class="st0" d="M232.6,100c0,0.1-0.1,0.2-0.3,0.2c-0.2,0-0.3-0.1-0.3-0.3c0-0.1,0.2-0.2,0.3-0.2
				C232.5,99.7,232.6,99.8,232.6,100z"/>
			<path class="st8" d="M247.5,102.2c0,0,2.6-0.7,4,0.2c1.4,0.9,3.2,2.6,3.2,2.6s-0.2,0.6-1.1,0.5c-0.8-0.1-2.8-0.9-3.4-1.4
				C249.7,103.6,248.1,102.2,247.5,102.2z"/>
		</g>
	</g>
</g>
<g>
	<path class="st4" d="M333.5,228.8l-21.3-2c0,0-8.1,8.9-13.4,8.9c-5.3,0-4.2,0.9-5.2-2.8c-1.8-7.2,1.4-5.9,1.6-10.1
		c0.2-4.2-3.5-17.2,1.5-19.4c5-2.2,23.2-11.3,23.2-11.3l37.9-7.5c0,0,5,6.3,6,10.7s-6.9,9.1-6.9,9.1h16.9l-1.6,3.4h-24.5
		c0,0-9.4,8.5-16.9,11.6c-7.5,3.1-10.8,4.3-10.8,4.3l14.2,0L333.5,228.8z"/>
	<g>
		<path class="st8" d="M294.2,207.9c0,0-3.7-0.9-4.8-4c2.5-0.9,5.3,0.2,5.3,0.2L294.2,207.9z"/>
		<path class="st9" d="M294.5,201.6c0,0-2.4-0.7-3.4-3.1c-0.8,0.9,0.4,5.8,1.5,6.8C293.6,206.4,294.5,201.6,294.5,201.6z"/>
		<g>
			<path class="st6" d="M373.6,150.5c0,0,6.3-0.3,7.4,2.8c1.1,3.1,1.2,20.1,1.2,20.1l0.6,7.1c0,0-0.3,1.8,0.3,2.7
				c0.6,0.9,0.6,3.3,0.6,3.3s-2.6-2.9-3.2-6.4c-0.6-3.5-0.5-16.2-0.8-18.4c-0.3-2.2-1.1-7.4-3.4-8
				C374.2,153.1,373.6,150.5,373.6,150.5z"/>
			<path class="st7" d="M376.6,202.2v2.5c0,0-0.3,2.9-2.6,3.3c-2.3,0.4-3.2,0.1-3.2,0.1l0.6-1.7c0,0-1.3,0.8-1.9,0.6
				c-0.6-0.2,1.5-2.7,2.5-5C372.9,200,376.6,202.2,376.6,202.2z"/>
			<path class="st7" d="M364.3,194.1l0.1,2.5c0,0-0.3,2.9-2.6,3.3c-2.3,0.5-3.2,0.2-3.2,0.2l0.5-1.6c0,0-1.2,1-1.8,0.5
				c-0.6-0.5,1.5-2.8,2.4-5.1C360.5,191.9,364.3,194.1,364.3,194.1z"/>
			<path class="st7" d="M337.1,223.6v2.5c0,0-0.3,2.8-2.6,3.3c-2.3,0.4-3.2,0.1-3.2,0.1l0.5-1.5c0,0-1.6,0.8-1.8,0.4
				c-0.3-1,1.5-2.7,2.5-5C333.4,221.4,337.1,223.6,337.1,223.6z"/>
			<path class="st7" d="M316.2,214.9v2.5c0,0-0.3,2.8-2.6,3.3c-2.3,0.4-3.2,0.1-3.2,0.1l0.4-1.8c0,0-1.6,1.9-1.7,0.7
				c-0.1-1.2,1.5-2.7,2.5-5C312.4,212.7,316.2,214.9,316.2,214.9z"/>
			<path class="st8" d="M322.3,183.9c0,0-3.3,14-4.1,16.1c-0.8,2.1-1.2,4.3-1.2,4.3l-1.1,10.9c0,0-4.8,1.3-4.3-0.5
				c0.5-2.3,1.4-8.8,1.4-8.8s-1.4-1.6-2.4-5.7c-1-4.1-0.5-6.7-1.2-12.1C308.6,182.8,321.6,178.2,322.3,183.9z"/>
			<path class="st8" d="M347.9,167.6c0,0,7.5,9,10.7,10.4c3.2,1.4,3.7,3.4,3.7,3.4s-2.8,11.9-2.7,12.8c0.1,0.9,1.4,1.5,3.2,0.9
				c1.9-0.6,1.6-1.5,1.6-1.5s0.6-9.1,1.8-11.1c1.2-2,2.5-1.9,2.7-4.1c0.2-2.2-2.3-3.6-2.1-6.3c0.2-2.7,3.9-17.4,2.6-21.4
				c-1.3-4-8.2-3.9-9.8-2.5C358.1,149.4,346,164.1,347.9,167.6z"/>
			<path class="st10" d="M358.2,189.2c0,0,6.3,5.7,10.5,2.3c4.2-3.4,3.8-5.1,3.8-5.1l-3.8-4.2C368.7,182.2,358.9,183.6,358.2,189.2z
				"/>
			<path class="st6" d="M296.5,203.6c0,0,9-16.2,14.7-26.3c4.4-7.9,18.6-12.1,20.5-12.9c3.7-1.5,20.7-10.3,23.6-12.4
				c2.8-2.1,13.1-4.8,16.2-2.6c1.5,1.1,6.2,2.8,7.2,4.1c1,1.3,1.6,2.4,1.6,2.4s-3,20.4-3.4,22.2c-0.4,1.8-9.3,6.4-12.7,9.2
				c-3.4,2.8-13.5,15.7-18.2,16.8c-4.6,1-17.1,5.9-20.1,6c-3,0.1-5.7-1.2-9.5-0.9c-4.7,0.4-7.6,3.2-7.6,3.2L296.5,203.6z"/>
			<path class="st8" d="M375.2,179.7l-4.9-6.7c0,0-3.6,3.5-8.4,7.6c-4.8,4.1-2.6,8.5-8.1,15.3c-3.4,4.2-16.8,8.8-27.8,11.6
				c-4.7,1.2-9.9,1.1-12.1,2.1c7.3-1.4,10.3,1.9,15.2-0.3c4.9-2.2,15.3-4.4,17.2-5.4c1.9-1,7.8-4.8,11.4-10.2
				C361.3,188.4,373,181.3,375.2,179.7z"/>
			<path class="st6" d="M360.9,175.1c0,0,7.3,9.2,10.5,10.6c3.2,1.4,2.5,6.2,2.5,6.2s-2,9.1-1.9,10c0.1,0.9,1.8,1.5,3.6,1
				c1.9-0.5,1.3-0.9,1.3-0.9s0.8-9.8,2-11.7c1.2-1.9,2.5-1.9,2.7-4.1c0.2-2.2-2.2-3.6-2-6.4c0.2-2.7,4.3-17.3,3.1-21.4
				c-1.2-4.1-8.1-4.1-9.7-2.7C371.4,157.2,359,171.6,360.9,175.1z"/>
			<path class="st10" d="M366.8,190.8c0,0,1.5,4.6,0,4.8c-1.5,0.2-2.3-4.9-2.3-4.9L366.8,190.8z"/>
			<path class="st10" d="M370.9,188.7c0,0,0,4.1-0.5,4.1c-0.5,0-1.6-3-1.6-3L370.9,188.7z"/>
			<path class="st8" d="M325.9,197.5c0,0,1.2,6.5,1.4,8.6c0.2,1.8,1.8,3.2,1.8,3.2L325.9,197.5z"/>
			<path class="st8" d="M339.4,192.3c0,0-1.8,12.1-0.8,11.8c0.5-0.1-1.3,0.4-1.3,0.4L339.4,192.3z"/>
			<path class="st6" d="M339.4,192.3c0,0-2.3,13.8-2.7,16c-0.5,2.2-0.2,5.7-0.2,5.7l0.4,9.7c0,0-3.6,1.5-4.3-0.3
				c-0.6-1.8-0.1-8.5-0.1-8.5s-1.7-1.3-3.3-5.3c-1.6-3.9-1.6-6.6-3.1-11.7C324.5,192.8,337.9,186.9,339.4,192.3z"/>
			<path class="st8" d="M363.8,178.9c0,0,2.1,2.6,2.9,3.1c0.8,0.5,1.7,1.6,1.7,1.6S365.2,182,363.8,178.9z"/>
			<path class="st8" d="M373.1,155.7c0,0,3.4-1.4,7.1,0.2c-0.7-1.2-1-1.6-1-1.6S375.9,154.1,373.1,155.7z"/>
			<path class="st8" d="M381.1,184.1c0,0-2.4-2.8-2.5-4.4c-0.2-1.6,1.9-6.2,2.5-7.6c0.7-1.3-0.7,3.5-0.9,4.6
				C380,177.9,379,181.6,381.1,184.1z"/>
			<path class="st8" d="M373.5,193.7c0,0,0.9-3.6,1.5-4.4c0.6-0.8-2.3-2.7-3.6-3.5c-1.3-0.8,1.9,1.7,2.2,2.9
				C373.9,189.9,373.7,192.7,373.5,193.7z"/>
			<path class="st14" d="M371.1,188c0,0-0.7,0.7-0.7,1.2c0,0.5,0,2.1,0,2.1s0,0.7-0.4-0.1c-0.4-0.8-1-0.9-1-0.9s-1.6,1.1-2.4,1.2
				c0.2,0.7,0.6,2,0.4,2.4s-0.2,1.3-0.7,0.4c-0.5-0.9-1-2.5-1-2.5s-2.1-1-2.2-1.4c0-0.4,1.9-0.3,3.4-0.6
				C367.9,189.4,370.9,187.4,371.1,188z"/>
			<path class="st8" d="M333.3,163.2c6.1-3,21.9-11.1,21.9-11.1s-19,12.3-21.7,13.3c-8.1,3.1-10,2.6-10,2.6S327.3,166.1,333.3,163.2
				z"/>
		</g>
		<path class="st6" d="M299.1,227.2c2.4-1.9,2.2-2.3,6.3-4.7c3.2-1.8,5.2-5.8,5.3-9.5c0.2-7.2-4.5-9.9-4.5-9.9s-5.9-6.4-6.7-4.9
			c-0.8,1.5-1.8,1.2-3,1.6c-1.2,0.4-3.7,2.7-4.6,5.7c-0.5,1.6-0.2,6.9-0.6,11c-0.3,2.9-0.6,5-1.1,6.8
			C288.8,228.2,294.7,230.7,299.1,227.2z"/>
		<path class="st12" d="M295.1,226.5c0,0,3-5.4,4.3-7.2c1.4-1.7,1.8-1.6,2-2.2c0,0-0.9,7,3.5,5.7c0,0-3.4,2.1-4.8,3.4
			C297.2,229.1,294.3,228,295.1,226.5z"/>
		<path class="st5" d="M290.1,223.4c0,0,0.3,4.7,3.8,3.6c3.3-1,5.1,0.2,5.1,0.2s-1.3,1-2.2,2c-0.5,0.6-1.7,1.4-3.3,1.2
			C291.6,230.2,288.1,229.1,290.1,223.4z"/>
		<path class="st8" d="M295.6,200.6c0,0,2.7-0.1,4,0.5c1.2,0.6,5.1,1.6,4.1,0.8c-0.2-0.2-4.1-3.6-3.7-4.5c-0.8,1.5-0.9,1.7-1.6,2
			C297.6,199.8,296.6,199.6,295.6,200.6z"/>
		<path class="st9" d="M304.5,206.9c0,0,3.9-0.3,5.8-1.8c2-1.5-0.8,4.4-3,5.2C305.9,210.8,303.5,210,304.5,206.9z"/>
		<path class="st7" d="M300.6,215.7c0,0.6-0.6,1.1-1.3,1.1c-0.7,0-1.3-0.5-1.3-1.1c0-0.6,0.6-1.1,1.3-1.2
			C300.1,214.6,300.6,215.1,300.6,215.7z"/>
		<path class="st8" d="M291.6,208.2c0,0-0.1,8.3-0.7,11.7S293.3,216.3,291.6,208.2z"/>
		<path class="st0" d="M300.4,215.4c0,0.2-0.2,0.4-0.5,0.4c-0.3,0-0.5-0.2-0.5-0.4c0-0.2,0.2-0.4,0.5-0.4
			C300.2,215,300.4,215.1,300.4,215.4z"/>
		<path class="st7" d="M292.6,212.8c-0.2,0.6-0.7,0.8-1.1,0.6c-0.4-0.2-0.7-0.6-0.5-1.2c0.2-0.6,0.5-0.7,1-0.6
			C292.5,211.8,292.8,212.2,292.6,212.8z"/>
		<path class="st0" d="M292.5,212.2c0,0.2-0.1,0.3-0.3,0.3c-0.2,0-0.3-0.1-0.3-0.3c0-0.2,0.1-0.3,0.3-0.3
			C292.4,212,292.5,212.1,292.5,212.2z"/>
		<path class="st6" d="M308,211.5c0,0,0.4,0.6,1.3,0.8c1.5,0.4,2.3-0.1,3.8,2.2c-1.3,1.7-2.3,1.5-3.8,0.5c0,0-1.2-1.6-1.7-1.6
			C306.9,213.3,307.2,211.4,308,211.5z"/>
		<path class="st8" d="M307.9,213.1c0,0,2.4,0.6,2.8,1c0.4,0.4,1.4,1.1,1.4,1.1s-0.3,0.6-1.3,0.3
			C309.7,215.1,308.5,214.3,307.9,213.1z"/>
	</g>
</g>
<g>
	<path class="st4" d="M307.9,318.2h26.7c0,0,10.7,4.7,15.4,4.7s14.3-3,9.1-6.9c-5.2-3.9-5.5-5.8-7.7-8.8c-2.2-3-6.9-9.4-11.3-11.3
		c-4.4-1.9-20.4-9.9-20.4-9.9l-33.3-6.6c0,0-4.4,5.5-5.2,9.4c-0.8,3.9,6.1,8,6.1,8h-14.9l1.4,3h21.5c0,0,8.3,7.4,14.9,10.2
		c6.6,2.8,14,4.4,14,4.4l-17.1-0.6L307.9,318.2z"/>
	<g>
		<path class="st6" d="M275.1,248.8c0,0-5.6-0.3-6.5,2.5c-0.9,2.7-1.1,17.7-1.1,17.7l-0.5,6.2c0,0,0.3,1.6-0.3,2.4
			c-0.5,0.8-0.6,2.8-0.6,2.8s2.3-2.5,2.8-5.6c0.5-3,0.4-14.2,0.7-16.1s1-6.5,3-7C274.6,251.1,275.1,248.8,275.1,248.8z"/>
		<path class="st7" d="M272.5,294.2v2.2c0,0,0.3,2.5,2.3,2.9c2,0.4,2.8,0.1,2.8,0.1l-0.5-2l1.6,1.1c0,0-1.3-2.4-2.2-4.4
			C275.8,292.2,272.5,294.2,272.5,294.2z"/>
		<path class="st7" d="M283.3,287.1l0,2.2c0,0,0.2,2.5,2.3,2.9c2,0.4,2.8,0.2,2.8,0.2l-0.5-2l1.6,1.1c0,0-1.3-2.4-2.1-4.5
			C286.6,285.2,283.3,287.1,283.3,287.1z"/>
		<path class="st7" d="M307.2,313v2.2c0,0,0.3,2.5,2.3,2.9c2,0.4,2.8,0.1,2.8,0.1l-0.5-2l1.6,1.1c0,0-1.3-2.4-2.2-4.4
			C310.5,311.1,307.2,313,307.2,313z"/>
		<path class="st7" d="M325.6,305.3v2.2c0,0,0.3,2.5,2.3,2.9c2,0.4,2.8,0.1,2.8,0.1l-0.5-2l1.6,1.1c0,0-1.3-2.4-2.2-4.4
			C328.8,303.4,325.6,305.3,325.6,305.3z"/>
		<path class="st8" d="M320.2,278.1c0,0,2.9,12.3,3.6,14.2c0.7,1.8,1.1,3.8,1.1,3.8l1,9.5c0,0,4.2,1.2,3.8-0.5
			c-0.5-2-1.2-7.7-1.2-7.7s1.3-1.4,2.1-5c0.9-3.6,0.4-5.9,1.1-10.6C332.2,277.2,320.8,273.1,320.2,278.1z"/>
		<path class="st8" d="M297.7,263.8c0,0-6.6,7.9-9.4,9.1c-2.8,1.2-3.2,3-3.2,3s2.5,10.4,2.4,11.2c-0.1,0.8-1.2,1.3-2.8,0.8
			c-1.6-0.5-1.4-1.3-1.4-1.3s-0.6-8-1.6-9.7c-1-1.7-2.2-1.7-2.3-3.6c-0.2-1.9,2-3.1,1.8-5.5c-0.1-2.4-3.5-15.3-2.3-18.8
			c1.1-3.5,7.2-3.4,8.6-2.2C288.8,247.8,299.4,260.7,297.7,263.8z"/>
		<path class="st6" d="M334.6,261.9c0,0-19.4,0.5-22.6-0.9c-3.3-1.4-18.2-9.1-20.7-10.9c-2.5-1.8-11.5-4.2-14.3-2.3
			c-1.4,1-5.4,2.4-6.3,3.6c-0.9,1.2-1.4,2.1-1.4,2.1s2.7,17.9,3,19.5c0.3,1.6,8.2,5.6,11.1,8.1c2.9,2.5,11.9,13.8,16,14.7
			c4.1,0.9,15,5.2,17.7,5.3c2.6,0.1,8.6-5.1,10.6-7.8c2-2.7,6.5-19.5,6.5-19.5L334.6,261.9z"/>
		<path class="st8" d="M273.7,274.5l4.3-5.9c0,0,3.2,3.1,7.4,6.6c4.2,3.6,2.3,7.5,7.1,13.5c4.3,5.3,24.1,11.4,30.5,9.3
			c-3.6,2.4-4.5,4.3-8.8,2.4c-4.3-1.9-13.5-3.8-15.1-4.7c-1.6-0.9-6.8-4.2-10-8.9C285.9,282.1,275.7,275.8,273.7,274.5z"/>
		<path class="st8" d="M324.9,274.7c0,0,1.9,4,2.4,4.6c0.5,0.5,1.8,4.9,1.7,6.3c0,1.4,0.2,3.5,1.2,1c0.9-2.5,2.6-6.8,2.6-7.6
			C332.8,278.1,324.9,274.7,324.9,274.7z"/>
		<path class="st6" d="M286.3,270.4c0,0-6.4,8.1-9.2,9.3c-2.8,1.3-2.2,5.4-2.2,5.4s1.7,8,1.6,8.8c-0.1,0.8-1.5,1.3-3.2,0.9
			c-1.6-0.5-1.2-0.8-1.2-0.8s-0.7-8.6-1.7-10.3c-1.1-1.7-2.2-1.6-2.4-3.6c-0.2-1.9,1.9-3.2,1.7-5.6c-0.2-2.4-3.7-15.2-2.7-18.8
			c1.1-3.6,7.1-3.6,8.6-2.4C277.1,254.7,288,267.3,286.3,270.4z"/>
		<path class="st8" d="M317,290.1c0,0-1,5.7-1.2,7.5c-0.2,1.6-1.6,2.8-1.6,2.8L317,290.1z"/>
		<path class="st8" d="M305.2,285.5c0,0,1.5,10.6,0.7,10.4c-0.4-0.1,1.2,0.4,1.2,0.4L305.2,285.5z"/>
		<path class="st6" d="M305.2,285.5c0,0,2,12.1,2.4,14c0.4,1.9,0.2,5,0.2,5l-0.3,8.5c0,0,3.2,1.4,3.8-0.2c0.6-1.6,0.1-7.4,0.1-7.4
			s1.5-1.1,2.9-4.6c1.4-3.5,1.4-5.8,2.7-10.3C318.2,286,306.5,280.7,305.2,285.5z"/>
		<path class="st8" d="M283.8,273.7c0,0-1.8,2.3-2.5,2.7c-0.7,0.4-1.5,1.4-1.5,1.4S282.5,276.5,283.8,273.7z"/>
		<path class="st8" d="M275.6,253.4c0,0-3-1.3-6.2,0.2c0.6-1,0.9-1.4,0.9-1.4S273.2,251.9,275.6,253.4z"/>
		<path class="st8" d="M268.5,278.3c0,0,2.1-2.5,2.2-3.8c0.1-1.4-1.7-5.5-2.2-6.6c-0.6-1.2,0.6,3.1,0.8,4
			C269.6,272.9,270.4,276.1,268.5,278.3z"/>
		<path class="st8" d="M275.3,286.7c0,0-0.8-3.2-1.3-3.9c-0.5-0.7,2-2.4,3.1-3.1c1.1-0.7-1.6,1.5-1.9,2.5
			C274.9,283.4,275,285.8,275.3,286.7z"/>
		<path class="st11" d="M344.3,274.1c0,0-1.8,0.7-1.9,1.3c-0.1,0.6,1,1.4,1.7,1.2c0.7-0.3,1.2-0.4,1.6-0.7
			C346.1,275.4,346.4,273.5,344.3,274.1z"/>
		<path class="st8" d="M324.5,261.8c0,0-7.9,1.4-13.3-1.2c-5.3-2.6-19.9-10.5-19.9-10.5s16.7,10.8,19.1,11.7
			c7.1,2.7,13.8,1.2,13.8,1.2L324.5,261.8z"/>
		<g>
			<path class="st6" d="M336.8,258.5c0,0,1-2.6,2-3.6c1-1.1,2.3-1,3.5-1.7c0.6,1,0.5,2.4-0.5,3.7c-0.9,1-3.8,2.4-3.8,2.4
				L336.8,258.5z"/>
			<path class="st8" d="M342.3,253.2c0,0-0.2,1-1.3,1.5c-1.1,0.5-2.7,3.8-2.7,3.8l0.6,0.7c0,0,3.4-2,3.6-3.3
				C342.7,254.5,342.9,254.1,342.3,253.2z"/>
			<path class="st9" d="M334.7,255.1c0,0,2.3-1.3,2.5-6.1c0.7,1,1,4.4-0.3,7.7C336.9,256.8,335,256.4,334.7,255.1z"/>
			<path class="st6" d="M334.3,254.8l-7.1,3.5c0,0-2.9,3.5-3.3,5.2c-0.4,1.7-2.7,15.2,8.2,15.3c5.6,0.1,10.2,0.7,10.2,0.7
				s8.3-4.5,6.9-6.6c-1.4-2.1-4.4-2.9-5.7-4.9c-1.3-1.9-3.5-9-4.6-9.5C337.9,258.1,335.4,254.6,334.3,254.8z"/>
			<path class="st12" d="M324.4,265.9c0,0-0.2,2.7,0.2,3.5c0.4,0.7,1.3,2.8,2,2.7c0.7-0.1,0-4.5-0.4-5.5c-0.4-1.1-0.5-2.6-0.5-2.6
				S324.8,265.2,324.4,265.9z"/>
			<path class="st9" d="M327.4,258.8c0,0,0.7,3.5-1.4,3.5c-1.3,0-3.7-5-3.9-6.8C321.9,253.7,323.8,258,327.4,258.8z"/>
			<path class="st6" d="M325.3,263c0,0-4.2,0.4-5.8,1.4c-1.5,1-2.4,4-2.4,4s1.3,1.5,4-0.1c2.6-1.6,2.3-2.3,3.6-2.1
				C326,266.4,326.1,263.5,325.3,263z"/>
			<path class="st12" d="M342.5,279.7c0,0-4.9-0.5-6.2-0.6c-1.4-0.1-7.4,0.3-9.6-2c-2.1-2.3-2.4-3.7-2.4-3.7s1.7,2.8,3.5,3.5
				c1.8,0.6,13.5,0.3,13.5,0.3S343.8,279.5,342.5,279.7z"/>
			<path class="st5" d="M346.6,270.8c0,0,2.3,1,2.6,2.1c0.3,1.1,0.6,3.2,0.6,3.2s-0.5,1.4-1.4,2.1c-0.9,0.7-3.1,2.1-4.5,1.9
				c-1.5-0.2-3.1-1.8-3.1-1.8s0.9-2.1,1.4-3.2C342.8,274,347.2,272.3,346.6,270.8z"/>
			<path class="st13" d="M346.8,276.3c0,0-1.6,0.7-2.2,0.7c-0.7,0,1.1,0.5,1.5,0.4C346.6,277.4,348,276.3,346.8,276.3z"/>
			<path class="st8" d="M344.4,269.1c0,0-2.6-2.1-3.3-3c-0.7-1-1.1-5.1-1.2-5.7c-0.1-0.6-0.5-1.3-0.5-1.3s1.6,3.3,2.1,4.4
				C341.9,264.7,342.9,268,344.4,269.1z"/>
			<path class="st13" d="M349,273.9c0,0-0.3,0.6-0.7,1c-0.3,0.4-0.3,1,0,1C348.6,276,349.2,275,349,273.9z"/>
			<path class="st7" d="M332.9,267.6c0,0.6,0.6,1,1.2,0.9c0.6-0.1,1.1-0.5,1-1.1c0-0.6-0.6-1-1.2-0.9
				C333.3,266.6,332.9,267,332.9,267.6z"/>
			<path class="st0" d="M333.1,267.3c0,0.2,0.2,0.3,0.4,0.3c0.2,0,0.4-0.2,0.4-0.4c0-0.2-0.2-0.3-0.4-0.3
				C333.3,266.9,333.1,267.1,333.1,267.3z"/>
			<path class="st7" d="M339.9,263.9c0.2,0.5,0.6,0.6,1,0.4c0.4-0.2,0.6-0.6,0.3-1.1c-0.2-0.5-0.5-0.6-0.9-0.4
				C340,263,339.7,263.4,339.9,263.9z"/>
			<path class="st12" d="M342.5,274.6c0,0-5.4-2.2-7.3-3.6c0.3,0.7,0.8,1.7,0.7,4.1l-1.1,2.2l6.5,0
				C341.3,277.2,341.9,275.5,342.5,274.6z"/>
			<path class="st0" d="M340,263.4c0,0.1,0.1,0.2,0.3,0.2c0.2,0,0.3-0.1,0.3-0.3c0-0.1-0.2-0.2-0.3-0.2
				C340.1,263.1,340,263.2,340,263.4z"/>
			<path class="st8" d="M325,265.6c0,0-2.6-0.7-4,0.2c-1.4,0.9-3.2,2.6-3.2,2.6s0.2,0.6,1.1,0.5c0.8-0.1,2.8-0.9,3.4-1.4
				C322.9,267,324.5,265.6,325,265.6z"/>
		</g>
	</g>
</g>
<g>
	<path class="st4" d="M452.4,215.7l17.2-0.4c0,0,8.2,5.4,18.4,9.2s8.6,4.8,8.6,4.8l-12.2-0.4l3.8,2.6h15.4c0,0,14.2-4.6,12.2-12.6
		c-2-8-4.2-6.9-9.8-9.2c-5.6-2.3-21.1-4.4-21.1-4.4s-18.6-1.2-21.1-3c-2.6-1.8-6.8-5.6-6.8-5.6s-5.7-2.9-4.8,1.6
		c1.8,8.6,13.8,12.8,13.8,12.8l-16.7,1.2L452.4,215.7z"/>
	<g>
		<path class="st5" d="M425.1,179.9c0,0-1.4,0.5-3,2.4c-1.5,1.8,0.6,3.6,1.1,3.9l3.7,0.8L425.1,179.9z"/>
		<path class="st6" d="M431.5,188.8l-6.8-2.4c0,0-2.8-3.1-2-4.7s6.9-4.6,6.9-4.6l3.6,4.8L431.5,188.8z"/>
		<path class="st7" d="M503.5,221.6c0,0-0.1,1.3-0.1,1.6c0,0.3-1.2,1.1-2.3,0.5c-1.1-0.5-2.5-1.1-2.8-1.8c-0.3-0.7,0.9-1.6,0.9-1.6
			s0.1-0.4,0.9-0.4C500.9,219.9,503.5,221.6,503.5,221.6z"/>
		<path class="st7" d="M488.3,229.1c0,0-0.1,1.3-0.1,1.6c0,0.3-1.2,1.1-2.3,0.5c-1.1-0.5-2.5-1.1-2.8-1.8c-0.3-0.7,0.9-1.6,0.9-1.6
			s0.1-0.4,0.9-0.4C485.6,227.5,488.3,229.1,488.3,229.1z"/>
		<path class="st7" d="M452.6,213.4c0,0-0.1,1.3-0.1,1.6c-0.1,0.3-1.2,1.1-2.3,0.5c-1.1-0.5-2.5-1.1-2.8-1.8
			c-0.3-0.7,0.9-1.6,0.9-1.6s0.2-0.4,1-0.4C450,211.8,452.6,213.4,452.6,213.4z"/>
		<path class="st7" d="M466.9,207.2c0,0-0.1,1.2-0.1,1.4c0,0.3-1.1,1-2.1,0.5c-1-0.5-2.2-1-2.5-1.6c-0.3-0.6,0.8-1.5,0.8-1.5
			s0.1-0.4,0.8-0.4C464.6,205.7,466.9,207.2,466.9,207.2z"/>
		<path class="st8" d="M436.3,173c0,0,4.2-5.1,6-4.5c0.7,1.9-0.1,2.9-1.7,4.4C440.5,172.9,437.8,173.7,436.3,173z"/>
		<path class="st9" d="M435,170.3c0,0,1.8-3.2,1.3-4.9c-0.4-1.7,1.8,1.9,2.1,5.3C438.7,174.2,435,170.3,435,170.3z"/>
		<path class="st8" d="M499.3,181.8c3.4,0.4,7.3,2.3,8,9.5c0.8,7.2-2.5,11.4-2.1,14.5c0.4,3.2,3.2,5,2.6,6.5c0,0-4.3,6.5-4.3,8.8
			c0.1,2.2-3.8,1.2-3.8-0.6c0.1-3.4,1.3-6.7,0.9-9c-0.2-1.3-8.6-2.7-12.5-16.7C486.4,186.2,496,181.4,499.3,181.8z"/>
		<path class="st8" d="M459.4,177.9c0,0,2.2,17.4,3.6,19.2c1.5,1.8,0.4,9.6,0.4,9.6s1.1,1,2.9,0.7c1.8-0.3,1.7-10.7,1.7-10.7
			s3.2-4.5,4.8-11.2C474.5,178.9,459.6,172.4,459.4,177.9z"/>
		<path class="st6" d="M504.6,198.8c0,0,2.7-13.3-2.7-16c-5.4-2.7-13.9-3-18.7-6.3c-4.8-3.2-20.2-8.6-21.8-9.2
			c-5.4-2-23.8,6.8-23.8,6.8s-2.7,1.7-2.5,4.9c0.1,2.9,1.5,4.7,2.9,7.6c1.3,2.5,10,7.4,10,7.4s3.3,5.4,6.5,6.7
			c3.2,1.3,8.9,5.5,14.9,5.7c6,0.3,15.2,4.3,17.7,4.8c2.5,0.5,8,0.4,10-0.4C499.2,210.2,500.6,209.6,504.6,198.8z"/>
		<path class="st8" d="M459.2,195.3c0,0-3.2,5.4-3.6,5.8s5.9,3.6,9.7,4.6c3.8,1,11.5,1.9,16.1,3.7s-2.2-5.9-2.2-5.9
			s-7.6-0.5-10.5-1.2c-2.9-0.7-3.6,1.2-6.5,0.5c-2.9-0.7-4.4-2.5-4.4-2.5L459.2,195.3z"/>
		<path class="st10" d="M500.3,208.4c0,0-0.9,7.6-7.7,7.1c-6.8-0.5-4.2-2.6-6.9-5c-2.1-1.8,5.4,0.5,7.5-0.1
			C495.3,209.8,497.8,210.5,500.3,208.4z"/>
		<path class="st6" d="M490.8,189.7c3.2,1.1,6.7,3.8,6.2,11.1c-0.6,7.3-4.5,10.6-4.7,13.8c-0.2,3.2,2.2,5.6,1.4,7c0,0-4.9,5-5.2,7.2
			c-0.3,2.2-4.1,1.2-3.8-0.6c0.6-3.6,2.1-6.7,2.1-9c0-1.4-7.9-4.6-9.3-19.1C477.3,191.2,487.5,188.6,490.8,189.7z"/>
		<path class="st6" d="M448.2,183c0,0-0.4,17.6,0.8,19.5c1.2,2-0.2,10.1-0.2,10.1s1.6,1.2,3.4,1.2c1.8,0,1.8-11,1.8-11
			s3.8-4,6.4-10.4C462.9,186.2,449.1,177.6,448.2,183z"/>
		<path class="st6" d="M441,189.3c-1.9-1.1-4.4-0.2-6.9-0.2c-6.3,0-8.1-5.4-8.2-7c-0.1-1.6,2.2-3.9,2.3-5c0.2-1.1,1.4-2.4,2.1-3.4
			c0.7-1,3.4-2.7,4.3-3.3c0.9-0.6,4.1-0.7,5.4,1.4c1.8,2.9,5,2.9,5,2.9L441,189.3z"/>
		<path class="st9" d="M429.6,175.7c0,0-3.2,1-5.1-0.4c-1.9-1.4,2,3.5,4.5,3.9C431.5,179.5,432,176,429.6,175.7z"/>
		<path class="st8" d="M497,201.2c0,0-1.3,5.7-1.8,6.6c-0.5,0.9-1.3,2.6-1.3,2.6s2.4-2.9,2.6-4.5C496.7,204.2,497,201.2,497,201.2z"
			/>
		<path class="st8" d="M495.1,192.8c0,0-1.5-3-6.7-3.3C492.3,189,494.5,190.6,495.1,192.8z"/>
		<path class="st8" d="M493.7,220.7c0,0-1-1.4-2-3.6c-1-2.2,1.8-6.3,1.8-6.3s-1.9,3.7-1.2,5.4C493,217.9,494.1,220.3,493.7,220.7z"
			/>
		<path class="st8" d="M454.4,202.4c0,0-1.6,0.9-1.6,2.1s-1.8,8.7-1.8,8.7s0.6,0.7,1.3,0.2c0.7-0.5,1.4-6,1.3-7.3
			C453.5,204.7,454.4,202.4,454.4,202.4z"/>
		<path class="st8" d="M440.3,172.5c0,0-2.2-1.4-2.8-1c-0.6,0.4-2.2,3.8-3.1,4.6c-0.8,0.9,1.8-0.2,3.3-1.5c1.5-1.3,3.1-2.1,3.8-2
			C442.1,172.8,440.3,172.5,440.3,172.5z"/>
		<path class="st6" d="M502,186.3c0,0,5.1,3.5,4.9,5.9s-3.2,14-3.3,17c-0.1,3,3.8,5.6,4.7,5.6c0.9,0,1.8-1.6,3.7-0.5
			c1.9,1.1,2.2,1.2,2.2,1.2s1,0.1,1.6-0.8c0.6-0.9,0,1.9-2.6,2.1s-3.9-0.2-5-1.1c-1.1-0.9-5.6-2.4-5.6-6.5c0-4.1,2-14.2,1.3-16
			C503.2,191.4,501.5,190.8,502,186.3z"/>
		<path class="st8" d="M502.3,190.2c0,0,0.9,2.2,0.9,4.1c0,1.9-0.1,7-0.1,7.6c0,0.6,0.2,0.7,0.2,0.7s1-7.8,0.5-9.5
			C503.5,191.5,502.9,190.8,502.3,190.2z"/>
		<path class="st10" d="M497.3,213.9c0,0-0.1,1.6-0.7,2.1c-0.6,0.5-0.9-2-0.9-2L497.3,213.9z"/>
		<path class="st8" d="M430.2,181.4c0,0,0.2,2.2-0.1,3c-0.3,0.8-1.3,0-1.5-1.5C428.5,181.4,430.2,181.4,430.2,181.4z"/>
		<path class="st10" d="M495,214.9c0,0-0.1,1.6-0.7,2.1c-0.6,0.5-0.9-2-0.9-2L495,214.9z"/>
		<path class="st8" d="M429.4,180.7c0,0-3.8,0.9-4.7,2.7c-0.8,1.8,0.2,1.7,0.2,1.7s1.5,0.9,2.8-0.4c1.4-1.2,1.4-1.9,1.9-2.1
			C430.2,182.4,430.4,180.6,429.4,180.7z"/>
		<path class="st8" d="M440.5,188.9c0,0-1.6-2.1-2.8-3s-0.1,1.3-1.3,2.1c-1.1,0.8-1.7,1-1.7,1s3.5-0.3,4.4-0.1
			C440.1,189,440.5,188.9,440.5,188.9z"/>
		<path class="st8" d="M428.9,187.8c0,0-1.7-1.5-2.1-3.1s-3.5-0.2-3.5-0.2s0.7,1.3,1.3,1.7C425.3,186.5,428.3,187.5,428.9,187.8z"/>
	</g>
</g>
<g>
	<path class="st4" d="M428.9,276.6l-17.2-0.4c0,0-8.2,5.4-18.4,9.2c-10.2,3.8-8.6,4.8-8.6,4.8l12.2-0.4l-3.8,2.6h-15.4
		c0,0-14.2-4.6-12.2-12.6c2-8,4.2-6.9,9.8-9.2c5.6-2.3,21.1-4.4,21.1-4.4s18.6-1.2,21.1-3c2.6-1.8,6.8-5.6,6.8-5.6s5.7-2.9,4.8,1.6
		c-1.8,8.6-13.8,12.8-13.8,12.8l16.7,1.2L428.9,276.6z"/>
	<g>
		<path class="st5" d="M456.2,240.8c0,0,1.4,0.5,3,2.4c1.5,1.8-0.6,3.6-1.1,3.9l-3.7,0.8L456.2,240.8z"/>
		<path class="st6" d="M449.8,249.7l6.8-2.4c0,0,2.8-3.1,2-4.7c-0.8-1.6-6.9-4.6-6.9-4.6l-3.6,4.8L449.8,249.7z"/>
		<path class="st7" d="M377.8,282.4c0,0,0.1,1.3,0.1,1.6c0,0.3,1.2,1.1,2.3,0.5c1.1-0.5,2.5-1.1,2.8-1.8c0.3-0.7-0.9-1.6-0.9-1.6
			s-0.1-0.4-0.9-0.4C380.4,280.8,377.8,282.4,377.8,282.4z"/>
		<path class="st7" d="M393,290c0,0,0.1,1.3,0.1,1.6c0,0.3,1.2,1.1,2.3,0.5c1.1-0.5,2.5-1.1,2.8-1.8c0.3-0.7-0.9-1.6-0.9-1.6
			s-0.1-0.4-0.9-0.4C395.7,288.4,393,290,393,290z"/>
		<path class="st7" d="M428.7,274.3c0,0,0.1,1.3,0.1,1.6c0.1,0.3,1.2,1.1,2.3,0.5c1.1-0.5,2.5-1.1,2.8-1.8c0.3-0.7-0.9-1.6-0.9-1.6
			s-0.2-0.4-1-0.4C431.3,272.6,428.7,274.3,428.7,274.3z"/>
		<path class="st7" d="M414.4,268.1c0,0,0.1,1.2,0.1,1.4c0,0.3,1.1,1,2.1,0.5c1-0.5,2.2-1,2.5-1.6c0.3-0.6-0.8-1.5-0.8-1.5
			s-0.1-0.4-0.8-0.4C416.7,266.6,414.4,268.1,414.4,268.1z"/>
		<path class="st8" d="M445.1,233.9c0,0-4.2-5.1-6-4.5c-0.7,1.9,0.1,2.9,1.7,4.4C440.8,233.8,443.5,234.5,445.1,233.9z"/>
		<path class="st9" d="M446.3,231.2c0,0-1.8-3.2-1.3-4.9c0.4-1.7-1.8,1.9-2.1,5.3C442.6,235.1,446.3,231.2,446.3,231.2z"/>
		<path class="st8" d="M382,242.6c-3.4,0.4-7.3,2.3-8,9.5c-0.8,7.2,2.5,11.4,2.1,14.5c-0.4,3.2-3.2,5-2.6,6.5c0,0,4.3,6.5,4.3,8.8
			c-0.1,2.2,3.8,1.2,3.8-0.6c-0.1-3.4-1.3-6.7-0.9-9c0.2-1.3,8.6-2.7,12.5-16.7C394.9,247.1,385.3,242.3,382,242.6z"/>
		<path class="st8" d="M421.9,238.8c0,0-2.2,17.4-3.6,19.2c-1.5,1.8-0.4,9.6-0.4,9.6s-1.1,1-2.9,0.7c-1.8-0.3-1.7-10.7-1.7-10.7
			s-3.2-4.5-4.8-11.2C406.8,239.8,421.7,233.3,421.9,238.8z"/>
		<path class="st6" d="M376.7,259.7c0,0-2.7-13.3,2.7-16c5.4-2.7,13.9-3,18.7-6.3c4.8-3.2,20.2-8.6,21.8-9.2
			c5.4-2,23.8,6.8,23.8,6.8s2.7,1.7,2.5,4.9c-0.1,2.9-1.5,4.7-2.9,7.6c-1.3,2.5-10,7.4-10,7.4s-3.3,5.4-6.5,6.7
			c-3.2,1.3-8.9,5.5-14.9,5.7c-6,0.3-15.2,4.3-17.7,4.8c-2.5,0.5-8,0.4-10-0.4C382.1,271,380.7,270.5,376.7,259.7z"/>
		<path class="st8" d="M422.1,256.2c0,0,3.2,5.4,3.6,5.8c0.4,0.4-5.9,3.6-9.7,4.6c-3.8,1-11.5,1.9-16.1,3.7
			c-4.6,1.8,2.2-5.9,2.2-5.9s7.6-0.5,10.5-1.2c2.9-0.7,3.6,1.2,6.5,0.5c2.9-0.7,4.4-2.5,4.4-2.5L422.1,256.2z"/>
		<path class="st10" d="M381,269.3c0,0,0.9,7.6,7.7,7.1c6.8-0.5,4.2-2.6,6.9-5c2.1-1.8-5.4,0.5-7.5-0.1
			C386,270.7,383.5,271.4,381,269.3z"/>
		<path class="st6" d="M390.5,250.6c-3.2,1.1-6.7,3.8-6.2,11.1c0.6,7.3,4.5,10.6,4.7,13.8c0.2,3.2-2.2,5.6-1.4,7c0,0,4.9,5,5.2,7.2
			c0.3,2.2,4.1,1.2,3.8-0.6c-0.6-3.6-2.1-6.7-2.1-9c0-1.4,7.9-4.6,9.3-19.1C404,252.1,393.8,249.4,390.5,250.6z"/>
		<path class="st6" d="M433.2,243.9c0,0,0.4,17.6-0.8,19.5c-1.2,2,0.2,10.1,0.2,10.1s-1.6,1.2-3.4,1.2c-1.8,0-1.8-11-1.8-11
			s-3.8-4-6.4-10.4C418.4,247.1,432.2,238.5,433.2,243.9z"/>
		<path class="st6" d="M440.3,250.2c1.9-1.1,4.4-0.2,6.9-0.2c6.3,0,8.1-5.4,8.2-7c0.1-1.6-2.2-3.9-2.3-5c-0.2-1.1-1.4-2.4-2.1-3.4
			c-0.7-1-3.4-2.7-4.3-3.3c-0.9-0.6-4.1-0.7-5.4,1.4c-1.8,2.9-5,2.9-5,2.9L440.3,250.2z"/>
		<path class="st9" d="M451.7,236.6c0,0,3.2,1,5.1-0.4c1.9-1.4-2,3.5-4.5,3.9C449.8,240.4,449.3,236.9,451.7,236.6z"/>
		<path class="st8" d="M384.3,262c0,0,1.3,5.7,1.8,6.6c0.5,0.9,1.3,2.6,1.3,2.6s-2.4-2.9-2.6-4.5C384.6,265.1,384.3,262,384.3,262z"
			/>
		<path class="st8" d="M386.2,253.7c0,0,1.5-3,6.7-3.3C389,249.9,386.8,251.5,386.2,253.7z"/>
		<path class="st8" d="M387.6,281.6c0,0,1-1.4,2-3.6c1-2.2-1.8-6.3-1.8-6.3s1.9,3.7,1.2,5.4C388.3,278.8,387.2,281.2,387.6,281.6z"
			/>
		<path class="st8" d="M426.9,263.2c0,0,1.6,0.9,1.6,2.1c0,1.2,1.8,8.7,1.8,8.7s-0.6,0.7-1.3,0.2c-0.7-0.5-1.4-6-1.3-7.3
			C427.8,265.6,426.9,263.2,426.9,263.2z"/>
		<path class="st8" d="M441,233.4c0,0,2.2-1.4,2.8-1c0.6,0.4,2.2,3.8,3.1,4.6c0.8,0.9-1.8-0.2-3.3-1.5c-1.5-1.3-3.1-2.1-3.8-2
			C439.2,233.7,441,233.4,441,233.4z"/>
		<path class="st6" d="M379.3,247.2c0,0-5.1,3.5-4.9,5.9c0.2,2.4,3.2,14,3.3,17c0.1,3-3.8,5.6-4.7,5.6c-0.9,0-1.8-1.6-3.7-0.5
			c-1.9,1.1-2.2,1.2-2.2,1.2s-1,0.1-1.6-0.8c-0.6-0.9,0,1.9,2.6,2.1c2.6,0.2,3.9-0.2,5-1.1c1.1-0.9,5.6-2.4,5.6-6.5
			c0-4.1-2-14.2-1.3-16C378.1,252.3,379.8,251.7,379.3,247.2z"/>
		<path class="st8" d="M379,251.1c0,0-0.9,2.2-0.9,4.1c0,1.9,0.1,7,0.1,7.6c0,0.6-0.2,0.7-0.2,0.7s-1-7.8-0.5-9.5
			C377.8,252.4,378.4,251.7,379,251.1z"/>
		<path class="st10" d="M384,274.7c0,0,0.1,1.6,0.7,2.1c0.6,0.5,0.9-2,0.9-2L384,274.7z"/>
		<path class="st8" d="M451.1,242.3c0,0-0.2,2.2,0.1,3c0.3,0.8,1.3,0,1.5-1.5C452.8,242.3,451.1,242.3,451.1,242.3z"/>
		<path class="st10" d="M386.3,275.7c0,0,0.1,1.6,0.7,2.1c0.6,0.5,0.9-2,0.9-2L386.3,275.7z"/>
		<path class="st8" d="M451.9,241.6c0,0,3.8,0.9,4.7,2.7c0.8,1.8-0.2,1.7-0.2,1.7s-1.5,0.9-2.8-0.4c-1.4-1.2-1.4-1.9-1.9-2.1
			C451.1,243.3,450.9,241.5,451.9,241.6z"/>
		<path class="st8" d="M440.8,249.8c0,0,1.6-2.1,2.8-3c1.2-0.9,0.1,1.3,1.3,2.1c1.1,0.8,1.7,1,1.7,1s-3.5-0.3-4.4-0.1
			C441.2,249.9,440.8,249.8,440.8,249.8z"/>
		<path class="st8" d="M452.4,248.7c0,0,1.7-1.5,2.1-3.1s3.5-0.2,3.5-0.2s-0.7,1.3-1.3,1.7C456,247.4,453,248.4,452.4,248.7z"/>
	</g>
</g>
</svg>
