<?xml version="1.0" encoding="utf-8"?>
<!-- Generator: Adobe Illustrator 27.5.0, SVG Export Plug-In . SVG Version: 6.00 Build 0)  -->
<svg version="1.1" id="Layer_1" xmlns="http://www.w3.org/2000/svg" xmlns:xlink="http://www.w3.org/1999/xlink" x="0px" y="0px"
	 viewBox="0 0 79.8 134" style="enable-background:new 0 0 79.8 134;" xml:space="preserve">
<style type="text/css">
	.st0{opacity:0.2;}
	.st1{fill-rule:evenodd;clip-rule:evenodd;fill:#4D4C4E;}
	.st2{fill-rule:evenodd;clip-rule:evenodd;fill:#FFFEF9;}
	.st3{fill-rule:evenodd;clip-rule:evenodd;fill:url(#SVGID_1_);}
	.st4{fill-rule:evenodd;clip-rule:evenodd;fill:url(#SVGID_00000114784240903001262370000012852530078930786972_);}
	.st5{fill-rule:evenodd;clip-rule:evenodd;fill:url(#SVGID_00000134962803044250976910000009233017954220873903_);}
	.st6{fill-rule:evenodd;clip-rule:evenodd;fill:url(#SVGID_00000152945819762101947960000000586292059155698104_);}
	.st7{fill-rule:evenodd;clip-rule:evenodd;fill:url(#SVGID_00000152943118831073599210000017075016795750332825_);}
	.st8{fill-rule:evenodd;clip-rule:evenodd;fill:url(#SVGID_00000171707943010796166240000011046300851304801977_);}
	.st9{fill-rule:evenodd;clip-rule:evenodd;fill:url(#SVGID_00000145045082345622307220000018058017948575343513_);}
	.st10{fill-rule:evenodd;clip-rule:evenodd;fill:url(#SVGID_00000095326851914046018160000005889715912857260957_);}
	.st11{fill-rule:evenodd;clip-rule:evenodd;fill:url(#SVGID_00000124144821265109918040000001879363394103121591_);}
	.st12{fill-rule:evenodd;clip-rule:evenodd;fill:url(#SVGID_00000150818417373837634810000014226604134506907530_);}
	.st13{fill-rule:evenodd;clip-rule:evenodd;fill:url(#SVGID_00000153685024186127590020000013977185644166925985_);}
	.st14{fill-rule:evenodd;clip-rule:evenodd;fill:url(#SVGID_00000168089444352642844400000008817233646123222950_);}
	.st15{fill-rule:evenodd;clip-rule:evenodd;fill:url(#SVGID_00000044176181488350486010000014202937741173887162_);}
	.st16{fill-rule:evenodd;clip-rule:evenodd;fill:url(#SVGID_00000176735004848299601730000001673205707092819343_);}
	.st17{fill-rule:evenodd;clip-rule:evenodd;fill:url(#SVGID_00000046306546463326354510000005883916037853070008_);}
	.st18{fill-rule:evenodd;clip-rule:evenodd;fill:url(#SVGID_00000044856367042204492970000003826321595980659372_);}
	.st19{fill-rule:evenodd;clip-rule:evenodd;fill:url(#SVGID_00000052821537627370114850000015859406709151506333_);}
	.st20{fill-rule:evenodd;clip-rule:evenodd;fill:url(#SVGID_00000122679312659946720810000002128911210127308708_);}
	.st21{fill-rule:evenodd;clip-rule:evenodd;fill:url(#SVGID_00000165949742597830926000000017513848026252534167_);}
	.st22{fill-rule:evenodd;clip-rule:evenodd;fill:url(#SVGID_00000032607646331636037560000001487923598388189875_);}
	.st23{fill-rule:evenodd;clip-rule:evenodd;fill:url(#SVGID_00000022550774159964443920000000876343184347299241_);}
	.st24{fill-rule:evenodd;clip-rule:evenodd;fill:url(#SVGID_00000183237605911615157860000003225863851039057342_);}
	.st25{fill-rule:evenodd;clip-rule:evenodd;fill:url(#SVGID_00000176011250632755248280000013986835638270431905_);}
	.st26{fill-rule:evenodd;clip-rule:evenodd;fill:url(#SVGID_00000137831676595662024460000010359298937868831116_);}
	.st27{fill-rule:evenodd;clip-rule:evenodd;fill:url(#SVGID_00000152963001631315873280000005854797093869704833_);}
	.st28{fill-rule:evenodd;clip-rule:evenodd;fill:url(#SVGID_00000096780170808567757490000006436833645176037267_);}
	.st29{fill-rule:evenodd;clip-rule:evenodd;fill:url(#SVGID_00000132087103061353525430000005467956571668691098_);}
	.st30{fill-rule:evenodd;clip-rule:evenodd;fill:url(#SVGID_00000067229042043336074990000017641517543076114110_);}
	.st31{fill-rule:evenodd;clip-rule:evenodd;fill:url(#SVGID_00000067950182142005244780000017869332328528632985_);}
	.st32{fill-rule:evenodd;clip-rule:evenodd;fill:url(#SVGID_00000082341303407001886340000013464508862312845242_);}
	.st33{fill-rule:evenodd;clip-rule:evenodd;fill:url(#SVGID_00000101803333822196593210000012936668206785134015_);}
	.st34{fill-rule:evenodd;clip-rule:evenodd;fill:url(#SVGID_00000031204203222403677560000007622466969740464785_);}
	.st35{fill-rule:evenodd;clip-rule:evenodd;fill:url(#SVGID_00000146463806445442785760000017566373583534146713_);}
	.st36{fill-rule:evenodd;clip-rule:evenodd;fill:url(#SVGID_00000106139121753699344400000013246282472225351080_);}
	.st37{fill-rule:evenodd;clip-rule:evenodd;fill:url(#SVGID_00000169539599485461293420000015211862409890116262_);}
	.st38{fill-rule:evenodd;clip-rule:evenodd;fill:url(#SVGID_00000044860001823851986130000010699481886126584509_);}
	.st39{fill-rule:evenodd;clip-rule:evenodd;fill:url(#SVGID_00000172411899010329459090000007653301563601256605_);}
	.st40{fill-rule:evenodd;clip-rule:evenodd;fill:url(#SVGID_00000065756501895723387510000013276925542526072229_);}
	.st41{fill-rule:evenodd;clip-rule:evenodd;fill:url(#SVGID_00000178922218814457715540000002144448244327860147_);}
	.st42{fill-rule:evenodd;clip-rule:evenodd;fill:url(#SVGID_00000111874816509955211070000001737410063586448020_);}
	.st43{fill-rule:evenodd;clip-rule:evenodd;fill:url(#SVGID_00000086676734562062445300000018428148804796592042_);}
	.st44{fill-rule:evenodd;clip-rule:evenodd;fill:url(#SVGID_00000113348331378422484550000005750472691611713190_);}
	.st45{fill-rule:evenodd;clip-rule:evenodd;fill:url(#SVGID_00000000944315124441094490000008740077853794618770_);}
	.st46{fill-rule:evenodd;clip-rule:evenodd;fill:url(#SVGID_00000000915918534734777580000002017600248943756470_);}
	.st47{fill-rule:evenodd;clip-rule:evenodd;fill:url(#SVGID_00000181079047966938771580000003483991108267922367_);}
	.st48{fill-rule:evenodd;clip-rule:evenodd;fill:url(#SVGID_00000150071803048833488360000002271288744941508784_);}
	.st49{fill-rule:evenodd;clip-rule:evenodd;fill:url(#SVGID_00000181044914678688886160000011120507471806355349_);}
	.st50{fill-rule:evenodd;clip-rule:evenodd;fill:url(#SVGID_00000111878236866151967040000011210200075998098825_);}
	.st51{fill-rule:evenodd;clip-rule:evenodd;fill:url(#SVGID_00000180365479822253000660000016706192097495964601_);}
	.st52{fill-rule:evenodd;clip-rule:evenodd;fill:url(#SVGID_00000037663905949477895940000011804901735151057821_);}
	.st53{fill-rule:evenodd;clip-rule:evenodd;fill:url(#SVGID_00000114781864835707544250000000962400934084691897_);}
	.st54{fill-rule:evenodd;clip-rule:evenodd;fill:url(#SVGID_00000123420237456256724730000000915773229749564800_);}
	.st55{fill-rule:evenodd;clip-rule:evenodd;fill:url(#SVGID_00000098901304861619854750000000761005204211405496_);}
	.st56{fill-rule:evenodd;clip-rule:evenodd;fill:url(#SVGID_00000033369702362935947100000002626793228444806333_);}
	.st57{fill-rule:evenodd;clip-rule:evenodd;fill:url(#SVGID_00000005957801020189521270000011264419435080155527_);}
	.st58{fill-rule:evenodd;clip-rule:evenodd;fill:url(#SVGID_00000149371032601963984840000008752365674943243195_);}
	.st59{fill-rule:evenodd;clip-rule:evenodd;fill:url(#SVGID_00000173133607769580047220000003653315970800369807_);}
	.st60{fill-rule:evenodd;clip-rule:evenodd;fill:url(#SVGID_00000087376116327613564200000001801551940408239022_);}
	.st61{fill-rule:evenodd;clip-rule:evenodd;fill:url(#SVGID_00000158018121295046810660000015654716730561316745_);}
	.st62{fill-rule:evenodd;clip-rule:evenodd;fill:url(#SVGID_00000129166558552023333450000000167621215734235813_);}
	.st63{fill-rule:evenodd;clip-rule:evenodd;fill:url(#SVGID_00000159466628534609709890000012099192455492682163_);}
	.st64{fill-rule:evenodd;clip-rule:evenodd;fill:url(#SVGID_00000076568637725477983800000009262032420192292738_);}
	.st65{fill-rule:evenodd;clip-rule:evenodd;fill:url(#SVGID_00000073714382924055320980000007458812089640021160_);}
	.st66{fill-rule:evenodd;clip-rule:evenodd;fill:url(#SVGID_00000179631055520014367190000012033879423394277810_);}
	.st67{fill-rule:evenodd;clip-rule:evenodd;fill:url(#SVGID_00000049915758786699661430000002113810381464444861_);}
	.st68{fill-rule:evenodd;clip-rule:evenodd;fill:url(#SVGID_00000000197389619628100690000013314512041448426911_);}
</style>
<g>
	<g class="st0">
		<path class="st1" d="M41.8,131.2c-5.1,3-30.6,4.4-37.7,0c-7.2-4.4-3.2-10.2,0-12.1c3.2-1.9,29.2-21.1,30-21.4
			c0.5-0.5-1.4,0.5,1.9-1.3c3.2-1.9,21.3,7.1,27.1,10.4s5.8,8.7,0,12.1C61.7,119.7,46.8,128.2,41.8,131.2z"/>
	</g>
	<path class="st2" d="M59,56.6c-9.5,5.5-25,5.5-34.5,0c-9.5-5.5-9.5-14.4,0-19.9c9.5-5.5,25-5.5,34.5,0C68.5,42.2,68.5,51.1,59,56.6
		z"/>
	<linearGradient id="SVGID_1_" gradientUnits="userSpaceOnUse" x1="35.5943" y1="92.8107" x2="47.898" y2="92.8107">
		<stop  offset="0" style="stop-color:#AE7F60"/>
		<stop  offset="0.21" style="stop-color:#693816"/>
		<stop  offset="0.59" style="stop-color:#472909"/>
		<stop  offset="0.78" style="stop-color:#402505"/>
		<stop  offset="0.89" style="stop-color:#532E0E"/>
		<stop  offset="1" style="stop-color:#91603D"/>
	</linearGradient>
	<path class="st3" d="M47.9,70.8v13.7v26.7c0,0.5-0.2,0.9-0.5,1.3c-0.3,0.4-0.8,0.8-1.4,1.2c-1.2,0.7-2.8,1-4.4,1
		c-1.6,0-3.1-0.3-4.3-1c-0.6-0.3-1.1-0.7-1.4-1.2c-0.3-0.4-0.5-0.9-0.5-1.3V84.5V70.8c0,0.5,0.2,0.9,0.5,1.3
		c0.3,0.4,0.8,0.8,1.4,1.2c1.2,0.7,2.8,1,4.3,1c1.6,0,3.1-0.3,4.4-1c0.6-0.3,1.1-0.7,1.4-1.2C47.7,71.7,47.9,71.3,47.9,70.8z"/>
	<g>
		
			<linearGradient id="SVGID_00000108993903376142861810000008549841914015529622_" gradientUnits="userSpaceOnUse" x1="35.5943" y1="67.0423" x2="47.898" y2="67.0423">
			<stop  offset="0" style="stop-color:#AE7F60"/>
			<stop  offset="0.21" style="stop-color:#693816"/>
			<stop  offset="0.59" style="stop-color:#472909"/>
			<stop  offset="0.78" style="stop-color:#402505"/>
			<stop  offset="0.89" style="stop-color:#532E0E"/>
			<stop  offset="1" style="stop-color:#91603D"/>
		</linearGradient>
		<path style="fill-rule:evenodd;clip-rule:evenodd;fill:url(#SVGID_00000108993903376142861810000008549841914015529622_);" d="
			M47.9,43.2v13.7v32.2c0,4.7-12.3-0.8-12.3-5.5V56.9V43.2c0,0.5,0.2,0.9,0.5,1.3c0.3,0.4,0.8,0.8,1.4,1.2c1.2,0.7,2.8,1,4.4,1
			c1.6,0,3.1-0.3,4.4-1c0.6-0.3,1.1-0.7,1.4-1.2C47.7,44.1,47.9,43.7,47.9,43.2z"/>
		
			<linearGradient id="SVGID_00000042738808839455182800000000750132272526898586_" gradientUnits="userSpaceOnUse" x1="35.5943" y1="66.648" x2="47.898" y2="66.648">
			<stop  offset="0" style="stop-color:#AA7B5C"/>
			<stop  offset="0.21" style="stop-color:#673715"/>
			<stop  offset="0.59" style="stop-color:#452809"/>
			<stop  offset="0.78" style="stop-color:#3F2404"/>
			<stop  offset="0.89" style="stop-color:#522E0E"/>
			<stop  offset="1" style="stop-color:#8D5E3B"/>
		</linearGradient>
		<path style="fill-rule:evenodd;clip-rule:evenodd;fill:url(#SVGID_00000042738808839455182800000000750132272526898586_);" d="
			M47.9,42.9v13.7v31.9c0,4.7-12.3-0.6-12.3-5.3V56.6V42.9c0,0.5,0.2,0.9,0.5,1.3c0.3,0.4,0.8,0.8,1.4,1.2c1.2,0.7,2.8,1,4.4,1
			c1.6,0,3.1-0.3,4.4-1c0.6-0.3,1.1-0.7,1.4-1.2C47.7,43.9,47.9,43.4,47.9,42.9z"/>
		
			<linearGradient id="SVGID_00000154393291796896303030000008063776301249737906_" gradientUnits="userSpaceOnUse" x1="35.5943" y1="66.2541" x2="47.898" y2="66.2541">
			<stop  offset="0" style="stop-color:#A57759"/>
			<stop  offset="0.21" style="stop-color:#643515"/>
			<stop  offset="0.59" style="stop-color:#442708"/>
			<stop  offset="0.78" style="stop-color:#3D2304"/>
			<stop  offset="0.89" style="stop-color:#502D0E"/>
			<stop  offset="1" style="stop-color:#8A5C39"/>
		</linearGradient>
		<path style="fill-rule:evenodd;clip-rule:evenodd;fill:url(#SVGID_00000154393291796896303030000008063776301249737906_);" d="
			M47.9,42.7v13.7V88c0,4.7-12.3-0.5-12.3-5.1V56.4V42.7c0,0.5,0.2,0.9,0.5,1.3c0.3,0.4,0.8,0.8,1.4,1.2c1.2,0.7,2.8,1,4.4,1
			c1.6,0,3.1-0.3,4.4-1c0.6-0.3,1.1-0.7,1.4-1.2C47.7,43.6,47.9,43.1,47.9,42.7z"/>
		
			<linearGradient id="SVGID_00000130609656670090016320000004148397424335697303_" gradientUnits="userSpaceOnUse" x1="35.5943" y1="65.8606" x2="47.898" y2="65.8606">
			<stop  offset="0" style="stop-color:#A07355"/>
			<stop  offset="0.21" style="stop-color:#623414"/>
			<stop  offset="0.59" style="stop-color:#422507"/>
			<stop  offset="0.78" style="stop-color:#3C2204"/>
			<stop  offset="0.89" style="stop-color:#4F2C0D"/>
			<stop  offset="1" style="stop-color:#875937"/>
		</linearGradient>
		<path style="fill-rule:evenodd;clip-rule:evenodd;fill:url(#SVGID_00000130609656670090016320000004148397424335697303_);" d="
			M47.9,42.4v13.7v31.4c0,4.7-12.3-0.3-12.3-5V56.1V42.4c0,0.5,0.2,0.9,0.5,1.3c0.3,0.4,0.8,0.8,1.4,1.2c1.2,0.7,2.8,1,4.4,1
			c1.6,0,3.1-0.3,4.4-1c0.6-0.3,1.1-0.7,1.4-1.2C47.7,43.3,47.9,42.8,47.9,42.4z"/>
		
			<linearGradient id="SVGID_00000077296046157633084280000009495285724711436426_" gradientUnits="userSpaceOnUse" x1="35.5943" y1="65.4676" x2="47.898" y2="65.4676">
			<stop  offset="0" style="stop-color:#9C6F51"/>
			<stop  offset="0.21" style="stop-color:#5F3313"/>
			<stop  offset="0.59" style="stop-color:#402407"/>
			<stop  offset="0.78" style="stop-color:#3B2003"/>
			<stop  offset="0.89" style="stop-color:#4E2B0D"/>
			<stop  offset="1" style="stop-color:#845735"/>
		</linearGradient>
		<path style="fill-rule:evenodd;clip-rule:evenodd;fill:url(#SVGID_00000077296046157633084280000009495285724711436426_);" d="
			M47.9,42.1v13.7v31.1c0,4.7-12.3-0.2-12.3-4.8V55.8V42.1c0,0.5,0.2,0.9,0.5,1.3c0.3,0.4,0.8,0.8,1.4,1.2c1.2,0.7,2.8,1,4.4,1
			c1.6,0,3.1-0.3,4.4-1c0.6-0.3,1.1-0.7,1.4-1.2C47.7,43,47.9,42.6,47.9,42.1z"/>
		
			<linearGradient id="SVGID_00000124866283305953221240000005754160379555449756_" gradientUnits="userSpaceOnUse" x1="35.5943" y1="65.0751" x2="47.898" y2="65.0751">
			<stop  offset="0" style="stop-color:#976C4D"/>
			<stop  offset="0.21" style="stop-color:#5D3213"/>
			<stop  offset="0.59" style="stop-color:#3F2206"/>
			<stop  offset="0.78" style="stop-color:#3A1F03"/>
			<stop  offset="0.89" style="stop-color:#4D2B0C"/>
			<stop  offset="1" style="stop-color:#815533"/>
		</linearGradient>
		<path style="fill-rule:evenodd;clip-rule:evenodd;fill:url(#SVGID_00000124866283305953221240000005754160379555449756_);" d="
			M47.9,41.8v13.7v30.9c0,4.7-12.3,0-12.3-4.7V55.5V41.8c0,0.5,0.2,0.9,0.5,1.3c0.3,0.4,0.8,0.8,1.4,1.2c1.2,0.7,2.8,1,4.4,1
			c1.6,0,3.1-0.3,4.4-1c0.6-0.3,1.1-0.7,1.4-1.2C47.7,42.7,47.9,42.3,47.9,41.8z"/>
		
			<linearGradient id="SVGID_00000011729672981602149650000006292483247101085623_" gradientUnits="userSpaceOnUse" x1="35.5943" y1="64.6831" x2="47.898" y2="64.6831">
			<stop  offset="0" style="stop-color:#936849"/>
			<stop  offset="0.21" style="stop-color:#5B3112"/>
			<stop  offset="0.59" style="stop-color:#3D2106"/>
			<stop  offset="0.78" style="stop-color:#381E03"/>
			<stop  offset="0.89" style="stop-color:#4B2A0C"/>
			<stop  offset="1" style="stop-color:#7E5332"/>
		</linearGradient>
		<path style="fill-rule:evenodd;clip-rule:evenodd;fill:url(#SVGID_00000011729672981602149650000006292483247101085623_);" d="
			M47.9,41.6v13.7v30.6c0,4.7-12.3,0.1-12.3-4.5V55.2V41.6c0,0.5,0.2,0.9,0.5,1.3c0.3,0.4,0.8,0.8,1.4,1.2c1.2,0.7,2.8,1,4.4,1
			c1.6,0,3.1-0.3,4.4-1c0.6-0.3,1.1-0.7,1.4-1.2C47.7,42.5,47.9,42,47.9,41.6z"/>
		
			<linearGradient id="SVGID_00000073689969465804759380000005332586733856393644_" gradientUnits="userSpaceOnUse" x1="35.5943" y1="64.2915" x2="47.898" y2="64.2915">
			<stop  offset="0" style="stop-color:#8E6446"/>
			<stop  offset="0.21" style="stop-color:#582F11"/>
			<stop  offset="0.59" style="stop-color:#3B2005"/>
			<stop  offset="0.78" style="stop-color:#371D02"/>
			<stop  offset="0.89" style="stop-color:#4A290C"/>
			<stop  offset="1" style="stop-color:#7B5030"/>
		</linearGradient>
		<path style="fill-rule:evenodd;clip-rule:evenodd;fill:url(#SVGID_00000073689969465804759380000005332586733856393644_);" d="
			M47.9,41.3V55v30.3c0,4.7-12.3,0.3-12.3-4.4V55V41.3c0,0.5,0.2,0.9,0.5,1.3c0.3,0.4,0.8,0.8,1.4,1.2c1.2,0.7,2.8,1,4.4,1
			c1.6,0,3.1-0.3,4.4-1c0.6-0.3,1.1-0.7,1.4-1.2C47.7,42.2,47.9,41.7,47.9,41.3z"/>
		
			<linearGradient id="SVGID_00000116928551551807059800000010206381156947660685_" gradientUnits="userSpaceOnUse" x1="35.5943" y1="63.9005" x2="47.898" y2="63.9005">
			<stop  offset="0" style="stop-color:#8A6042"/>
			<stop  offset="0.21" style="stop-color:#562E11"/>
			<stop  offset="0.59" style="stop-color:#3A1E05"/>
			<stop  offset="0.78" style="stop-color:#361C02"/>
			<stop  offset="0.89" style="stop-color:#49280B"/>
			<stop  offset="1" style="stop-color:#784E2E"/>
		</linearGradient>
		<path style="fill-rule:evenodd;clip-rule:evenodd;fill:url(#SVGID_00000116928551551807059800000010206381156947660685_);" d="
			M47.9,41v13.7v30.1c0,4.7-12.3,0.5-12.3-4.2V54.7V41c0,0.5,0.2,0.9,0.5,1.3c0.3,0.4,0.8,0.8,1.4,1.2c1.2,0.7,2.8,1,4.4,1
			c1.6,0,3.1-0.3,4.4-1c0.6-0.3,1.1-0.7,1.4-1.2C47.7,41.9,47.9,41.5,47.9,41z"/>
		
			<linearGradient id="SVGID_00000139280221164688998200000012625162828689212059_" gradientUnits="userSpaceOnUse" x1="35.5943" y1="63.51" x2="47.898" y2="63.51">
			<stop  offset="0" style="stop-color:#855D3F"/>
			<stop  offset="0.21" style="stop-color:#542D10"/>
			<stop  offset="0.59" style="stop-color:#381D04"/>
			<stop  offset="0.78" style="stop-color:#341A01"/>
			<stop  offset="0.89" style="stop-color:#48270B"/>
			<stop  offset="1" style="stop-color:#754C2C"/>
		</linearGradient>
		<path style="fill-rule:evenodd;clip-rule:evenodd;fill:url(#SVGID_00000139280221164688998200000012625162828689212059_);" d="
			M47.9,40.7v13.7v29.8c0,4.7-12.3,0.6-12.3-4V54.4V40.7c0,0.5,0.2,0.9,0.5,1.3c0.3,0.4,0.8,0.8,1.4,1.2c1.2,0.7,2.8,1,4.4,1
			c1.6,0,3.1-0.3,4.4-1c0.6-0.3,1.1-0.7,1.4-1.2C47.7,41.6,47.9,41.2,47.9,40.7z"/>
		
			<linearGradient id="SVGID_00000015313460341102752840000018204681908195825554_" gradientUnits="userSpaceOnUse" x1="35.5943" y1="63.1201" x2="47.898" y2="63.1201">
			<stop  offset="0" style="stop-color:#81593B"/>
			<stop  offset="0.21" style="stop-color:#512C0F"/>
			<stop  offset="0.59" style="stop-color:#371B03"/>
			<stop  offset="0.78" style="stop-color:#331901"/>
			<stop  offset="0.89" style="stop-color:#46270A"/>
			<stop  offset="1" style="stop-color:#724A2B"/>
		</linearGradient>
		<path style="fill-rule:evenodd;clip-rule:evenodd;fill:url(#SVGID_00000015313460341102752840000018204681908195825554_);" d="
			M47.9,40.4v13.7v29.6c0,4.7-12.3,0.8-12.3-3.9V54.1V40.4c0,0.5,0.2,0.9,0.5,1.3c0.3,0.4,0.8,0.8,1.4,1.2c1.2,0.7,2.8,1,4.4,1
			c1.6,0,3.1-0.3,4.4-1c0.6-0.3,1.1-0.7,1.4-1.2C47.7,41.3,47.9,40.9,47.9,40.4z"/>
		
			<linearGradient id="SVGID_00000098927838001081833530000015516277864461235608_" gradientUnits="userSpaceOnUse" x1="35.5943" y1="62.7307" x2="47.898" y2="62.7307">
			<stop  offset="0" style="stop-color:#7C5538"/>
			<stop  offset="0.21" style="stop-color:#4F2B0E"/>
			<stop  offset="0.59" style="stop-color:#351A03"/>
			<stop  offset="0.78" style="stop-color:#321801"/>
			<stop  offset="0.89" style="stop-color:#45260A"/>
			<stop  offset="1" style="stop-color:#6F4829"/>
		</linearGradient>
		<path style="fill-rule:evenodd;clip-rule:evenodd;fill:url(#SVGID_00000098927838001081833530000015516277864461235608_);" d="
			M47.9,40.2v13.7v29.3c0,4.7-12.3,0.9-12.3-3.7V53.9V40.2c0,0.5,0.2,0.9,0.5,1.3c0.3,0.4,0.8,0.8,1.4,1.2c1.2,0.7,2.8,1,4.4,1
			c1.6,0,3.1-0.3,4.4-1c0.6-0.3,1.1-0.7,1.4-1.2C47.7,41.1,47.9,40.6,47.9,40.2z"/>
		
			<linearGradient id="SVGID_00000059311225824794502740000004006569943698738623_" gradientUnits="userSpaceOnUse" x1="35.5943" y1="62.342" x2="47.898" y2="62.342">
			<stop  offset="0" style="stop-color:#785234"/>
			<stop  offset="0.21" style="stop-color:#4D290E"/>
			<stop  offset="0.59" style="stop-color:#331802"/>
			<stop  offset="0.78" style="stop-color:#301600"/>
			<stop  offset="0.89" style="stop-color:#442509"/>
			<stop  offset="1" style="stop-color:#6C4627"/>
		</linearGradient>
		<path style="fill-rule:evenodd;clip-rule:evenodd;fill:url(#SVGID_00000059311225824794502740000004006569943698738623_);" d="
			M47.9,39.9v13.7v29c0,4.7-12.3,1.1-12.3-3.6V53.6V39.9c0,0.5,0.2,0.9,0.5,1.3c0.3,0.4,0.8,0.8,1.4,1.2c1.2,0.7,2.8,1,4.4,1
			c1.6,0,3.1-0.3,4.4-1c0.6-0.3,1.1-0.7,1.4-1.2C47.7,40.8,47.9,40.3,47.9,39.9z"/>
		
			<linearGradient id="SVGID_00000060728503088823175120000007050829347606577074_" gradientUnits="userSpaceOnUse" x1="35.5943" y1="61.9539" x2="47.898" y2="61.9539">
			<stop  offset="0" style="stop-color:#744E31"/>
			<stop  offset="0.21" style="stop-color:#4A280D"/>
			<stop  offset="0.59" style="stop-color:#321701"/>
			<stop  offset="0.78" style="stop-color:#2F1500"/>
			<stop  offset="0.89" style="stop-color:#432409"/>
			<stop  offset="1" style="stop-color:#6A4426"/>
		</linearGradient>
		<path style="fill-rule:evenodd;clip-rule:evenodd;fill:url(#SVGID_00000060728503088823175120000007050829347606577074_);" d="
			M47.9,39.6v13.7v28.8c0,4.7-12.3,1.2-12.3-3.4V53.3V39.6c0,0.5,0.2,0.9,0.5,1.3c0.3,0.4,0.8,0.8,1.4,1.2c1.2,0.7,2.8,1,4.4,1
			c1.6,0,3.1-0.3,4.4-1c0.6-0.3,1.1-0.7,1.4-1.2C47.7,40.5,47.9,40.1,47.9,39.6z"/>
		
			<linearGradient id="SVGID_00000088821985820447360660000002230183105434071955_" gradientUnits="userSpaceOnUse" x1="35.5943" y1="61.5664" x2="47.898" y2="61.5664">
			<stop  offset="0" style="stop-color:#704B2E"/>
			<stop  offset="0.21" style="stop-color:#48270C"/>
			<stop  offset="0.59" style="stop-color:#301501"/>
			<stop  offset="0.78" style="stop-color:#2E1400"/>
			<stop  offset="0.89" style="stop-color:#412408"/>
			<stop  offset="1" style="stop-color:#674224"/>
		</linearGradient>
		<path style="fill-rule:evenodd;clip-rule:evenodd;fill:url(#SVGID_00000088821985820447360660000002230183105434071955_);" d="
			M47.9,39.3V53v28.5c0,4.7-12.3,1.4-12.3-3.2V53V39.3c0,0.5,0.2,0.9,0.5,1.3c0.3,0.4,0.8,0.8,1.4,1.2c1.2,0.7,2.8,1,4.4,1
			c1.6,0,3.1-0.3,4.4-1c0.6-0.3,1.1-0.7,1.4-1.2C47.7,40.2,47.9,39.8,47.9,39.3z"/>
		
			<linearGradient id="SVGID_00000049916409533120042110000013827317657726813324_" gradientUnits="userSpaceOnUse" x1="35.5943" y1="61.1796" x2="47.898" y2="61.1796">
			<stop  offset="0" style="stop-color:#6C472A"/>
			<stop  offset="0.21" style="stop-color:#46260B"/>
			<stop  offset="0.59" style="stop-color:#2E1400"/>
			<stop  offset="0.78" style="stop-color:#2C1200"/>
			<stop  offset="0.89" style="stop-color:#402307"/>
			<stop  offset="1" style="stop-color:#644022"/>
		</linearGradient>
		<path style="fill-rule:evenodd;clip-rule:evenodd;fill:url(#SVGID_00000049916409533120042110000013827317657726813324_);" d="
			M47.9,39v13.7V81c0,4.7-12.3,1.6-12.3-3.1V52.7V39c0,0.5,0.2,0.9,0.5,1.3c0.3,0.4,0.8,0.8,1.4,1.2c1.2,0.7,2.8,1,4.4,1
			c1.6,0,3.1-0.3,4.4-1c0.6-0.3,1.1-0.7,1.4-1.2C47.7,40,47.9,39.5,47.9,39z"/>
		
			<linearGradient id="SVGID_00000054961807035581449480000010144672394983364761_" gradientUnits="userSpaceOnUse" x1="35.5943" y1="60.7935" x2="47.898" y2="60.7935">
			<stop  offset="0" style="stop-color:#684427"/>
			<stop  offset="0.21" style="stop-color:#44240A"/>
			<stop  offset="0.59" style="stop-color:#2D1200"/>
			<stop  offset="0.78" style="stop-color:#2B1100"/>
			<stop  offset="0.89" style="stop-color:#3F2207"/>
			<stop  offset="1" style="stop-color:#613E21"/>
		</linearGradient>
		<path style="fill-rule:evenodd;clip-rule:evenodd;fill:url(#SVGID_00000054961807035581449480000010144672394983364761_);" d="
			M47.9,38.8v13.7v28c0,4.7-12.3,1.7-12.3-2.9V52.5V38.8c0,0.5,0.2,0.9,0.5,1.3c0.3,0.4,0.8,0.8,1.4,1.2c1.2,0.7,2.8,1,4.4,1
			c1.6,0,3.1-0.3,4.4-1c0.6-0.3,1.1-0.7,1.4-1.2C47.7,39.7,47.9,39.2,47.9,38.8z"/>
		
			<linearGradient id="SVGID_00000010268758603048801260000012894585544740665776_" gradientUnits="userSpaceOnUse" x1="35.5943" y1="60.4081" x2="47.898" y2="60.4081">
			<stop  offset="0" style="stop-color:#644124"/>
			<stop  offset="0.21" style="stop-color:#422309"/>
			<stop  offset="0.59" style="stop-color:#2B1000"/>
			<stop  offset="0.78" style="stop-color:#2A0F00"/>
			<stop  offset="0.89" style="stop-color:#3E2106"/>
			<stop  offset="1" style="stop-color:#5F3C1F"/>
		</linearGradient>
		<path style="fill-rule:evenodd;clip-rule:evenodd;fill:url(#SVGID_00000010268758603048801260000012894585544740665776_);" d="
			M47.9,38.5v13.7v27.7c0,4.7-12.3,1.9-12.3-2.8v-25V38.5c0,0.5,0.2,0.9,0.5,1.3c0.3,0.4,0.8,0.8,1.4,1.2c1.2,0.7,2.8,1,4.4,1
			c1.6,0,3.1-0.3,4.4-1c0.6-0.3,1.1-0.7,1.4-1.2C47.7,39.4,47.9,38.9,47.9,38.5z"/>
		
			<linearGradient id="SVGID_00000039119510736554690430000005933351085208877705_" gradientUnits="userSpaceOnUse" x1="35.5943" y1="60.0234" x2="47.898" y2="60.0234">
			<stop  offset="0" style="stop-color:#603D21"/>
			<stop  offset="0.21" style="stop-color:#3F2208"/>
			<stop  offset="0.59" style="stop-color:#290E00"/>
			<stop  offset="0.78" style="stop-color:#280D00"/>
			<stop  offset="0.89" style="stop-color:#3D2006"/>
			<stop  offset="1" style="stop-color:#5C3A1D"/>
		</linearGradient>
		<path style="fill-rule:evenodd;clip-rule:evenodd;fill:url(#SVGID_00000039119510736554690430000005933351085208877705_);" d="
			M47.9,38.2v13.7v27.5c0,4.7-12.3,2-12.3-2.6V51.9V38.2c0,0.5,0.2,0.9,0.5,1.3c0.3,0.4,0.8,0.8,1.4,1.2c1.2,0.7,2.8,1,4.4,1
			c1.6,0,3.1-0.3,4.4-1c0.6-0.3,1.1-0.7,1.4-1.2C47.7,39.1,47.9,38.7,47.9,38.2z"/>
		
			<linearGradient id="SVGID_00000182505411823363527180000000739096894652706735_" gradientUnits="userSpaceOnUse" x1="35.5943" y1="59.6395" x2="47.898" y2="59.6395">
			<stop  offset="0" style="stop-color:#5C3A1E"/>
			<stop  offset="0.21" style="stop-color:#3D2107"/>
			<stop  offset="0.59" style="stop-color:#280C00"/>
			<stop  offset="0.78" style="stop-color:#270C00"/>
			<stop  offset="0.89" style="stop-color:#3B2005"/>
			<stop  offset="1" style="stop-color:#5A381C"/>
		</linearGradient>
		<path style="fill-rule:evenodd;clip-rule:evenodd;fill:url(#SVGID_00000182505411823363527180000000739096894652706735_);" d="
			M47.9,37.9v13.7v27.2c0,4.7-12.3,2.2-12.3-2.5V51.6V37.9c0,0.5,0.2,0.9,0.5,1.3c0.3,0.4,0.8,0.8,1.4,1.2c1.2,0.7,2.8,1,4.4,1
			c1.6,0,3.1-0.3,4.4-1c0.6-0.3,1.1-0.7,1.4-1.2C47.7,38.8,47.9,38.4,47.9,37.9z"/>
		
			<linearGradient id="SVGID_00000179624665069314300700000012745684199959841685_" gradientUnits="userSpaceOnUse" x1="35.5943" y1="59.2564" x2="47.898" y2="59.2564">
			<stop  offset="0" style="stop-color:#58371B"/>
			<stop  offset="0.21" style="stop-color:#3B1F06"/>
			<stop  offset="0.59" style="stop-color:#260A00"/>
			<stop  offset="0.78" style="stop-color:#260A00"/>
			<stop  offset="0.89" style="stop-color:#3A1F05"/>
			<stop  offset="1" style="stop-color:#57361A"/>
		</linearGradient>
		<path style="fill-rule:evenodd;clip-rule:evenodd;fill:url(#SVGID_00000179624665069314300700000012745684199959841685_);" d="
			M47.9,37.7v13.7v27c0,4.7-12.3,2.4-12.3-2.3V51.3V37.7c0,0.5,0.2,0.9,0.5,1.3c0.3,0.4,0.8,0.8,1.4,1.2c1.2,0.7,2.8,1,4.4,1
			c1.6,0,3.1-0.3,4.4-1c0.6-0.3,1.1-0.7,1.4-1.2C47.7,38.6,47.9,38.1,47.9,37.7z"/>
		
			<linearGradient id="SVGID_00000027577204676905148640000009067241054870945967_" gradientUnits="userSpaceOnUse" x1="35.5943" y1="58.8741" x2="47.898" y2="58.8741">
			<stop  offset="0" style="stop-color:#543418"/>
			<stop  offset="0.21" style="stop-color:#391E04"/>
			<stop  offset="0.59" style="stop-color:#240800"/>
			<stop  offset="0.78" style="stop-color:#240800"/>
			<stop  offset="0.89" style="stop-color:#391E04"/>
			<stop  offset="1" style="stop-color:#543418"/>
		</linearGradient>
		<path style="fill-rule:evenodd;clip-rule:evenodd;fill:url(#SVGID_00000027577204676905148640000009067241054870945967_);" d="
			M47.9,37.4v13.7v26.7c0,4.7-12.3,2.5-12.3-2.1V51.1V37.4c0,0.5,0.2,0.9,0.5,1.3c0.3,0.4,0.8,0.8,1.4,1.2c1.2,0.7,2.8,1,4.4,1
			c1.6,0,3.1-0.3,4.4-1c0.6-0.3,1.1-0.7,1.4-1.2C47.7,38.3,47.9,37.8,47.9,37.4z"/>
	</g>
	<g>
		
			<linearGradient id="SVGID_00000039094167361917782180000000410349919089596860_" gradientUnits="userSpaceOnUse" x1="14.1229" y1="10.4402" x2="68.4924" y2="64.8097">
			<stop  offset="0" style="stop-color:#C9DC4E"/>
			<stop  offset="1" style="stop-color:#7F9446"/>
		</linearGradient>
		<path style="fill-rule:evenodd;clip-rule:evenodd;fill:url(#SVGID_00000039094167361917782180000000410349919089596860_);" d="
			M41.7,76.1c21,0,38.1-17.1,38.1-38.1C79.8,17.1,62.7,0,41.7,0C20.8,0,3.7,17.1,3.7,38.1C3.7,59,20.8,76.1,41.7,76.1z"/>
		
			<linearGradient id="SVGID_00000008110602603398063450000018261168584991538861_" gradientUnits="userSpaceOnUse" x1="14.7551" y1="11.0725" x2="67.9087" y2="64.2261">
			<stop  offset="0" style="stop-color:#C8DB4D"/>
			<stop  offset="1" style="stop-color:#7D9345"/>
		</linearGradient>
		<path style="fill-rule:evenodd;clip-rule:evenodd;fill:url(#SVGID_00000008110602603398063450000018261168584991538861_);" d="
			M41.7,75.8c20.8,0,37.8-17,37.8-37.8c0-20.8-17-37.8-37.8-37.8C21,0.3,4,17.3,4,38.1C4,58.9,21,75.8,41.7,75.8z"/>
		
			<linearGradient id="SVGID_00000075884537655750506320000001363089024547450267_" gradientUnits="userSpaceOnUse" x1="15.3806" y1="11.698" x2="67.3311" y2="63.6485">
			<stop  offset="0" style="stop-color:#C8DB4D"/>
			<stop  offset="1" style="stop-color:#7B9244"/>
		</linearGradient>
		<path style="fill-rule:evenodd;clip-rule:evenodd;fill:url(#SVGID_00000075884537655750506320000001363089024547450267_);" d="
			M41.7,75.5c20.6,0,37.4-16.8,37.4-37.4c0-20.6-16.8-37.4-37.4-37.4C21.1,0.6,4.3,17.4,4.3,38.1C4.3,58.7,21.1,75.5,41.7,75.5z"/>
		
			<linearGradient id="SVGID_00000177460012465319204260000013913531848917803152_" gradientUnits="userSpaceOnUse" x1="15.9994" y1="12.3168" x2="66.7595" y2="63.0769">
			<stop  offset="0" style="stop-color:#C7DB4D"/>
			<stop  offset="1" style="stop-color:#799144"/>
		</linearGradient>
		
			<circle style="fill-rule:evenodd;clip-rule:evenodd;fill:url(#SVGID_00000177460012465319204260000013913531848917803152_);" cx="41.7" cy="38.1" r="37.1"/>
		
			<linearGradient id="SVGID_00000026852969098975104420000000559749449131447683_" gradientUnits="userSpaceOnUse" x1="16.6116" y1="12.929" x2="66.1939" y2="62.5113">
			<stop  offset="0" style="stop-color:#C6DA4D"/>
			<stop  offset="1" style="stop-color:#779043"/>
		</linearGradient>
		
			<circle style="fill-rule:evenodd;clip-rule:evenodd;fill:url(#SVGID_00000026852969098975104420000000559749449131447683_);" cx="41.7" cy="38.1" r="36.8"/>
		
			<linearGradient id="SVGID_00000069377545984641400230000005090513009369368502_" gradientUnits="userSpaceOnUse" x1="17.217" y1="13.5344" x2="65.6344" y2="61.9518">
			<stop  offset="0" style="stop-color:#C5DA4C"/>
			<stop  offset="1" style="stop-color:#748F43"/>
		</linearGradient>
		
			<circle style="fill-rule:evenodd;clip-rule:evenodd;fill:url(#SVGID_00000069377545984641400230000005090513009369368502_);" cx="41.7" cy="38.1" r="36.5"/>
		
			<linearGradient id="SVGID_00000050635753471289263790000008649791206801703349_" gradientUnits="userSpaceOnUse" x1="17.8157" y1="14.1331" x2="65.0809" y2="61.3983">
			<stop  offset="0" style="stop-color:#C5DA4C"/>
			<stop  offset="1" style="stop-color:#728E42"/>
		</linearGradient>
		
			<circle style="fill-rule:evenodd;clip-rule:evenodd;fill:url(#SVGID_00000050635753471289263790000008649791206801703349_);" cx="41.7" cy="38.1" r="36.2"/>
		
			<linearGradient id="SVGID_00000009559465451082753790000015892382934716262058_" gradientUnits="userSpaceOnUse" x1="18.4076" y1="14.7251" x2="64.5334" y2="60.8508">
			<stop  offset="0" style="stop-color:#C4DA4C"/>
			<stop  offset="1" style="stop-color:#708D41"/>
		</linearGradient>
		
			<circle style="fill-rule:evenodd;clip-rule:evenodd;fill:url(#SVGID_00000009559465451082753790000015892382934716262058_);" cx="41.7" cy="38.1" r="35.9"/>
		
			<linearGradient id="SVGID_00000048493868434972468550000015741792760738620840_" gradientUnits="userSpaceOnUse" x1="18.9929" y1="15.3104" x2="63.9919" y2="60.3094">
			<stop  offset="0" style="stop-color:#C3D94B"/>
			<stop  offset="1" style="stop-color:#6E8C41"/>
		</linearGradient>
		
			<circle style="fill-rule:evenodd;clip-rule:evenodd;fill:url(#SVGID_00000048493868434972468550000015741792760738620840_);" cx="41.7" cy="38.1" r="35.6"/>
		
			<linearGradient id="SVGID_00000065041911177174283200000018291808363768959126_" gradientUnits="userSpaceOnUse" x1="19.5715" y1="15.889" x2="63.4565" y2="59.7739">
			<stop  offset="0" style="stop-color:#C2D94B"/>
			<stop  offset="1" style="stop-color:#6C8B40"/>
		</linearGradient>
		
			<circle style="fill-rule:evenodd;clip-rule:evenodd;fill:url(#SVGID_00000065041911177174283200000018291808363768959126_);" cx="41.7" cy="38.1" r="35.3"/>
		
			<linearGradient id="SVGID_00000072275969789099415980000017892753623364165785_" gradientUnits="userSpaceOnUse" x1="20.1433" y1="16.4608" x2="62.927" y2="59.2445">
			<stop  offset="0" style="stop-color:#C1D94B"/>
			<stop  offset="1" style="stop-color:#6A8A40"/>
		</linearGradient>
		
			<circle style="fill-rule:evenodd;clip-rule:evenodd;fill:url(#SVGID_00000072275969789099415980000017892753623364165785_);" cx="41.7" cy="38.1" r="34.9"/>
		
			<linearGradient id="SVGID_00000131346983359581140730000013589375092451942808_" gradientUnits="userSpaceOnUse" x1="20.7085" y1="17.026" x2="62.4036" y2="58.7211">
			<stop  offset="0" style="stop-color:#C1D84B"/>
			<stop  offset="1" style="stop-color:#68893F"/>
		</linearGradient>
		
			<circle style="fill-rule:evenodd;clip-rule:evenodd;fill:url(#SVGID_00000131346983359581140730000013589375092451942808_);" cx="41.7" cy="38.1" r="34.6"/>
		
			<linearGradient id="SVGID_00000106829325180606343210000018208657149792875925_" gradientUnits="userSpaceOnUse" x1="21.2669" y1="17.5845" x2="61.8863" y2="58.2038">
			<stop  offset="0" style="stop-color:#C0D84A"/>
			<stop  offset="1" style="stop-color:#66883F"/>
		</linearGradient>
		
			<circle style="fill-rule:evenodd;clip-rule:evenodd;fill:url(#SVGID_00000106829325180606343210000018208657149792875925_);" cx="41.7" cy="38.1" r="34.3"/>
		
			<linearGradient id="SVGID_00000165218236493939235040000009902558338402038437_" gradientUnits="userSpaceOnUse" x1="21.8187" y1="18.1362" x2="61.3749" y2="57.6925">
			<stop  offset="0" style="stop-color:#BFD84A"/>
			<stop  offset="1" style="stop-color:#64873E"/>
		</linearGradient>
		
			<circle style="fill-rule:evenodd;clip-rule:evenodd;fill:url(#SVGID_00000165218236493939235040000009902558338402038437_);" cx="41.7" cy="38.1" r="34"/>
		
			<linearGradient id="SVGID_00000145749128690136307730000010962935735424000155_" gradientUnits="userSpaceOnUse" x1="22.3637" y1="18.6812" x2="60.8696" y2="57.1871">
			<stop  offset="0" style="stop-color:#BED74A"/>
			<stop  offset="1" style="stop-color:#62863E"/>
		</linearGradient>
		
			<circle style="fill-rule:evenodd;clip-rule:evenodd;fill:url(#SVGID_00000145749128690136307730000010962935735424000155_);" cx="41.7" cy="38.1" r="33.7"/>
		
			<linearGradient id="SVGID_00000003091599473639327840000006017077706475214013_" gradientUnits="userSpaceOnUse" x1="22.902" y1="19.2196" x2="60.3703" y2="56.6879">
			<stop  offset="0" style="stop-color:#BED74A"/>
			<stop  offset="1" style="stop-color:#60853D"/>
		</linearGradient>
		
			<circle style="fill-rule:evenodd;clip-rule:evenodd;fill:url(#SVGID_00000003091599473639327840000006017077706475214013_);" cx="41.7" cy="38.1" r="33.4"/>
		
			<linearGradient id="SVGID_00000164488375481695461450000011249256553296361106_" gradientUnits="userSpaceOnUse" x1="23.4336" y1="19.7512" x2="59.877" y2="56.1946">
			<stop  offset="0" style="stop-color:#BDD749"/>
			<stop  offset="1" style="stop-color:#5D843D"/>
		</linearGradient>
		
			<circle style="fill-rule:evenodd;clip-rule:evenodd;fill:url(#SVGID_00000164488375481695461450000011249256553296361106_);" cx="41.7" cy="38.1" r="33.1"/>
		
			<linearGradient id="SVGID_00000003820291503789594090000006623369918349177534_" gradientUnits="userSpaceOnUse" x1="23.9585" y1="20.2761" x2="59.3898" y2="55.7074">
			<stop  offset="0" style="stop-color:#BCD749"/>
			<stop  offset="1" style="stop-color:#5B843C"/>
		</linearGradient>
		
			<circle style="fill-rule:evenodd;clip-rule:evenodd;fill:url(#SVGID_00000003820291503789594090000006623369918349177534_);" cx="41.7" cy="38.1" r="32.8"/>
		
			<linearGradient id="SVGID_00000114041458141087806160000018002024760112534937_" gradientUnits="userSpaceOnUse" x1="24.4767" y1="20.7943" x2="58.9085" y2="55.2261">
			<stop  offset="0" style="stop-color:#BBD649"/>
			<stop  offset="1" style="stop-color:#59833C"/>
		</linearGradient>
		
			<circle style="fill-rule:evenodd;clip-rule:evenodd;fill:url(#SVGID_00000114041458141087806160000018002024760112534937_);" cx="41.7" cy="38.1" r="32.4"/>
		
			<linearGradient id="SVGID_00000050652787089847368800000011398018646536190638_" gradientUnits="userSpaceOnUse" x1="24.9882" y1="21.3058" x2="58.4333" y2="54.7509">
			<stop  offset="0" style="stop-color:#BAD649"/>
			<stop  offset="1" style="stop-color:#57823B"/>
		</linearGradient>
		
			<circle style="fill-rule:evenodd;clip-rule:evenodd;fill:url(#SVGID_00000050652787089847368800000011398018646536190638_);" cx="41.7" cy="38.1" r="32.1"/>
		
			<linearGradient id="SVGID_00000058577233436097192890000009922103990127568522_" gradientUnits="userSpaceOnUse" x1="25.493" y1="21.8106" x2="57.9642" y2="54.2818">
			<stop  offset="0" style="stop-color:#BAD648"/>
			<stop  offset="1" style="stop-color:#55813B"/>
		</linearGradient>
		
			<circle style="fill-rule:evenodd;clip-rule:evenodd;fill:url(#SVGID_00000058577233436097192890000009922103990127568522_);" cx="41.7" cy="38.1" r="31.8"/>
		
			<linearGradient id="SVGID_00000146488718212812837020000005481728460966401671_" gradientUnits="userSpaceOnUse" x1="25.991" y1="22.3087" x2="57.501" y2="53.8186">
			<stop  offset="0" style="stop-color:#B9D548"/>
			<stop  offset="1" style="stop-color:#53803B"/>
		</linearGradient>
		
			<circle style="fill-rule:evenodd;clip-rule:evenodd;fill:url(#SVGID_00000146488718212812837020000005481728460966401671_);" cx="41.7" cy="38.1" r="31.5"/>
		
			<linearGradient id="SVGID_00000096023364240814214680000003931666938934247327_" gradientUnits="userSpaceOnUse" x1="26.028" y1="22.3456" x2="56.848" y2="53.1656">
			<stop  offset="0" style="stop-color:#B8D548"/>
			<stop  offset="1" style="stop-color:#55823B"/>
		</linearGradient>
		
			<circle style="fill-rule:evenodd;clip-rule:evenodd;fill:url(#SVGID_00000096023364240814214680000003931666938934247327_);" cx="41.5" cy="37.8" r="30.6"/>
		
			<linearGradient id="SVGID_00000057108273940278035300000015930035679314272654_" gradientUnits="userSpaceOnUse" x1="26.0713" y1="22.389" x2="56.1909" y2="52.5085">
			<stop  offset="0" style="stop-color:#B8D548"/>
			<stop  offset="1" style="stop-color:#57843B"/>
		</linearGradient>
		
			<circle style="fill-rule:evenodd;clip-rule:evenodd;fill:url(#SVGID_00000057108273940278035300000015930035679314272654_);" cx="41.2" cy="37.5" r="29.8"/>
		
			<linearGradient id="SVGID_00000044888907342163853540000014335127948096121778_" gradientUnits="userSpaceOnUse" x1="26.121" y1="22.4386" x2="55.5297" y2="51.8474">
			<stop  offset="0" style="stop-color:#B7D448"/>
			<stop  offset="1" style="stop-color:#59873C"/>
		</linearGradient>
		
			<circle style="fill-rule:evenodd;clip-rule:evenodd;fill:url(#SVGID_00000044888907342163853540000014335127948096121778_);" cx="40.9" cy="37.2" r="28.9"/>
		
			<linearGradient id="SVGID_00000111904060583782347580000000881025204240426386_" gradientUnits="userSpaceOnUse" x1="26.1771" y1="22.4947" x2="54.8645" y2="51.1822">
			<stop  offset="0" style="stop-color:#B7D448"/>
			<stop  offset="1" style="stop-color:#5B893C"/>
		</linearGradient>
		
			<circle style="fill-rule:evenodd;clip-rule:evenodd;fill:url(#SVGID_00000111904060583782347580000000881025204240426386_);" cx="40.6" cy="36.9" r="28"/>
		
			<linearGradient id="SVGID_00000139972448337996903460000007218749902560962200_" gradientUnits="userSpaceOnUse" x1="26.2395" y1="22.5571" x2="54.1952" y2="50.5129">
			<stop  offset="0" style="stop-color:#B6D448"/>
			<stop  offset="1" style="stop-color:#5D8C3C"/>
		</linearGradient>
		
			<circle style="fill-rule:evenodd;clip-rule:evenodd;fill:url(#SVGID_00000139972448337996903460000007218749902560962200_);" cx="40.3" cy="36.6" r="27.1"/>
		
			<linearGradient id="SVGID_00000055701613814666347690000013814806022956029869_" gradientUnits="userSpaceOnUse" x1="26.3083" y1="22.6259" x2="53.5219" y2="49.8395">
			<stop  offset="0" style="stop-color:#B5D348"/>
			<stop  offset="1" style="stop-color:#608E3D"/>
		</linearGradient>
		
			<circle style="fill-rule:evenodd;clip-rule:evenodd;fill:url(#SVGID_00000055701613814666347690000013814806022956029869_);" cx="40" cy="36.3" r="26.3"/>
		
			<linearGradient id="SVGID_00000148634256867330785950000007033140874444913550_" gradientUnits="userSpaceOnUse" x1="26.3834" y1="22.701" x2="52.8445" y2="49.1621">
			<stop  offset="0" style="stop-color:#B5D348"/>
			<stop  offset="1" style="stop-color:#62913D"/>
		</linearGradient>
		<path style="fill-rule:evenodd;clip-rule:evenodd;fill:url(#SVGID_00000148634256867330785950000007033140874444913550_);" d="
			M39.7,61.4c14,0,25.4-11.4,25.4-25.4S53.7,10.7,39.7,10.7c-14,0-25.4,11.4-25.4,25.4S25.7,61.4,39.7,61.4z"/>
		
			<linearGradient id="SVGID_00000095324896362742131350000014036087880969014425_" gradientUnits="userSpaceOnUse" x1="26.4649" y1="22.7825" x2="52.163" y2="48.4806">
			<stop  offset="0" style="stop-color:#B4D348"/>
			<stop  offset="1" style="stop-color:#64933D"/>
		</linearGradient>
		<path style="fill-rule:evenodd;clip-rule:evenodd;fill:url(#SVGID_00000095324896362742131350000014036087880969014425_);" d="
			M39.4,60.3C53,60.3,64,49.3,64,35.8S53,11.2,39.4,11.2c-13.5,0-24.5,11-24.5,24.5S25.9,60.3,39.4,60.3z"/>
		
			<linearGradient id="SVGID_00000098206155703042449890000002557249087653383845_" gradientUnits="userSpaceOnUse" x1="26.5528" y1="22.8704" x2="51.4774" y2="47.795">
			<stop  offset="0" style="stop-color:#B4D247"/>
			<stop  offset="1" style="stop-color:#66963E"/>
		</linearGradient>
		<path style="fill-rule:evenodd;clip-rule:evenodd;fill:url(#SVGID_00000098206155703042449890000002557249087653383845_);" d="
			M39.2,59.1c13,0,23.7-10.6,23.7-23.7S52.2,11.8,39.2,11.8c-13,0-23.7,10.6-23.7,23.7S26.1,59.1,39.2,59.1z"/>
		
			<linearGradient id="SVGID_00000121992870622622614780000012033307659957197977_" gradientUnits="userSpaceOnUse" x1="26.647" y1="22.9646" x2="50.7878" y2="47.1054">
			<stop  offset="0" style="stop-color:#B3D247"/>
			<stop  offset="1" style="stop-color:#69983E"/>
		</linearGradient>
		<path style="fill-rule:evenodd;clip-rule:evenodd;fill:url(#SVGID_00000121992870622622614780000012033307659957197977_);" d="
			M38.9,58c12.5,0,22.8-10.2,22.8-22.8S51.4,12.4,38.9,12.4c-12.5,0-22.8,10.2-22.8,22.8S26.3,58,38.9,58z"/>
		
			<linearGradient id="SVGID_00000071539962050487037580000012792047359907228326_" gradientUnits="userSpaceOnUse" x1="26.7476" y1="23.0652" x2="50.0941" y2="46.4117">
			<stop  offset="0" style="stop-color:#B3D247"/>
			<stop  offset="1" style="stop-color:#6B9B3E"/>
		</linearGradient>
		<path style="fill-rule:evenodd;clip-rule:evenodd;fill:url(#SVGID_00000071539962050487037580000012792047359907228326_);" d="
			M38.6,56.8c12.1,0,21.9-9.8,21.9-21.9S50.6,13,38.6,13c-12.1,0-21.9,9.8-21.9,21.9S26.5,56.8,38.6,56.8z"/>
		
			<linearGradient id="SVGID_00000034090826996459317180000015354122371073057468_" gradientUnits="userSpaceOnUse" x1="26.8546" y1="23.1722" x2="49.3964" y2="45.714">
			<stop  offset="0" style="stop-color:#B2D147"/>
			<stop  offset="1" style="stop-color:#6D9D3E"/>
		</linearGradient>
		<path style="fill-rule:evenodd;clip-rule:evenodd;fill:url(#SVGID_00000034090826996459317180000015354122371073057468_);" d="
			M38.3,55.6c11.6,0,21-9.4,21-21s-9.4-21-21-21c-11.6,0-21,9.4-21,21S26.7,55.6,38.3,55.6z"/>
		
			<linearGradient id="SVGID_00000042724731414858665950000008118488948151793853_" gradientUnits="userSpaceOnUse" x1="26.9679" y1="23.2855" x2="48.6946" y2="45.0122">
			<stop  offset="0" style="stop-color:#B1D147"/>
			<stop  offset="1" style="stop-color:#70A03F"/>
		</linearGradient>
		<path style="fill-rule:evenodd;clip-rule:evenodd;fill:url(#SVGID_00000042724731414858665950000008118488948151793853_);" d="
			M38,54.5c11.1,0,20.2-9.1,20.2-20.2S49.1,14.2,38,14.2c-11.1,0-20.2,9.1-20.2,20.2S26.9,54.5,38,54.5z"/>
		
			<linearGradient id="SVGID_00000005243752474053120530000008283728568338983320_" gradientUnits="userSpaceOnUse" x1="27.0875" y1="23.4051" x2="47.9887" y2="44.3063">
			<stop  offset="0" style="stop-color:#B1D147"/>
			<stop  offset="1" style="stop-color:#72A23F"/>
		</linearGradient>
		<path style="fill-rule:evenodd;clip-rule:evenodd;fill:url(#SVGID_00000005243752474053120530000008283728568338983320_);" d="
			M37.7,53.3C48.3,53.3,57,44.7,57,34s-8.7-19.3-19.3-19.3c-10.6,0-19.3,8.7-19.3,19.3S27.1,53.3,37.7,53.3z"/>
		
			<linearGradient id="SVGID_00000136369802084601064660000003629826951794319536_" gradientUnits="userSpaceOnUse" x1="27.2136" y1="23.5312" x2="47.2787" y2="43.5963">
			<stop  offset="0" style="stop-color:#B0D047"/>
			<stop  offset="1" style="stop-color:#74A53F"/>
		</linearGradient>
		<path style="fill-rule:evenodd;clip-rule:evenodd;fill:url(#SVGID_00000136369802084601064660000003629826951794319536_);" d="
			M37.4,52.2c10.1,0,18.4-8.3,18.4-18.4s-8.3-18.4-18.4-18.4C27.3,15.3,19,23.6,19,33.7S27.3,52.2,37.4,52.2z"/>
		
			<linearGradient id="SVGID_00000114033658399118976220000016846847818607419834_" gradientUnits="userSpaceOnUse" x1="27.346" y1="23.6636" x2="46.5647" y2="42.8823">
			<stop  offset="0" style="stop-color:#B0D047"/>
			<stop  offset="1" style="stop-color:#77A83F"/>
		</linearGradient>
		<path style="fill-rule:evenodd;clip-rule:evenodd;fill:url(#SVGID_00000114033658399118976220000016846847818607419834_);" d="
			M37.1,51c9.7,0,17.5-7.9,17.5-17.5s-7.9-17.5-17.5-17.5c-9.7,0-17.5,7.9-17.5,17.5S27.5,51,37.1,51z"/>
		
			<linearGradient id="SVGID_00000053525153950396210960000004518426439524358018_" gradientUnits="userSpaceOnUse" x1="27.4848" y1="23.8024" x2="45.8466" y2="42.1642">
			<stop  offset="0" style="stop-color:#AFD047"/>
			<stop  offset="1" style="stop-color:#79AB3F"/>
		</linearGradient>
		<path style="fill-rule:evenodd;clip-rule:evenodd;fill:url(#SVGID_00000053525153950396210960000004518426439524358018_);" d="
			M36.9,49.8c9.2,0,16.7-7.5,16.7-16.7S46,16.5,36.9,16.5c-9.2,0-16.7,7.5-16.7,16.7S27.7,49.8,36.9,49.8z"/>
		
			<linearGradient id="SVGID_00000019668761501311940360000017577372258584411316_" gradientUnits="userSpaceOnUse" x1="27.6299" y1="23.9475" x2="45.1245" y2="41.4421">
			<stop  offset="0" style="stop-color:#AECF47"/>
			<stop  offset="1" style="stop-color:#7CAE40"/>
		</linearGradient>
		<path style="fill-rule:evenodd;clip-rule:evenodd;fill:url(#SVGID_00000019668761501311940360000017577372258584411316_);" d="
			M36.6,48.7c8.7,0,15.8-7.1,15.8-15.8s-7.1-15.8-15.8-15.8c-8.7,0-15.8,7.1-15.8,15.8S27.9,48.7,36.6,48.7z"/>
		
			<linearGradient id="SVGID_00000183946186117770439820000008699599222838557086_" gradientUnits="userSpaceOnUse" x1="27.7814" y1="24.099" x2="44.3983" y2="40.7158">
			<stop  offset="0" style="stop-color:#AECF47"/>
			<stop  offset="1" style="stop-color:#7FB140"/>
		</linearGradient>
		<path style="fill-rule:evenodd;clip-rule:evenodd;fill:url(#SVGID_00000183946186117770439820000008699599222838557086_);" d="
			M36.3,47.5c8.2,0,14.9-6.7,14.9-14.9s-6.7-14.9-14.9-14.9c-8.2,0-14.9,6.7-14.9,14.9S28.1,47.5,36.3,47.5z"/>
		
			<linearGradient id="SVGID_00000177467863273276199000000012487242373299933617_" gradientUnits="userSpaceOnUse" x1="27.9392" y1="24.2568" x2="43.668" y2="39.9856">
			<stop  offset="0" style="stop-color:#ADCF47"/>
			<stop  offset="1" style="stop-color:#82B440"/>
		</linearGradient>
		<path style="fill-rule:evenodd;clip-rule:evenodd;fill:url(#SVGID_00000177467863273276199000000012487242373299933617_);" d="
			M36,46.4c7.7,0,14.1-6.3,14.1-14s-6.3-14-14.1-14c-7.7,0-14,6.3-14,14S28.2,46.4,36,46.4z"/>
		
			<linearGradient id="SVGID_00000055699319491461765600000010822965943765158036_" gradientUnits="userSpaceOnUse" x1="28.1035" y1="24.421" x2="42.9336" y2="39.2512">
			<stop  offset="0" style="stop-color:#ADCE46"/>
			<stop  offset="1" style="stop-color:#85B841"/>
		</linearGradient>
		<path style="fill-rule:evenodd;clip-rule:evenodd;fill:url(#SVGID_00000055699319491461765600000010822965943765158036_);" d="
			M35.7,45.2c7.3,0,13.2-5.9,13.2-13.2S43,18.8,35.7,18.8c-7.3,0-13.2,5.9-13.2,13.2S28.4,45.2,35.7,45.2z"/>
	</g>
</g>
</svg>
