<?xml version="1.0" encoding="utf-8"?>
<!-- Generator: Adobe Illustrator 27.5.0, SVG Export Plug-In . SVG Version: 6.00 Build 0)  -->
<svg version="1.1" id="Layer_1" xmlns="http://www.w3.org/2000/svg" xmlns:xlink="http://www.w3.org/1999/xlink" x="0px" y="0px"
	 viewBox="0 0 2353.5 1214.9" style="enable-background:new 0 0 2353.5 1214.9;" xml:space="preserve">
<style type="text/css">
	.st0{opacity:0.1;}
	.st1{fill:#B5AFA8;}
</style>
<g class="st0">
	<path class="st1" d="M807.8,588.6c0,0-0.9,0.4-2.7,1.2c-0.9,0.4-1.9,0.9-3.2,1.4c-0.6,0.3-1.3,0.6-2,0.9c-0.8,0.3-1.6,0.6-2.5,0.9
		c-1.7,0.6-3.7,1.4-5.8,2.1c-2.3,0.6-4.7,1.3-7.3,2.1c-2.6,0.8-5.7,1.3-8.6,2.1c-1.5,0.4-3.2,0.6-4.9,0.9c-1.7,0.3-3.4,0.6-5.1,0.9
		c-1.8,0.3-3.7,0.4-5.5,0.7c-1.9,0.2-3.7,0.6-5.8,0.7c-4,0.2-8.1,0.7-12.4,0.7c-8.6,0.4-17.6-0.2-26.8-1c-2.3-0.3-4.5-0.6-6.8-0.8
		c-2.3-0.3-4.5-0.8-6.7-1.1l-3.4-0.6l-3.2-0.8c-2.2-0.5-4.5-1-6.6-1.5c-8.6-2.3-16.4-5.4-23.8-8.8v0l-1.1,0.6l-99.8-49.9l101.5-50.8
		l-90.8-45.4L280.5,590l49.4,24.7l36.1,18.1l0,0l5.3,2.7l101.5-50.7l101.5,50.7l0.8-0.4c15.7,7.5,33.2,14.1,52.2,19.2
		c4.9,1.3,10,2.4,15,3.6c2.5,0.6,5,1.1,7.5,1.7c2.6,0.5,5.2,0.9,7.7,1.4c5.2,0.9,10.2,1.9,15.4,2.6c5.2,0.7,10.4,1.3,15.6,1.9
		c20.7,2,41.3,3,60.7,2.3c9.7-0.1,19-1,28.1-1.6c4.5-0.3,8.9-1,13.1-1.4c4.3-0.5,8.5-1,12.6-1.6c32.5-5,57.2-12.5,72.6-18.6
		c2-0.7,3.9-1.4,5.6-2.1c1.7-0.7,3.2-1.4,4.6-2c2.8-1.3,5.3-2.4,7.2-3.3c3.9-1.8,6-2.7,6-2.7"/>
	<path class="st1" d="M898.8,634c0,0,0.9-0.4,2.7-1.2c0.9-0.4,1.9-0.9,3.2-1.4c0.6-0.3,1.3-0.6,2-0.9c0.8-0.3,1.6-0.6,2.5-0.9
		c1.7-0.6,3.6-1.3,5.7-2.1c2.3-0.6,4.7-1.3,7.2-2.1c2.6-0.8,5.6-1.3,8.6-2.1c1.5-0.4,3.2-0.6,4.8-0.9c1.7-0.3,3.4-0.6,5.1-0.9
		c1.7-0.3,3.6-0.4,5.5-0.7c1.9-0.2,3.7-0.6,5.7-0.7c4-0.2,8-0.7,12.3-0.7c8.5-0.4,17.5,0.2,26.5,1c2.2,0.3,4.5,0.6,6.8,0.8
		c2.3,0.3,4.4,0.8,6.7,1.1l3.4,0.6l3.2,0.8c2.1,0.5,4.4,0.9,6.5,1.5c8.5,2.3,16.2,5.4,23.5,8.7l0,0l108.8,53.9
		c-0.3,0.3-0.7,0.6-1,0.9c-2.7,2.4-4.8,4.9-7.2,7.4c-1.1,1.2-2.3,2.5-3.4,3.7c-0.9,1.3-1.9,2.5-2.8,3.8c-1.7,2.6-3.7,5.1-5.1,7.6
		c-1.3,2.6-2.6,5.1-3.8,7.7c-4.1,10.2-6,20.4-4.5,29.9c0.2,4.8,1.9,9.4,3.2,13.8c0.6,2.2,1.9,4.4,2.9,6.5c1.1,2.1,2,4.2,3.2,6.2
		c5.2,8.3,11.7,15.5,18.4,21.6l-107.8,53.4l-0.7-0.3c0,0-0.9,0.4-2.7,1.2c-0.9,0.4-1.9,0.9-3.2,1.5c-0.6,0.3-1.3,0.6-2,0.9
		c-0.8,0.3-1.6,0.6-2.5,0.9c-1.7,0.6-3.7,1.4-5.8,2.1c-2.3,0.6-4.7,1.3-7.3,2.1c-2.6,0.8-5.7,1.3-8.7,2.1c-1.5,0.4-3.2,0.6-4.9,0.9
		c-1.7,0.3-3.4,0.6-5.1,0.9c-1.8,0.3-3.7,0.4-5.5,0.7c-1.9,0.2-3.8,0.6-5.8,0.7c-4,0.2-8.1,0.7-12.4,0.7c-8.6,0.4-17.6-0.2-26.8-1
		c-2.3-0.3-4.5-0.6-6.8-0.8c-2.3-0.3-4.5-0.8-6.7-1.1l-3.4-0.6l-3.3-0.8c-2.1-0.5-4.5-0.9-6.6-1.5c-8.6-2.3-16.4-5.4-23.8-8.8l0,0
		l0,0c-16.2-7.8-34.3-14.7-54-20c-4.9-1.3-10-2.4-15-3.6c-2.5-0.6-5-1.1-7.5-1.7c-2.6-0.5-5.2-0.9-7.7-1.4
		c-5.2-0.9-10.2-1.9-15.4-2.6c-5.2-0.7-10.4-1.3-15.6-1.9c-20.7-2-41.3-3-60.7-2.3c-9.7,0.1-19,1-28.1,1.6c-4.5,0.3-8.9,1-13.2,1.4
		c-4.3,0.5-8.5,1-12.6,1.6c-32.5,5-57.2,12.5-72.6,18.6c-2,0.7-3.8,1.4-5.6,2.1c-1.7,0.7-3.2,1.4-4.6,2c-2.8,1.3-5.3,2.4-7.2,3.3
		c-2.2,1-3.8,1.8-4.8,2.2l-0.1,0L277.7,997.1l5.4,2.7l0,0l0.4,0.2L0,1141.7l5.4,2.7l0,0l29.4,14.7l20.3,10.1l0,0l5.4,2.7l0,0
		l29.8,14.9l56.1,28.1l295.3-147.6l-5.4-2.7l0,0l-21-10.5l221.9-111l-5.4-2.7l0,0l-29.1-14.5l60.5-30.2l0.1,0c0,0,0.9-0.4,2.7-1.2
		c0.9-0.4,1.9-0.9,3.2-1.5c0.6-0.3,1.3-0.6,2-0.9c0.8-0.3,1.6-0.6,2.5-0.9c1.7-0.6,3.7-1.4,5.8-2.1c2.3-0.6,4.7-1.3,7.3-2.1
		c2.6-0.8,5.7-1.3,8.7-2.1c1.5-0.4,3.2-0.6,4.9-0.9c1.7-0.3,3.4-0.6,5.1-0.9c1.8-0.3,3.7-0.4,5.5-0.7c1.9-0.2,3.7-0.6,5.8-0.7
		c4-0.2,8.1-0.7,12.4-0.7c8.6-0.4,17.6,0.2,26.8,1c2.3,0.3,4.5,0.6,6.9,0.8c2.3,0.3,4.5,0.8,6.7,1.2l3.4,0.6l3.3,0.8
		c2.2,0.5,4.5,0.9,6.6,1.6c8.6,2.3,16.4,5.4,23.8,8.8h0l0,0h0c16.2,7.8,34.3,14.7,54,20c4.9,1.3,10,2.4,15,3.6
		c2.5,0.6,5,1.1,7.5,1.7c2.6,0.5,5.2,0.9,7.7,1.4c5.2,0.9,10.2,1.9,15.4,2.6c5.2,0.7,10.4,1.3,15.6,1.9c20.8,2,41.3,3,60.7,2.3
		c9.7-0.1,19-1,28.1-1.6c4.5-0.3,8.8-1,13.1-1.4c4.3-0.5,8.5-1,12.6-1.6c32.5-5,57.2-12.5,72.6-18.7c2-0.7,3.9-1.4,5.6-2.1
		c1.7-0.7,3.2-1.4,4.6-2c2.8-1.3,5.3-2.4,7.2-3.3c3.9-1.8,6-2.7,6-2.7l-0.1-0.1l108.2-53.6c12.4,3.3,27,6.6,43.7,9.1
		c4,0.6,8.3,1.1,12.5,1.6c4.3,0.5,8.6,1.1,13.1,1.4c9,0.6,18.3,1.5,27.9,1.6c19.3,0.7,39.8-0.2,60.4-2.2c5.1-0.6,10.3-1.2,15.5-1.9
		c5.2-0.7,10.2-1.7,15.4-2.5c2.6-0.5,5.1-0.9,7.7-1.4c2.5-0.6,5-1.1,7.5-1.7c5-1.2,10.1-2.2,14.9-3.6c0.6-0.2,1.2-0.3,1.8-0.5
		l109.4,54.2l0,0c0.4,0.2,0.9,0.5,1.6,0.9c0.8,0.4,1.8,1,2.9,1.6c0.6,0.3,1.2,0.6,1.8,1c0.6,0.4,1.1,0.8,1.8,1.3
		c1.3,0.9,2.7,1.8,4.3,2.9c1.3,1.1,2.7,2.3,4.2,3.6c1.5,1.3,2.6,2.8,4.1,4.3c0.9,0.7,1.2,1.6,1.8,2.4c0.6,0.8,1.2,1.7,1.8,2.5
		c0.6,0.9,0.8,1.8,1.3,2.8c0.4,0.9,1.2,1.9,1.3,2.9c0.4,2,1.5,4,1.4,6.2c0.8,4.3-0.3,8.8-1.9,13.3c-0.6,1.1-1.1,2.3-1.6,3.4
		c-0.5,1.1-1.6,2.2-2.3,3.3l-1.1,1.7l-1.6,1.6c-1.1,1.1-1.9,2.2-3.1,3.3c-4.6,4.3-10.7,8.1-17.5,11.8h0l0,0l-49.9,24.9l-0.2-0.1
		L1227,1138.1l5.3,2.7l0,0l29,14.5l56.1,28l283.7-141.8l0.4,0.2l58.6-29.3h0L1894.9,895l-0.1-0.1c0.6-0.3,1.2-0.5,1.8-0.8
		c0.6-0.3,1.2-0.6,2-0.9c0.8-0.3,1.6-0.6,2.5-0.9c1.7-0.6,3.6-1.3,5.7-2.1c2.3-0.6,4.7-1.3,7.2-2.1c2.6-0.7,5.6-1.3,8.5-2
		c1.5-0.4,3.2-0.6,4.8-0.9c1.7-0.3,3.3-0.6,5.1-0.9c1.7-0.3,3.6-0.4,5.5-0.7c1.9-0.2,3.7-0.6,5.7-0.7c4-0.2,8-0.7,12.2-0.7
		c8.4-0.4,17.4,0.2,26.4,1c2.2,0.3,4.5,0.6,6.8,0.8c2.3,0.3,4.4,0.8,6.6,1.1l3.4,0.6l3.2,0.8c2.1,0.5,4.4,0.9,6.5,1.5
		c8.5,2.3,16.2,5.3,23.5,8.7h0l0,0h0c16,7.7,33.8,14.5,53.3,19.8c4.8,1.3,9.9,2.4,14.8,3.6c2.5,0.6,5,1.1,7.4,1.7
		c2.6,0.5,5.1,0.9,7.6,1.4c5.1,0.9,10.1,1.8,15.2,2.5c5.1,0.7,10.3,1.3,15.4,1.9c20.5,2,40.8,3,59.9,2.2c9.6-0.1,18.8-1,27.7-1.6
		c4.5-0.3,8.7-1,13-1.4c4.2-0.5,8.4-1,12.4-1.6c32.1-5,56.4-12.3,71.7-18.4c2-0.7,3.8-1.4,5.5-2.1c1.7-0.7,3.2-1.4,4.6-2
		c2.8-1.3,5.2-2.3,7.1-3.2c3.8-1.8,5.9-2.7,5.9-2.7l-5.3-2.6h0l-79.4-39.7c0,0,0,0,0,0l-5.3-2.6c0,0-0.9,0.4-2.7,1.2
		c-0.9,0.4-1.9,0.9-3.2,1.4c-0.6,0.3-1.2,0.6-2,0.9c-0.8,0.3-1.6,0.6-2.5,0.9c-1.7,0.6-3.6,1.3-5.7,2.1c-2.3,0.6-4.7,1.3-7.2,2.1
		c-2.6,0.7-5.6,1.3-8.5,2c-1.4,0.4-3.2,0.6-4.8,0.9c-1.7,0.3-3.3,0.6-5.1,0.9c-1.7,0.3-3.6,0.4-5.5,0.7c-1.9,0.2-3.7,0.6-5.7,0.7
		c-4,0.2-8,0.7-12.2,0.7c-8.4,0.4-17.4-0.2-26.4-1c-2.2-0.3-4.5-0.6-6.8-0.8c-2.3-0.3-4.4-0.8-6.7-1.1l-3.4-0.6l-3.2-0.8
		c-2.1-0.5-4.4-0.9-6.5-1.5c-8.5-2.3-16.2-5.3-23.4-8.7l0,0l0,0c-16-7.7-33.8-14.5-53.3-19.8c-4.8-1.3-9.9-2.4-14.8-3.6
		c-2.5-0.6-5-1.1-7.4-1.7c-2.6-0.5-5.1-0.9-7.6-1.4c-5.1-0.9-10.1-1.8-15.2-2.5c-5.1-0.7-10.3-1.3-15.4-1.9c-20.5-2-40.8-3-59.9-2.2
		c-9.6,0.1-18.8,1-27.7,1.6c-4.5,0.3-8.7,0.9-13,1.4c-4.2,0.5-8.4,1-12.4,1.6c-32,5-56.4,12.4-71.7,18.4c-2,0.7-3.8,1.4-5.5,2.1
		c-1.7,0.7-3.2,1.4-4.6,2c-2.8,1.3-5.2,2.3-7.1,3.2c-0.7,0.3-1.3,0.6-1.9,0.9l-0.4-0.2l-89.5,44.7c-9.8-14.2-23.3-25.2-34.4-32.2
		c-1.5-1-2.9-1.9-4.2-2.8c-1.4-0.8-2.8-1.6-4-2.3c-2.5-1.4-4.7-2.6-6.5-3.6c-3.6-1.9-5.4-3-5.4-3l-0.3,0.2L1551.6,797
		c0.3-0.3,0.7-0.6,1-0.9c2.7-2.4,4.8-4.9,7.2-7.4c1.1-1.2,2.3-2.5,3.4-3.7c0.9-1.3,1.9-2.5,2.8-3.8c1.7-2.6,3.7-5.1,5.1-7.6
		c1.3-2.6,2.6-5.1,3.8-7.7c4.1-10.2,6-20.4,4.5-29.9c-0.2-4.8-1.9-9.4-3.2-13.8c-0.6-2.2-1.9-4.4-2.9-6.5c-1.1-2.1-2-4.2-3.2-6.2
		c-5.2-8.3-11.7-15.5-18.4-21.6l11.5-5.7l0,0l16-8l81.8-40.5l-0.1-0.1l60-29.8c15.5-8,29.2-17,39.8-26.8c2.7-2.4,4.8-5,7.2-7.4
		c1.1-1.2,2.2-2.5,3.4-3.7c0.9-1.3,1.8-2.6,2.8-3.8c1.7-2.6,3.7-5.1,5.1-7.7c1.3-2.6,2.6-5.2,3.8-7.7c4-10.3,5.9-20.5,4.5-30.1
		c-0.2-4.8-1.9-9.4-3.2-13.9c-0.6-2.2-1.9-4.4-2.9-6.5c-1.1-2.1-2-4.2-3.2-6.2c-10-16.1-24.8-28.4-37-36c-1.5-1-2.9-1.9-4.2-2.8
		c-1.4-0.8-2.8-1.6-4-2.3c-2.5-1.4-4.7-2.6-6.5-3.6c-3.5-1.9-5.4-3-5.4-3h0l-293-146.5l-0.1,0l-89-44.5
		c28.4-4.9,50.2-11.6,64.2-17.2c2-0.7,3.8-1.4,5.6-2.1c1.7-0.7,3.2-1.4,4.6-2c2.8-1.3,5.2-2.3,7.2-3.2c2.8-1.3,4.6-2.1,5.4-2.5
		l0.2,0.1l292.4-146.2l-0.1-0.1c0.4-0.2,1.1-0.5,1.9-0.8c0.9-0.4,1.9-0.9,3.2-1.4c0.6-0.3,1.3-0.6,2-0.9c0.8-0.3,1.6-0.6,2.5-0.9
		c1.7-0.6,3.6-1.3,5.7-2.1c2.3-0.6,4.7-1.3,7.2-2.1c2.6-0.7,5.6-1.3,8.5-2c1.5-0.4,3.2-0.6,4.8-0.9c1.7-0.3,3.4-0.6,5.1-0.9
		c1.7-0.3,3.6-0.4,5.5-0.7c1.9-0.2,3.7-0.6,5.7-0.7c4-0.2,8-0.7,12.2-0.7c8.5-0.4,17.4,0.2,26.5,1c2.2,0.3,4.5,0.6,6.8,0.8
		c2.3,0.3,4.4,0.8,6.7,1.1l3.4,0.6l3.2,0.8c2.1,0.5,4.4,0.9,6.5,1.5c8.5,2.3,16.2,5.3,23.5,8.7l81.2-40.6l3.7-1.8h0l5.3-2.6h0
		c-16-7.7-33.9-14.6-53.3-19.8c-4.8-1.3-9.9-2.4-14.8-3.6c-2.5-0.6-5-1.1-7.4-1.7c-2.6-0.5-5.1-0.9-7.6-1.4
		c-5.1-0.9-10.1-1.8-15.3-2.5c-5.1-0.7-10.3-1.3-15.4-1.9c-20.5-2-40.8-3-59.9-2.2c-9.6,0.1-18.8,1-27.7,1.6c-4.5,0.3-8.7,1-13,1.4
		c-4.2,0.5-8.4,1-12.4,1.6c-32.1,5-56.5,12.4-71.7,18.4c-2,0.7-3.8,1.4-5.5,2.1c-1.7,0.7-3.2,1.4-4.6,2c-2.8,1.3-5.2,2.3-7.1,3.2
		c-2.4,1.1-4.2,1.9-5.1,2.3l-0.1,0l-292,146l-0.1-0.1c0,0-0.9,0.4-2.7,1.2c-0.9,0.4-1.9,0.9-3.2,1.4c-0.6,0.3-1.2,0.6-2,0.9
		c-0.8,0.3-1.6,0.6-2.5,0.9c-1.7,0.6-3.6,1.3-5.7,2.1c-2.3,0.6-4.7,1.3-7.2,2.1c-2.6,0.7-5.6,1.3-8.6,2c-1.5,0.4-3.2,0.6-4.8,0.9
		c-1.7,0.3-3.4,0.6-5.1,0.9c-1.8,0.3-3.6,0.4-5.5,0.7c-1.9,0.2-3.7,0.6-5.7,0.7c-4,0.2-8,0.7-12.3,0.7c-8.5,0.4-17.5-0.2-26.5-1
		c-2.2-0.3-4.5-0.6-6.8-0.8c-2.3-0.3-4.4-0.8-6.7-1.1l-3.4-0.6l-3.2-0.8c-2.1-0.5-4.4-0.9-6.5-1.5c-8.5-2.3-16.2-5.3-23.5-8.7h0h0
		l-57.5-28.7l0,0h0c-0.1-0.1-0.3-0.1-0.4-0.2l-0.6-0.3l0,0c-15.8-7.6-33.4-14.2-52.5-19.4c-4.8-1.3-9.9-2.4-14.9-3.6
		c-2.5-0.6-5-1.1-7.5-1.7c-2.6-0.5-5.1-0.9-7.7-1.4c-5.1-0.9-10.1-1.9-15.3-2.5c-5.2-0.7-10.3-1.3-15.4-1.9c-20.5-2-40.9-3-60.1-2.2
		c-9.6,0.1-18.9,1-27.8,1.6c-4.5,0.3-8.8,1-13,1.4c-4.2,0.5-8.4,1-12.4,1.6c-32.2,5-56.6,12.4-71.9,18.5c-2,0.7-3.8,1.4-5.6,2.1
		c-1.7,0.7-3.2,1.4-4.6,2c-1.6,0.7-3,1.4-4.3,1.9l-0.3-0.1l-6.6,3.3c-1.2,0.5-1.8,0.8-1.8,0.8l0.1,0L530.3,292
		c-0.3,0.1-0.6,0.2-0.8,0.3c-1.7,0.6-3.6,1.3-5.7,2.1c-2.3,0.6-4.7,1.3-7.2,2.1c-2.6,0.7-5.6,1.3-8.5,2c-1.4,0.4-3.2,0.6-4.8,0.9
		c-1.7,0.3-3.3,0.6-5.1,0.9c-1.7,0.3-3.6,0.4-5.5,0.7c-1.9,0.2-3.7,0.6-5.7,0.7c-4,0.2-8,0.7-12.2,0.7c-8.4,0.4-17.4-0.2-26.4-1
		c-2.2-0.3-4.5-0.6-6.8-0.8c-2.3-0.3-4.4-0.8-6.7-1.1l-3.4-0.6l-3.2-0.8c-2.1-0.5-4.4-0.9-6.5-1.5c-8.5-2.3-16.2-5.3-23.4-8.7l0,0
		l0,0c-16-7.7-33.8-14.5-53.3-19.8c-4.8-1.3-9.9-2.4-14.8-3.6c-2.5-0.6-5-1.1-7.4-1.7c-2.6-0.5-5.1-0.9-7.6-1.4
		c-5.1-0.9-10.1-1.8-15.2-2.5c-5.1-0.7-10.3-1.3-15.4-1.9c-20.5-2-40.8-3-59.9-2.2c-9.6,0.1-18.8,1-27.7,1.6
		c-4.5,0.3-8.7,0.9-13,1.4c-4.2,0.5-8.4,1-12.4,1.6c-32,5-56.4,12.4-71.7,18.4c-2,0.7-3.8,1.4-5.5,2.1c-1.7,0.7-3.2,1.4-4.6,2
		c-2.8,1.3-5.2,2.3-7.1,3.2c-3.8,1.8-5.9,2.7-5.9,2.7l5.3,2.6c0,0,0,0,0,0l79.5,39.7c0,0,0,0,0,0l5.3,2.6c0,0,0.9-0.4,2.7-1.2
		c0.9-0.4,1.9-0.9,3.2-1.4c0.6-0.3,1.2-0.6,2-0.9c0.8-0.3,1.6-0.6,2.5-0.9c1.7-0.6,3.6-1.3,5.7-2.1c2.3-0.6,4.7-1.3,7.2-2.1
		c2.6-0.7,5.6-1.3,8.5-2c1.4-0.4,3.2-0.6,4.8-0.9c1.7-0.3,3.3-0.6,5.1-0.9c1.7-0.3,3.6-0.4,5.5-0.7c1.9-0.2,3.7-0.6,5.7-0.7
		c4-0.2,8-0.7,12.2-0.7c8.4-0.4,17.4,0.2,26.4,1c2.2,0.3,4.5,0.6,6.8,0.8c2.3,0.3,4.4,0.8,6.6,1.1l3.4,0.6l3.2,0.8
		c2.1,0.5,4.4,0.9,6.5,1.5c8.5,2.3,16.2,5.3,23.5,8.7h0l0,0h0c16,7.7,33.8,14.5,53.3,19.8c4.8,1.3,9.9,2.4,14.8,3.6
		c2.5,0.6,5,1.1,7.4,1.7c2.6,0.5,5.1,0.9,7.6,1.4c5.1,0.9,10.1,1.8,15.2,2.5c5.1,0.7,10.3,1.3,15.4,1.9c20.5,2,40.8,3,59.9,2.2
		c9.6-0.1,18.8-1,27.7-1.6c4.5-0.3,8.7-1,13-1.4c4.2-0.5,8.4-1,12.4-1.6c32.1-5,56.4-12.3,71.7-18.4c2-0.7,3.8-1.4,5.5-2.1
		c1.7-0.7,3.2-1.4,4.6-2c1.3-0.6,2.4-1.1,3.5-1.6l0.1,0.1l2.4-1.2c0.4-0.2,0.7-0.3,1.1-0.5c3.8-1.8,5.9-2.7,5.9-2.7l-0.3-0.1
		l276.2-138.1c0.4-0.2,0.9-0.4,1.4-0.6c0.9-0.4,1.9-0.9,3.2-1.4c0.6-0.3,1.3-0.6,2-0.9c0.8-0.3,1.6-0.6,2.5-0.9
		c1.7-0.6,3.6-1.3,5.7-2.1c2.3-0.6,4.7-1.3,7.2-2.1c2.6-0.8,5.6-1.3,8.6-2.1c1.5-0.4,3.2-0.6,4.8-0.9c1.7-0.3,3.4-0.6,5.1-0.9
		c1.7-0.3,3.6-0.4,5.5-0.7c1.9-0.2,3.7-0.6,5.7-0.7c4-0.2,8-0.7,12.3-0.7c8.5-0.4,17.5,0.2,26.5,1c2.2,0.3,4.5,0.6,6.8,0.8
		c2.3,0.3,4.4,0.8,6.7,1.1l3.4,0.6l3.2,0.8c2.1,0.5,4.4,0.9,6.5,1.5c8.4,2.3,16,5.3,23.2,8.6l57.8,28.9h0l233.8,116.9l-0.1,0.1
		l293,146.5l0,0c0,0,0.8,0.5,2.3,1.4c0.8,0.4,1.7,1,2.9,1.6c0.6,0.3,1.2,0.6,1.8,1c0.6,0.4,1.1,0.8,1.8,1.2c1.3,0.9,2.7,1.8,4.2,2.9
		c1.3,1.1,2.7,2.3,4.2,3.6c1.5,1.3,2.6,2.8,4.1,4.3c0.9,0.7,1.2,1.6,1.8,2.4c0.6,0.8,1.2,1.7,1.8,2.6c0.6,0.9,0.8,1.8,1.3,2.7
		c0.4,0.9,1.1,1.9,1.3,2.9c0.4,2,1.5,4,1.4,6.1c0.8,4.2-0.3,8.8-1.9,13.3c-0.6,1.1-1.1,2.2-1.6,3.4c-0.5,1.1-1.6,2.2-2.3,3.3
		l-1.1,1.7l-1.6,1.6c-1.1,1.1-1.9,2.2-3.1,3.3c-4.6,4.3-10.7,8.1-17.5,11.8l-157.7,78.4l0.1,0l-12,5.9c-12.4-3.3-27-6.6-43.7-9.1
		c-4-0.6-8.3-1.1-12.5-1.6c-4.3-0.5-8.6-1.1-13.1-1.4c-9-0.6-18.3-1.5-27.9-1.6c-19.3-0.7-39.8,0.2-60.4,2.2
		c-5.1,0.6-10.3,1.2-15.5,1.9c-5.2,0.7-10.2,1.7-15.4,2.5c-2.6,0.5-5.1,0.9-7.7,1.4c-2.5,0.6-5,1.1-7.5,1.7
		c-5,1.2-10.1,2.2-14.9,3.6c-0.6,0.2-1.2,0.3-1.8,0.5l-109.4-54.2l-0.1,0.1c-16-7.7-33.8-14.5-53.2-19.7c-4.8-1.3-9.9-2.4-14.9-3.6
		c-2.5-0.6-5-1.1-7.5-1.7c-2.6-0.5-5.1-0.9-7.7-1.4c-5.1-0.9-10.1-1.9-15.3-2.5c-5.2-0.7-10.3-1.3-15.4-1.9c-20.5-2-40.9-3-60.1-2.2
		c-9.6,0.1-18.9,1-27.8,1.6c-4.5,0.3-8.8,1-13,1.4c-4.2,0.5-8.4,1-12.4,1.6c-32.2,5-56.6,12.4-71.9,18.5c-2,0.7-3.8,1.4-5.6,2.1
		c-1.7,0.7-3.2,1.4-4.6,2c-2.8,1.3-5.2,2.3-7.2,3.2c-3.8,1.8-5.9,2.7-5.9,2.7 M1449.1,752.8c-0.6,1.1-1.1,2.2-1.6,3.4
		c-0.5,1.1-1.6,2.2-2.3,3.3l-1.1,1.7l-1.6,1.6c-1.1,1.1-1.9,2.2-3.1,3.2c-4.6,4.2-10.8,8.1-17.5,11.7c-7.3,3.4-15.1,6.4-23.7,8.7
		c-2.1,0.6-4.4,1-6.6,1.5l-3.2,0.8l-3.4,0.6c-2.3,0.3-4.4,0.9-6.7,1.1c-2.3,0.3-4.6,0.5-6.8,0.8c-9.1,0.8-18.1,1.4-26.7,1
		c-4.3,0.1-8.3-0.5-12.3-0.7c-2-0.1-3.9-0.5-5.7-0.7c-1.9-0.2-3.7-0.4-5.5-0.7c-1.7-0.3-3.4-0.6-5.1-0.9c-1.7-0.3-3.4-0.5-4.8-0.9
		c-3-0.8-6-1.3-8.6-2c-2.5-0.8-5-1.5-7.2-2.1c-2.1-0.8-4-1.5-5.8-2.1c-0.9-0.3-1.7-0.6-2.5-0.9c-0.7-0.3-1.4-0.6-2-0.9
		c-1.3-0.6-2.3-1-3.2-1.4c-1.8-0.8-2.7-1.2-2.7-1.2s-0.8-0.5-2.3-1.3c-0.8-0.4-1.8-1-2.9-1.6c-0.6-0.3-1.2-0.6-1.9-1
		c-0.6-0.4-1.1-0.8-1.8-1.2c-1.3-0.9-2.7-1.8-4.3-2.8c-1.3-1.1-2.7-2.3-4.3-3.6c-1.5-1.3-2.6-2.8-4.1-4.3c-0.9-0.7-1.2-1.6-1.8-2.4
		c-0.6-0.8-1.2-1.7-1.8-2.5c-0.6-0.9-0.8-1.8-1.3-2.7c-0.4-0.9-1.2-1.9-1.3-2.8c-0.4-2-1.5-4-1.4-6.1c-0.8-4.2,0.3-8.7,1.9-13.2
		c0.6-1.1,1.1-2.2,1.6-3.4c0.5-1.1,1.6-2.2,2.3-3.3l1.1-1.7l1.6-1.6c1.1-1.1,1.9-2.2,3.1-3.2c4.6-4.2,10.8-8.1,17.5-11.7
		c7.3-3.4,15.1-6.4,23.7-8.7c2.1-0.6,4.4-1,6.5-1.5l3.3-0.8l3.4-0.6c2.3-0.3,4.4-0.9,6.7-1.1c2.3-0.3,4.6-0.5,6.8-0.8
		c9.1-0.8,18.1-1.4,26.7-1c4.3-0.1,8.3,0.5,12.3,0.7c2,0.1,3.9,0.5,5.8,0.7c1.9,0.3,3.7,0.4,5.5,0.7c1.7,0.3,3.4,0.6,5.1,0.9
		c1.7,0.3,3.4,0.5,4.9,0.9c3,0.8,6,1.3,8.6,2c2.6,0.8,5,1.5,7.3,2.1c2.1,0.8,4,1.5,5.8,2.1c0.9,0.3,1.7,0.6,2.5,0.9
		c0.7,0.3,1.4,0.6,2,0.9c1.3,0.6,2.3,1,3.2,1.4c1.8,0.8,2.7,1.2,2.7,1.2s0.8,0.5,2.3,1.3c0.8,0.4,1.8,1,2.9,1.6
		c0.6,0.3,1.2,0.6,1.8,1c0.6,0.4,1.1,0.8,1.8,1.2c1.3,0.9,2.7,1.8,4.3,2.9c1.3,1.1,2.7,2.3,4.2,3.6c1.5,1.3,2.6,2.8,4.1,4.3
		c0.9,0.7,1.2,1.6,1.8,2.4c0.6,0.8,1.2,1.7,1.8,2.5c0.6,0.9,0.8,1.8,1.3,2.7c0.4,0.9,1.2,1.9,1.3,2.8c0.4,2,1.5,4,1.4,6.1
		C1451.9,743.8,1450.7,748.3,1449.1,752.8z"/>
</g>
</svg>
